<?xml version="1.0" encoding="utf-8" standalone="no"?>
<!DOCTYPE svg PUBLIC "-//W3C//DTD SVG 1.1//EN"
  "http://www.w3.org/Graphics/SVG/1.1/DTD/svg11.dtd">
<svg xmlns:xlink="http://www.w3.org/1999/xlink" width="482.227625pt" height="996.937813pt" viewBox="0 0 482.227625 996.937813" xmlns="http://www.w3.org/2000/svg" version="1.1">
 <metadata>
  <rdf:RDF xmlns:dc="http://purl.org/dc/elements/1.1/" xmlns:cc="http://creativecommons.org/ns#" xmlns:rdf="http://www.w3.org/1999/02/22-rdf-syntax-ns#">
   <cc:Work>
    <dc:type rdf:resource="http://purl.org/dc/dcmitype/StillImage"/>
    <dc:date>2025-05-15T20:27:11.379221</dc:date>
    <dc:format>image/svg+xml</dc:format>
    <dc:creator>
     <cc:Agent>
      <dc:title>Matplotlib v3.9.1, https://matplotlib.org/</dc:title>
     </cc:Agent>
    </dc:creator>
   </cc:Work>
  </rdf:RDF>
 </metadata>
 <defs>
  <style type="text/css">*{stroke-linejoin: round; stroke-linecap: butt}</style>
 </defs>
 <g id="figure_1">
  <g id="patch_1">
   <path d="M -0 996.937813 
L 482.227625 996.937813 
L 482.227625 0 
L -0 0 
z
" style="fill: #ffffff"/>
  </g>
  <g id="axes_1">
   <g id="patch_2">
    <path d="M 84.427625 346.2 
L 475.027625 346.2 
L 475.027625 115.2 
L 84.427625 115.2 
z
" style="fill: #ffffff"/>
   </g>
   <g id="matplotlib.axis_1">
    <g id="xtick_1">
     <g id="line2d_1">
      <defs>
       <path id="m9a40e3c5e3" d="M 0 0 
L 0 3.5 
" style="stroke: #000000; stroke-width: 0.8"/>
      </defs>
      <g>
       <use xlink:href="#m9a40e3c5e3" x="102.18217" y="346.2" style="stroke: #000000; stroke-width: 0.8"/>
      </g>
     </g>
     <g id="text_1">
      <!-- 0 -->
      <g transform="translate(97.410295 364.597656) scale(0.15 -0.15)">
       <defs>
        <path id="DejaVuSans-30" d="M 2034 4250 
Q 1547 4250 1301 3770 
Q 1056 3291 1056 2328 
Q 1056 1369 1301 889 
Q 1547 409 2034 409 
Q 2525 409 2770 889 
Q 3016 1369 3016 2328 
Q 3016 3291 2770 3770 
Q 2525 4250 2034 4250 
z
M 2034 4750 
Q 2819 4750 3233 4129 
Q 3647 3509 3647 2328 
Q 3647 1150 3233 529 
Q 2819 -91 2034 -91 
Q 1250 -91 836 529 
Q 422 1150 422 2328 
Q 422 3509 836 4129 
Q 1250 4750 2034 4750 
z
" transform="scale(0.015625)"/>
       </defs>
       <use xlink:href="#DejaVuSans-30"/>
      </g>
     </g>
    </g>
    <g id="xtick_2">
     <g id="line2d_2">
      <g>
       <use xlink:href="#m9a40e3c5e3" x="161.363989" y="346.2" style="stroke: #000000; stroke-width: 0.8"/>
      </g>
     </g>
     <g id="text_2">
      <!-- 2 -->
      <g transform="translate(156.592114 364.597656) scale(0.15 -0.15)">
       <defs>
        <path id="DejaVuSans-32" d="M 1228 531 
L 3431 531 
L 3431 0 
L 469 0 
L 469 531 
Q 828 903 1448 1529 
Q 2069 2156 2228 2338 
Q 2531 2678 2651 2914 
Q 2772 3150 2772 3378 
Q 2772 3750 2511 3984 
Q 2250 4219 1831 4219 
Q 1534 4219 1204 4116 
Q 875 4013 500 3803 
L 500 4441 
Q 881 4594 1212 4672 
Q 1544 4750 1819 4750 
Q 2544 4750 2975 4387 
Q 3406 4025 3406 3419 
Q 3406 3131 3298 2873 
Q 3191 2616 2906 2266 
Q 2828 2175 2409 1742 
Q 1991 1309 1228 531 
z
" transform="scale(0.015625)"/>
       </defs>
       <use xlink:href="#DejaVuSans-32"/>
      </g>
     </g>
    </g>
    <g id="xtick_3">
     <g id="line2d_3">
      <g>
       <use xlink:href="#m9a40e3c5e3" x="220.545807" y="346.2" style="stroke: #000000; stroke-width: 0.8"/>
      </g>
     </g>
     <g id="text_3">
      <!-- 4 -->
      <g transform="translate(215.773932 364.597656) scale(0.15 -0.15)">
       <defs>
        <path id="DejaVuSans-34" d="M 2419 4116 
L 825 1625 
L 2419 1625 
L 2419 4116 
z
M 2253 4666 
L 3047 4666 
L 3047 1625 
L 3713 1625 
L 3713 1100 
L 3047 1100 
L 3047 0 
L 2419 0 
L 2419 1100 
L 313 1100 
L 313 1709 
L 2253 4666 
z
" transform="scale(0.015625)"/>
       </defs>
       <use xlink:href="#DejaVuSans-34"/>
      </g>
     </g>
    </g>
    <g id="xtick_4">
     <g id="line2d_4">
      <g>
       <use xlink:href="#m9a40e3c5e3" x="279.727625" y="346.2" style="stroke: #000000; stroke-width: 0.8"/>
      </g>
     </g>
     <g id="text_4">
      <!-- 6 -->
      <g transform="translate(274.95575 364.597656) scale(0.15 -0.15)">
       <defs>
        <path id="DejaVuSans-36" d="M 2113 2584 
Q 1688 2584 1439 2293 
Q 1191 2003 1191 1497 
Q 1191 994 1439 701 
Q 1688 409 2113 409 
Q 2538 409 2786 701 
Q 3034 994 3034 1497 
Q 3034 2003 2786 2293 
Q 2538 2584 2113 2584 
z
M 3366 4563 
L 3366 3988 
Q 3128 4100 2886 4159 
Q 2644 4219 2406 4219 
Q 1781 4219 1451 3797 
Q 1122 3375 1075 2522 
Q 1259 2794 1537 2939 
Q 1816 3084 2150 3084 
Q 2853 3084 3261 2657 
Q 3669 2231 3669 1497 
Q 3669 778 3244 343 
Q 2819 -91 2113 -91 
Q 1303 -91 875 529 
Q 447 1150 447 2328 
Q 447 3434 972 4092 
Q 1497 4750 2381 4750 
Q 2619 4750 2861 4703 
Q 3103 4656 3366 4563 
z
" transform="scale(0.015625)"/>
       </defs>
       <use xlink:href="#DejaVuSans-36"/>
      </g>
     </g>
    </g>
    <g id="xtick_5">
     <g id="line2d_5">
      <g>
       <use xlink:href="#m9a40e3c5e3" x="338.909443" y="346.2" style="stroke: #000000; stroke-width: 0.8"/>
      </g>
     </g>
     <g id="text_5">
      <!-- 8 -->
      <g transform="translate(334.137568 364.597656) scale(0.15 -0.15)">
       <defs>
        <path id="DejaVuSans-38" d="M 2034 2216 
Q 1584 2216 1326 1975 
Q 1069 1734 1069 1313 
Q 1069 891 1326 650 
Q 1584 409 2034 409 
Q 2484 409 2743 651 
Q 3003 894 3003 1313 
Q 3003 1734 2745 1975 
Q 2488 2216 2034 2216 
z
M 1403 2484 
Q 997 2584 770 2862 
Q 544 3141 544 3541 
Q 544 4100 942 4425 
Q 1341 4750 2034 4750 
Q 2731 4750 3128 4425 
Q 3525 4100 3525 3541 
Q 3525 3141 3298 2862 
Q 3072 2584 2669 2484 
Q 3125 2378 3379 2068 
Q 3634 1759 3634 1313 
Q 3634 634 3220 271 
Q 2806 -91 2034 -91 
Q 1263 -91 848 271 
Q 434 634 434 1313 
Q 434 1759 690 2068 
Q 947 2378 1403 2484 
z
M 1172 3481 
Q 1172 3119 1398 2916 
Q 1625 2713 2034 2713 
Q 2441 2713 2670 2916 
Q 2900 3119 2900 3481 
Q 2900 3844 2670 4047 
Q 2441 4250 2034 4250 
Q 1625 4250 1398 4047 
Q 1172 3844 1172 3481 
z
" transform="scale(0.015625)"/>
       </defs>
       <use xlink:href="#DejaVuSans-38"/>
      </g>
     </g>
    </g>
    <g id="xtick_6">
     <g id="line2d_6">
      <g>
       <use xlink:href="#m9a40e3c5e3" x="398.091261" y="346.2" style="stroke: #000000; stroke-width: 0.8"/>
      </g>
     </g>
     <g id="text_6">
      <!-- 10 -->
      <g transform="translate(388.547511 364.597656) scale(0.15 -0.15)">
       <defs>
        <path id="DejaVuSans-31" d="M 794 531 
L 1825 531 
L 1825 4091 
L 703 3866 
L 703 4441 
L 1819 4666 
L 2450 4666 
L 2450 531 
L 3481 531 
L 3481 0 
L 794 0 
L 794 531 
z
" transform="scale(0.015625)"/>
       </defs>
       <use xlink:href="#DejaVuSans-31"/>
       <use xlink:href="#DejaVuSans-30" x="63.623047"/>
      </g>
     </g>
    </g>
    <g id="xtick_7">
     <g id="line2d_7">
      <g>
       <use xlink:href="#m9a40e3c5e3" x="457.27308" y="346.2" style="stroke: #000000; stroke-width: 0.8"/>
      </g>
     </g>
     <g id="text_7">
      <!-- 12 -->
      <g transform="translate(447.72933 364.597656) scale(0.15 -0.15)">
       <use xlink:href="#DejaVuSans-31"/>
       <use xlink:href="#DejaVuSans-32" x="63.623047"/>
      </g>
     </g>
    </g>
    <g id="text_8">
     <!-- time [hr] -->
     <g transform="translate(234.653094 385.394375) scale(0.18 -0.18)">
      <defs>
       <path id="DejaVuSans-Bold-74" d="M 1759 4494 
L 1759 3500 
L 2913 3500 
L 2913 2700 
L 1759 2700 
L 1759 1216 
Q 1759 972 1856 886 
Q 1953 800 2241 800 
L 2816 800 
L 2816 0 
L 1856 0 
Q 1194 0 917 276 
Q 641 553 641 1216 
L 641 2700 
L 84 2700 
L 84 3500 
L 641 3500 
L 641 4494 
L 1759 4494 
z
" transform="scale(0.015625)"/>
       <path id="DejaVuSans-Bold-69" d="M 538 3500 
L 1656 3500 
L 1656 0 
L 538 0 
L 538 3500 
z
M 538 4863 
L 1656 4863 
L 1656 3950 
L 538 3950 
L 538 4863 
z
" transform="scale(0.015625)"/>
       <path id="DejaVuSans-Bold-6d" d="M 3781 2919 
Q 3994 3244 4286 3414 
Q 4578 3584 4928 3584 
Q 5531 3584 5847 3212 
Q 6163 2841 6163 2131 
L 6163 0 
L 5038 0 
L 5038 1825 
Q 5041 1866 5042 1909 
Q 5044 1953 5044 2034 
Q 5044 2406 4934 2573 
Q 4825 2741 4581 2741 
Q 4263 2741 4089 2478 
Q 3916 2216 3909 1719 
L 3909 0 
L 2784 0 
L 2784 1825 
Q 2784 2406 2684 2573 
Q 2584 2741 2328 2741 
Q 2006 2741 1831 2477 
Q 1656 2213 1656 1722 
L 1656 0 
L 531 0 
L 531 3500 
L 1656 3500 
L 1656 2988 
Q 1863 3284 2130 3434 
Q 2397 3584 2719 3584 
Q 3081 3584 3359 3409 
Q 3638 3234 3781 2919 
z
" transform="scale(0.015625)"/>
       <path id="DejaVuSans-Bold-65" d="M 4031 1759 
L 4031 1441 
L 1416 1441 
Q 1456 1047 1700 850 
Q 1944 653 2381 653 
Q 2734 653 3104 758 
Q 3475 863 3866 1075 
L 3866 213 
Q 3469 63 3072 -14 
Q 2675 -91 2278 -91 
Q 1328 -91 801 392 
Q 275 875 275 1747 
Q 275 2603 792 3093 
Q 1309 3584 2216 3584 
Q 3041 3584 3536 3087 
Q 4031 2591 4031 1759 
z
M 2881 2131 
Q 2881 2450 2695 2645 
Q 2509 2841 2209 2841 
Q 1884 2841 1681 2658 
Q 1478 2475 1428 2131 
L 2881 2131 
z
" transform="scale(0.015625)"/>
       <path id="DejaVuSans-Bold-20" transform="scale(0.015625)"/>
       <path id="DejaVuSans-Bold-5b" d="M 550 4863 
L 2491 4863 
L 2491 4159 
L 1613 4159 
L 1613 -141 
L 2491 -141 
L 2491 -844 
L 550 -844 
L 550 4863 
z
" transform="scale(0.015625)"/>
       <path id="DejaVuSans-Bold-68" d="M 4056 2131 
L 4056 0 
L 2931 0 
L 2931 347 
L 2931 1625 
Q 2931 2084 2911 2256 
Q 2891 2428 2841 2509 
Q 2775 2619 2662 2680 
Q 2550 2741 2406 2741 
Q 2056 2741 1856 2470 
Q 1656 2200 1656 1722 
L 1656 0 
L 538 0 
L 538 4863 
L 1656 4863 
L 1656 2988 
Q 1909 3294 2193 3439 
Q 2478 3584 2822 3584 
Q 3428 3584 3742 3212 
Q 4056 2841 4056 2131 
z
" transform="scale(0.015625)"/>
       <path id="DejaVuSans-Bold-72" d="M 3138 2547 
Q 2991 2616 2845 2648 
Q 2700 2681 2553 2681 
Q 2122 2681 1889 2404 
Q 1656 2128 1656 1613 
L 1656 0 
L 538 0 
L 538 3500 
L 1656 3500 
L 1656 2925 
Q 1872 3269 2151 3426 
Q 2431 3584 2822 3584 
Q 2878 3584 2943 3579 
Q 3009 3575 3134 3559 
L 3138 2547 
z
" transform="scale(0.015625)"/>
       <path id="DejaVuSans-Bold-5d" d="M 2375 -844 
L 434 -844 
L 434 -141 
L 1313 -141 
L 1313 4159 
L 434 4159 
L 434 4863 
L 2375 4863 
L 2375 -844 
z
" transform="scale(0.015625)"/>
      </defs>
      <use xlink:href="#DejaVuSans-Bold-74"/>
      <use xlink:href="#DejaVuSans-Bold-69" x="47.802734"/>
      <use xlink:href="#DejaVuSans-Bold-6d" x="82.080078"/>
      <use xlink:href="#DejaVuSans-Bold-65" x="186.279297"/>
      <use xlink:href="#DejaVuSans-Bold-20" x="254.101562"/>
      <use xlink:href="#DejaVuSans-Bold-5b" x="288.916016"/>
      <use xlink:href="#DejaVuSans-Bold-68" x="334.619141"/>
      <use xlink:href="#DejaVuSans-Bold-72" x="405.810547"/>
      <use xlink:href="#DejaVuSans-Bold-5d" x="455.126953"/>
     </g>
    </g>
   </g>
   <g id="matplotlib.axis_2">
    <g id="ytick_1">
     <g id="line2d_8">
      <defs>
       <path id="mbcff1db6e6" d="M 0 0 
L -3.5 0 
" style="stroke: #000000; stroke-width: 0.8"/>
      </defs>
      <g>
       <use xlink:href="#mbcff1db6e6" x="84.427625" y="335.7" style="stroke: #000000; stroke-width: 0.8"/>
      </g>
     </g>
     <g id="text_9">
      <!-- 0 -->
      <g transform="translate(67.883875 341.398828) scale(0.15 -0.15)">
       <use xlink:href="#DejaVuSans-30"/>
      </g>
     </g>
    </g>
    <g id="ytick_2">
     <g id="line2d_9">
      <g>
       <use xlink:href="#mbcff1db6e6" x="84.427625" y="271.991767" style="stroke: #000000; stroke-width: 0.8"/>
      </g>
     </g>
     <g id="text_10">
      <!-- 1 -->
      <g transform="translate(67.883875 277.690595) scale(0.15 -0.15)">
       <use xlink:href="#DejaVuSans-31"/>
      </g>
     </g>
    </g>
    <g id="ytick_3">
     <g id="line2d_10">
      <g>
       <use xlink:href="#mbcff1db6e6" x="84.427625" y="208.283534" style="stroke: #000000; stroke-width: 0.8"/>
      </g>
     </g>
     <g id="text_11">
      <!-- 2 -->
      <g transform="translate(67.883875 213.982362) scale(0.15 -0.15)">
       <use xlink:href="#DejaVuSans-32"/>
      </g>
     </g>
    </g>
    <g id="ytick_4">
     <g id="line2d_11">
      <g>
       <use xlink:href="#mbcff1db6e6" x="84.427625" y="144.575301" style="stroke: #000000; stroke-width: 0.8"/>
      </g>
     </g>
     <g id="text_12">
      <!-- 3 -->
      <g transform="translate(67.883875 150.274129) scale(0.15 -0.15)">
       <defs>
        <path id="DejaVuSans-33" d="M 2597 2516 
Q 3050 2419 3304 2112 
Q 3559 1806 3559 1356 
Q 3559 666 3084 287 
Q 2609 -91 1734 -91 
Q 1441 -91 1130 -33 
Q 819 25 488 141 
L 488 750 
Q 750 597 1062 519 
Q 1375 441 1716 441 
Q 2309 441 2620 675 
Q 2931 909 2931 1356 
Q 2931 1769 2642 2001 
Q 2353 2234 1838 2234 
L 1294 2234 
L 1294 2753 
L 1863 2753 
Q 2328 2753 2575 2939 
Q 2822 3125 2822 3475 
Q 2822 3834 2567 4026 
Q 2313 4219 1838 4219 
Q 1578 4219 1281 4162 
Q 984 4106 628 3988 
L 628 4550 
Q 988 4650 1302 4700 
Q 1616 4750 1894 4750 
Q 2613 4750 3031 4423 
Q 3450 4097 3450 3541 
Q 3450 3153 3228 2886 
Q 3006 2619 2597 2516 
z
" transform="scale(0.015625)"/>
       </defs>
       <use xlink:href="#DejaVuSans-33"/>
      </g>
     </g>
    </g>
    <g id="text_13">
     <!-- HCTZ [µM] -->
     <g transform="translate(60.12075 284.44125) rotate(-90) scale(0.18 -0.18)">
      <defs>
       <path id="DejaVuSans-Bold-48" d="M 588 4666 
L 1791 4666 
L 1791 2888 
L 3566 2888 
L 3566 4666 
L 4769 4666 
L 4769 0 
L 3566 0 
L 3566 1978 
L 1791 1978 
L 1791 0 
L 588 0 
L 588 4666 
z
" transform="scale(0.015625)"/>
       <path id="DejaVuSans-Bold-43" d="M 4288 256 
Q 3956 84 3597 -3 
Q 3238 -91 2847 -91 
Q 1681 -91 1000 561 
Q 319 1213 319 2328 
Q 319 3447 1000 4098 
Q 1681 4750 2847 4750 
Q 3238 4750 3597 4662 
Q 3956 4575 4288 4403 
L 4288 3438 
Q 3953 3666 3628 3772 
Q 3303 3878 2944 3878 
Q 2300 3878 1931 3465 
Q 1563 3053 1563 2328 
Q 1563 1606 1931 1193 
Q 2300 781 2944 781 
Q 3303 781 3628 887 
Q 3953 994 4288 1222 
L 4288 256 
z
" transform="scale(0.015625)"/>
       <path id="DejaVuSans-Bold-54" d="M 31 4666 
L 4331 4666 
L 4331 3756 
L 2784 3756 
L 2784 0 
L 1581 0 
L 1581 3756 
L 31 3756 
L 31 4666 
z
" transform="scale(0.015625)"/>
       <path id="DejaVuSans-Bold-5a" d="M 359 4666 
L 4281 4666 
L 4281 3938 
L 1778 909 
L 4353 909 
L 4353 0 
L 288 0 
L 288 728 
L 2791 3756 
L 359 3756 
L 359 4666 
z
" transform="scale(0.015625)"/>
       <path id="DejaVuSans-Bold-b5" d="M 544 -1338 
L 544 3500 
L 1672 3500 
L 1672 1466 
Q 1672 1103 1828 926 
Q 1984 750 2303 750 
Q 2625 750 2781 926 
Q 2938 1103 2938 1466 
L 2938 3500 
L 4063 3500 
L 4063 1159 
Q 4063 938 4114 850 
Q 4166 763 4288 763 
Q 4344 763 4395 778 
Q 4447 794 4506 831 
L 4506 50 
Q 4341 -22 4195 -56 
Q 4050 -91 3909 -91 
Q 3631 -91 3454 26 
Q 3278 144 3169 403 
Q 3022 156 2811 32 
Q 2600 -91 2322 -91 
Q 2091 -91 1928 -17 
Q 1766 56 1672 206 
L 1672 -1338 
L 544 -1338 
z
" transform="scale(0.015625)"/>
       <path id="DejaVuSans-Bold-4d" d="M 588 4666 
L 2119 4666 
L 3181 2169 
L 4250 4666 
L 5778 4666 
L 5778 0 
L 4641 0 
L 4641 3413 
L 3566 897 
L 2803 897 
L 1728 3413 
L 1728 0 
L 588 0 
L 588 4666 
z
" transform="scale(0.015625)"/>
      </defs>
      <use xlink:href="#DejaVuSans-Bold-48"/>
      <use xlink:href="#DejaVuSans-Bold-43" x="83.691406"/>
      <use xlink:href="#DejaVuSans-Bold-54" x="157.080078"/>
      <use xlink:href="#DejaVuSans-Bold-5a" x="225.292969"/>
      <use xlink:href="#DejaVuSans-Bold-20" x="297.802734"/>
      <use xlink:href="#DejaVuSans-Bold-5b" x="332.617188"/>
      <use xlink:href="#DejaVuSans-Bold-b5" x="378.320312"/>
      <use xlink:href="#DejaVuSans-Bold-4d" x="451.904297"/>
      <use xlink:href="#DejaVuSans-Bold-5d" x="551.416016"/>
     </g>
    </g>
   </g>
   <g id="line2d_12">
    <path d="M 102.18217 335.7 
L 103.365807 335.341379 
L 104.549443 334.3746 
L 105.73308 332.957793 
L 106.916716 331.213592 
L 109.283989 327.109102 
L 118.75308 309.541092 
L 121.120352 305.747323 
L 123.487625 302.31313 
L 125.854898 299.24274 
L 128.22217 296.526285 
L 130.589443 294.145475 
L 132.956716 292.077366 
L 135.323989 290.296854 
L 137.691261 288.778294 
L 140.058534 287.496548 
L 142.425807 286.427622 
L 144.79308 285.549039 
L 147.160352 284.840021 
L 150.711261 284.05332 
L 154.26217 283.548913 
L 157.81308 283.278196 
L 161.363989 283.2 
L 166.098534 283.336178 
L 170.83308 283.686781 
L 176.751261 284.347739 
L 183.85308 285.367793 
L 193.32217 286.962502 
L 209.89308 290.030186 
L 238.300352 295.283888 
L 256.054898 298.337781 
L 273.809443 301.170711 
L 291.563989 303.784079 
L 310.50217 306.342732 
L 329.440352 308.682482 
L 349.56217 310.948907 
L 370.867625 313.12458 
L 393.356716 315.195516 
L 417.029443 317.150994 
L 441.885807 318.983387 
L 457.27308 320.01553 
L 457.27308 320.01553 
" clip-path="url(#pa30f63ff7b)" style="fill: none; stroke: #1f77b4; stroke-width: 2; stroke-linecap: square"/>
   </g>
   <g id="line2d_13">
    <path d="M 102.18217 335.7 
L 103.365807 334.982758 
L 104.549443 333.049201 
L 105.73308 330.215586 
L 106.916716 326.727184 
L 109.283989 318.518204 
L 117.569443 287.431232 
L 119.936716 279.500568 
L 122.303989 272.269204 
L 124.671261 265.765648 
L 127.038534 259.982537 
L 129.405807 254.890567 
L 131.77308 250.447747 
L 134.140352 246.60553 
L 136.507625 243.312843 
L 138.874898 240.518702 
L 141.24217 238.173851 
L 143.609443 236.231755 
L 145.976716 234.649129 
L 148.343989 233.386178 
L 150.711261 232.40664 
L 153.078534 231.677689 
L 155.445807 231.169771 
L 157.81308 230.856391 
L 160.180352 230.713873 
L 163.731261 230.774959 
L 167.28217 231.111997 
L 170.83308 231.673562 
L 175.567625 232.698644 
L 180.30217 233.965604 
L 186.220352 235.793596 
L 193.32217 238.225005 
L 203.974898 242.132658 
L 235.93308 254.021769 
L 248.95308 258.584352 
L 261.97308 262.913819 
L 274.99308 267.00334 
L 288.01308 270.856976 
L 301.03308 274.483826 
L 315.236716 278.194949 
L 329.440352 281.664963 
L 343.643989 284.909176 
L 359.031261 288.185981 
L 374.418534 291.232716 
L 390.989443 294.275441 
L 407.560352 297.089627 
L 425.314898 299.871283 
L 443.069443 302.430881 
L 457.27308 304.331059 
L 457.27308 304.331059 
" clip-path="url(#pa30f63ff7b)" style="fill: none; stroke: #ff7f0e; stroke-width: 2; stroke-linecap: square"/>
   </g>
   <g id="line2d_14">
    <path d="M 102.18217 335.7 
L 103.365807 334.265516 
L 104.549443 330.398401 
L 105.73308 324.731172 
L 106.916716 317.754367 
L 109.283989 301.336409 
L 117.569443 239.162464 
L 119.936716 223.301136 
L 122.303989 208.838407 
L 124.671261 195.831296 
L 127.038534 184.265073 
L 129.405807 174.081133 
L 131.77308 165.195495 
L 134.140352 157.511061 
L 136.507625 150.925687 
L 138.874898 145.337403 
L 141.24217 140.647703 
L 143.609443 136.76351 
L 145.976716 133.598257 
L 148.343989 131.072356 
L 150.711261 129.11328 
L 153.078534 127.655378 
L 155.445807 126.639543 
L 157.81308 126.012782 
L 160.180352 125.727745 
L 162.547625 125.74224 
L 164.914898 126.018753 
L 167.28217 126.523993 
L 169.649443 127.228461 
L 172.016716 128.106049 
L 175.567625 129.697288 
L 179.118534 131.559899 
L 183.85308 134.371171 
L 188.587625 137.461845 
L 194.505807 141.595137 
L 202.791261 147.679761 
L 235.93308 172.343539 
L 246.585807 179.843329 
L 256.054898 186.251125 
L 265.523989 192.405806 
L 274.99308 198.306681 
L 284.46217 203.957827 
L 293.931261 209.366023 
L 303.400352 214.539498 
L 314.05308 220.090224 
L 324.705807 225.368255 
L 335.358534 230.386597 
L 346.011261 235.157938 
L 356.663989 239.694522 
L 367.316716 244.008079 
L 379.15308 248.552949 
L 390.989443 252.850881 
L 402.825807 256.915673 
L 414.66217 260.760357 
L 427.68217 264.749952 
L 440.70217 268.503511 
L 453.72217 272.035499 
L 457.27308 272.962119 
L 457.27308 272.962119 
" clip-path="url(#pa30f63ff7b)" style="fill: none; stroke: #2ca02c; stroke-width: 2; stroke-linecap: square"/>
   </g>
   <g id="patch_3">
    <path d="M 84.427625 346.2 
L 84.427625 115.2 
" style="fill: none; stroke: #000000; stroke-width: 0.8; stroke-linejoin: miter; stroke-linecap: square"/>
   </g>
   <g id="patch_4">
    <path d="M 475.027625 346.2 
L 475.027625 115.2 
" style="fill: none; stroke: #000000; stroke-width: 0.8; stroke-linejoin: miter; stroke-linecap: square"/>
   </g>
   <g id="patch_5">
    <path d="M 84.427625 346.2 
L 475.027625 346.2 
" style="fill: none; stroke: #000000; stroke-width: 0.8; stroke-linejoin: miter; stroke-linecap: square"/>
   </g>
   <g id="patch_6">
    <path d="M 84.427625 115.2 
L 475.027625 115.2 
" style="fill: none; stroke: #000000; stroke-width: 0.8; stroke-linejoin: miter; stroke-linecap: square"/>
   </g>
   <g id="legend_1">
    <g id="patch_7">
     <path d="M 343.585438 167.234375 
L 468.027625 167.234375 
Q 470.027625 167.234375 470.027625 165.234375 
L 470.027625 122.2 
Q 470.027625 120.2 468.027625 120.2 
L 343.585438 120.2 
Q 341.585438 120.2 341.585438 122.2 
L 341.585438 165.234375 
Q 341.585438 167.234375 343.585438 167.234375 
z
" style="fill: #ffffff; opacity: 0.8; stroke: #cccccc; stroke-linejoin: miter"/>
    </g>
    <g id="line2d_15">
     <path d="M 345.585438 128.298437 
L 365.585438 128.298437 
" style="fill: none; stroke: #1f77b4; stroke-width: 2; stroke-linecap: square"/>
    </g>
    <g id="line2d_16"/>
    <g id="text_14">
     <!-- HCTZ 50 mg (po) -->
     <g transform="translate(373.585438 131.798437) scale(0.1 -0.1)">
      <defs>
       <path id="DejaVuSans-48" d="M 628 4666 
L 1259 4666 
L 1259 2753 
L 3553 2753 
L 3553 4666 
L 4184 4666 
L 4184 0 
L 3553 0 
L 3553 2222 
L 1259 2222 
L 1259 0 
L 628 0 
L 628 4666 
z
" transform="scale(0.015625)"/>
       <path id="DejaVuSans-43" d="M 4122 4306 
L 4122 3641 
Q 3803 3938 3442 4084 
Q 3081 4231 2675 4231 
Q 1875 4231 1450 3742 
Q 1025 3253 1025 2328 
Q 1025 1406 1450 917 
Q 1875 428 2675 428 
Q 3081 428 3442 575 
Q 3803 722 4122 1019 
L 4122 359 
Q 3791 134 3420 21 
Q 3050 -91 2638 -91 
Q 1578 -91 968 557 
Q 359 1206 359 2328 
Q 359 3453 968 4101 
Q 1578 4750 2638 4750 
Q 3056 4750 3426 4639 
Q 3797 4528 4122 4306 
z
" transform="scale(0.015625)"/>
       <path id="DejaVuSans-54" d="M -19 4666 
L 3928 4666 
L 3928 4134 
L 2272 4134 
L 2272 0 
L 1638 0 
L 1638 4134 
L -19 4134 
L -19 4666 
z
" transform="scale(0.015625)"/>
       <path id="DejaVuSans-5a" d="M 359 4666 
L 4025 4666 
L 4025 4184 
L 1075 531 
L 4097 531 
L 4097 0 
L 288 0 
L 288 481 
L 3238 4134 
L 359 4134 
L 359 4666 
z
" transform="scale(0.015625)"/>
       <path id="DejaVuSans-20" transform="scale(0.015625)"/>
       <path id="DejaVuSans-35" d="M 691 4666 
L 3169 4666 
L 3169 4134 
L 1269 4134 
L 1269 2991 
Q 1406 3038 1543 3061 
Q 1681 3084 1819 3084 
Q 2600 3084 3056 2656 
Q 3513 2228 3513 1497 
Q 3513 744 3044 326 
Q 2575 -91 1722 -91 
Q 1428 -91 1123 -41 
Q 819 9 494 109 
L 494 744 
Q 775 591 1075 516 
Q 1375 441 1709 441 
Q 2250 441 2565 725 
Q 2881 1009 2881 1497 
Q 2881 1984 2565 2268 
Q 2250 2553 1709 2553 
Q 1456 2553 1204 2497 
Q 953 2441 691 2322 
L 691 4666 
z
" transform="scale(0.015625)"/>
       <path id="DejaVuSans-6d" d="M 3328 2828 
Q 3544 3216 3844 3400 
Q 4144 3584 4550 3584 
Q 5097 3584 5394 3201 
Q 5691 2819 5691 2113 
L 5691 0 
L 5113 0 
L 5113 2094 
Q 5113 2597 4934 2840 
Q 4756 3084 4391 3084 
Q 3944 3084 3684 2787 
Q 3425 2491 3425 1978 
L 3425 0 
L 2847 0 
L 2847 2094 
Q 2847 2600 2669 2842 
Q 2491 3084 2119 3084 
Q 1678 3084 1418 2786 
Q 1159 2488 1159 1978 
L 1159 0 
L 581 0 
L 581 3500 
L 1159 3500 
L 1159 2956 
Q 1356 3278 1631 3431 
Q 1906 3584 2284 3584 
Q 2666 3584 2933 3390 
Q 3200 3197 3328 2828 
z
" transform="scale(0.015625)"/>
       <path id="DejaVuSans-67" d="M 2906 1791 
Q 2906 2416 2648 2759 
Q 2391 3103 1925 3103 
Q 1463 3103 1205 2759 
Q 947 2416 947 1791 
Q 947 1169 1205 825 
Q 1463 481 1925 481 
Q 2391 481 2648 825 
Q 2906 1169 2906 1791 
z
M 3481 434 
Q 3481 -459 3084 -895 
Q 2688 -1331 1869 -1331 
Q 1566 -1331 1297 -1286 
Q 1028 -1241 775 -1147 
L 775 -588 
Q 1028 -725 1275 -790 
Q 1522 -856 1778 -856 
Q 2344 -856 2625 -561 
Q 2906 -266 2906 331 
L 2906 616 
Q 2728 306 2450 153 
Q 2172 0 1784 0 
Q 1141 0 747 490 
Q 353 981 353 1791 
Q 353 2603 747 3093 
Q 1141 3584 1784 3584 
Q 2172 3584 2450 3431 
Q 2728 3278 2906 2969 
L 2906 3500 
L 3481 3500 
L 3481 434 
z
" transform="scale(0.015625)"/>
       <path id="DejaVuSans-28" d="M 1984 4856 
Q 1566 4138 1362 3434 
Q 1159 2731 1159 2009 
Q 1159 1288 1364 580 
Q 1569 -128 1984 -844 
L 1484 -844 
Q 1016 -109 783 600 
Q 550 1309 550 2009 
Q 550 2706 781 3412 
Q 1013 4119 1484 4856 
L 1984 4856 
z
" transform="scale(0.015625)"/>
       <path id="DejaVuSans-70" d="M 1159 525 
L 1159 -1331 
L 581 -1331 
L 581 3500 
L 1159 3500 
L 1159 2969 
Q 1341 3281 1617 3432 
Q 1894 3584 2278 3584 
Q 2916 3584 3314 3078 
Q 3713 2572 3713 1747 
Q 3713 922 3314 415 
Q 2916 -91 2278 -91 
Q 1894 -91 1617 61 
Q 1341 213 1159 525 
z
M 3116 1747 
Q 3116 2381 2855 2742 
Q 2594 3103 2138 3103 
Q 1681 3103 1420 2742 
Q 1159 2381 1159 1747 
Q 1159 1113 1420 752 
Q 1681 391 2138 391 
Q 2594 391 2855 752 
Q 3116 1113 3116 1747 
z
" transform="scale(0.015625)"/>
       <path id="DejaVuSans-6f" d="M 1959 3097 
Q 1497 3097 1228 2736 
Q 959 2375 959 1747 
Q 959 1119 1226 758 
Q 1494 397 1959 397 
Q 2419 397 2687 759 
Q 2956 1122 2956 1747 
Q 2956 2369 2687 2733 
Q 2419 3097 1959 3097 
z
M 1959 3584 
Q 2709 3584 3137 3096 
Q 3566 2609 3566 1747 
Q 3566 888 3137 398 
Q 2709 -91 1959 -91 
Q 1206 -91 779 398 
Q 353 888 353 1747 
Q 353 2609 779 3096 
Q 1206 3584 1959 3584 
z
" transform="scale(0.015625)"/>
       <path id="DejaVuSans-29" d="M 513 4856 
L 1013 4856 
Q 1481 4119 1714 3412 
Q 1947 2706 1947 2009 
Q 1947 1309 1714 600 
Q 1481 -109 1013 -844 
L 513 -844 
Q 928 -128 1133 580 
Q 1338 1288 1338 2009 
Q 1338 2731 1133 3434 
Q 928 4138 513 4856 
z
" transform="scale(0.015625)"/>
      </defs>
      <use xlink:href="#DejaVuSans-48"/>
      <use xlink:href="#DejaVuSans-43" x="75.195312"/>
      <use xlink:href="#DejaVuSans-54" x="145.019531"/>
      <use xlink:href="#DejaVuSans-5a" x="206.103516"/>
      <use xlink:href="#DejaVuSans-20" x="274.609375"/>
      <use xlink:href="#DejaVuSans-35" x="306.396484"/>
      <use xlink:href="#DejaVuSans-30" x="370.019531"/>
      <use xlink:href="#DejaVuSans-20" x="433.642578"/>
      <use xlink:href="#DejaVuSans-6d" x="465.429688"/>
      <use xlink:href="#DejaVuSans-67" x="562.841797"/>
      <use xlink:href="#DejaVuSans-20" x="626.318359"/>
      <use xlink:href="#DejaVuSans-28" x="658.105469"/>
      <use xlink:href="#DejaVuSans-70" x="697.119141"/>
      <use xlink:href="#DejaVuSans-6f" x="760.595703"/>
      <use xlink:href="#DejaVuSans-29" x="821.777344"/>
     </g>
    </g>
    <g id="line2d_17">
     <path d="M 345.585438 142.976562 
L 365.585438 142.976562 
" style="fill: none; stroke: #ff7f0e; stroke-width: 2; stroke-linecap: square"/>
    </g>
    <g id="line2d_18"/>
    <g id="text_15">
     <!-- HCTZ 100 mg (po) -->
     <g transform="translate(373.585438 146.476562) scale(0.1 -0.1)">
      <use xlink:href="#DejaVuSans-48"/>
      <use xlink:href="#DejaVuSans-43" x="75.195312"/>
      <use xlink:href="#DejaVuSans-54" x="145.019531"/>
      <use xlink:href="#DejaVuSans-5a" x="206.103516"/>
      <use xlink:href="#DejaVuSans-20" x="274.609375"/>
      <use xlink:href="#DejaVuSans-31" x="306.396484"/>
      <use xlink:href="#DejaVuSans-30" x="370.019531"/>
      <use xlink:href="#DejaVuSans-30" x="433.642578"/>
      <use xlink:href="#DejaVuSans-20" x="497.265625"/>
      <use xlink:href="#DejaVuSans-6d" x="529.052734"/>
      <use xlink:href="#DejaVuSans-67" x="626.464844"/>
      <use xlink:href="#DejaVuSans-20" x="689.941406"/>
      <use xlink:href="#DejaVuSans-28" x="721.728516"/>
      <use xlink:href="#DejaVuSans-70" x="760.742188"/>
      <use xlink:href="#DejaVuSans-6f" x="824.21875"/>
      <use xlink:href="#DejaVuSans-29" x="885.400391"/>
     </g>
    </g>
    <g id="line2d_19">
     <path d="M 345.585438 157.654688 
L 365.585438 157.654688 
" style="fill: none; stroke: #2ca02c; stroke-width: 2; stroke-linecap: square"/>
    </g>
    <g id="line2d_20"/>
    <g id="text_16">
     <!-- HCTZ 200 mg (po) -->
     <g transform="translate(373.585438 161.154688) scale(0.1 -0.1)">
      <use xlink:href="#DejaVuSans-48"/>
      <use xlink:href="#DejaVuSans-43" x="75.195312"/>
      <use xlink:href="#DejaVuSans-54" x="145.019531"/>
      <use xlink:href="#DejaVuSans-5a" x="206.103516"/>
      <use xlink:href="#DejaVuSans-20" x="274.609375"/>
      <use xlink:href="#DejaVuSans-32" x="306.396484"/>
      <use xlink:href="#DejaVuSans-30" x="370.019531"/>
      <use xlink:href="#DejaVuSans-30" x="433.642578"/>
      <use xlink:href="#DejaVuSans-20" x="497.265625"/>
      <use xlink:href="#DejaVuSans-6d" x="529.052734"/>
      <use xlink:href="#DejaVuSans-67" x="626.464844"/>
      <use xlink:href="#DejaVuSans-20" x="689.941406"/>
      <use xlink:href="#DejaVuSans-28" x="721.728516"/>
      <use xlink:href="#DejaVuSans-70" x="760.742188"/>
      <use xlink:href="#DejaVuSans-6f" x="824.21875"/>
      <use xlink:href="#DejaVuSans-29" x="885.400391"/>
     </g>
    </g>
   </g>
  </g>
  <g id="axes_2">
   <g id="patch_8">
    <path d="M 84.427625 646.5 
L 475.027625 646.5 
L 475.027625 415.5 
L 84.427625 415.5 
z
" style="fill: #ffffff"/>
   </g>
   <g id="matplotlib.axis_3">
    <g id="xtick_8">
     <g id="line2d_21">
      <g>
       <use xlink:href="#m9a40e3c5e3" x="102.18217" y="646.5" style="stroke: #000000; stroke-width: 0.8"/>
      </g>
     </g>
     <g id="text_17">
      <!-- 0 -->
      <g transform="translate(97.410295 664.897656) scale(0.15 -0.15)">
       <use xlink:href="#DejaVuSans-30"/>
      </g>
     </g>
    </g>
    <g id="xtick_9">
     <g id="line2d_22">
      <g>
       <use xlink:href="#m9a40e3c5e3" x="161.363989" y="646.5" style="stroke: #000000; stroke-width: 0.8"/>
      </g>
     </g>
     <g id="text_18">
      <!-- 2 -->
      <g transform="translate(156.592114 664.897656) scale(0.15 -0.15)">
       <use xlink:href="#DejaVuSans-32"/>
      </g>
     </g>
    </g>
    <g id="xtick_10">
     <g id="line2d_23">
      <g>
       <use xlink:href="#m9a40e3c5e3" x="220.545807" y="646.5" style="stroke: #000000; stroke-width: 0.8"/>
      </g>
     </g>
     <g id="text_19">
      <!-- 4 -->
      <g transform="translate(215.773932 664.897656) scale(0.15 -0.15)">
       <use xlink:href="#DejaVuSans-34"/>
      </g>
     </g>
    </g>
    <g id="xtick_11">
     <g id="line2d_24">
      <g>
       <use xlink:href="#m9a40e3c5e3" x="279.727625" y="646.5" style="stroke: #000000; stroke-width: 0.8"/>
      </g>
     </g>
     <g id="text_20">
      <!-- 6 -->
      <g transform="translate(274.95575 664.897656) scale(0.15 -0.15)">
       <use xlink:href="#DejaVuSans-36"/>
      </g>
     </g>
    </g>
    <g id="xtick_12">
     <g id="line2d_25">
      <g>
       <use xlink:href="#m9a40e3c5e3" x="338.909443" y="646.5" style="stroke: #000000; stroke-width: 0.8"/>
      </g>
     </g>
     <g id="text_21">
      <!-- 8 -->
      <g transform="translate(334.137568 664.897656) scale(0.15 -0.15)">
       <use xlink:href="#DejaVuSans-38"/>
      </g>
     </g>
    </g>
    <g id="xtick_13">
     <g id="line2d_26">
      <g>
       <use xlink:href="#m9a40e3c5e3" x="398.091261" y="646.5" style="stroke: #000000; stroke-width: 0.8"/>
      </g>
     </g>
     <g id="text_22">
      <!-- 10 -->
      <g transform="translate(388.547511 664.897656) scale(0.15 -0.15)">
       <use xlink:href="#DejaVuSans-31"/>
       <use xlink:href="#DejaVuSans-30" x="63.623047"/>
      </g>
     </g>
    </g>
    <g id="xtick_14">
     <g id="line2d_27">
      <g>
       <use xlink:href="#m9a40e3c5e3" x="457.27308" y="646.5" style="stroke: #000000; stroke-width: 0.8"/>
      </g>
     </g>
     <g id="text_23">
      <!-- 12 -->
      <g transform="translate(447.72933 664.897656) scale(0.15 -0.15)">
       <use xlink:href="#DejaVuSans-31"/>
       <use xlink:href="#DejaVuSans-32" x="63.623047"/>
      </g>
     </g>
    </g>
    <g id="text_24">
     <!-- time [hr] -->
     <g transform="translate(234.653094 685.694375) scale(0.18 -0.18)">
      <use xlink:href="#DejaVuSans-Bold-74"/>
      <use xlink:href="#DejaVuSans-Bold-69" x="47.802734"/>
      <use xlink:href="#DejaVuSans-Bold-6d" x="82.080078"/>
      <use xlink:href="#DejaVuSans-Bold-65" x="186.279297"/>
      <use xlink:href="#DejaVuSans-Bold-20" x="254.101562"/>
      <use xlink:href="#DejaVuSans-Bold-5b" x="288.916016"/>
      <use xlink:href="#DejaVuSans-Bold-68" x="334.619141"/>
      <use xlink:href="#DejaVuSans-Bold-72" x="405.810547"/>
      <use xlink:href="#DejaVuSans-Bold-5d" x="455.126953"/>
     </g>
    </g>
   </g>
   <g id="matplotlib.axis_4">
    <g id="ytick_5">
     <g id="line2d_28">
      <g>
       <use xlink:href="#mbcff1db6e6" x="84.427625" y="636" style="stroke: #000000; stroke-width: 0.8"/>
      </g>
     </g>
     <g id="text_25">
      <!-- 0 -->
      <g transform="translate(67.883875 641.698828) scale(0.15 -0.15)">
       <use xlink:href="#DejaVuSans-30"/>
      </g>
     </g>
    </g>
    <g id="ytick_6">
     <g id="line2d_29">
      <g>
       <use xlink:href="#mbcff1db6e6" x="84.427625" y="576.091503" style="stroke: #000000; stroke-width: 0.8"/>
      </g>
     </g>
     <g id="text_26">
      <!-- 100 -->
      <g transform="translate(48.796375 581.790331) scale(0.15 -0.15)">
       <use xlink:href="#DejaVuSans-31"/>
       <use xlink:href="#DejaVuSans-30" x="63.623047"/>
       <use xlink:href="#DejaVuSans-30" x="127.246094"/>
      </g>
     </g>
    </g>
    <g id="ytick_7">
     <g id="line2d_30">
      <g>
       <use xlink:href="#mbcff1db6e6" x="84.427625" y="516.183006" style="stroke: #000000; stroke-width: 0.8"/>
      </g>
     </g>
     <g id="text_27">
      <!-- 200 -->
      <g transform="translate(48.796375 521.881834) scale(0.15 -0.15)">
       <use xlink:href="#DejaVuSans-32"/>
       <use xlink:href="#DejaVuSans-30" x="63.623047"/>
       <use xlink:href="#DejaVuSans-30" x="127.246094"/>
      </g>
     </g>
    </g>
    <g id="ytick_8">
     <g id="line2d_31">
      <g>
       <use xlink:href="#mbcff1db6e6" x="84.427625" y="456.274509" style="stroke: #000000; stroke-width: 0.8"/>
      </g>
     </g>
     <g id="text_28">
      <!-- 300 -->
      <g transform="translate(48.796375 461.973337) scale(0.15 -0.15)">
       <use xlink:href="#DejaVuSans-33"/>
       <use xlink:href="#DejaVuSans-30" x="63.623047"/>
       <use xlink:href="#DejaVuSans-30" x="127.246094"/>
      </g>
     </g>
    </g>
    <g id="text_29">
     <!-- HCTZ urine -->
     <g transform="translate(20.877188 587.377969) rotate(-90) scale(0.18 -0.18)">
      <defs>
       <path id="DejaVuSans-Bold-75" d="M 500 1363 
L 500 3500 
L 1625 3500 
L 1625 3150 
Q 1625 2866 1622 2436 
Q 1619 2006 1619 1863 
Q 1619 1441 1641 1255 
Q 1663 1069 1716 984 
Q 1784 875 1895 815 
Q 2006 756 2150 756 
Q 2500 756 2700 1025 
Q 2900 1294 2900 1772 
L 2900 3500 
L 4019 3500 
L 4019 0 
L 2900 0 
L 2900 506 
Q 2647 200 2364 54 
Q 2081 -91 1741 -91 
Q 1134 -91 817 281 
Q 500 653 500 1363 
z
" transform="scale(0.015625)"/>
       <path id="DejaVuSans-Bold-6e" d="M 4056 2131 
L 4056 0 
L 2931 0 
L 2931 347 
L 2931 1631 
Q 2931 2084 2911 2256 
Q 2891 2428 2841 2509 
Q 2775 2619 2662 2680 
Q 2550 2741 2406 2741 
Q 2056 2741 1856 2470 
Q 1656 2200 1656 1722 
L 1656 0 
L 538 0 
L 538 3500 
L 1656 3500 
L 1656 2988 
Q 1909 3294 2193 3439 
Q 2478 3584 2822 3584 
Q 3428 3584 3742 3212 
Q 4056 2841 4056 2131 
z
" transform="scale(0.015625)"/>
      </defs>
      <use xlink:href="#DejaVuSans-Bold-48"/>
      <use xlink:href="#DejaVuSans-Bold-43" x="83.691406"/>
      <use xlink:href="#DejaVuSans-Bold-54" x="157.080078"/>
      <use xlink:href="#DejaVuSans-Bold-5a" x="225.292969"/>
      <use xlink:href="#DejaVuSans-Bold-20" x="297.802734"/>
      <use xlink:href="#DejaVuSans-Bold-75" x="332.617188"/>
      <use xlink:href="#DejaVuSans-Bold-72" x="403.808594"/>
      <use xlink:href="#DejaVuSans-Bold-69" x="453.125"/>
      <use xlink:href="#DejaVuSans-Bold-6e" x="487.402344"/>
      <use xlink:href="#DejaVuSans-Bold-65" x="558.59375"/>
     </g>
     <!--  [µmol] -->
     <g transform="translate(41.03325 567.628594) rotate(-90) scale(0.18 -0.18)">
      <defs>
       <path id="DejaVuSans-Bold-6f" d="M 2203 2784 
Q 1831 2784 1636 2517 
Q 1441 2250 1441 1747 
Q 1441 1244 1636 976 
Q 1831 709 2203 709 
Q 2569 709 2762 976 
Q 2956 1244 2956 1747 
Q 2956 2250 2762 2517 
Q 2569 2784 2203 2784 
z
M 2203 3584 
Q 3106 3584 3614 3096 
Q 4122 2609 4122 1747 
Q 4122 884 3614 396 
Q 3106 -91 2203 -91 
Q 1297 -91 786 396 
Q 275 884 275 1747 
Q 275 2609 786 3096 
Q 1297 3584 2203 3584 
z
" transform="scale(0.015625)"/>
       <path id="DejaVuSans-Bold-6c" d="M 538 4863 
L 1656 4863 
L 1656 0 
L 538 0 
L 538 4863 
z
" transform="scale(0.015625)"/>
      </defs>
      <use xlink:href="#DejaVuSans-Bold-20"/>
      <use xlink:href="#DejaVuSans-Bold-5b" x="34.814453"/>
      <use xlink:href="#DejaVuSans-Bold-b5" x="80.517578"/>
      <use xlink:href="#DejaVuSans-Bold-6d" x="154.101562"/>
      <use xlink:href="#DejaVuSans-Bold-6f" x="258.300781"/>
      <use xlink:href="#DejaVuSans-Bold-6c" x="327.001953"/>
      <use xlink:href="#DejaVuSans-Bold-5d" x="361.279297"/>
     </g>
    </g>
   </g>
   <g id="line2d_32">
    <path d="M 102.18217 636 
L 109.283989 635.898739 
L 114.018534 635.619655 
L 118.75308 635.147392 
L 124.671261 634.318133 
L 131.77308 633.050868 
L 140.058534 631.318174 
L 151.894898 628.585559 
L 193.32217 618.82275 
L 209.89308 615.230021 
L 226.463989 611.873562 
L 243.034898 608.749282 
L 259.605807 605.845298 
L 277.360352 602.962025 
L 295.114898 600.297149 
L 314.05308 597.6759 
L 334.174898 595.119766 
L 355.480352 592.647033 
L 377.969443 590.272762 
L 401.64217 588.008834 
L 426.498534 585.864056 
L 452.538534 583.844336 
L 457.27308 583.5 
L 457.27308 583.5 
" clip-path="url(#p78130d4774)" style="fill: none; stroke: #1f77b4; stroke-width: 2; stroke-linecap: square"/>
   </g>
   <g id="line2d_33">
    <path d="M 102.18217 636 
L 106.916716 635.933816 
L 110.467625 635.694724 
L 114.018534 635.23931 
L 117.569443 634.565399 
L 121.120352 633.689602 
L 125.854898 632.25027 
L 130.589443 630.557542 
L 136.507625 628.173063 
L 143.609443 625.041489 
L 154.26217 620.041671 
L 185.036716 605.407969 
L 198.056716 599.54503 
L 209.89308 594.460041 
L 221.729443 589.616929 
L 233.565807 585.013502 
L 245.40217 580.642525 
L 257.238534 576.4944 
L 270.258534 572.176255 
L 283.278534 568.100681 
L 296.298534 564.253653 
L 310.50217 560.301744 
L 324.705807 556.589248 
L 338.909443 553.100604 
L 354.296716 549.556981 
L 369.683989 546.241731 
L 386.254898 542.908503 
L 402.825807 539.80303 
L 420.580352 536.709077 
L 438.334898 533.83762 
L 457.27308 531 
L 457.27308 531 
" clip-path="url(#p78130d4774)" style="fill: none; stroke: #ff7f0e; stroke-width: 2; stroke-linecap: square"/>
   </g>
   <g id="line2d_34">
    <path d="M 102.18217 636 
L 105.73308 635.941929 
L 108.100352 635.753412 
L 110.467625 635.389449 
L 112.834898 634.831637 
L 115.20217 634.07676 
L 117.569443 633.130799 
L 119.936716 632.005088 
L 123.487625 630.010955 
L 127.038534 627.696919 
L 130.589443 625.115084 
L 135.323989 621.33903 
L 140.058534 617.272695 
L 145.976716 611.906391 
L 154.26217 604.083342 
L 182.669443 577.003995 
L 193.32217 567.291 
L 202.791261 558.964411 
L 212.260352 550.944071 
L 221.729443 543.233859 
L 231.198534 535.830627 
L 240.667625 528.727207 
L 250.136716 521.914225 
L 259.605807 515.381191 
L 269.074898 509.117151 
L 278.543989 503.111074 
L 288.01308 497.35208 
L 297.48217 491.82957 
L 308.134898 485.88667 
L 318.787625 480.216094 
L 329.440352 474.804467 
L 340.09308 469.639049 
L 350.745807 464.707724 
L 362.58217 459.489035 
L 374.418534 454.530175 
L 386.254898 449.817005 
L 398.091261 445.33618 
L 411.111261 440.66061 
L 424.131261 436.235153 
L 437.151261 432.044985 
L 450.171261 428.076193 
L 457.27308 426 
L 457.27308 426 
" clip-path="url(#p78130d4774)" style="fill: none; stroke: #2ca02c; stroke-width: 2; stroke-linecap: square"/>
   </g>
   <g id="patch_9">
    <path d="M 84.427625 646.5 
L 84.427625 415.5 
" style="fill: none; stroke: #000000; stroke-width: 0.8; stroke-linejoin: miter; stroke-linecap: square"/>
   </g>
   <g id="patch_10">
    <path d="M 475.027625 646.5 
L 475.027625 415.5 
" style="fill: none; stroke: #000000; stroke-width: 0.8; stroke-linejoin: miter; stroke-linecap: square"/>
   </g>
   <g id="patch_11">
    <path d="M 84.427625 646.5 
L 475.027625 646.5 
" style="fill: none; stroke: #000000; stroke-width: 0.8; stroke-linejoin: miter; stroke-linecap: square"/>
   </g>
   <g id="patch_12">
    <path d="M 84.427625 415.5 
L 475.027625 415.5 
" style="fill: none; stroke: #000000; stroke-width: 0.8; stroke-linejoin: miter; stroke-linecap: square"/>
   </g>
   <g id="legend_2">
    <g id="patch_13">
     <path d="M 91.427625 467.534375 
L 215.869812 467.534375 
Q 217.869812 467.534375 217.869812 465.534375 
L 217.869812 422.5 
Q 217.869812 420.5 215.869812 420.5 
L 91.427625 420.5 
Q 89.427625 420.5 89.427625 422.5 
L 89.427625 465.534375 
Q 89.427625 467.534375 91.427625 467.534375 
z
" style="fill: #ffffff; opacity: 0.8; stroke: #cccccc; stroke-linejoin: miter"/>
    </g>
    <g id="line2d_35">
     <path d="M 93.427625 428.598438 
L 113.427625 428.598438 
" style="fill: none; stroke: #1f77b4; stroke-width: 2; stroke-linecap: square"/>
    </g>
    <g id="line2d_36"/>
    <g id="text_30">
     <!-- HCTZ 50 mg (po) -->
     <g transform="translate(121.427625 432.098438) scale(0.1 -0.1)">
      <use xlink:href="#DejaVuSans-48"/>
      <use xlink:href="#DejaVuSans-43" x="75.195312"/>
      <use xlink:href="#DejaVuSans-54" x="145.019531"/>
      <use xlink:href="#DejaVuSans-5a" x="206.103516"/>
      <use xlink:href="#DejaVuSans-20" x="274.609375"/>
      <use xlink:href="#DejaVuSans-35" x="306.396484"/>
      <use xlink:href="#DejaVuSans-30" x="370.019531"/>
      <use xlink:href="#DejaVuSans-20" x="433.642578"/>
      <use xlink:href="#DejaVuSans-6d" x="465.429688"/>
      <use xlink:href="#DejaVuSans-67" x="562.841797"/>
      <use xlink:href="#DejaVuSans-20" x="626.318359"/>
      <use xlink:href="#DejaVuSans-28" x="658.105469"/>
      <use xlink:href="#DejaVuSans-70" x="697.119141"/>
      <use xlink:href="#DejaVuSans-6f" x="760.595703"/>
      <use xlink:href="#DejaVuSans-29" x="821.777344"/>
     </g>
    </g>
    <g id="line2d_37">
     <path d="M 93.427625 443.276563 
L 113.427625 443.276563 
" style="fill: none; stroke: #ff7f0e; stroke-width: 2; stroke-linecap: square"/>
    </g>
    <g id="line2d_38"/>
    <g id="text_31">
     <!-- HCTZ 100 mg (po) -->
     <g transform="translate(121.427625 446.776563) scale(0.1 -0.1)">
      <use xlink:href="#DejaVuSans-48"/>
      <use xlink:href="#DejaVuSans-43" x="75.195312"/>
      <use xlink:href="#DejaVuSans-54" x="145.019531"/>
      <use xlink:href="#DejaVuSans-5a" x="206.103516"/>
      <use xlink:href="#DejaVuSans-20" x="274.609375"/>
      <use xlink:href="#DejaVuSans-31" x="306.396484"/>
      <use xlink:href="#DejaVuSans-30" x="370.019531"/>
      <use xlink:href="#DejaVuSans-30" x="433.642578"/>
      <use xlink:href="#DejaVuSans-20" x="497.265625"/>
      <use xlink:href="#DejaVuSans-6d" x="529.052734"/>
      <use xlink:href="#DejaVuSans-67" x="626.464844"/>
      <use xlink:href="#DejaVuSans-20" x="689.941406"/>
      <use xlink:href="#DejaVuSans-28" x="721.728516"/>
      <use xlink:href="#DejaVuSans-70" x="760.742188"/>
      <use xlink:href="#DejaVuSans-6f" x="824.21875"/>
      <use xlink:href="#DejaVuSans-29" x="885.400391"/>
     </g>
    </g>
    <g id="line2d_39">
     <path d="M 93.427625 457.954688 
L 113.427625 457.954688 
" style="fill: none; stroke: #2ca02c; stroke-width: 2; stroke-linecap: square"/>
    </g>
    <g id="line2d_40"/>
    <g id="text_32">
     <!-- HCTZ 200 mg (po) -->
     <g transform="translate(121.427625 461.454688) scale(0.1 -0.1)">
      <use xlink:href="#DejaVuSans-48"/>
      <use xlink:href="#DejaVuSans-43" x="75.195312"/>
      <use xlink:href="#DejaVuSans-54" x="145.019531"/>
      <use xlink:href="#DejaVuSans-5a" x="206.103516"/>
      <use xlink:href="#DejaVuSans-20" x="274.609375"/>
      <use xlink:href="#DejaVuSans-32" x="306.396484"/>
      <use xlink:href="#DejaVuSans-30" x="370.019531"/>
      <use xlink:href="#DejaVuSans-30" x="433.642578"/>
      <use xlink:href="#DejaVuSans-20" x="497.265625"/>
      <use xlink:href="#DejaVuSans-6d" x="529.052734"/>
      <use xlink:href="#DejaVuSans-67" x="626.464844"/>
      <use xlink:href="#DejaVuSans-20" x="689.941406"/>
      <use xlink:href="#DejaVuSans-28" x="721.728516"/>
      <use xlink:href="#DejaVuSans-70" x="760.742188"/>
      <use xlink:href="#DejaVuSans-6f" x="824.21875"/>
      <use xlink:href="#DejaVuSans-29" x="885.400391"/>
     </g>
    </g>
   </g>
  </g>
  <g id="axes_3">
   <g id="patch_14">
    <path d="M 84.427625 946.8 
L 475.027625 946.8 
L 475.027625 715.8 
L 84.427625 715.8 
z
" style="fill: #ffffff"/>
   </g>
   <g id="matplotlib.axis_5">
    <g id="xtick_15">
     <g id="line2d_41">
      <g>
       <use xlink:href="#m9a40e3c5e3" x="102.18217" y="946.8" style="stroke: #000000; stroke-width: 0.8"/>
      </g>
     </g>
     <g id="text_33">
      <!-- 0 -->
      <g transform="translate(97.410295 965.197656) scale(0.15 -0.15)">
       <use xlink:href="#DejaVuSans-30"/>
      </g>
     </g>
    </g>
    <g id="xtick_16">
     <g id="line2d_42">
      <g>
       <use xlink:href="#m9a40e3c5e3" x="161.363989" y="946.8" style="stroke: #000000; stroke-width: 0.8"/>
      </g>
     </g>
     <g id="text_34">
      <!-- 2 -->
      <g transform="translate(156.592114 965.197656) scale(0.15 -0.15)">
       <use xlink:href="#DejaVuSans-32"/>
      </g>
     </g>
    </g>
    <g id="xtick_17">
     <g id="line2d_43">
      <g>
       <use xlink:href="#m9a40e3c5e3" x="220.545807" y="946.8" style="stroke: #000000; stroke-width: 0.8"/>
      </g>
     </g>
     <g id="text_35">
      <!-- 4 -->
      <g transform="translate(215.773932 965.197656) scale(0.15 -0.15)">
       <use xlink:href="#DejaVuSans-34"/>
      </g>
     </g>
    </g>
    <g id="xtick_18">
     <g id="line2d_44">
      <g>
       <use xlink:href="#m9a40e3c5e3" x="279.727625" y="946.8" style="stroke: #000000; stroke-width: 0.8"/>
      </g>
     </g>
     <g id="text_36">
      <!-- 6 -->
      <g transform="translate(274.95575 965.197656) scale(0.15 -0.15)">
       <use xlink:href="#DejaVuSans-36"/>
      </g>
     </g>
    </g>
    <g id="xtick_19">
     <g id="line2d_45">
      <g>
       <use xlink:href="#m9a40e3c5e3" x="338.909443" y="946.8" style="stroke: #000000; stroke-width: 0.8"/>
      </g>
     </g>
     <g id="text_37">
      <!-- 8 -->
      <g transform="translate(334.137568 965.197656) scale(0.15 -0.15)">
       <use xlink:href="#DejaVuSans-38"/>
      </g>
     </g>
    </g>
    <g id="xtick_20">
     <g id="line2d_46">
      <g>
       <use xlink:href="#m9a40e3c5e3" x="398.091261" y="946.8" style="stroke: #000000; stroke-width: 0.8"/>
      </g>
     </g>
     <g id="text_38">
      <!-- 10 -->
      <g transform="translate(388.547511 965.197656) scale(0.15 -0.15)">
       <use xlink:href="#DejaVuSans-31"/>
       <use xlink:href="#DejaVuSans-30" x="63.623047"/>
      </g>
     </g>
    </g>
    <g id="xtick_21">
     <g id="line2d_47">
      <g>
       <use xlink:href="#m9a40e3c5e3" x="457.27308" y="946.8" style="stroke: #000000; stroke-width: 0.8"/>
      </g>
     </g>
     <g id="text_39">
      <!-- 12 -->
      <g transform="translate(447.72933 965.197656) scale(0.15 -0.15)">
       <use xlink:href="#DejaVuSans-31"/>
       <use xlink:href="#DejaVuSans-32" x="63.623047"/>
      </g>
     </g>
    </g>
    <g id="text_40">
     <!-- time [hr] -->
     <g transform="translate(234.653094 985.994375) scale(0.18 -0.18)">
      <use xlink:href="#DejaVuSans-Bold-74"/>
      <use xlink:href="#DejaVuSans-Bold-69" x="47.802734"/>
      <use xlink:href="#DejaVuSans-Bold-6d" x="82.080078"/>
      <use xlink:href="#DejaVuSans-Bold-65" x="186.279297"/>
      <use xlink:href="#DejaVuSans-Bold-20" x="254.101562"/>
      <use xlink:href="#DejaVuSans-Bold-5b" x="288.916016"/>
      <use xlink:href="#DejaVuSans-Bold-68" x="334.619141"/>
      <use xlink:href="#DejaVuSans-Bold-72" x="405.810547"/>
      <use xlink:href="#DejaVuSans-Bold-5d" x="455.126953"/>
     </g>
    </g>
   </g>
   <g id="matplotlib.axis_6">
    <g id="ytick_9">
     <g id="line2d_48">
      <g>
       <use xlink:href="#mbcff1db6e6" x="84.427625" y="936.3" style="stroke: #000000; stroke-width: 0.8"/>
      </g>
     </g>
     <g id="text_41">
      <!-- 0 -->
      <g transform="translate(67.883875 941.998828) scale(0.15 -0.15)">
       <use xlink:href="#DejaVuSans-30"/>
      </g>
     </g>
    </g>
    <g id="ytick_10">
     <g id="line2d_49">
      <g>
       <use xlink:href="#mbcff1db6e6" x="84.427625" y="897.925056" style="stroke: #000000; stroke-width: 0.8"/>
      </g>
     </g>
     <g id="text_42">
      <!-- 25 -->
      <g transform="translate(58.340125 903.623884) scale(0.15 -0.15)">
       <use xlink:href="#DejaVuSans-32"/>
       <use xlink:href="#DejaVuSans-35" x="63.623047"/>
      </g>
     </g>
    </g>
    <g id="ytick_11">
     <g id="line2d_50">
      <g>
       <use xlink:href="#mbcff1db6e6" x="84.427625" y="859.550112" style="stroke: #000000; stroke-width: 0.8"/>
      </g>
     </g>
     <g id="text_43">
      <!-- 50 -->
      <g transform="translate(58.340125 865.24894) scale(0.15 -0.15)">
       <use xlink:href="#DejaVuSans-35"/>
       <use xlink:href="#DejaVuSans-30" x="63.623047"/>
      </g>
     </g>
    </g>
    <g id="ytick_12">
     <g id="line2d_51">
      <g>
       <use xlink:href="#mbcff1db6e6" x="84.427625" y="821.175168" style="stroke: #000000; stroke-width: 0.8"/>
      </g>
     </g>
     <g id="text_44">
      <!-- 75 -->
      <g transform="translate(58.340125 826.873996) scale(0.15 -0.15)">
       <defs>
        <path id="DejaVuSans-37" d="M 525 4666 
L 3525 4666 
L 3525 4397 
L 1831 0 
L 1172 0 
L 2766 4134 
L 525 4134 
L 525 4666 
z
" transform="scale(0.015625)"/>
       </defs>
       <use xlink:href="#DejaVuSans-37"/>
       <use xlink:href="#DejaVuSans-35" x="63.623047"/>
      </g>
     </g>
    </g>
    <g id="ytick_13">
     <g id="line2d_52">
      <g>
       <use xlink:href="#mbcff1db6e6" x="84.427625" y="782.800224" style="stroke: #000000; stroke-width: 0.8"/>
      </g>
     </g>
     <g id="text_45">
      <!-- 100 -->
      <g transform="translate(48.796375 788.499052) scale(0.15 -0.15)">
       <use xlink:href="#DejaVuSans-31"/>
       <use xlink:href="#DejaVuSans-30" x="63.623047"/>
       <use xlink:href="#DejaVuSans-30" x="127.246094"/>
      </g>
     </g>
    </g>
    <g id="ytick_14">
     <g id="line2d_53">
      <g>
       <use xlink:href="#mbcff1db6e6" x="84.427625" y="744.42528" style="stroke: #000000; stroke-width: 0.8"/>
      </g>
     </g>
     <g id="text_46">
      <!-- 125 -->
      <g transform="translate(48.796375 750.124108) scale(0.15 -0.15)">
       <use xlink:href="#DejaVuSans-31"/>
       <use xlink:href="#DejaVuSans-32" x="63.623047"/>
       <use xlink:href="#DejaVuSans-35" x="127.246094"/>
      </g>
     </g>
    </g>
    <g id="text_47">
     <!-- HCTZ feces -->
     <g transform="translate(20.877188 888.052031) rotate(-90) scale(0.18 -0.18)">
      <defs>
       <path id="DejaVuSans-Bold-66" d="M 2841 4863 
L 2841 4128 
L 2222 4128 
Q 1984 4128 1890 4042 
Q 1797 3956 1797 3744 
L 1797 3500 
L 2753 3500 
L 2753 2700 
L 1797 2700 
L 1797 0 
L 678 0 
L 678 2700 
L 122 2700 
L 122 3500 
L 678 3500 
L 678 3744 
Q 678 4316 997 4589 
Q 1316 4863 1984 4863 
L 2841 4863 
z
" transform="scale(0.015625)"/>
       <path id="DejaVuSans-Bold-63" d="M 3366 3391 
L 3366 2478 
Q 3138 2634 2908 2709 
Q 2678 2784 2431 2784 
Q 1963 2784 1702 2511 
Q 1441 2238 1441 1747 
Q 1441 1256 1702 982 
Q 1963 709 2431 709 
Q 2694 709 2930 787 
Q 3166 866 3366 1019 
L 3366 103 
Q 3103 6 2833 -42 
Q 2563 -91 2291 -91 
Q 1344 -91 809 395 
Q 275 881 275 1747 
Q 275 2613 809 3098 
Q 1344 3584 2291 3584 
Q 2566 3584 2833 3536 
Q 3100 3488 3366 3391 
z
" transform="scale(0.015625)"/>
       <path id="DejaVuSans-Bold-73" d="M 3272 3391 
L 3272 2541 
Q 2913 2691 2578 2766 
Q 2244 2841 1947 2841 
Q 1628 2841 1473 2761 
Q 1319 2681 1319 2516 
Q 1319 2381 1436 2309 
Q 1553 2238 1856 2203 
L 2053 2175 
Q 2913 2066 3209 1816 
Q 3506 1566 3506 1031 
Q 3506 472 3093 190 
Q 2681 -91 1863 -91 
Q 1516 -91 1145 -36 
Q 775 19 384 128 
L 384 978 
Q 719 816 1070 734 
Q 1422 653 1784 653 
Q 2113 653 2278 743 
Q 2444 834 2444 1013 
Q 2444 1163 2330 1236 
Q 2216 1309 1875 1350 
L 1678 1375 
Q 931 1469 631 1722 
Q 331 1975 331 2491 
Q 331 3047 712 3315 
Q 1094 3584 1881 3584 
Q 2191 3584 2531 3537 
Q 2872 3491 3272 3391 
z
" transform="scale(0.015625)"/>
      </defs>
      <use xlink:href="#DejaVuSans-Bold-48"/>
      <use xlink:href="#DejaVuSans-Bold-43" x="83.691406"/>
      <use xlink:href="#DejaVuSans-Bold-54" x="157.080078"/>
      <use xlink:href="#DejaVuSans-Bold-5a" x="225.292969"/>
      <use xlink:href="#DejaVuSans-Bold-20" x="297.802734"/>
      <use xlink:href="#DejaVuSans-Bold-66" x="332.617188"/>
      <use xlink:href="#DejaVuSans-Bold-65" x="376.123047"/>
      <use xlink:href="#DejaVuSans-Bold-63" x="443.945312"/>
      <use xlink:href="#DejaVuSans-Bold-65" x="503.222656"/>
      <use xlink:href="#DejaVuSans-Bold-73" x="571.044922"/>
     </g>
     <!--  [µmol] -->
     <g transform="translate(41.03325 867.928594) rotate(-90) scale(0.18 -0.18)">
      <use xlink:href="#DejaVuSans-Bold-20"/>
      <use xlink:href="#DejaVuSans-Bold-5b" x="34.814453"/>
      <use xlink:href="#DejaVuSans-Bold-b5" x="80.517578"/>
      <use xlink:href="#DejaVuSans-Bold-6d" x="154.101562"/>
      <use xlink:href="#DejaVuSans-Bold-6f" x="258.300781"/>
      <use xlink:href="#DejaVuSans-Bold-6c" x="327.001953"/>
      <use xlink:href="#DejaVuSans-Bold-5d" x="361.279297"/>
     </g>
    </g>
   </g>
   <g id="line2d_54">
    <path d="M 102.18217 936.3 
L 105.73308 936.164482 
L 109.283989 935.800239 
L 114.018534 935.057347 
L 119.936716 933.851789 
L 128.22217 931.871173 
L 143.609443 927.871048 
L 162.547625 923.004821 
L 177.934898 919.292272 
L 192.138534 916.088444 
L 207.525807 912.85557 
L 222.91308 909.856998 
L 238.300352 907.077079 
L 254.871261 904.310056 
L 271.44217 901.760299 
L 289.196716 899.250212 
L 308.134898 896.8045 
L 328.256716 894.444648 
L 348.378534 892.307937 
L 369.683989 890.265337 
L 392.17308 888.330065 
L 415.845807 886.51221 
L 441.885807 884.743263 
L 457.27308 883.8 
L 457.27308 883.8 
" clip-path="url(#p729d27200a)" style="fill: none; stroke: #1f77b4; stroke-width: 2; stroke-linecap: square"/>
   </g>
   <g id="line2d_55">
    <path d="M 102.18217 936.3 
L 104.549443 936.17682 
L 106.916716 935.830568 
L 109.283989 935.300479 
L 112.834898 934.230954 
L 116.385807 932.909348 
L 121.120352 930.870073 
L 127.038534 928.03453 
L 135.323989 923.790393 
L 161.363989 910.300835 
L 172.016716 905.081626 
L 182.669443 900.100831 
L 193.32217 895.362217 
L 203.974898 890.860539 
L 214.627625 886.586869 
L 226.463989 882.093293 
L 238.300352 877.854157 
L 250.136716 873.855373 
L 261.97308 870.083442 
L 274.99308 866.18106 
L 288.01308 862.521587 
L 301.03308 859.089913 
L 315.236716 855.589439 
L 329.440352 852.325997 
L 343.643989 849.283536 
L 359.031261 846.219579 
L 374.418534 843.379737 
L 390.989443 840.553309 
L 407.560352 837.948884 
L 425.314898 835.385003 
L 444.25308 832.886884 
L 457.27308 831.3 
L 457.27308 831.3 
" clip-path="url(#p729d27200a)" style="fill: none; stroke: #ff7f0e; stroke-width: 2; stroke-linecap: square"/>
   </g>
   <g id="line2d_56">
    <path d="M 102.18217 936.3 
L 103.365807 936.238035 
L 105.73308 935.757927 
L 108.100352 934.872628 
L 110.467625 933.653949 
L 112.834898 932.161909 
L 115.20217 930.446654 
L 118.75308 927.544959 
L 122.303989 924.347106 
L 127.038534 919.769059 
L 134.140352 912.5146 
L 160.180352 885.489423 
L 169.649443 876.142536 
L 177.934898 868.269087 
L 186.220352 860.689053 
L 194.505807 853.400947 
L 202.791261 846.398572 
L 211.076716 839.673424 
L 219.36217 833.215971 
L 227.647625 827.016332 
L 235.93308 821.064626 
L 245.40217 814.553846 
L 254.871261 808.340223 
L 264.340352 802.410277 
L 273.809443 796.7511 
L 283.278534 791.350347 
L 292.747625 786.196228 
L 302.216716 781.277484 
L 312.869443 776.011882 
L 323.52217 771.016027 
L 334.174898 766.2761 
L 344.827625 761.778992 
L 355.480352 757.512263 
L 367.316716 753.027316 
L 379.15308 748.796917 
L 390.989443 744.806618 
L 402.825807 741.042791 
L 415.845807 737.148839 
L 428.865807 733.49729 
L 441.885807 730.073053 
L 456.089443 726.580169 
L 457.27308 726.3 
L 457.27308 726.3 
" clip-path="url(#p729d27200a)" style="fill: none; stroke: #2ca02c; stroke-width: 2; stroke-linecap: square"/>
   </g>
   <g id="patch_15">
    <path d="M 84.427625 946.8 
L 84.427625 715.8 
" style="fill: none; stroke: #000000; stroke-width: 0.8; stroke-linejoin: miter; stroke-linecap: square"/>
   </g>
   <g id="patch_16">
    <path d="M 475.027625 946.8 
L 475.027625 715.8 
" style="fill: none; stroke: #000000; stroke-width: 0.8; stroke-linejoin: miter; stroke-linecap: square"/>
   </g>
   <g id="patch_17">
    <path d="M 84.427625 946.8 
L 475.027625 946.8 
" style="fill: none; stroke: #000000; stroke-width: 0.8; stroke-linejoin: miter; stroke-linecap: square"/>
   </g>
   <g id="patch_18">
    <path d="M 84.427625 715.8 
L 475.027625 715.8 
" style="fill: none; stroke: #000000; stroke-width: 0.8; stroke-linejoin: miter; stroke-linecap: square"/>
   </g>
   <g id="legend_3">
    <g id="patch_19">
     <path d="M 91.427625 767.834375 
L 215.869812 767.834375 
Q 217.869812 767.834375 217.869812 765.834375 
L 217.869812 722.8 
Q 217.869812 720.8 215.869812 720.8 
L 91.427625 720.8 
Q 89.427625 720.8 89.427625 722.8 
L 89.427625 765.834375 
Q 89.427625 767.834375 91.427625 767.834375 
z
" style="fill: #ffffff; opacity: 0.8; stroke: #cccccc; stroke-linejoin: miter"/>
    </g>
    <g id="line2d_57">
     <path d="M 93.427625 728.898438 
L 113.427625 728.898438 
" style="fill: none; stroke: #1f77b4; stroke-width: 2; stroke-linecap: square"/>
    </g>
    <g id="line2d_58"/>
    <g id="text_48">
     <!-- HCTZ 50 mg (po) -->
     <g transform="translate(121.427625 732.398438) scale(0.1 -0.1)">
      <use xlink:href="#DejaVuSans-48"/>
      <use xlink:href="#DejaVuSans-43" x="75.195312"/>
      <use xlink:href="#DejaVuSans-54" x="145.019531"/>
      <use xlink:href="#DejaVuSans-5a" x="206.103516"/>
      <use xlink:href="#DejaVuSans-20" x="274.609375"/>
      <use xlink:href="#DejaVuSans-35" x="306.396484"/>
      <use xlink:href="#DejaVuSans-30" x="370.019531"/>
      <use xlink:href="#DejaVuSans-20" x="433.642578"/>
      <use xlink:href="#DejaVuSans-6d" x="465.429688"/>
      <use xlink:href="#DejaVuSans-67" x="562.841797"/>
      <use xlink:href="#DejaVuSans-20" x="626.318359"/>
      <use xlink:href="#DejaVuSans-28" x="658.105469"/>
      <use xlink:href="#DejaVuSans-70" x="697.119141"/>
      <use xlink:href="#DejaVuSans-6f" x="760.595703"/>
      <use xlink:href="#DejaVuSans-29" x="821.777344"/>
     </g>
    </g>
    <g id="line2d_59">
     <path d="M 93.427625 743.576563 
L 113.427625 743.576563 
" style="fill: none; stroke: #ff7f0e; stroke-width: 2; stroke-linecap: square"/>
    </g>
    <g id="line2d_60"/>
    <g id="text_49">
     <!-- HCTZ 100 mg (po) -->
     <g transform="translate(121.427625 747.076563) scale(0.1 -0.1)">
      <use xlink:href="#DejaVuSans-48"/>
      <use xlink:href="#DejaVuSans-43" x="75.195312"/>
      <use xlink:href="#DejaVuSans-54" x="145.019531"/>
      <use xlink:href="#DejaVuSans-5a" x="206.103516"/>
      <use xlink:href="#DejaVuSans-20" x="274.609375"/>
      <use xlink:href="#DejaVuSans-31" x="306.396484"/>
      <use xlink:href="#DejaVuSans-30" x="370.019531"/>
      <use xlink:href="#DejaVuSans-30" x="433.642578"/>
      <use xlink:href="#DejaVuSans-20" x="497.265625"/>
      <use xlink:href="#DejaVuSans-6d" x="529.052734"/>
      <use xlink:href="#DejaVuSans-67" x="626.464844"/>
      <use xlink:href="#DejaVuSans-20" x="689.941406"/>
      <use xlink:href="#DejaVuSans-28" x="721.728516"/>
      <use xlink:href="#DejaVuSans-70" x="760.742188"/>
      <use xlink:href="#DejaVuSans-6f" x="824.21875"/>
      <use xlink:href="#DejaVuSans-29" x="885.400391"/>
     </g>
    </g>
    <g id="line2d_61">
     <path d="M 93.427625 758.254688 
L 113.427625 758.254688 
" style="fill: none; stroke: #2ca02c; stroke-width: 2; stroke-linecap: square"/>
    </g>
    <g id="line2d_62"/>
    <g id="text_50">
     <!-- HCTZ 200 mg (po) -->
     <g transform="translate(121.427625 761.754688) scale(0.1 -0.1)">
      <use xlink:href="#DejaVuSans-48"/>
      <use xlink:href="#DejaVuSans-43" x="75.195312"/>
      <use xlink:href="#DejaVuSans-54" x="145.019531"/>
      <use xlink:href="#DejaVuSans-5a" x="206.103516"/>
      <use xlink:href="#DejaVuSans-20" x="274.609375"/>
      <use xlink:href="#DejaVuSans-32" x="306.396484"/>
      <use xlink:href="#DejaVuSans-30" x="370.019531"/>
      <use xlink:href="#DejaVuSans-30" x="433.642578"/>
      <use xlink:href="#DejaVuSans-20" x="497.265625"/>
      <use xlink:href="#DejaVuSans-6d" x="529.052734"/>
      <use xlink:href="#DejaVuSans-67" x="626.464844"/>
      <use xlink:href="#DejaVuSans-20" x="689.941406"/>
      <use xlink:href="#DejaVuSans-28" x="721.728516"/>
      <use xlink:href="#DejaVuSans-70" x="760.742188"/>
      <use xlink:href="#DejaVuSans-6f" x="824.21875"/>
      <use xlink:href="#DejaVuSans-29" x="885.400391"/>
     </g>
    </g>
   </g>
  </g>
  <g id="text_51">
   <!-- HCTZ PO: pharmacokinetics -->
   <g transform="translate(77.722547 26.196094) scale(0.25 -0.25)">
    <defs>
     <path id="DejaVuSans-Bold-50" d="M 588 4666 
L 2584 4666 
Q 3475 4666 3951 4270 
Q 4428 3875 4428 3144 
Q 4428 2409 3951 2014 
Q 3475 1619 2584 1619 
L 1791 1619 
L 1791 0 
L 588 0 
L 588 4666 
z
M 1791 3794 
L 1791 2491 
L 2456 2491 
Q 2806 2491 2997 2661 
Q 3188 2831 3188 3144 
Q 3188 3456 2997 3625 
Q 2806 3794 2456 3794 
L 1791 3794 
z
" transform="scale(0.015625)"/>
     <path id="DejaVuSans-Bold-4f" d="M 2719 3878 
Q 2169 3878 1866 3472 
Q 1563 3066 1563 2328 
Q 1563 1594 1866 1187 
Q 2169 781 2719 781 
Q 3272 781 3575 1187 
Q 3878 1594 3878 2328 
Q 3878 3066 3575 3472 
Q 3272 3878 2719 3878 
z
M 2719 4750 
Q 3844 4750 4481 4106 
Q 5119 3463 5119 2328 
Q 5119 1197 4481 553 
Q 3844 -91 2719 -91 
Q 1597 -91 958 553 
Q 319 1197 319 2328 
Q 319 3463 958 4106 
Q 1597 4750 2719 4750 
z
" transform="scale(0.015625)"/>
     <path id="DejaVuSans-Bold-3a" d="M 716 3500 
L 1844 3500 
L 1844 2291 
L 716 2291 
L 716 3500 
z
M 716 1209 
L 1844 1209 
L 1844 0 
L 716 0 
L 716 1209 
z
" transform="scale(0.015625)"/>
     <path id="DejaVuSans-Bold-70" d="M 1656 506 
L 1656 -1331 
L 538 -1331 
L 538 3500 
L 1656 3500 
L 1656 2988 
Q 1888 3294 2169 3439 
Q 2450 3584 2816 3584 
Q 3463 3584 3878 3070 
Q 4294 2556 4294 1747 
Q 4294 938 3878 423 
Q 3463 -91 2816 -91 
Q 2450 -91 2169 54 
Q 1888 200 1656 506 
z
M 2400 2772 
Q 2041 2772 1848 2508 
Q 1656 2244 1656 1747 
Q 1656 1250 1848 986 
Q 2041 722 2400 722 
Q 2759 722 2948 984 
Q 3138 1247 3138 1747 
Q 3138 2247 2948 2509 
Q 2759 2772 2400 2772 
z
" transform="scale(0.015625)"/>
     <path id="DejaVuSans-Bold-61" d="M 2106 1575 
Q 1756 1575 1579 1456 
Q 1403 1338 1403 1106 
Q 1403 894 1545 773 
Q 1688 653 1941 653 
Q 2256 653 2472 879 
Q 2688 1106 2688 1447 
L 2688 1575 
L 2106 1575 
z
M 3816 1997 
L 3816 0 
L 2688 0 
L 2688 519 
Q 2463 200 2181 54 
Q 1900 -91 1497 -91 
Q 953 -91 614 226 
Q 275 544 275 1050 
Q 275 1666 698 1953 
Q 1122 2241 2028 2241 
L 2688 2241 
L 2688 2328 
Q 2688 2594 2478 2717 
Q 2269 2841 1825 2841 
Q 1466 2841 1156 2769 
Q 847 2697 581 2553 
L 581 3406 
Q 941 3494 1303 3539 
Q 1666 3584 2028 3584 
Q 2975 3584 3395 3211 
Q 3816 2838 3816 1997 
z
" transform="scale(0.015625)"/>
     <path id="DejaVuSans-Bold-6b" d="M 538 4863 
L 1656 4863 
L 1656 2216 
L 2944 3500 
L 4244 3500 
L 2534 1894 
L 4378 0 
L 3022 0 
L 1656 1459 
L 1656 0 
L 538 0 
L 538 4863 
z
" transform="scale(0.015625)"/>
    </defs>
    <use xlink:href="#DejaVuSans-Bold-48"/>
    <use xlink:href="#DejaVuSans-Bold-43" x="83.691406"/>
    <use xlink:href="#DejaVuSans-Bold-54" x="157.080078"/>
    <use xlink:href="#DejaVuSans-Bold-5a" x="225.292969"/>
    <use xlink:href="#DejaVuSans-Bold-20" x="297.802734"/>
    <use xlink:href="#DejaVuSans-Bold-50" x="332.617188"/>
    <use xlink:href="#DejaVuSans-Bold-4f" x="405.908203"/>
    <use xlink:href="#DejaVuSans-Bold-3a" x="490.917969"/>
    <use xlink:href="#DejaVuSans-Bold-20" x="530.908203"/>
    <use xlink:href="#DejaVuSans-Bold-70" x="565.722656"/>
    <use xlink:href="#DejaVuSans-Bold-68" x="637.304688"/>
    <use xlink:href="#DejaVuSans-Bold-61" x="708.496094"/>
    <use xlink:href="#DejaVuSans-Bold-72" x="775.976562"/>
    <use xlink:href="#DejaVuSans-Bold-6d" x="825.292969"/>
    <use xlink:href="#DejaVuSans-Bold-61" x="929.492188"/>
    <use xlink:href="#DejaVuSans-Bold-63" x="996.972656"/>
    <use xlink:href="#DejaVuSans-Bold-6f" x="1056.25"/>
    <use xlink:href="#DejaVuSans-Bold-6b" x="1124.951172"/>
    <use xlink:href="#DejaVuSans-Bold-69" x="1191.455078"/>
    <use xlink:href="#DejaVuSans-Bold-6e" x="1225.732422"/>
    <use xlink:href="#DejaVuSans-Bold-65" x="1296.923828"/>
    <use xlink:href="#DejaVuSans-Bold-74" x="1364.746094"/>
    <use xlink:href="#DejaVuSans-Bold-69" x="1412.548828"/>
    <use xlink:href="#DejaVuSans-Bold-63" x="1446.826172"/>
    <use xlink:href="#DejaVuSans-Bold-73" x="1506.103516"/>
   </g>
  </g>
 </g>
 <defs>
  <clipPath id="pa30f63ff7b">
   <rect x="84.427625" y="115.2" width="390.6" height="231"/>
  </clipPath>
  <clipPath id="p78130d4774">
   <rect x="84.427625" y="415.5" width="390.6" height="231"/>
  </clipPath>
  <clipPath id="p729d27200a">
   <rect x="84.427625" y="715.8" width="390.6" height="231"/>
  </clipPath>
 </defs>
</svg>
