<?xml version="1.0" encoding="utf-8" standalone="no"?>
<!DOCTYPE svg PUBLIC "-//W3C//DTD SVG 1.1//EN"
  "http://www.w3.org/Graphics/SVG/1.1/DTD/svg11.dtd">
<svg xmlns:xlink="http://www.w3.org/1999/xlink" width="482.207938pt" height="1017.093875pt" viewBox="0 0 482.207938 1017.093875" xmlns="http://www.w3.org/2000/svg" version="1.1">
 <metadata>
  <rdf:RDF xmlns:dc="http://purl.org/dc/elements/1.1/" xmlns:cc="http://creativecommons.org/ns#" xmlns:rdf="http://www.w3.org/1999/02/22-rdf-syntax-ns#">
   <cc:Work>
    <dc:type rdf:resource="http://purl.org/dc/dcmitype/StillImage"/>
    <dc:date>2025-05-15T20:27:01.214436</dc:date>
    <dc:format>image/svg+xml</dc:format>
    <dc:creator>
     <cc:Agent>
      <dc:title>Matplotlib v3.9.1, https://matplotlib.org/</dc:title>
     </cc:Agent>
    </dc:creator>
   </cc:Work>
  </rdf:RDF>
 </metadata>
 <defs>
  <style type="text/css">*{stroke-linejoin: round; stroke-linecap: butt}</style>
 </defs>
 <g id="figure_1">
  <g id="patch_1">
   <path d="M 0 1017.093875 
L 482.207938 1017.093875 
L 482.207938 0 
L 0 0 
z
" style="fill: #ffffff"/>
  </g>
  <g id="axes_1">
   <g id="patch_2">
    <path d="M 84.407937 346.2 
L 475.007938 346.2 
L 475.007938 115.2 
L 84.407937 115.2 
z
" style="fill: #ffffff"/>
   </g>
   <g id="matplotlib.axis_1">
    <g id="xtick_1">
     <g id="line2d_1">
      <defs>
       <path id="mbf7b8dce9b" d="M 0 0 
L 0 3.5 
" style="stroke: #000000; stroke-width: 0.8"/>
      </defs>
      <g>
       <use xlink:href="#mbf7b8dce9b" x="102.162483" y="346.2" style="stroke: #000000; stroke-width: 0.8"/>
      </g>
     </g>
     <g id="text_1">
      <!-- 0 -->
      <g transform="translate(97.390608 364.597656) scale(0.15 -0.15)">
       <defs>
        <path id="DejaVuSans-30" d="M 2034 4250 
Q 1547 4250 1301 3770 
Q 1056 3291 1056 2328 
Q 1056 1369 1301 889 
Q 1547 409 2034 409 
Q 2525 409 2770 889 
Q 3016 1369 3016 2328 
Q 3016 3291 2770 3770 
Q 2525 4250 2034 4250 
z
M 2034 4750 
Q 2819 4750 3233 4129 
Q 3647 3509 3647 2328 
Q 3647 1150 3233 529 
Q 2819 -91 2034 -91 
Q 1250 -91 836 529 
Q 422 1150 422 2328 
Q 422 3509 836 4129 
Q 1250 4750 2034 4750 
z
" transform="scale(0.015625)"/>
       </defs>
       <use xlink:href="#DejaVuSans-30"/>
      </g>
     </g>
    </g>
    <g id="xtick_2">
     <g id="line2d_2">
      <g>
       <use xlink:href="#mbf7b8dce9b" x="190.93521" y="346.2" style="stroke: #000000; stroke-width: 0.8"/>
      </g>
     </g>
     <g id="text_2">
      <!-- 10 -->
      <g transform="translate(181.39146 364.597656) scale(0.15 -0.15)">
       <defs>
        <path id="DejaVuSans-31" d="M 794 531 
L 1825 531 
L 1825 4091 
L 703 3866 
L 703 4441 
L 1819 4666 
L 2450 4666 
L 2450 531 
L 3481 531 
L 3481 0 
L 794 0 
L 794 531 
z
" transform="scale(0.015625)"/>
       </defs>
       <use xlink:href="#DejaVuSans-31"/>
       <use xlink:href="#DejaVuSans-30" x="63.623047"/>
      </g>
     </g>
    </g>
    <g id="xtick_3">
     <g id="line2d_3">
      <g>
       <use xlink:href="#mbf7b8dce9b" x="279.707938" y="346.2" style="stroke: #000000; stroke-width: 0.8"/>
      </g>
     </g>
     <g id="text_3">
      <!-- 20 -->
      <g transform="translate(270.164188 364.597656) scale(0.15 -0.15)">
       <defs>
        <path id="DejaVuSans-32" d="M 1228 531 
L 3431 531 
L 3431 0 
L 469 0 
L 469 531 
Q 828 903 1448 1529 
Q 2069 2156 2228 2338 
Q 2531 2678 2651 2914 
Q 2772 3150 2772 3378 
Q 2772 3750 2511 3984 
Q 2250 4219 1831 4219 
Q 1534 4219 1204 4116 
Q 875 4013 500 3803 
L 500 4441 
Q 881 4594 1212 4672 
Q 1544 4750 1819 4750 
Q 2544 4750 2975 4387 
Q 3406 4025 3406 3419 
Q 3406 3131 3298 2873 
Q 3191 2616 2906 2266 
Q 2828 2175 2409 1742 
Q 1991 1309 1228 531 
z
" transform="scale(0.015625)"/>
       </defs>
       <use xlink:href="#DejaVuSans-32"/>
       <use xlink:href="#DejaVuSans-30" x="63.623047"/>
      </g>
     </g>
    </g>
    <g id="xtick_4">
     <g id="line2d_4">
      <g>
       <use xlink:href="#mbf7b8dce9b" x="368.480665" y="346.2" style="stroke: #000000; stroke-width: 0.8"/>
      </g>
     </g>
     <g id="text_4">
      <!-- 30 -->
      <g transform="translate(358.936915 364.597656) scale(0.15 -0.15)">
       <defs>
        <path id="DejaVuSans-33" d="M 2597 2516 
Q 3050 2419 3304 2112 
Q 3559 1806 3559 1356 
Q 3559 666 3084 287 
Q 2609 -91 1734 -91 
Q 1441 -91 1130 -33 
Q 819 25 488 141 
L 488 750 
Q 750 597 1062 519 
Q 1375 441 1716 441 
Q 2309 441 2620 675 
Q 2931 909 2931 1356 
Q 2931 1769 2642 2001 
Q 2353 2234 1838 2234 
L 1294 2234 
L 1294 2753 
L 1863 2753 
Q 2328 2753 2575 2939 
Q 2822 3125 2822 3475 
Q 2822 3834 2567 4026 
Q 2313 4219 1838 4219 
Q 1578 4219 1281 4162 
Q 984 4106 628 3988 
L 628 4550 
Q 988 4650 1302 4700 
Q 1616 4750 1894 4750 
Q 2613 4750 3031 4423 
Q 3450 4097 3450 3541 
Q 3450 3153 3228 2886 
Q 3006 2619 2597 2516 
z
" transform="scale(0.015625)"/>
       </defs>
       <use xlink:href="#DejaVuSans-33"/>
       <use xlink:href="#DejaVuSans-30" x="63.623047"/>
      </g>
     </g>
    </g>
    <g id="xtick_5">
     <g id="line2d_5">
      <g>
       <use xlink:href="#mbf7b8dce9b" x="457.253392" y="346.2" style="stroke: #000000; stroke-width: 0.8"/>
      </g>
     </g>
     <g id="text_5">
      <!-- 40 -->
      <g transform="translate(447.709642 364.597656) scale(0.15 -0.15)">
       <defs>
        <path id="DejaVuSans-34" d="M 2419 4116 
L 825 1625 
L 2419 1625 
L 2419 4116 
z
M 2253 4666 
L 3047 4666 
L 3047 1625 
L 3713 1625 
L 3713 1100 
L 3047 1100 
L 3047 0 
L 2419 0 
L 2419 1100 
L 313 1100 
L 313 1709 
L 2253 4666 
z
" transform="scale(0.015625)"/>
       </defs>
       <use xlink:href="#DejaVuSans-34"/>
       <use xlink:href="#DejaVuSans-30" x="63.623047"/>
      </g>
     </g>
    </g>
    <g id="text_6">
     <!-- time [hr] -->
     <g transform="translate(234.633406 385.394375) scale(0.18 -0.18)">
      <defs>
       <path id="DejaVuSans-Bold-74" d="M 1759 4494 
L 1759 3500 
L 2913 3500 
L 2913 2700 
L 1759 2700 
L 1759 1216 
Q 1759 972 1856 886 
Q 1953 800 2241 800 
L 2816 800 
L 2816 0 
L 1856 0 
Q 1194 0 917 276 
Q 641 553 641 1216 
L 641 2700 
L 84 2700 
L 84 3500 
L 641 3500 
L 641 4494 
L 1759 4494 
z
" transform="scale(0.015625)"/>
       <path id="DejaVuSans-Bold-69" d="M 538 3500 
L 1656 3500 
L 1656 0 
L 538 0 
L 538 3500 
z
M 538 4863 
L 1656 4863 
L 1656 3950 
L 538 3950 
L 538 4863 
z
" transform="scale(0.015625)"/>
       <path id="DejaVuSans-Bold-6d" d="M 3781 2919 
Q 3994 3244 4286 3414 
Q 4578 3584 4928 3584 
Q 5531 3584 5847 3212 
Q 6163 2841 6163 2131 
L 6163 0 
L 5038 0 
L 5038 1825 
Q 5041 1866 5042 1909 
Q 5044 1953 5044 2034 
Q 5044 2406 4934 2573 
Q 4825 2741 4581 2741 
Q 4263 2741 4089 2478 
Q 3916 2216 3909 1719 
L 3909 0 
L 2784 0 
L 2784 1825 
Q 2784 2406 2684 2573 
Q 2584 2741 2328 2741 
Q 2006 2741 1831 2477 
Q 1656 2213 1656 1722 
L 1656 0 
L 531 0 
L 531 3500 
L 1656 3500 
L 1656 2988 
Q 1863 3284 2130 3434 
Q 2397 3584 2719 3584 
Q 3081 3584 3359 3409 
Q 3638 3234 3781 2919 
z
" transform="scale(0.015625)"/>
       <path id="DejaVuSans-Bold-65" d="M 4031 1759 
L 4031 1441 
L 1416 1441 
Q 1456 1047 1700 850 
Q 1944 653 2381 653 
Q 2734 653 3104 758 
Q 3475 863 3866 1075 
L 3866 213 
Q 3469 63 3072 -14 
Q 2675 -91 2278 -91 
Q 1328 -91 801 392 
Q 275 875 275 1747 
Q 275 2603 792 3093 
Q 1309 3584 2216 3584 
Q 3041 3584 3536 3087 
Q 4031 2591 4031 1759 
z
M 2881 2131 
Q 2881 2450 2695 2645 
Q 2509 2841 2209 2841 
Q 1884 2841 1681 2658 
Q 1478 2475 1428 2131 
L 2881 2131 
z
" transform="scale(0.015625)"/>
       <path id="DejaVuSans-Bold-20" transform="scale(0.015625)"/>
       <path id="DejaVuSans-Bold-5b" d="M 550 4863 
L 2491 4863 
L 2491 4159 
L 1613 4159 
L 1613 -141 
L 2491 -141 
L 2491 -844 
L 550 -844 
L 550 4863 
z
" transform="scale(0.015625)"/>
       <path id="DejaVuSans-Bold-68" d="M 4056 2131 
L 4056 0 
L 2931 0 
L 2931 347 
L 2931 1625 
Q 2931 2084 2911 2256 
Q 2891 2428 2841 2509 
Q 2775 2619 2662 2680 
Q 2550 2741 2406 2741 
Q 2056 2741 1856 2470 
Q 1656 2200 1656 1722 
L 1656 0 
L 538 0 
L 538 4863 
L 1656 4863 
L 1656 2988 
Q 1909 3294 2193 3439 
Q 2478 3584 2822 3584 
Q 3428 3584 3742 3212 
Q 4056 2841 4056 2131 
z
" transform="scale(0.015625)"/>
       <path id="DejaVuSans-Bold-72" d="M 3138 2547 
Q 2991 2616 2845 2648 
Q 2700 2681 2553 2681 
Q 2122 2681 1889 2404 
Q 1656 2128 1656 1613 
L 1656 0 
L 538 0 
L 538 3500 
L 1656 3500 
L 1656 2925 
Q 1872 3269 2151 3426 
Q 2431 3584 2822 3584 
Q 2878 3584 2943 3579 
Q 3009 3575 3134 3559 
L 3138 2547 
z
" transform="scale(0.015625)"/>
       <path id="DejaVuSans-Bold-5d" d="M 2375 -844 
L 434 -844 
L 434 -141 
L 1313 -141 
L 1313 4159 
L 434 4159 
L 434 4863 
L 2375 4863 
L 2375 -844 
z
" transform="scale(0.015625)"/>
      </defs>
      <use xlink:href="#DejaVuSans-Bold-74"/>
      <use xlink:href="#DejaVuSans-Bold-69" x="47.802734"/>
      <use xlink:href="#DejaVuSans-Bold-6d" x="82.080078"/>
      <use xlink:href="#DejaVuSans-Bold-65" x="186.279297"/>
      <use xlink:href="#DejaVuSans-Bold-20" x="254.101562"/>
      <use xlink:href="#DejaVuSans-Bold-5b" x="288.916016"/>
      <use xlink:href="#DejaVuSans-Bold-68" x="334.619141"/>
      <use xlink:href="#DejaVuSans-Bold-72" x="405.810547"/>
      <use xlink:href="#DejaVuSans-Bold-5d" x="455.126953"/>
     </g>
    </g>
   </g>
   <g id="matplotlib.axis_2">
    <g id="ytick_1">
     <g id="line2d_6">
      <defs>
       <path id="mfc6df4db10" d="M 0 0 
L -3.5 0 
" style="stroke: #000000; stroke-width: 0.8"/>
      </defs>
      <g>
       <use xlink:href="#mfc6df4db10" x="84.407937" y="335.7" style="stroke: #000000; stroke-width: 0.8"/>
      </g>
     </g>
     <g id="text_7">
      <!-- 0 -->
      <g transform="translate(67.864187 341.398828) scale(0.15 -0.15)">
       <use xlink:href="#DejaVuSans-30"/>
      </g>
     </g>
    </g>
    <g id="ytick_2">
     <g id="line2d_7">
      <g>
       <use xlink:href="#mfc6df4db10" x="84.407937" y="276.111644" style="stroke: #000000; stroke-width: 0.8"/>
      </g>
     </g>
     <g id="text_8">
      <!-- 50 -->
      <g transform="translate(58.320437 281.810472) scale(0.15 -0.15)">
       <defs>
        <path id="DejaVuSans-35" d="M 691 4666 
L 3169 4666 
L 3169 4134 
L 1269 4134 
L 1269 2991 
Q 1406 3038 1543 3061 
Q 1681 3084 1819 3084 
Q 2600 3084 3056 2656 
Q 3513 2228 3513 1497 
Q 3513 744 3044 326 
Q 2575 -91 1722 -91 
Q 1428 -91 1123 -41 
Q 819 9 494 109 
L 494 744 
Q 775 591 1075 516 
Q 1375 441 1709 441 
Q 2250 441 2565 725 
Q 2881 1009 2881 1497 
Q 2881 1984 2565 2268 
Q 2250 2553 1709 2553 
Q 1456 2553 1204 2497 
Q 953 2441 691 2322 
L 691 4666 
z
" transform="scale(0.015625)"/>
       </defs>
       <use xlink:href="#DejaVuSans-35"/>
       <use xlink:href="#DejaVuSans-30" x="63.623047"/>
      </g>
     </g>
    </g>
    <g id="ytick_3">
     <g id="line2d_8">
      <g>
       <use xlink:href="#mfc6df4db10" x="84.407937" y="216.523288" style="stroke: #000000; stroke-width: 0.8"/>
      </g>
     </g>
     <g id="text_9">
      <!-- 100 -->
      <g transform="translate(48.776687 222.222116) scale(0.15 -0.15)">
       <use xlink:href="#DejaVuSans-31"/>
       <use xlink:href="#DejaVuSans-30" x="63.623047"/>
       <use xlink:href="#DejaVuSans-30" x="127.246094"/>
      </g>
     </g>
    </g>
    <g id="ytick_4">
     <g id="line2d_9">
      <g>
       <use xlink:href="#mfc6df4db10" x="84.407937" y="156.934932" style="stroke: #000000; stroke-width: 0.8"/>
      </g>
     </g>
     <g id="text_10">
      <!-- 150 -->
      <g transform="translate(48.776687 162.63376) scale(0.15 -0.15)">
       <use xlink:href="#DejaVuSans-31"/>
       <use xlink:href="#DejaVuSans-35" x="63.623047"/>
       <use xlink:href="#DejaVuSans-30" x="127.246094"/>
      </g>
     </g>
    </g>
    <g id="text_11">
     <!-- HCTZ excretion -->
     <g transform="translate(20.877187 308.400938) rotate(-90) scale(0.18 -0.18)">
      <defs>
       <path id="DejaVuSans-Bold-48" d="M 588 4666 
L 1791 4666 
L 1791 2888 
L 3566 2888 
L 3566 4666 
L 4769 4666 
L 4769 0 
L 3566 0 
L 3566 1978 
L 1791 1978 
L 1791 0 
L 588 0 
L 588 4666 
z
" transform="scale(0.015625)"/>
       <path id="DejaVuSans-Bold-43" d="M 4288 256 
Q 3956 84 3597 -3 
Q 3238 -91 2847 -91 
Q 1681 -91 1000 561 
Q 319 1213 319 2328 
Q 319 3447 1000 4098 
Q 1681 4750 2847 4750 
Q 3238 4750 3597 4662 
Q 3956 4575 4288 4403 
L 4288 3438 
Q 3953 3666 3628 3772 
Q 3303 3878 2944 3878 
Q 2300 3878 1931 3465 
Q 1563 3053 1563 2328 
Q 1563 1606 1931 1193 
Q 2300 781 2944 781 
Q 3303 781 3628 887 
Q 3953 994 4288 1222 
L 4288 256 
z
" transform="scale(0.015625)"/>
       <path id="DejaVuSans-Bold-54" d="M 31 4666 
L 4331 4666 
L 4331 3756 
L 2784 3756 
L 2784 0 
L 1581 0 
L 1581 3756 
L 31 3756 
L 31 4666 
z
" transform="scale(0.015625)"/>
       <path id="DejaVuSans-Bold-5a" d="M 359 4666 
L 4281 4666 
L 4281 3938 
L 1778 909 
L 4353 909 
L 4353 0 
L 288 0 
L 288 728 
L 2791 3756 
L 359 3756 
L 359 4666 
z
" transform="scale(0.015625)"/>
       <path id="DejaVuSans-Bold-78" d="M 1422 1791 
L 159 3500 
L 1344 3500 
L 2059 2463 
L 2784 3500 
L 3969 3500 
L 2706 1797 
L 4031 0 
L 2847 0 
L 2059 1106 
L 1281 0 
L 97 0 
L 1422 1791 
z
" transform="scale(0.015625)"/>
       <path id="DejaVuSans-Bold-63" d="M 3366 3391 
L 3366 2478 
Q 3138 2634 2908 2709 
Q 2678 2784 2431 2784 
Q 1963 2784 1702 2511 
Q 1441 2238 1441 1747 
Q 1441 1256 1702 982 
Q 1963 709 2431 709 
Q 2694 709 2930 787 
Q 3166 866 3366 1019 
L 3366 103 
Q 3103 6 2833 -42 
Q 2563 -91 2291 -91 
Q 1344 -91 809 395 
Q 275 881 275 1747 
Q 275 2613 809 3098 
Q 1344 3584 2291 3584 
Q 2566 3584 2833 3536 
Q 3100 3488 3366 3391 
z
" transform="scale(0.015625)"/>
       <path id="DejaVuSans-Bold-6f" d="M 2203 2784 
Q 1831 2784 1636 2517 
Q 1441 2250 1441 1747 
Q 1441 1244 1636 976 
Q 1831 709 2203 709 
Q 2569 709 2762 976 
Q 2956 1244 2956 1747 
Q 2956 2250 2762 2517 
Q 2569 2784 2203 2784 
z
M 2203 3584 
Q 3106 3584 3614 3096 
Q 4122 2609 4122 1747 
Q 4122 884 3614 396 
Q 3106 -91 2203 -91 
Q 1297 -91 786 396 
Q 275 884 275 1747 
Q 275 2609 786 3096 
Q 1297 3584 2203 3584 
z
" transform="scale(0.015625)"/>
       <path id="DejaVuSans-Bold-6e" d="M 4056 2131 
L 4056 0 
L 2931 0 
L 2931 347 
L 2931 1631 
Q 2931 2084 2911 2256 
Q 2891 2428 2841 2509 
Q 2775 2619 2662 2680 
Q 2550 2741 2406 2741 
Q 2056 2741 1856 2470 
Q 1656 2200 1656 1722 
L 1656 0 
L 538 0 
L 538 3500 
L 1656 3500 
L 1656 2988 
Q 1909 3294 2193 3439 
Q 2478 3584 2822 3584 
Q 3428 3584 3742 3212 
Q 4056 2841 4056 2131 
z
" transform="scale(0.015625)"/>
      </defs>
      <use xlink:href="#DejaVuSans-Bold-48"/>
      <use xlink:href="#DejaVuSans-Bold-43" x="83.691406"/>
      <use xlink:href="#DejaVuSans-Bold-54" x="157.080078"/>
      <use xlink:href="#DejaVuSans-Bold-5a" x="225.292969"/>
      <use xlink:href="#DejaVuSans-Bold-20" x="297.802734"/>
      <use xlink:href="#DejaVuSans-Bold-65" x="332.617188"/>
      <use xlink:href="#DejaVuSans-Bold-78" x="400.439453"/>
      <use xlink:href="#DejaVuSans-Bold-63" x="464.941406"/>
      <use xlink:href="#DejaVuSans-Bold-72" x="524.21875"/>
      <use xlink:href="#DejaVuSans-Bold-65" x="573.535156"/>
      <use xlink:href="#DejaVuSans-Bold-74" x="641.357422"/>
      <use xlink:href="#DejaVuSans-Bold-69" x="689.160156"/>
      <use xlink:href="#DejaVuSans-Bold-6f" x="723.4375"/>
      <use xlink:href="#DejaVuSans-Bold-6e" x="792.138672"/>
     </g>
     <!-- urine [nmol/min] -->
     <g transform="translate(41.03325 315.713438) rotate(-90) scale(0.18 -0.18)">
      <defs>
       <path id="DejaVuSans-Bold-75" d="M 500 1363 
L 500 3500 
L 1625 3500 
L 1625 3150 
Q 1625 2866 1622 2436 
Q 1619 2006 1619 1863 
Q 1619 1441 1641 1255 
Q 1663 1069 1716 984 
Q 1784 875 1895 815 
Q 2006 756 2150 756 
Q 2500 756 2700 1025 
Q 2900 1294 2900 1772 
L 2900 3500 
L 4019 3500 
L 4019 0 
L 2900 0 
L 2900 506 
Q 2647 200 2364 54 
Q 2081 -91 1741 -91 
Q 1134 -91 817 281 
Q 500 653 500 1363 
z
" transform="scale(0.015625)"/>
       <path id="DejaVuSans-Bold-6c" d="M 538 4863 
L 1656 4863 
L 1656 0 
L 538 0 
L 538 4863 
z
" transform="scale(0.015625)"/>
       <path id="DejaVuSans-Bold-2f" d="M 1644 4666 
L 2338 4666 
L 691 -594 
L 0 -594 
L 1644 4666 
z
" transform="scale(0.015625)"/>
      </defs>
      <use xlink:href="#DejaVuSans-Bold-75"/>
      <use xlink:href="#DejaVuSans-Bold-72" x="71.191406"/>
      <use xlink:href="#DejaVuSans-Bold-69" x="120.507812"/>
      <use xlink:href="#DejaVuSans-Bold-6e" x="154.785156"/>
      <use xlink:href="#DejaVuSans-Bold-65" x="225.976562"/>
      <use xlink:href="#DejaVuSans-Bold-20" x="293.798828"/>
      <use xlink:href="#DejaVuSans-Bold-5b" x="328.613281"/>
      <use xlink:href="#DejaVuSans-Bold-6e" x="374.316406"/>
      <use xlink:href="#DejaVuSans-Bold-6d" x="445.507812"/>
      <use xlink:href="#DejaVuSans-Bold-6f" x="549.707031"/>
      <use xlink:href="#DejaVuSans-Bold-6c" x="618.408203"/>
      <use xlink:href="#DejaVuSans-Bold-2f" x="652.685547"/>
      <use xlink:href="#DejaVuSans-Bold-6d" x="689.208984"/>
      <use xlink:href="#DejaVuSans-Bold-69" x="793.408203"/>
      <use xlink:href="#DejaVuSans-Bold-6e" x="827.685547"/>
      <use xlink:href="#DejaVuSans-Bold-5d" x="898.876953"/>
     </g>
    </g>
   </g>
   <g id="line2d_10">
    <path d="M 102.162483 335.7 
L 102.872665 332.968489 
L 103.582847 326.023175 
L 105.00321 306.808078 
L 107.133756 277.351527 
L 108.554119 260.999052 
L 109.974483 247.881983 
L 111.394847 237.782357 
L 112.81521 230.282362 
L 113.525392 227.364982 
L 114.235574 224.929754 
L 114.945756 222.925939 
L 115.655937 221.30658 
L 116.366119 220.028675 
L 117.076301 219.053147 
L 117.786483 218.344706 
L 118.496665 217.871637 
L 119.206847 217.605544 
L 119.917028 217.521086 
L 120.62721 217.595702 
L 121.337392 217.80935 
L 122.757756 218.584672 
L 124.178119 219.727957 
L 125.598483 221.14617 
L 127.729028 223.635025 
L 130.569756 227.365647 
L 136.25121 235.343366 
L 142.642847 244.184276 
L 147.614119 250.649432 
L 151.87521 255.848316 
L 156.136301 260.727159 
L 160.397392 265.296084 
L 164.658483 269.570467 
L 168.919574 273.567476 
L 173.890847 277.903214 
L 178.862119 281.911626 
L 183.833392 285.617754 
L 188.804665 289.044897 
L 193.775937 292.214623 
L 198.74721 295.146852 
L 204.428665 298.230666 
L 210.110119 301.053391 
L 215.791574 303.637955 
L 222.18321 306.28685 
L 228.574847 308.687667 
L 234.966483 310.864687 
L 242.068301 313.047647 
L 249.170119 315.008141 
L 256.982119 316.936222 
L 265.504301 318.798608 
L 274.736665 320.568424 
L 283.969028 322.114852 
L 293.911574 323.565158 
L 305.274483 324.989906 
L 317.347574 326.275093 
L 330.841028 327.481226 
L 345.754847 328.584529 
L 362.79921 329.610751 
L 381.974119 330.533383 
L 403.989756 331.364958 
L 430.266483 332.126166 
L 457.253392 332.722494 
L 457.253392 332.722494 
" clip-path="url(#p64a54f496e)" style="fill: none; stroke: #000000; stroke-width: 2; stroke-linecap: square"/>
   </g>
   <g id="line2d_11">
    <path d="M 106.601119 282.649576 
L 115.478392 125.81036 
L 128.794301 155.907832 
L 155.426119 265.861647 
L 244.198847 319.195525 
" clip-path="url(#p64a54f496e)" style="fill: none; stroke-dasharray: 3.7,1.6; stroke-dashoffset: 0; stroke: #1f77b4"/>
    <defs>
     <path id="m34134205c7" d="M -3 3 
L 3 3 
L 3 -3 
L -3 -3 
z
" style="stroke: #000000; stroke-linejoin: miter"/>
    </defs>
    <g clip-path="url(#p64a54f496e)">
     <use xlink:href="#m34134205c7" x="106.601119" y="282.649576" style="fill: #1f77b4; stroke: #000000; stroke-linejoin: miter"/>
     <use xlink:href="#m34134205c7" x="115.478392" y="125.81036" style="fill: #1f77b4; stroke: #000000; stroke-linejoin: miter"/>
     <use xlink:href="#m34134205c7" x="128.794301" y="155.907832" style="fill: #1f77b4; stroke: #000000; stroke-linejoin: miter"/>
     <use xlink:href="#m34134205c7" x="155.426119" y="265.861647" style="fill: #1f77b4; stroke: #000000; stroke-linejoin: miter"/>
     <use xlink:href="#m34134205c7" x="244.198847" y="319.195525" style="fill: #1f77b4; stroke: #000000; stroke-linejoin: miter"/>
    </g>
   </g>
   <g id="line2d_12">
    <path d="M 106.601119 282.43481 
L 115.478392 125.7 
L 128.794301 162.532151 
L 155.426119 268.988806 
L 244.198847 322.313068 
" clip-path="url(#p64a54f496e)" style="fill: none; stroke-dasharray: 3.7,1.6; stroke-dashoffset: 0; stroke: #ff7f0e"/>
    <defs>
     <path id="m32312b9a17" d="M 0 3 
C 0.795609 3 1.55874 2.683901 2.12132 2.12132 
C 2.683901 1.55874 3 0.795609 3 0 
C 3 -0.795609 2.683901 -1.55874 2.12132 -2.12132 
C 1.55874 -2.683901 0.795609 -3 0 -3 
C -0.795609 -3 -1.55874 -2.683901 -2.12132 -2.12132 
C -2.683901 -1.55874 -3 -0.795609 -3 0 
C -3 0.795609 -2.683901 1.55874 -2.12132 2.12132 
C -1.55874 2.683901 -0.795609 3 0 3 
z
" style="stroke: #000000"/>
    </defs>
    <g clip-path="url(#p64a54f496e)">
     <use xlink:href="#m32312b9a17" x="106.601119" y="282.43481" style="fill: #ff7f0e; stroke: #000000"/>
     <use xlink:href="#m32312b9a17" x="115.478392" y="125.7" style="fill: #ff7f0e; stroke: #000000"/>
     <use xlink:href="#m32312b9a17" x="128.794301" y="162.532151" style="fill: #ff7f0e; stroke: #000000"/>
     <use xlink:href="#m32312b9a17" x="155.426119" y="268.988806" style="fill: #ff7f0e; stroke: #000000"/>
     <use xlink:href="#m32312b9a17" x="244.198847" y="322.313068" style="fill: #ff7f0e; stroke: #000000"/>
    </g>
   </g>
   <g id="patch_3">
    <path d="M 84.407937 346.2 
L 84.407937 115.2 
" style="fill: none; stroke: #000000; stroke-width: 0.8; stroke-linejoin: miter; stroke-linecap: square"/>
   </g>
   <g id="patch_4">
    <path d="M 475.007938 346.2 
L 475.007938 115.2 
" style="fill: none; stroke: #000000; stroke-width: 0.8; stroke-linejoin: miter; stroke-linecap: square"/>
   </g>
   <g id="patch_5">
    <path d="M 84.407938 346.2 
L 475.007938 346.2 
" style="fill: none; stroke: #000000; stroke-width: 0.8; stroke-linejoin: miter; stroke-linecap: square"/>
   </g>
   <g id="patch_6">
    <path d="M 84.407938 115.2 
L 475.007938 115.2 
" style="fill: none; stroke: #000000; stroke-width: 0.8; stroke-linejoin: miter; stroke-linecap: square"/>
   </g>
   <g id="legend_1">
    <g id="patch_7">
     <path d="M 311.075125 167.234375 
L 468.007938 167.234375 
Q 470.007938 167.234375 470.007938 165.234375 
L 470.007938 122.2 
Q 470.007938 120.2 468.007938 120.2 
L 311.075125 120.2 
Q 309.075125 120.2 309.075125 122.2 
L 309.075125 165.234375 
Q 309.075125 167.234375 311.075125 167.234375 
z
" style="fill: #ffffff; opacity: 0.8; stroke: #cccccc; stroke-linejoin: miter"/>
    </g>
    <g id="line2d_13">
     <path d="M 313.075125 128.298437 
L 333.075125 128.298437 
" style="fill: none; stroke: #000000; stroke-width: 2; stroke-linecap: square"/>
    </g>
    <g id="line2d_14"/>
    <g id="text_12">
     <!-- Sim -->
     <g transform="translate(341.075125 131.798437) scale(0.1 -0.1)">
      <defs>
       <path id="DejaVuSans-53" d="M 3425 4513 
L 3425 3897 
Q 3066 4069 2747 4153 
Q 2428 4238 2131 4238 
Q 1616 4238 1336 4038 
Q 1056 3838 1056 3469 
Q 1056 3159 1242 3001 
Q 1428 2844 1947 2747 
L 2328 2669 
Q 3034 2534 3370 2195 
Q 3706 1856 3706 1288 
Q 3706 609 3251 259 
Q 2797 -91 1919 -91 
Q 1588 -91 1214 -16 
Q 841 59 441 206 
L 441 856 
Q 825 641 1194 531 
Q 1563 422 1919 422 
Q 2459 422 2753 634 
Q 3047 847 3047 1241 
Q 3047 1584 2836 1778 
Q 2625 1972 2144 2069 
L 1759 2144 
Q 1053 2284 737 2584 
Q 422 2884 422 3419 
Q 422 4038 858 4394 
Q 1294 4750 2059 4750 
Q 2388 4750 2728 4690 
Q 3069 4631 3425 4513 
z
" transform="scale(0.015625)"/>
       <path id="DejaVuSans-69" d="M 603 3500 
L 1178 3500 
L 1178 0 
L 603 0 
L 603 3500 
z
M 603 4863 
L 1178 4863 
L 1178 4134 
L 603 4134 
L 603 4863 
z
" transform="scale(0.015625)"/>
       <path id="DejaVuSans-6d" d="M 3328 2828 
Q 3544 3216 3844 3400 
Q 4144 3584 4550 3584 
Q 5097 3584 5394 3201 
Q 5691 2819 5691 2113 
L 5691 0 
L 5113 0 
L 5113 2094 
Q 5113 2597 4934 2840 
Q 4756 3084 4391 3084 
Q 3944 3084 3684 2787 
Q 3425 2491 3425 1978 
L 3425 0 
L 2847 0 
L 2847 2094 
Q 2847 2600 2669 2842 
Q 2491 3084 2119 3084 
Q 1678 3084 1418 2786 
Q 1159 2488 1159 1978 
L 1159 0 
L 581 0 
L 581 3500 
L 1159 3500 
L 1159 2956 
Q 1356 3278 1631 3431 
Q 1906 3584 2284 3584 
Q 2666 3584 2933 3390 
Q 3200 3197 3328 2828 
z
" transform="scale(0.015625)"/>
      </defs>
      <use xlink:href="#DejaVuSans-53"/>
      <use xlink:href="#DejaVuSans-69" x="63.476562"/>
      <use xlink:href="#DejaVuSans-6d" x="91.259766"/>
     </g>
    </g>
    <g id="line2d_15">
     <path d="M 313.075125 142.976562 
L 333.075125 142.976562 
" style="fill: none; stroke-dasharray: 3.7,1.6; stroke-dashoffset: 0; stroke: #1f77b4"/>
    </g>
    <g id="line2d_16">
     <g>
      <use xlink:href="#m34134205c7" x="323.075125" y="142.976562" style="fill: #1f77b4; stroke: #000000; stroke-linejoin: miter"/>
     </g>
    </g>
    <g id="text_13">
     <!-- 25 mg HCTZ (n=9) -->
     <g transform="translate(341.075125 146.476562) scale(0.1 -0.1)">
      <defs>
       <path id="DejaVuSans-20" transform="scale(0.015625)"/>
       <path id="DejaVuSans-67" d="M 2906 1791 
Q 2906 2416 2648 2759 
Q 2391 3103 1925 3103 
Q 1463 3103 1205 2759 
Q 947 2416 947 1791 
Q 947 1169 1205 825 
Q 1463 481 1925 481 
Q 2391 481 2648 825 
Q 2906 1169 2906 1791 
z
M 3481 434 
Q 3481 -459 3084 -895 
Q 2688 -1331 1869 -1331 
Q 1566 -1331 1297 -1286 
Q 1028 -1241 775 -1147 
L 775 -588 
Q 1028 -725 1275 -790 
Q 1522 -856 1778 -856 
Q 2344 -856 2625 -561 
Q 2906 -266 2906 331 
L 2906 616 
Q 2728 306 2450 153 
Q 2172 0 1784 0 
Q 1141 0 747 490 
Q 353 981 353 1791 
Q 353 2603 747 3093 
Q 1141 3584 1784 3584 
Q 2172 3584 2450 3431 
Q 2728 3278 2906 2969 
L 2906 3500 
L 3481 3500 
L 3481 434 
z
" transform="scale(0.015625)"/>
       <path id="DejaVuSans-48" d="M 628 4666 
L 1259 4666 
L 1259 2753 
L 3553 2753 
L 3553 4666 
L 4184 4666 
L 4184 0 
L 3553 0 
L 3553 2222 
L 1259 2222 
L 1259 0 
L 628 0 
L 628 4666 
z
" transform="scale(0.015625)"/>
       <path id="DejaVuSans-43" d="M 4122 4306 
L 4122 3641 
Q 3803 3938 3442 4084 
Q 3081 4231 2675 4231 
Q 1875 4231 1450 3742 
Q 1025 3253 1025 2328 
Q 1025 1406 1450 917 
Q 1875 428 2675 428 
Q 3081 428 3442 575 
Q 3803 722 4122 1019 
L 4122 359 
Q 3791 134 3420 21 
Q 3050 -91 2638 -91 
Q 1578 -91 968 557 
Q 359 1206 359 2328 
Q 359 3453 968 4101 
Q 1578 4750 2638 4750 
Q 3056 4750 3426 4639 
Q 3797 4528 4122 4306 
z
" transform="scale(0.015625)"/>
       <path id="DejaVuSans-54" d="M -19 4666 
L 3928 4666 
L 3928 4134 
L 2272 4134 
L 2272 0 
L 1638 0 
L 1638 4134 
L -19 4134 
L -19 4666 
z
" transform="scale(0.015625)"/>
       <path id="DejaVuSans-5a" d="M 359 4666 
L 4025 4666 
L 4025 4184 
L 1075 531 
L 4097 531 
L 4097 0 
L 288 0 
L 288 481 
L 3238 4134 
L 359 4134 
L 359 4666 
z
" transform="scale(0.015625)"/>
       <path id="DejaVuSans-28" d="M 1984 4856 
Q 1566 4138 1362 3434 
Q 1159 2731 1159 2009 
Q 1159 1288 1364 580 
Q 1569 -128 1984 -844 
L 1484 -844 
Q 1016 -109 783 600 
Q 550 1309 550 2009 
Q 550 2706 781 3412 
Q 1013 4119 1484 4856 
L 1984 4856 
z
" transform="scale(0.015625)"/>
       <path id="DejaVuSans-6e" d="M 3513 2113 
L 3513 0 
L 2938 0 
L 2938 2094 
Q 2938 2591 2744 2837 
Q 2550 3084 2163 3084 
Q 1697 3084 1428 2787 
Q 1159 2491 1159 1978 
L 1159 0 
L 581 0 
L 581 3500 
L 1159 3500 
L 1159 2956 
Q 1366 3272 1645 3428 
Q 1925 3584 2291 3584 
Q 2894 3584 3203 3211 
Q 3513 2838 3513 2113 
z
" transform="scale(0.015625)"/>
       <path id="DejaVuSans-3d" d="M 678 2906 
L 4684 2906 
L 4684 2381 
L 678 2381 
L 678 2906 
z
M 678 1631 
L 4684 1631 
L 4684 1100 
L 678 1100 
L 678 1631 
z
" transform="scale(0.015625)"/>
       <path id="DejaVuSans-39" d="M 703 97 
L 703 672 
Q 941 559 1184 500 
Q 1428 441 1663 441 
Q 2288 441 2617 861 
Q 2947 1281 2994 2138 
Q 2813 1869 2534 1725 
Q 2256 1581 1919 1581 
Q 1219 1581 811 2004 
Q 403 2428 403 3163 
Q 403 3881 828 4315 
Q 1253 4750 1959 4750 
Q 2769 4750 3195 4129 
Q 3622 3509 3622 2328 
Q 3622 1225 3098 567 
Q 2575 -91 1691 -91 
Q 1453 -91 1209 -44 
Q 966 3 703 97 
z
M 1959 2075 
Q 2384 2075 2632 2365 
Q 2881 2656 2881 3163 
Q 2881 3666 2632 3958 
Q 2384 4250 1959 4250 
Q 1534 4250 1286 3958 
Q 1038 3666 1038 3163 
Q 1038 2656 1286 2365 
Q 1534 2075 1959 2075 
z
" transform="scale(0.015625)"/>
       <path id="DejaVuSans-29" d="M 513 4856 
L 1013 4856 
Q 1481 4119 1714 3412 
Q 1947 2706 1947 2009 
Q 1947 1309 1714 600 
Q 1481 -109 1013 -844 
L 513 -844 
Q 928 -128 1133 580 
Q 1338 1288 1338 2009 
Q 1338 2731 1133 3434 
Q 928 4138 513 4856 
z
" transform="scale(0.015625)"/>
      </defs>
      <use xlink:href="#DejaVuSans-32"/>
      <use xlink:href="#DejaVuSans-35" x="63.623047"/>
      <use xlink:href="#DejaVuSans-20" x="127.246094"/>
      <use xlink:href="#DejaVuSans-6d" x="159.033203"/>
      <use xlink:href="#DejaVuSans-67" x="256.445312"/>
      <use xlink:href="#DejaVuSans-20" x="319.921875"/>
      <use xlink:href="#DejaVuSans-48" x="351.708984"/>
      <use xlink:href="#DejaVuSans-43" x="426.904297"/>
      <use xlink:href="#DejaVuSans-54" x="496.728516"/>
      <use xlink:href="#DejaVuSans-5a" x="557.8125"/>
      <use xlink:href="#DejaVuSans-20" x="626.318359"/>
      <use xlink:href="#DejaVuSans-28" x="658.105469"/>
      <use xlink:href="#DejaVuSans-6e" x="697.119141"/>
      <use xlink:href="#DejaVuSans-3d" x="760.498047"/>
      <use xlink:href="#DejaVuSans-39" x="844.287109"/>
      <use xlink:href="#DejaVuSans-29" x="907.910156"/>
     </g>
    </g>
    <g id="line2d_17">
     <path d="M 313.075125 157.654688 
L 333.075125 157.654688 
" style="fill: none; stroke-dasharray: 3.7,1.6; stroke-dashoffset: 0; stroke: #ff7f0e"/>
    </g>
    <g id="line2d_18">
     <g>
      <use xlink:href="#m32312b9a17" x="323.075125" y="157.654688" style="fill: #ff7f0e; stroke: #000000"/>
     </g>
    </g>
    <g id="text_14">
     <!-- 25 mg HCTZ + CIL (n=9) -->
     <g transform="translate(341.075125 161.154688) scale(0.1 -0.1)">
      <defs>
       <path id="DejaVuSans-2b" d="M 2944 4013 
L 2944 2272 
L 4684 2272 
L 4684 1741 
L 2944 1741 
L 2944 0 
L 2419 0 
L 2419 1741 
L 678 1741 
L 678 2272 
L 2419 2272 
L 2419 4013 
L 2944 4013 
z
" transform="scale(0.015625)"/>
       <path id="DejaVuSans-49" d="M 628 4666 
L 1259 4666 
L 1259 0 
L 628 0 
L 628 4666 
z
" transform="scale(0.015625)"/>
       <path id="DejaVuSans-4c" d="M 628 4666 
L 1259 4666 
L 1259 531 
L 3531 531 
L 3531 0 
L 628 0 
L 628 4666 
z
" transform="scale(0.015625)"/>
      </defs>
      <use xlink:href="#DejaVuSans-32"/>
      <use xlink:href="#DejaVuSans-35" x="63.623047"/>
      <use xlink:href="#DejaVuSans-20" x="127.246094"/>
      <use xlink:href="#DejaVuSans-6d" x="159.033203"/>
      <use xlink:href="#DejaVuSans-67" x="256.445312"/>
      <use xlink:href="#DejaVuSans-20" x="319.921875"/>
      <use xlink:href="#DejaVuSans-48" x="351.708984"/>
      <use xlink:href="#DejaVuSans-43" x="426.904297"/>
      <use xlink:href="#DejaVuSans-54" x="496.728516"/>
      <use xlink:href="#DejaVuSans-5a" x="557.8125"/>
      <use xlink:href="#DejaVuSans-20" x="626.318359"/>
      <use xlink:href="#DejaVuSans-2b" x="658.105469"/>
      <use xlink:href="#DejaVuSans-20" x="741.894531"/>
      <use xlink:href="#DejaVuSans-43" x="773.681641"/>
      <use xlink:href="#DejaVuSans-49" x="843.505859"/>
      <use xlink:href="#DejaVuSans-4c" x="872.998047"/>
      <use xlink:href="#DejaVuSans-20" x="928.710938"/>
      <use xlink:href="#DejaVuSans-28" x="960.498047"/>
      <use xlink:href="#DejaVuSans-6e" x="999.511719"/>
      <use xlink:href="#DejaVuSans-3d" x="1062.890625"/>
      <use xlink:href="#DejaVuSans-39" x="1146.679688"/>
      <use xlink:href="#DejaVuSans-29" x="1210.302734"/>
     </g>
    </g>
   </g>
  </g>
  <g id="axes_2">
   <g id="patch_8">
    <path d="M 84.407937 646.5 
L 475.007938 646.5 
L 475.007938 415.5 
L 84.407937 415.5 
z
" style="fill: #ffffff"/>
   </g>
   <g id="matplotlib.axis_3">
    <g id="xtick_6">
     <g id="line2d_19">
      <g>
       <use xlink:href="#mbf7b8dce9b" x="107.02026" y="646.5" style="stroke: #000000; stroke-width: 0.8"/>
      </g>
     </g>
     <g id="text_15">
      <!-- 0 -->
      <g transform="translate(102.248385 664.897656) scale(0.15 -0.15)">
       <use xlink:href="#DejaVuSans-30"/>
      </g>
     </g>
    </g>
    <g id="xtick_7">
     <g id="line2d_20">
      <g>
       <use xlink:href="#mbf7b8dce9b" x="194.578543" y="646.5" style="stroke: #000000; stroke-width: 0.8"/>
      </g>
     </g>
     <g id="text_16">
      <!-- 10 -->
      <g transform="translate(185.034793 664.897656) scale(0.15 -0.15)">
       <use xlink:href="#DejaVuSans-31"/>
       <use xlink:href="#DejaVuSans-30" x="63.623047"/>
      </g>
     </g>
    </g>
    <g id="xtick_8">
     <g id="line2d_21">
      <g>
       <use xlink:href="#mbf7b8dce9b" x="282.136826" y="646.5" style="stroke: #000000; stroke-width: 0.8"/>
      </g>
     </g>
     <g id="text_17">
      <!-- 20 -->
      <g transform="translate(272.593076 664.897656) scale(0.15 -0.15)">
       <use xlink:href="#DejaVuSans-32"/>
       <use xlink:href="#DejaVuSans-30" x="63.623047"/>
      </g>
     </g>
    </g>
    <g id="xtick_9">
     <g id="line2d_22">
      <g>
       <use xlink:href="#mbf7b8dce9b" x="369.695109" y="646.5" style="stroke: #000000; stroke-width: 0.8"/>
      </g>
     </g>
     <g id="text_18">
      <!-- 30 -->
      <g transform="translate(360.151359 664.897656) scale(0.15 -0.15)">
       <use xlink:href="#DejaVuSans-33"/>
       <use xlink:href="#DejaVuSans-30" x="63.623047"/>
      </g>
     </g>
    </g>
    <g id="xtick_10">
     <g id="line2d_23">
      <g>
       <use xlink:href="#mbf7b8dce9b" x="457.253392" y="646.5" style="stroke: #000000; stroke-width: 0.8"/>
      </g>
     </g>
     <g id="text_19">
      <!-- 40 -->
      <g transform="translate(447.709642 664.897656) scale(0.15 -0.15)">
       <use xlink:href="#DejaVuSans-34"/>
       <use xlink:href="#DejaVuSans-30" x="63.623047"/>
      </g>
     </g>
    </g>
    <g id="text_20">
     <!-- time [hr] -->
     <g transform="translate(234.633406 685.694375) scale(0.18 -0.18)">
      <use xlink:href="#DejaVuSans-Bold-74"/>
      <use xlink:href="#DejaVuSans-Bold-69" x="47.802734"/>
      <use xlink:href="#DejaVuSans-Bold-6d" x="82.080078"/>
      <use xlink:href="#DejaVuSans-Bold-65" x="186.279297"/>
      <use xlink:href="#DejaVuSans-Bold-20" x="254.101562"/>
      <use xlink:href="#DejaVuSans-Bold-5b" x="288.916016"/>
      <use xlink:href="#DejaVuSans-Bold-68" x="334.619141"/>
      <use xlink:href="#DejaVuSans-Bold-72" x="405.810547"/>
      <use xlink:href="#DejaVuSans-Bold-5d" x="455.126953"/>
     </g>
    </g>
   </g>
   <g id="matplotlib.axis_4">
    <g id="ytick_5">
     <g id="line2d_24">
      <g>
       <use xlink:href="#mfc6df4db10" x="84.407937" y="643.937718" style="stroke: #000000; stroke-width: 0.8"/>
      </g>
     </g>
     <g id="text_21">
      <!-- 0 -->
      <g transform="translate(67.864187 649.636546) scale(0.15 -0.15)">
       <use xlink:href="#DejaVuSans-30"/>
      </g>
     </g>
    </g>
    <g id="ytick_6">
     <g id="line2d_25">
      <g>
       <use xlink:href="#mfc6df4db10" x="84.407937" y="588.271936" style="stroke: #000000; stroke-width: 0.8"/>
      </g>
     </g>
     <g id="text_22">
      <!-- 10 -->
      <g transform="translate(58.320437 593.970764) scale(0.15 -0.15)">
       <use xlink:href="#DejaVuSans-31"/>
       <use xlink:href="#DejaVuSans-30" x="63.623047"/>
      </g>
     </g>
    </g>
    <g id="ytick_7">
     <g id="line2d_26">
      <g>
       <use xlink:href="#mfc6df4db10" x="84.407937" y="532.606153" style="stroke: #000000; stroke-width: 0.8"/>
      </g>
     </g>
     <g id="text_23">
      <!-- 20 -->
      <g transform="translate(58.320437 538.304981) scale(0.15 -0.15)">
       <use xlink:href="#DejaVuSans-32"/>
       <use xlink:href="#DejaVuSans-30" x="63.623047"/>
      </g>
     </g>
    </g>
    <g id="ytick_8">
     <g id="line2d_27">
      <g>
       <use xlink:href="#mfc6df4db10" x="84.407937" y="476.940371" style="stroke: #000000; stroke-width: 0.8"/>
      </g>
     </g>
     <g id="text_24">
      <!-- 30 -->
      <g transform="translate(58.320437 482.639199) scale(0.15 -0.15)">
       <use xlink:href="#DejaVuSans-33"/>
       <use xlink:href="#DejaVuSans-30" x="63.623047"/>
      </g>
     </g>
    </g>
    <g id="ytick_9">
     <g id="line2d_28">
      <g>
       <use xlink:href="#mfc6df4db10" x="84.407937" y="421.274589" style="stroke: #000000; stroke-width: 0.8"/>
      </g>
     </g>
     <g id="text_25">
      <!-- 40 -->
      <g transform="translate(58.320437 426.973417) scale(0.15 -0.15)">
       <use xlink:href="#DejaVuSans-34"/>
       <use xlink:href="#DejaVuSans-30" x="63.623047"/>
      </g>
     </g>
    </g>
    <g id="text_26">
     <!-- Sodium excretion -->
     <g transform="translate(30.420937 619.875) rotate(-90) scale(0.18 -0.18)">
      <defs>
       <path id="DejaVuSans-Bold-53" d="M 3834 4519 
L 3834 3531 
Q 3450 3703 3084 3790 
Q 2719 3878 2394 3878 
Q 1963 3878 1756 3759 
Q 1550 3641 1550 3391 
Q 1550 3203 1689 3098 
Q 1828 2994 2194 2919 
L 2706 2816 
Q 3484 2659 3812 2340 
Q 4141 2022 4141 1434 
Q 4141 663 3683 286 
Q 3225 -91 2284 -91 
Q 1841 -91 1394 -6 
Q 947 78 500 244 
L 500 1259 
Q 947 1022 1364 901 
Q 1781 781 2169 781 
Q 2563 781 2772 912 
Q 2981 1044 2981 1288 
Q 2981 1506 2839 1625 
Q 2697 1744 2272 1838 
L 1806 1941 
Q 1106 2091 782 2419 
Q 459 2747 459 3303 
Q 459 4000 909 4375 
Q 1359 4750 2203 4750 
Q 2588 4750 2994 4692 
Q 3400 4634 3834 4519 
z
" transform="scale(0.015625)"/>
       <path id="DejaVuSans-Bold-64" d="M 2919 2988 
L 2919 4863 
L 4044 4863 
L 4044 0 
L 2919 0 
L 2919 506 
Q 2688 197 2409 53 
Q 2131 -91 1766 -91 
Q 1119 -91 703 423 
Q 288 938 288 1747 
Q 288 2556 703 3070 
Q 1119 3584 1766 3584 
Q 2128 3584 2408 3439 
Q 2688 3294 2919 2988 
z
M 2181 722 
Q 2541 722 2730 984 
Q 2919 1247 2919 1747 
Q 2919 2247 2730 2509 
Q 2541 2772 2181 2772 
Q 1825 2772 1636 2509 
Q 1447 2247 1447 1747 
Q 1447 1247 1636 984 
Q 1825 722 2181 722 
z
" transform="scale(0.015625)"/>
      </defs>
      <use xlink:href="#DejaVuSans-Bold-53"/>
      <use xlink:href="#DejaVuSans-Bold-6f" x="72.021484"/>
      <use xlink:href="#DejaVuSans-Bold-64" x="140.722656"/>
      <use xlink:href="#DejaVuSans-Bold-69" x="212.304688"/>
      <use xlink:href="#DejaVuSans-Bold-75" x="246.582031"/>
      <use xlink:href="#DejaVuSans-Bold-6d" x="317.773438"/>
      <use xlink:href="#DejaVuSans-Bold-20" x="421.972656"/>
      <use xlink:href="#DejaVuSans-Bold-65" x="456.787109"/>
      <use xlink:href="#DejaVuSans-Bold-78" x="524.609375"/>
      <use xlink:href="#DejaVuSans-Bold-63" x="589.111328"/>
      <use xlink:href="#DejaVuSans-Bold-72" x="648.388672"/>
      <use xlink:href="#DejaVuSans-Bold-65" x="697.705078"/>
      <use xlink:href="#DejaVuSans-Bold-74" x="765.527344"/>
      <use xlink:href="#DejaVuSans-Bold-69" x="813.330078"/>
      <use xlink:href="#DejaVuSans-Bold-6f" x="847.607422"/>
      <use xlink:href="#DejaVuSans-Bold-6e" x="916.308594"/>
     </g>
     <!--  [mmole/hr] -->
     <g transform="translate(50.577 590.622188) rotate(-90) scale(0.18 -0.18)">
      <use xlink:href="#DejaVuSans-Bold-20"/>
      <use xlink:href="#DejaVuSans-Bold-5b" x="34.814453"/>
      <use xlink:href="#DejaVuSans-Bold-6d" x="80.517578"/>
      <use xlink:href="#DejaVuSans-Bold-6d" x="184.716797"/>
      <use xlink:href="#DejaVuSans-Bold-6f" x="288.916016"/>
      <use xlink:href="#DejaVuSans-Bold-6c" x="357.617188"/>
      <use xlink:href="#DejaVuSans-Bold-65" x="391.894531"/>
      <use xlink:href="#DejaVuSans-Bold-2f" x="459.716797"/>
      <use xlink:href="#DejaVuSans-Bold-68" x="496.240234"/>
      <use xlink:href="#DejaVuSans-Bold-72" x="567.431641"/>
      <use xlink:href="#DejaVuSans-Bold-5d" x="616.748047"/>
     </g>
    </g>
   </g>
   <g id="line2d_29">
    <path d="M 107.02026 636 
L 457.253392 636 
L 457.253392 636 
" clip-path="url(#p5ae709e2d6)" style="fill: none; stroke: #000000; stroke-width: 2; stroke-linecap: square"/>
   </g>
   <g id="line2d_30">
    <path d="M 102.551329 597.009452 
L 111.253506 553.125916 
L 119.920016 474.004258 
L 133.296737 495.253841 
L 159.517964 509.662549 
L 247.158672 584.078486 
" clip-path="url(#p5ae709e2d6)" style="fill: none; stroke-dasharray: 3.7,1.6; stroke-dashoffset: 0; stroke: #1f77b4"/>
    <g clip-path="url(#p5ae709e2d6)">
     <use xlink:href="#m34134205c7" x="102.551329" y="597.009452" style="fill: #1f77b4; stroke: #000000; stroke-linejoin: miter"/>
     <use xlink:href="#m34134205c7" x="111.253506" y="553.125916" style="fill: #1f77b4; stroke: #000000; stroke-linejoin: miter"/>
     <use xlink:href="#m34134205c7" x="119.920016" y="474.004258" style="fill: #1f77b4; stroke: #000000; stroke-linejoin: miter"/>
     <use xlink:href="#m34134205c7" x="133.296737" y="495.253841" style="fill: #1f77b4; stroke: #000000; stroke-linejoin: miter"/>
     <use xlink:href="#m34134205c7" x="159.517964" y="509.662549" style="fill: #1f77b4; stroke: #000000; stroke-linejoin: miter"/>
     <use xlink:href="#m34134205c7" x="247.158672" y="584.078486" style="fill: #1f77b4; stroke: #000000; stroke-linejoin: miter"/>
    </g>
   </g>
   <g id="line2d_31">
    <path d="M 102.162483 584.495799 
L 111.364005 532.953914 
L 120.182976 426 
L 133.247082 462.569138 
L 159.545938 504.555714 
L 246.690098 586.119315 
" clip-path="url(#p5ae709e2d6)" style="fill: none; stroke-dasharray: 3.7,1.6; stroke-dashoffset: 0; stroke: #ff7f0e"/>
    <g clip-path="url(#p5ae709e2d6)">
     <use xlink:href="#m32312b9a17" x="102.162483" y="584.495799" style="fill: #ff7f0e; stroke: #000000"/>
     <use xlink:href="#m32312b9a17" x="111.364005" y="532.953914" style="fill: #ff7f0e; stroke: #000000"/>
     <use xlink:href="#m32312b9a17" x="120.182976" y="426" style="fill: #ff7f0e; stroke: #000000"/>
     <use xlink:href="#m32312b9a17" x="133.247082" y="462.569138" style="fill: #ff7f0e; stroke: #000000"/>
     <use xlink:href="#m32312b9a17" x="159.545938" y="504.555714" style="fill: #ff7f0e; stroke: #000000"/>
     <use xlink:href="#m32312b9a17" x="246.690098" y="586.119315" style="fill: #ff7f0e; stroke: #000000"/>
    </g>
   </g>
   <g id="patch_9">
    <path d="M 84.407937 646.5 
L 84.407937 415.5 
" style="fill: none; stroke: #000000; stroke-width: 0.8; stroke-linejoin: miter; stroke-linecap: square"/>
   </g>
   <g id="patch_10">
    <path d="M 475.007938 646.5 
L 475.007938 415.5 
" style="fill: none; stroke: #000000; stroke-width: 0.8; stroke-linejoin: miter; stroke-linecap: square"/>
   </g>
   <g id="patch_11">
    <path d="M 84.407937 646.5 
L 475.007938 646.5 
" style="fill: none; stroke: #000000; stroke-width: 0.8; stroke-linejoin: miter; stroke-linecap: square"/>
   </g>
   <g id="patch_12">
    <path d="M 84.407937 415.5 
L 475.007938 415.5 
" style="fill: none; stroke: #000000; stroke-width: 0.8; stroke-linejoin: miter; stroke-linecap: square"/>
   </g>
   <g id="legend_2">
    <g id="patch_13">
     <path d="M 311.075125 467.534375 
L 468.007938 467.534375 
Q 470.007938 467.534375 470.007938 465.534375 
L 470.007938 422.5 
Q 470.007938 420.5 468.007938 420.5 
L 311.075125 420.5 
Q 309.075125 420.5 309.075125 422.5 
L 309.075125 465.534375 
Q 309.075125 467.534375 311.075125 467.534375 
z
" style="fill: #ffffff; opacity: 0.8; stroke: #cccccc; stroke-linejoin: miter"/>
    </g>
    <g id="line2d_32">
     <path d="M 313.075125 428.598438 
L 333.075125 428.598438 
" style="fill: none; stroke: #000000; stroke-width: 2; stroke-linecap: square"/>
    </g>
    <g id="line2d_33"/>
    <g id="text_27">
     <!-- Sim -->
     <g transform="translate(341.075125 432.098438) scale(0.1 -0.1)">
      <use xlink:href="#DejaVuSans-53"/>
      <use xlink:href="#DejaVuSans-69" x="63.476562"/>
      <use xlink:href="#DejaVuSans-6d" x="91.259766"/>
     </g>
    </g>
    <g id="line2d_34">
     <path d="M 313.075125 443.276563 
L 333.075125 443.276563 
" style="fill: none; stroke-dasharray: 3.7,1.6; stroke-dashoffset: 0; stroke: #1f77b4"/>
    </g>
    <g id="line2d_35">
     <g>
      <use xlink:href="#m34134205c7" x="323.075125" y="443.276563" style="fill: #1f77b4; stroke: #000000; stroke-linejoin: miter"/>
     </g>
    </g>
    <g id="text_28">
     <!-- 25 mg HCTZ (n=9) -->
     <g transform="translate(341.075125 446.776563) scale(0.1 -0.1)">
      <use xlink:href="#DejaVuSans-32"/>
      <use xlink:href="#DejaVuSans-35" x="63.623047"/>
      <use xlink:href="#DejaVuSans-20" x="127.246094"/>
      <use xlink:href="#DejaVuSans-6d" x="159.033203"/>
      <use xlink:href="#DejaVuSans-67" x="256.445312"/>
      <use xlink:href="#DejaVuSans-20" x="319.921875"/>
      <use xlink:href="#DejaVuSans-48" x="351.708984"/>
      <use xlink:href="#DejaVuSans-43" x="426.904297"/>
      <use xlink:href="#DejaVuSans-54" x="496.728516"/>
      <use xlink:href="#DejaVuSans-5a" x="557.8125"/>
      <use xlink:href="#DejaVuSans-20" x="626.318359"/>
      <use xlink:href="#DejaVuSans-28" x="658.105469"/>
      <use xlink:href="#DejaVuSans-6e" x="697.119141"/>
      <use xlink:href="#DejaVuSans-3d" x="760.498047"/>
      <use xlink:href="#DejaVuSans-39" x="844.287109"/>
      <use xlink:href="#DejaVuSans-29" x="907.910156"/>
     </g>
    </g>
    <g id="line2d_36">
     <path d="M 313.075125 457.954688 
L 333.075125 457.954688 
" style="fill: none; stroke-dasharray: 3.7,1.6; stroke-dashoffset: 0; stroke: #ff7f0e"/>
    </g>
    <g id="line2d_37">
     <g>
      <use xlink:href="#m32312b9a17" x="323.075125" y="457.954688" style="fill: #ff7f0e; stroke: #000000"/>
     </g>
    </g>
    <g id="text_29">
     <!-- 25 mg HCTZ + CIL (n=9) -->
     <g transform="translate(341.075125 461.454688) scale(0.1 -0.1)">
      <use xlink:href="#DejaVuSans-32"/>
      <use xlink:href="#DejaVuSans-35" x="63.623047"/>
      <use xlink:href="#DejaVuSans-20" x="127.246094"/>
      <use xlink:href="#DejaVuSans-6d" x="159.033203"/>
      <use xlink:href="#DejaVuSans-67" x="256.445312"/>
      <use xlink:href="#DejaVuSans-20" x="319.921875"/>
      <use xlink:href="#DejaVuSans-48" x="351.708984"/>
      <use xlink:href="#DejaVuSans-43" x="426.904297"/>
      <use xlink:href="#DejaVuSans-54" x="496.728516"/>
      <use xlink:href="#DejaVuSans-5a" x="557.8125"/>
      <use xlink:href="#DejaVuSans-20" x="626.318359"/>
      <use xlink:href="#DejaVuSans-2b" x="658.105469"/>
      <use xlink:href="#DejaVuSans-20" x="741.894531"/>
      <use xlink:href="#DejaVuSans-43" x="773.681641"/>
      <use xlink:href="#DejaVuSans-49" x="843.505859"/>
      <use xlink:href="#DejaVuSans-4c" x="872.998047"/>
      <use xlink:href="#DejaVuSans-20" x="928.710938"/>
      <use xlink:href="#DejaVuSans-28" x="960.498047"/>
      <use xlink:href="#DejaVuSans-6e" x="999.511719"/>
      <use xlink:href="#DejaVuSans-3d" x="1062.890625"/>
      <use xlink:href="#DejaVuSans-39" x="1146.679688"/>
      <use xlink:href="#DejaVuSans-29" x="1210.302734"/>
     </g>
    </g>
   </g>
  </g>
  <g id="axes_3">
   <g id="patch_14">
    <path d="M 84.407937 946.8 
L 475.007938 946.8 
L 475.007938 715.8 
L 84.407937 715.8 
z
" style="fill: #ffffff"/>
   </g>
   <g id="matplotlib.axis_5">
    <g id="xtick_11">
     <g id="line2d_38">
      <g>
       <use xlink:href="#mbf7b8dce9b" x="102.162483" y="946.8" style="stroke: #000000; stroke-width: 0.8"/>
      </g>
     </g>
     <g id="text_30">
      <!-- 0 -->
      <g transform="translate(97.390608 965.197656) scale(0.15 -0.15)">
       <use xlink:href="#DejaVuSans-30"/>
      </g>
     </g>
    </g>
    <g id="xtick_12">
     <g id="line2d_39">
      <g>
       <use xlink:href="#mbf7b8dce9b" x="152.541729" y="946.8" style="stroke: #000000; stroke-width: 0.8"/>
      </g>
     </g>
     <g id="text_31">
      <!-- 25 -->
      <g transform="translate(142.997979 965.197656) scale(0.15 -0.15)">
       <use xlink:href="#DejaVuSans-32"/>
       <use xlink:href="#DejaVuSans-35" x="63.623047"/>
      </g>
     </g>
    </g>
    <g id="xtick_13">
     <g id="line2d_40">
      <g>
       <use xlink:href="#mbf7b8dce9b" x="202.920976" y="946.8" style="stroke: #000000; stroke-width: 0.8"/>
      </g>
     </g>
     <g id="text_32">
      <!-- 50 -->
      <g transform="translate(193.377226 965.197656) scale(0.15 -0.15)">
       <use xlink:href="#DejaVuSans-35"/>
       <use xlink:href="#DejaVuSans-30" x="63.623047"/>
      </g>
     </g>
    </g>
    <g id="xtick_14">
     <g id="line2d_41">
      <g>
       <use xlink:href="#mbf7b8dce9b" x="253.300222" y="946.8" style="stroke: #000000; stroke-width: 0.8"/>
      </g>
     </g>
     <g id="text_33">
      <!-- 75 -->
      <g transform="translate(243.756472 965.197656) scale(0.15 -0.15)">
       <defs>
        <path id="DejaVuSans-37" d="M 525 4666 
L 3525 4666 
L 3525 4397 
L 1831 0 
L 1172 0 
L 2766 4134 
L 525 4134 
L 525 4666 
z
" transform="scale(0.015625)"/>
       </defs>
       <use xlink:href="#DejaVuSans-37"/>
       <use xlink:href="#DejaVuSans-35" x="63.623047"/>
      </g>
     </g>
    </g>
    <g id="xtick_15">
     <g id="line2d_42">
      <g>
       <use xlink:href="#mbf7b8dce9b" x="303.679469" y="946.8" style="stroke: #000000; stroke-width: 0.8"/>
      </g>
     </g>
     <g id="text_34">
      <!-- 100 -->
      <g transform="translate(289.363844 965.197656) scale(0.15 -0.15)">
       <use xlink:href="#DejaVuSans-31"/>
       <use xlink:href="#DejaVuSans-30" x="63.623047"/>
       <use xlink:href="#DejaVuSans-30" x="127.246094"/>
      </g>
     </g>
    </g>
    <g id="xtick_16">
     <g id="line2d_43">
      <g>
       <use xlink:href="#mbf7b8dce9b" x="354.058715" y="946.8" style="stroke: #000000; stroke-width: 0.8"/>
      </g>
     </g>
     <g id="text_35">
      <!-- 125 -->
      <g transform="translate(339.74309 965.197656) scale(0.15 -0.15)">
       <use xlink:href="#DejaVuSans-31"/>
       <use xlink:href="#DejaVuSans-32" x="63.623047"/>
       <use xlink:href="#DejaVuSans-35" x="127.246094"/>
      </g>
     </g>
    </g>
    <g id="xtick_17">
     <g id="line2d_44">
      <g>
       <use xlink:href="#mbf7b8dce9b" x="404.437962" y="946.8" style="stroke: #000000; stroke-width: 0.8"/>
      </g>
     </g>
     <g id="text_36">
      <!-- 150 -->
      <g transform="translate(390.122337 965.197656) scale(0.15 -0.15)">
       <use xlink:href="#DejaVuSans-31"/>
       <use xlink:href="#DejaVuSans-35" x="63.623047"/>
       <use xlink:href="#DejaVuSans-30" x="127.246094"/>
      </g>
     </g>
    </g>
    <g id="xtick_18">
     <g id="line2d_45">
      <g>
       <use xlink:href="#mbf7b8dce9b" x="454.817208" y="946.8" style="stroke: #000000; stroke-width: 0.8"/>
      </g>
     </g>
     <g id="text_37">
      <!-- 175 -->
      <g transform="translate(440.501583 965.197656) scale(0.15 -0.15)">
       <use xlink:href="#DejaVuSans-31"/>
       <use xlink:href="#DejaVuSans-37" x="63.623047"/>
       <use xlink:href="#DejaVuSans-35" x="127.246094"/>
      </g>
     </g>
    </g>
    <g id="text_38">
     <!-- HCTZ excretion -->
     <g transform="translate(202.007 985.994375) scale(0.18 -0.18)">
      <use xlink:href="#DejaVuSans-Bold-48"/>
      <use xlink:href="#DejaVuSans-Bold-43" x="83.691406"/>
      <use xlink:href="#DejaVuSans-Bold-54" x="157.080078"/>
      <use xlink:href="#DejaVuSans-Bold-5a" x="225.292969"/>
      <use xlink:href="#DejaVuSans-Bold-20" x="297.802734"/>
      <use xlink:href="#DejaVuSans-Bold-65" x="332.617188"/>
      <use xlink:href="#DejaVuSans-Bold-78" x="400.439453"/>
      <use xlink:href="#DejaVuSans-Bold-63" x="464.941406"/>
      <use xlink:href="#DejaVuSans-Bold-72" x="524.21875"/>
      <use xlink:href="#DejaVuSans-Bold-65" x="573.535156"/>
      <use xlink:href="#DejaVuSans-Bold-74" x="641.357422"/>
      <use xlink:href="#DejaVuSans-Bold-69" x="689.160156"/>
      <use xlink:href="#DejaVuSans-Bold-6f" x="723.4375"/>
      <use xlink:href="#DejaVuSans-Bold-6e" x="792.138672"/>
     </g>
     <!-- urine [nmol/min] -->
     <g transform="translate(194.6945 1006.150438) scale(0.18 -0.18)">
      <use xlink:href="#DejaVuSans-Bold-75"/>
      <use xlink:href="#DejaVuSans-Bold-72" x="71.191406"/>
      <use xlink:href="#DejaVuSans-Bold-69" x="120.507812"/>
      <use xlink:href="#DejaVuSans-Bold-6e" x="154.785156"/>
      <use xlink:href="#DejaVuSans-Bold-65" x="225.976562"/>
      <use xlink:href="#DejaVuSans-Bold-20" x="293.798828"/>
      <use xlink:href="#DejaVuSans-Bold-5b" x="328.613281"/>
      <use xlink:href="#DejaVuSans-Bold-6e" x="374.316406"/>
      <use xlink:href="#DejaVuSans-Bold-6d" x="445.507812"/>
      <use xlink:href="#DejaVuSans-Bold-6f" x="549.707031"/>
      <use xlink:href="#DejaVuSans-Bold-6c" x="618.408203"/>
      <use xlink:href="#DejaVuSans-Bold-2f" x="652.685547"/>
      <use xlink:href="#DejaVuSans-Bold-6d" x="689.208984"/>
      <use xlink:href="#DejaVuSans-Bold-69" x="793.408203"/>
      <use xlink:href="#DejaVuSans-Bold-6e" x="827.685547"/>
      <use xlink:href="#DejaVuSans-Bold-5d" x="898.876953"/>
     </g>
    </g>
   </g>
   <g id="matplotlib.axis_6">
    <g id="ytick_10">
     <g id="line2d_46">
      <g>
       <use xlink:href="#mfc6df4db10" x="84.407937" y="944.190061" style="stroke: #000000; stroke-width: 0.8"/>
      </g>
     </g>
     <g id="text_39">
      <!-- 0 -->
      <g transform="translate(67.864187 949.888889) scale(0.15 -0.15)">
       <use xlink:href="#DejaVuSans-30"/>
      </g>
     </g>
    </g>
    <g id="ytick_11">
     <g id="line2d_47">
      <g>
       <use xlink:href="#mfc6df4db10" x="84.407937" y="888.85849" style="stroke: #000000; stroke-width: 0.8"/>
      </g>
     </g>
     <g id="text_40">
      <!-- 10 -->
      <g transform="translate(58.320437 894.557318) scale(0.15 -0.15)">
       <use xlink:href="#DejaVuSans-31"/>
       <use xlink:href="#DejaVuSans-30" x="63.623047"/>
      </g>
     </g>
    </g>
    <g id="ytick_12">
     <g id="line2d_48">
      <g>
       <use xlink:href="#mfc6df4db10" x="84.407937" y="833.52692" style="stroke: #000000; stroke-width: 0.8"/>
      </g>
     </g>
     <g id="text_41">
      <!-- 20 -->
      <g transform="translate(58.320437 839.225748) scale(0.15 -0.15)">
       <use xlink:href="#DejaVuSans-32"/>
       <use xlink:href="#DejaVuSans-30" x="63.623047"/>
      </g>
     </g>
    </g>
    <g id="ytick_13">
     <g id="line2d_49">
      <g>
       <use xlink:href="#mfc6df4db10" x="84.407937" y="778.195349" style="stroke: #000000; stroke-width: 0.8"/>
      </g>
     </g>
     <g id="text_42">
      <!-- 30 -->
      <g transform="translate(58.320437 783.894177) scale(0.15 -0.15)">
       <use xlink:href="#DejaVuSans-33"/>
       <use xlink:href="#DejaVuSans-30" x="63.623047"/>
      </g>
     </g>
    </g>
    <g id="ytick_14">
     <g id="line2d_50">
      <g>
       <use xlink:href="#mfc6df4db10" x="84.407937" y="722.863779" style="stroke: #000000; stroke-width: 0.8"/>
      </g>
     </g>
     <g id="text_43">
      <!-- 40 -->
      <g transform="translate(58.320437 728.562607) scale(0.15 -0.15)">
       <use xlink:href="#DejaVuSans-34"/>
       <use xlink:href="#DejaVuSans-30" x="63.623047"/>
      </g>
     </g>
    </g>
    <g id="text_44">
     <!-- Sodium excretion -->
     <g transform="translate(30.420937 920.175) rotate(-90) scale(0.18 -0.18)">
      <use xlink:href="#DejaVuSans-Bold-53"/>
      <use xlink:href="#DejaVuSans-Bold-6f" x="72.021484"/>
      <use xlink:href="#DejaVuSans-Bold-64" x="140.722656"/>
      <use xlink:href="#DejaVuSans-Bold-69" x="212.304688"/>
      <use xlink:href="#DejaVuSans-Bold-75" x="246.582031"/>
      <use xlink:href="#DejaVuSans-Bold-6d" x="317.773438"/>
      <use xlink:href="#DejaVuSans-Bold-20" x="421.972656"/>
      <use xlink:href="#DejaVuSans-Bold-65" x="456.787109"/>
      <use xlink:href="#DejaVuSans-Bold-78" x="524.609375"/>
      <use xlink:href="#DejaVuSans-Bold-63" x="589.111328"/>
      <use xlink:href="#DejaVuSans-Bold-72" x="648.388672"/>
      <use xlink:href="#DejaVuSans-Bold-65" x="697.705078"/>
      <use xlink:href="#DejaVuSans-Bold-74" x="765.527344"/>
      <use xlink:href="#DejaVuSans-Bold-69" x="813.330078"/>
      <use xlink:href="#DejaVuSans-Bold-6f" x="847.607422"/>
      <use xlink:href="#DejaVuSans-Bold-6e" x="916.308594"/>
     </g>
     <!--  [mmole/hr] -->
     <g transform="translate(50.577 890.922188) rotate(-90) scale(0.18 -0.18)">
      <use xlink:href="#DejaVuSans-Bold-20"/>
      <use xlink:href="#DejaVuSans-Bold-5b" x="34.814453"/>
      <use xlink:href="#DejaVuSans-Bold-6d" x="80.517578"/>
      <use xlink:href="#DejaVuSans-Bold-6d" x="184.716797"/>
      <use xlink:href="#DejaVuSans-Bold-6f" x="288.916016"/>
      <use xlink:href="#DejaVuSans-Bold-6c" x="357.617188"/>
      <use xlink:href="#DejaVuSans-Bold-65" x="391.894531"/>
      <use xlink:href="#DejaVuSans-Bold-2f" x="459.716797"/>
      <use xlink:href="#DejaVuSans-Bold-68" x="496.240234"/>
      <use xlink:href="#DejaVuSans-Bold-72" x="567.431641"/>
      <use xlink:href="#DejaVuSans-Bold-5d" x="616.748047"/>
     </g>
    </g>
   </g>
   <g id="line2d_51">
    <path d="M 102.162483 936.3 
L 301.992283 936.3 
L 107.197175 936.3 
" clip-path="url(#pf06a8f6e7a)" style="fill: none; stroke: #000000; stroke-width: 2; stroke-linecap: square"/>
   </g>
   <g id="line2d_52">
    <path d="M 130.070049 883.67843 
L 191.865927 853.184033 
L 220.252789 814.419313 
L 406.174695 798.575898 
L 457.066784 773.656317 
" clip-path="url(#pf06a8f6e7a)" style="fill: none; stroke-dasharray: 3.7,1.6; stroke-dashoffset: 0; stroke: #1f77b4"/>
    <g clip-path="url(#pf06a8f6e7a)">
     <use xlink:href="#m34134205c7" x="130.070049" y="883.67843" style="fill: #1f77b4; stroke: #000000; stroke-linejoin: miter"/>
     <use xlink:href="#m34134205c7" x="191.865927" y="853.184033" style="fill: #1f77b4; stroke: #000000; stroke-linejoin: miter"/>
     <use xlink:href="#m34134205c7" x="220.252789" y="814.419313" style="fill: #1f77b4; stroke: #000000; stroke-linejoin: miter"/>
     <use xlink:href="#m34134205c7" x="406.174695" y="798.575898" style="fill: #1f77b4; stroke: #000000; stroke-linejoin: miter"/>
     <use xlink:href="#m34134205c7" x="457.066784" y="773.656317" style="fill: #1f77b4; stroke: #000000; stroke-linejoin: miter"/>
    </g>
   </g>
   <g id="line2d_53">
    <path d="M 124.798568 875.120252 
L 192.229077 830.821729 
L 214.965048 803.559054 
L 394.973572 762.055535 
L 457.253392 726.3 
" clip-path="url(#pf06a8f6e7a)" style="fill: none; stroke-dasharray: 3.7,1.6; stroke-dashoffset: 0; stroke: #ff7f0e"/>
    <g clip-path="url(#pf06a8f6e7a)">
     <use xlink:href="#m32312b9a17" x="124.798568" y="875.120252" style="fill: #ff7f0e; stroke: #000000"/>
     <use xlink:href="#m32312b9a17" x="192.229077" y="830.821729" style="fill: #ff7f0e; stroke: #000000"/>
     <use xlink:href="#m32312b9a17" x="214.965048" y="803.559054" style="fill: #ff7f0e; stroke: #000000"/>
     <use xlink:href="#m32312b9a17" x="394.973572" y="762.055535" style="fill: #ff7f0e; stroke: #000000"/>
     <use xlink:href="#m32312b9a17" x="457.253392" y="726.3" style="fill: #ff7f0e; stroke: #000000"/>
    </g>
   </g>
   <g id="patch_15">
    <path d="M 84.407937 946.8 
L 84.407937 715.8 
" style="fill: none; stroke: #000000; stroke-width: 0.8; stroke-linejoin: miter; stroke-linecap: square"/>
   </g>
   <g id="patch_16">
    <path d="M 475.007938 946.8 
L 475.007938 715.8 
" style="fill: none; stroke: #000000; stroke-width: 0.8; stroke-linejoin: miter; stroke-linecap: square"/>
   </g>
   <g id="patch_17">
    <path d="M 84.407938 946.8 
L 475.007938 946.8 
" style="fill: none; stroke: #000000; stroke-width: 0.8; stroke-linejoin: miter; stroke-linecap: square"/>
   </g>
   <g id="patch_18">
    <path d="M 84.407938 715.8 
L 475.007938 715.8 
" style="fill: none; stroke: #000000; stroke-width: 0.8; stroke-linejoin: miter; stroke-linecap: square"/>
   </g>
   <g id="legend_3">
    <g id="patch_19">
     <path d="M 91.407937 767.834375 
L 248.34075 767.834375 
Q 250.34075 767.834375 250.34075 765.834375 
L 250.34075 722.8 
Q 250.34075 720.8 248.34075 720.8 
L 91.407937 720.8 
Q 89.407937 720.8 89.407937 722.8 
L 89.407937 765.834375 
Q 89.407937 767.834375 91.407937 767.834375 
z
" style="fill: #ffffff; opacity: 0.8; stroke: #cccccc; stroke-linejoin: miter"/>
    </g>
    <g id="line2d_54">
     <path d="M 93.407937 728.898438 
L 113.407937 728.898438 
" style="fill: none; stroke: #000000; stroke-width: 2; stroke-linecap: square"/>
    </g>
    <g id="line2d_55"/>
    <g id="text_45">
     <!-- Sim -->
     <g transform="translate(121.407937 732.398438) scale(0.1 -0.1)">
      <use xlink:href="#DejaVuSans-53"/>
      <use xlink:href="#DejaVuSans-69" x="63.476562"/>
      <use xlink:href="#DejaVuSans-6d" x="91.259766"/>
     </g>
    </g>
    <g id="line2d_56">
     <path d="M 93.407937 743.576563 
L 113.407937 743.576563 
" style="fill: none; stroke-dasharray: 3.7,1.6; stroke-dashoffset: 0; stroke: #1f77b4"/>
    </g>
    <g id="line2d_57">
     <g>
      <use xlink:href="#m34134205c7" x="103.407937" y="743.576563" style="fill: #1f77b4; stroke: #000000; stroke-linejoin: miter"/>
     </g>
    </g>
    <g id="text_46">
     <!-- 25 mg HCTZ (n=9) -->
     <g transform="translate(121.407937 747.076563) scale(0.1 -0.1)">
      <use xlink:href="#DejaVuSans-32"/>
      <use xlink:href="#DejaVuSans-35" x="63.623047"/>
      <use xlink:href="#DejaVuSans-20" x="127.246094"/>
      <use xlink:href="#DejaVuSans-6d" x="159.033203"/>
      <use xlink:href="#DejaVuSans-67" x="256.445312"/>
      <use xlink:href="#DejaVuSans-20" x="319.921875"/>
      <use xlink:href="#DejaVuSans-48" x="351.708984"/>
      <use xlink:href="#DejaVuSans-43" x="426.904297"/>
      <use xlink:href="#DejaVuSans-54" x="496.728516"/>
      <use xlink:href="#DejaVuSans-5a" x="557.8125"/>
      <use xlink:href="#DejaVuSans-20" x="626.318359"/>
      <use xlink:href="#DejaVuSans-28" x="658.105469"/>
      <use xlink:href="#DejaVuSans-6e" x="697.119141"/>
      <use xlink:href="#DejaVuSans-3d" x="760.498047"/>
      <use xlink:href="#DejaVuSans-39" x="844.287109"/>
      <use xlink:href="#DejaVuSans-29" x="907.910156"/>
     </g>
    </g>
    <g id="line2d_58">
     <path d="M 93.407937 758.254688 
L 113.407937 758.254688 
" style="fill: none; stroke-dasharray: 3.7,1.6; stroke-dashoffset: 0; stroke: #ff7f0e"/>
    </g>
    <g id="line2d_59">
     <g>
      <use xlink:href="#m32312b9a17" x="103.407937" y="758.254688" style="fill: #ff7f0e; stroke: #000000"/>
     </g>
    </g>
    <g id="text_47">
     <!-- 25 mg HCTZ + CIL (n=9) -->
     <g transform="translate(121.407937 761.754688) scale(0.1 -0.1)">
      <use xlink:href="#DejaVuSans-32"/>
      <use xlink:href="#DejaVuSans-35" x="63.623047"/>
      <use xlink:href="#DejaVuSans-20" x="127.246094"/>
      <use xlink:href="#DejaVuSans-6d" x="159.033203"/>
      <use xlink:href="#DejaVuSans-67" x="256.445312"/>
      <use xlink:href="#DejaVuSans-20" x="319.921875"/>
      <use xlink:href="#DejaVuSans-48" x="351.708984"/>
      <use xlink:href="#DejaVuSans-43" x="426.904297"/>
      <use xlink:href="#DejaVuSans-54" x="496.728516"/>
      <use xlink:href="#DejaVuSans-5a" x="557.8125"/>
      <use xlink:href="#DejaVuSans-20" x="626.318359"/>
      <use xlink:href="#DejaVuSans-2b" x="658.105469"/>
      <use xlink:href="#DejaVuSans-20" x="741.894531"/>
      <use xlink:href="#DejaVuSans-43" x="773.681641"/>
      <use xlink:href="#DejaVuSans-49" x="843.505859"/>
      <use xlink:href="#DejaVuSans-4c" x="872.998047"/>
      <use xlink:href="#DejaVuSans-20" x="928.710938"/>
      <use xlink:href="#DejaVuSans-28" x="960.498047"/>
      <use xlink:href="#DejaVuSans-6e" x="999.511719"/>
      <use xlink:href="#DejaVuSans-3d" x="1062.890625"/>
      <use xlink:href="#DejaVuSans-39" x="1146.679688"/>
      <use xlink:href="#DejaVuSans-29" x="1210.302734"/>
     </g>
    </g>
   </g>
  </g>
  <g id="text_48">
   <!-- Nilsen1989 Fig4_5 -->
   <g transform="translate(145.003641 26.196094) scale(0.25 -0.25)">
    <defs>
     <path id="DejaVuSans-Bold-4e" d="M 588 4666 
L 1931 4666 
L 3628 1466 
L 3628 4666 
L 4769 4666 
L 4769 0 
L 3425 0 
L 1728 3200 
L 1728 0 
L 588 0 
L 588 4666 
z
" transform="scale(0.015625)"/>
     <path id="DejaVuSans-Bold-73" d="M 3272 3391 
L 3272 2541 
Q 2913 2691 2578 2766 
Q 2244 2841 1947 2841 
Q 1628 2841 1473 2761 
Q 1319 2681 1319 2516 
Q 1319 2381 1436 2309 
Q 1553 2238 1856 2203 
L 2053 2175 
Q 2913 2066 3209 1816 
Q 3506 1566 3506 1031 
Q 3506 472 3093 190 
Q 2681 -91 1863 -91 
Q 1516 -91 1145 -36 
Q 775 19 384 128 
L 384 978 
Q 719 816 1070 734 
Q 1422 653 1784 653 
Q 2113 653 2278 743 
Q 2444 834 2444 1013 
Q 2444 1163 2330 1236 
Q 2216 1309 1875 1350 
L 1678 1375 
Q 931 1469 631 1722 
Q 331 1975 331 2491 
Q 331 3047 712 3315 
Q 1094 3584 1881 3584 
Q 2191 3584 2531 3537 
Q 2872 3491 3272 3391 
z
" transform="scale(0.015625)"/>
     <path id="DejaVuSans-Bold-31" d="M 750 831 
L 1813 831 
L 1813 3847 
L 722 3622 
L 722 4441 
L 1806 4666 
L 2950 4666 
L 2950 831 
L 4013 831 
L 4013 0 
L 750 0 
L 750 831 
z
" transform="scale(0.015625)"/>
     <path id="DejaVuSans-Bold-39" d="M 641 103 
L 641 966 
Q 928 831 1190 764 
Q 1453 697 1709 697 
Q 2247 697 2547 995 
Q 2847 1294 2900 1881 
Q 2688 1725 2447 1647 
Q 2206 1569 1925 1569 
Q 1209 1569 770 1986 
Q 331 2403 331 3084 
Q 331 3838 820 4291 
Q 1309 4744 2131 4744 
Q 3044 4744 3544 4128 
Q 4044 3513 4044 2388 
Q 4044 1231 3459 570 
Q 2875 -91 1856 -91 
Q 1528 -91 1228 -42 
Q 928 6 641 103 
z
M 2125 2350 
Q 2441 2350 2600 2554 
Q 2759 2759 2759 3169 
Q 2759 3575 2600 3781 
Q 2441 3988 2125 3988 
Q 1809 3988 1650 3781 
Q 1491 3575 1491 3169 
Q 1491 2759 1650 2554 
Q 1809 2350 2125 2350 
z
" transform="scale(0.015625)"/>
     <path id="DejaVuSans-Bold-38" d="M 2228 2088 
Q 1891 2088 1709 1903 
Q 1528 1719 1528 1375 
Q 1528 1031 1709 848 
Q 1891 666 2228 666 
Q 2563 666 2741 848 
Q 2919 1031 2919 1375 
Q 2919 1722 2741 1905 
Q 2563 2088 2228 2088 
z
M 1350 2484 
Q 925 2613 709 2878 
Q 494 3144 494 3541 
Q 494 4131 934 4440 
Q 1375 4750 2228 4750 
Q 3075 4750 3515 4442 
Q 3956 4134 3956 3541 
Q 3956 3144 3739 2878 
Q 3522 2613 3097 2484 
Q 3572 2353 3814 2058 
Q 4056 1763 4056 1313 
Q 4056 619 3595 264 
Q 3134 -91 2228 -91 
Q 1319 -91 855 264 
Q 391 619 391 1313 
Q 391 1763 633 2058 
Q 875 2353 1350 2484 
z
M 1631 3419 
Q 1631 3141 1786 2991 
Q 1941 2841 2228 2841 
Q 2509 2841 2662 2991 
Q 2816 3141 2816 3419 
Q 2816 3697 2662 3845 
Q 2509 3994 2228 3994 
Q 1941 3994 1786 3844 
Q 1631 3694 1631 3419 
z
" transform="scale(0.015625)"/>
     <path id="DejaVuSans-Bold-46" d="M 588 4666 
L 3834 4666 
L 3834 3756 
L 1791 3756 
L 1791 2888 
L 3713 2888 
L 3713 1978 
L 1791 1978 
L 1791 0 
L 588 0 
L 588 4666 
z
" transform="scale(0.015625)"/>
     <path id="DejaVuSans-Bold-67" d="M 2919 594 
Q 2688 288 2409 144 
Q 2131 0 1766 0 
Q 1125 0 706 504 
Q 288 1009 288 1791 
Q 288 2575 706 3076 
Q 1125 3578 1766 3578 
Q 2131 3578 2409 3434 
Q 2688 3291 2919 2981 
L 2919 3500 
L 4044 3500 
L 4044 353 
Q 4044 -491 3511 -936 
Q 2978 -1381 1966 -1381 
Q 1638 -1381 1331 -1331 
Q 1025 -1281 716 -1178 
L 716 -306 
Q 1009 -475 1290 -558 
Q 1572 -641 1856 -641 
Q 2406 -641 2662 -400 
Q 2919 -159 2919 353 
L 2919 594 
z
M 2181 2772 
Q 1834 2772 1640 2515 
Q 1447 2259 1447 1791 
Q 1447 1309 1634 1061 
Q 1822 813 2181 813 
Q 2531 813 2725 1069 
Q 2919 1325 2919 1791 
Q 2919 2259 2725 2515 
Q 2531 2772 2181 2772 
z
" transform="scale(0.015625)"/>
     <path id="DejaVuSans-Bold-34" d="M 2356 3675 
L 1038 1722 
L 2356 1722 
L 2356 3675 
z
M 2156 4666 
L 3494 4666 
L 3494 1722 
L 4159 1722 
L 4159 850 
L 3494 850 
L 3494 0 
L 2356 0 
L 2356 850 
L 288 850 
L 288 1881 
L 2156 4666 
z
" transform="scale(0.015625)"/>
     <path id="DejaVuSans-Bold-5f" d="M 3200 -916 
L 3200 -1509 
L 0 -1509 
L 0 -916 
L 3200 -916 
z
" transform="scale(0.015625)"/>
     <path id="DejaVuSans-Bold-35" d="M 678 4666 
L 3669 4666 
L 3669 3781 
L 1638 3781 
L 1638 3059 
Q 1775 3097 1914 3117 
Q 2053 3138 2203 3138 
Q 3056 3138 3531 2711 
Q 4006 2284 4006 1522 
Q 4006 766 3489 337 
Q 2972 -91 2053 -91 
Q 1656 -91 1267 -14 
Q 878 63 494 219 
L 494 1166 
Q 875 947 1217 837 
Q 1559 728 1863 728 
Q 2300 728 2551 942 
Q 2803 1156 2803 1522 
Q 2803 1891 2551 2103 
Q 2300 2316 1863 2316 
Q 1603 2316 1309 2248 
Q 1016 2181 678 2041 
L 678 4666 
z
" transform="scale(0.015625)"/>
    </defs>
    <use xlink:href="#DejaVuSans-Bold-4e"/>
    <use xlink:href="#DejaVuSans-Bold-69" x="83.691406"/>
    <use xlink:href="#DejaVuSans-Bold-6c" x="117.96875"/>
    <use xlink:href="#DejaVuSans-Bold-73" x="152.246094"/>
    <use xlink:href="#DejaVuSans-Bold-65" x="211.767578"/>
    <use xlink:href="#DejaVuSans-Bold-6e" x="279.589844"/>
    <use xlink:href="#DejaVuSans-Bold-31" x="350.78125"/>
    <use xlink:href="#DejaVuSans-Bold-39" x="420.361328"/>
    <use xlink:href="#DejaVuSans-Bold-38" x="489.941406"/>
    <use xlink:href="#DejaVuSans-Bold-39" x="559.521484"/>
    <use xlink:href="#DejaVuSans-Bold-20" x="629.101562"/>
    <use xlink:href="#DejaVuSans-Bold-46" x="663.916016"/>
    <use xlink:href="#DejaVuSans-Bold-69" x="732.226562"/>
    <use xlink:href="#DejaVuSans-Bold-67" x="766.503906"/>
    <use xlink:href="#DejaVuSans-Bold-34" x="838.085938"/>
    <use xlink:href="#DejaVuSans-Bold-5f" x="907.666016"/>
    <use xlink:href="#DejaVuSans-Bold-35" x="957.666016"/>
   </g>
  </g>
 </g>
 <defs>
  <clipPath id="p64a54f496e">
   <rect x="84.407937" y="115.2" width="390.6" height="231"/>
  </clipPath>
  <clipPath id="p5ae709e2d6">
   <rect x="84.407937" y="415.5" width="390.6" height="231"/>
  </clipPath>
  <clipPath id="pf06a8f6e7a">
   <rect x="84.407937" y="715.8" width="390.6" height="231"/>
  </clipPath>
 </defs>
</svg>
