<?xml version="1.0" encoding="utf-8" standalone="no"?>
<!DOCTYPE svg PUBLIC "-//W3C//DTD SVG 1.1//EN"
  "http://www.w3.org/Graphics/SVG/1.1/DTD/svg11.dtd">
<svg xmlns:xlink="http://www.w3.org/1999/xlink" width="482.227625pt" height="996.937813pt" viewBox="0 0 482.227625 996.937813" xmlns="http://www.w3.org/2000/svg" version="1.1">
 <metadata>
  <rdf:RDF xmlns:dc="http://purl.org/dc/elements/1.1/" xmlns:cc="http://creativecommons.org/ns#" xmlns:rdf="http://www.w3.org/1999/02/22-rdf-syntax-ns#">
   <cc:Work>
    <dc:type rdf:resource="http://purl.org/dc/dcmitype/StillImage"/>
    <dc:date>2025-05-15T20:27:03.482862</dc:date>
    <dc:format>image/svg+xml</dc:format>
    <dc:creator>
     <cc:Agent>
      <dc:title>Matplotlib v3.9.1, https://matplotlib.org/</dc:title>
     </cc:Agent>
    </dc:creator>
   </cc:Work>
  </rdf:RDF>
 </metadata>
 <defs>
  <style type="text/css">*{stroke-linejoin: round; stroke-linecap: butt}</style>
 </defs>
 <g id="figure_1">
  <g id="patch_1">
   <path d="M -0 996.937813 
L 482.227625 996.937813 
L 482.227625 0 
L -0 0 
z
" style="fill: #ffffff"/>
  </g>
  <g id="axes_1">
   <g id="patch_2">
    <path d="M 84.427625 346.2 
L 475.027625 346.2 
L 475.027625 115.2 
L 84.427625 115.2 
z
" style="fill: #ffffff"/>
   </g>
   <g id="matplotlib.axis_1">
    <g id="xtick_1">
     <g id="line2d_1">
      <defs>
       <path id="m620bbb3944" d="M 0 0 
L 0 3.5 
" style="stroke: #000000; stroke-width: 0.8"/>
      </defs>
      <g>
       <use xlink:href="#m620bbb3944" x="92.318534" y="346.2" style="stroke: #000000; stroke-width: 0.8"/>
      </g>
     </g>
     <g id="text_1">
      <!-- −125 -->
      <g transform="translate(71.718143 364.597656) scale(0.15 -0.15)">
       <defs>
        <path id="DejaVuSans-2212" d="M 678 2272 
L 4684 2272 
L 4684 1741 
L 678 1741 
L 678 2272 
z
" transform="scale(0.015625)"/>
        <path id="DejaVuSans-31" d="M 794 531 
L 1825 531 
L 1825 4091 
L 703 3866 
L 703 4441 
L 1819 4666 
L 2450 4666 
L 2450 531 
L 3481 531 
L 3481 0 
L 794 0 
L 794 531 
z
" transform="scale(0.015625)"/>
        <path id="DejaVuSans-32" d="M 1228 531 
L 3431 531 
L 3431 0 
L 469 0 
L 469 531 
Q 828 903 1448 1529 
Q 2069 2156 2228 2338 
Q 2531 2678 2651 2914 
Q 2772 3150 2772 3378 
Q 2772 3750 2511 3984 
Q 2250 4219 1831 4219 
Q 1534 4219 1204 4116 
Q 875 4013 500 3803 
L 500 4441 
Q 881 4594 1212 4672 
Q 1544 4750 1819 4750 
Q 2544 4750 2975 4387 
Q 3406 4025 3406 3419 
Q 3406 3131 3298 2873 
Q 3191 2616 2906 2266 
Q 2828 2175 2409 1742 
Q 1991 1309 1228 531 
z
" transform="scale(0.015625)"/>
        <path id="DejaVuSans-35" d="M 691 4666 
L 3169 4666 
L 3169 4134 
L 1269 4134 
L 1269 2991 
Q 1406 3038 1543 3061 
Q 1681 3084 1819 3084 
Q 2600 3084 3056 2656 
Q 3513 2228 3513 1497 
Q 3513 744 3044 326 
Q 2575 -91 1722 -91 
Q 1428 -91 1123 -41 
Q 819 9 494 109 
L 494 744 
Q 775 591 1075 516 
Q 1375 441 1709 441 
Q 2250 441 2565 725 
Q 2881 1009 2881 1497 
Q 2881 1984 2565 2268 
Q 2250 2553 1709 2553 
Q 1456 2553 1204 2497 
Q 953 2441 691 2322 
L 691 4666 
z
" transform="scale(0.015625)"/>
       </defs>
       <use xlink:href="#DejaVuSans-2212"/>
       <use xlink:href="#DejaVuSans-31" x="83.789062"/>
       <use xlink:href="#DejaVuSans-32" x="147.412109"/>
       <use xlink:href="#DejaVuSans-35" x="211.035156"/>
      </g>
     </g>
    </g>
    <g id="xtick_2">
     <g id="line2d_2">
      <g>
       <use xlink:href="#m620bbb3944" x="141.636716" y="346.2" style="stroke: #000000; stroke-width: 0.8"/>
      </g>
     </g>
     <g id="text_2">
      <!-- −100 -->
      <g transform="translate(121.036325 364.597656) scale(0.15 -0.15)">
       <defs>
        <path id="DejaVuSans-30" d="M 2034 4250 
Q 1547 4250 1301 3770 
Q 1056 3291 1056 2328 
Q 1056 1369 1301 889 
Q 1547 409 2034 409 
Q 2525 409 2770 889 
Q 3016 1369 3016 2328 
Q 3016 3291 2770 3770 
Q 2525 4250 2034 4250 
z
M 2034 4750 
Q 2819 4750 3233 4129 
Q 3647 3509 3647 2328 
Q 3647 1150 3233 529 
Q 2819 -91 2034 -91 
Q 1250 -91 836 529 
Q 422 1150 422 2328 
Q 422 3509 836 4129 
Q 1250 4750 2034 4750 
z
" transform="scale(0.015625)"/>
       </defs>
       <use xlink:href="#DejaVuSans-2212"/>
       <use xlink:href="#DejaVuSans-31" x="83.789062"/>
       <use xlink:href="#DejaVuSans-30" x="147.412109"/>
       <use xlink:href="#DejaVuSans-30" x="211.035156"/>
      </g>
     </g>
    </g>
    <g id="xtick_3">
     <g id="line2d_3">
      <g>
       <use xlink:href="#m620bbb3944" x="190.954898" y="346.2" style="stroke: #000000; stroke-width: 0.8"/>
      </g>
     </g>
     <g id="text_3">
      <!-- −75 -->
      <g transform="translate(175.126382 364.597656) scale(0.15 -0.15)">
       <defs>
        <path id="DejaVuSans-37" d="M 525 4666 
L 3525 4666 
L 3525 4397 
L 1831 0 
L 1172 0 
L 2766 4134 
L 525 4134 
L 525 4666 
z
" transform="scale(0.015625)"/>
       </defs>
       <use xlink:href="#DejaVuSans-2212"/>
       <use xlink:href="#DejaVuSans-37" x="83.789062"/>
       <use xlink:href="#DejaVuSans-35" x="147.412109"/>
      </g>
     </g>
    </g>
    <g id="xtick_4">
     <g id="line2d_4">
      <g>
       <use xlink:href="#m620bbb3944" x="240.27308" y="346.2" style="stroke: #000000; stroke-width: 0.8"/>
      </g>
     </g>
     <g id="text_4">
      <!-- −50 -->
      <g transform="translate(224.444564 364.597656) scale(0.15 -0.15)">
       <use xlink:href="#DejaVuSans-2212"/>
       <use xlink:href="#DejaVuSans-35" x="83.789062"/>
       <use xlink:href="#DejaVuSans-30" x="147.412109"/>
      </g>
     </g>
    </g>
    <g id="xtick_5">
     <g id="line2d_5">
      <g>
       <use xlink:href="#m620bbb3944" x="289.591261" y="346.2" style="stroke: #000000; stroke-width: 0.8"/>
      </g>
     </g>
     <g id="text_5">
      <!-- −25 -->
      <g transform="translate(273.762746 364.597656) scale(0.15 -0.15)">
       <use xlink:href="#DejaVuSans-2212"/>
       <use xlink:href="#DejaVuSans-32" x="83.789062"/>
       <use xlink:href="#DejaVuSans-35" x="147.412109"/>
      </g>
     </g>
    </g>
    <g id="xtick_6">
     <g id="line2d_6">
      <g>
       <use xlink:href="#m620bbb3944" x="338.909443" y="346.2" style="stroke: #000000; stroke-width: 0.8"/>
      </g>
     </g>
     <g id="text_6">
      <!-- 0 -->
      <g transform="translate(334.137568 364.597656) scale(0.15 -0.15)">
       <use xlink:href="#DejaVuSans-30"/>
      </g>
     </g>
    </g>
    <g id="xtick_7">
     <g id="line2d_7">
      <g>
       <use xlink:href="#m620bbb3944" x="388.227625" y="346.2" style="stroke: #000000; stroke-width: 0.8"/>
      </g>
     </g>
     <g id="text_7">
      <!-- 25 -->
      <g transform="translate(378.683875 364.597656) scale(0.15 -0.15)">
       <use xlink:href="#DejaVuSans-32"/>
       <use xlink:href="#DejaVuSans-35" x="63.623047"/>
      </g>
     </g>
    </g>
    <g id="xtick_8">
     <g id="line2d_8">
      <g>
       <use xlink:href="#m620bbb3944" x="437.545807" y="346.2" style="stroke: #000000; stroke-width: 0.8"/>
      </g>
     </g>
     <g id="text_8">
      <!-- 50 -->
      <g transform="translate(428.002057 364.597656) scale(0.15 -0.15)">
       <use xlink:href="#DejaVuSans-35"/>
       <use xlink:href="#DejaVuSans-30" x="63.623047"/>
      </g>
     </g>
    </g>
    <g id="text_9">
     <!-- time [hr] -->
     <g transform="translate(234.653094 385.394375) scale(0.18 -0.18)">
      <defs>
       <path id="DejaVuSans-Bold-74" d="M 1759 4494 
L 1759 3500 
L 2913 3500 
L 2913 2700 
L 1759 2700 
L 1759 1216 
Q 1759 972 1856 886 
Q 1953 800 2241 800 
L 2816 800 
L 2816 0 
L 1856 0 
Q 1194 0 917 276 
Q 641 553 641 1216 
L 641 2700 
L 84 2700 
L 84 3500 
L 641 3500 
L 641 4494 
L 1759 4494 
z
" transform="scale(0.015625)"/>
       <path id="DejaVuSans-Bold-69" d="M 538 3500 
L 1656 3500 
L 1656 0 
L 538 0 
L 538 3500 
z
M 538 4863 
L 1656 4863 
L 1656 3950 
L 538 3950 
L 538 4863 
z
" transform="scale(0.015625)"/>
       <path id="DejaVuSans-Bold-6d" d="M 3781 2919 
Q 3994 3244 4286 3414 
Q 4578 3584 4928 3584 
Q 5531 3584 5847 3212 
Q 6163 2841 6163 2131 
L 6163 0 
L 5038 0 
L 5038 1825 
Q 5041 1866 5042 1909 
Q 5044 1953 5044 2034 
Q 5044 2406 4934 2573 
Q 4825 2741 4581 2741 
Q 4263 2741 4089 2478 
Q 3916 2216 3909 1719 
L 3909 0 
L 2784 0 
L 2784 1825 
Q 2784 2406 2684 2573 
Q 2584 2741 2328 2741 
Q 2006 2741 1831 2477 
Q 1656 2213 1656 1722 
L 1656 0 
L 531 0 
L 531 3500 
L 1656 3500 
L 1656 2988 
Q 1863 3284 2130 3434 
Q 2397 3584 2719 3584 
Q 3081 3584 3359 3409 
Q 3638 3234 3781 2919 
z
" transform="scale(0.015625)"/>
       <path id="DejaVuSans-Bold-65" d="M 4031 1759 
L 4031 1441 
L 1416 1441 
Q 1456 1047 1700 850 
Q 1944 653 2381 653 
Q 2734 653 3104 758 
Q 3475 863 3866 1075 
L 3866 213 
Q 3469 63 3072 -14 
Q 2675 -91 2278 -91 
Q 1328 -91 801 392 
Q 275 875 275 1747 
Q 275 2603 792 3093 
Q 1309 3584 2216 3584 
Q 3041 3584 3536 3087 
Q 4031 2591 4031 1759 
z
M 2881 2131 
Q 2881 2450 2695 2645 
Q 2509 2841 2209 2841 
Q 1884 2841 1681 2658 
Q 1478 2475 1428 2131 
L 2881 2131 
z
" transform="scale(0.015625)"/>
       <path id="DejaVuSans-Bold-20" transform="scale(0.015625)"/>
       <path id="DejaVuSans-Bold-5b" d="M 550 4863 
L 2491 4863 
L 2491 4159 
L 1613 4159 
L 1613 -141 
L 2491 -141 
L 2491 -844 
L 550 -844 
L 550 4863 
z
" transform="scale(0.015625)"/>
       <path id="DejaVuSans-Bold-68" d="M 4056 2131 
L 4056 0 
L 2931 0 
L 2931 347 
L 2931 1625 
Q 2931 2084 2911 2256 
Q 2891 2428 2841 2509 
Q 2775 2619 2662 2680 
Q 2550 2741 2406 2741 
Q 2056 2741 1856 2470 
Q 1656 2200 1656 1722 
L 1656 0 
L 538 0 
L 538 4863 
L 1656 4863 
L 1656 2988 
Q 1909 3294 2193 3439 
Q 2478 3584 2822 3584 
Q 3428 3584 3742 3212 
Q 4056 2841 4056 2131 
z
" transform="scale(0.015625)"/>
       <path id="DejaVuSans-Bold-72" d="M 3138 2547 
Q 2991 2616 2845 2648 
Q 2700 2681 2553 2681 
Q 2122 2681 1889 2404 
Q 1656 2128 1656 1613 
L 1656 0 
L 538 0 
L 538 3500 
L 1656 3500 
L 1656 2925 
Q 1872 3269 2151 3426 
Q 2431 3584 2822 3584 
Q 2878 3584 2943 3579 
Q 3009 3575 3134 3559 
L 3138 2547 
z
" transform="scale(0.015625)"/>
       <path id="DejaVuSans-Bold-5d" d="M 2375 -844 
L 434 -844 
L 434 -141 
L 1313 -141 
L 1313 4159 
L 434 4159 
L 434 4863 
L 2375 4863 
L 2375 -844 
z
" transform="scale(0.015625)"/>
      </defs>
      <use xlink:href="#DejaVuSans-Bold-74"/>
      <use xlink:href="#DejaVuSans-Bold-69" x="47.802734"/>
      <use xlink:href="#DejaVuSans-Bold-6d" x="82.080078"/>
      <use xlink:href="#DejaVuSans-Bold-65" x="186.279297"/>
      <use xlink:href="#DejaVuSans-Bold-20" x="254.101562"/>
      <use xlink:href="#DejaVuSans-Bold-5b" x="288.916016"/>
      <use xlink:href="#DejaVuSans-Bold-68" x="334.619141"/>
      <use xlink:href="#DejaVuSans-Bold-72" x="405.810547"/>
      <use xlink:href="#DejaVuSans-Bold-5d" x="455.126953"/>
     </g>
    </g>
   </g>
   <g id="matplotlib.axis_2">
    <g id="ytick_1">
     <g id="line2d_9">
      <defs>
       <path id="md60e49c7b5" d="M 0 0 
L -3.5 0 
" style="stroke: #000000; stroke-width: 0.8"/>
      </defs>
      <g>
       <use xlink:href="#md60e49c7b5" x="84.427625" y="335.7" style="stroke: #000000; stroke-width: 0.8"/>
      </g>
     </g>
     <g id="text_10">
      <!-- 0.0 -->
      <g transform="translate(53.572938 341.398828) scale(0.15 -0.15)">
       <defs>
        <path id="DejaVuSans-2e" d="M 684 794 
L 1344 794 
L 1344 0 
L 684 0 
L 684 794 
z
" transform="scale(0.015625)"/>
       </defs>
       <use xlink:href="#DejaVuSans-30"/>
       <use xlink:href="#DejaVuSans-2e" x="63.623047"/>
       <use xlink:href="#DejaVuSans-30" x="95.410156"/>
      </g>
     </g>
    </g>
    <g id="ytick_2">
     <g id="line2d_10">
      <g>
       <use xlink:href="#md60e49c7b5" x="84.427625" y="286.164014" style="stroke: #000000; stroke-width: 0.8"/>
      </g>
     </g>
     <g id="text_11">
      <!-- 0.2 -->
      <g transform="translate(53.572938 291.862842) scale(0.15 -0.15)">
       <use xlink:href="#DejaVuSans-30"/>
       <use xlink:href="#DejaVuSans-2e" x="63.623047"/>
       <use xlink:href="#DejaVuSans-32" x="95.410156"/>
      </g>
     </g>
    </g>
    <g id="ytick_3">
     <g id="line2d_11">
      <g>
       <use xlink:href="#md60e49c7b5" x="84.427625" y="236.628027" style="stroke: #000000; stroke-width: 0.8"/>
      </g>
     </g>
     <g id="text_12">
      <!-- 0.4 -->
      <g transform="translate(53.572938 242.326855) scale(0.15 -0.15)">
       <defs>
        <path id="DejaVuSans-34" d="M 2419 4116 
L 825 1625 
L 2419 1625 
L 2419 4116 
z
M 2253 4666 
L 3047 4666 
L 3047 1625 
L 3713 1625 
L 3713 1100 
L 3047 1100 
L 3047 0 
L 2419 0 
L 2419 1100 
L 313 1100 
L 313 1709 
L 2253 4666 
z
" transform="scale(0.015625)"/>
       </defs>
       <use xlink:href="#DejaVuSans-30"/>
       <use xlink:href="#DejaVuSans-2e" x="63.623047"/>
       <use xlink:href="#DejaVuSans-34" x="95.410156"/>
      </g>
     </g>
    </g>
    <g id="ytick_4">
     <g id="line2d_12">
      <g>
       <use xlink:href="#md60e49c7b5" x="84.427625" y="187.092041" style="stroke: #000000; stroke-width: 0.8"/>
      </g>
     </g>
     <g id="text_13">
      <!-- 0.6 -->
      <g transform="translate(53.572938 192.790869) scale(0.15 -0.15)">
       <defs>
        <path id="DejaVuSans-36" d="M 2113 2584 
Q 1688 2584 1439 2293 
Q 1191 2003 1191 1497 
Q 1191 994 1439 701 
Q 1688 409 2113 409 
Q 2538 409 2786 701 
Q 3034 994 3034 1497 
Q 3034 2003 2786 2293 
Q 2538 2584 2113 2584 
z
M 3366 4563 
L 3366 3988 
Q 3128 4100 2886 4159 
Q 2644 4219 2406 4219 
Q 1781 4219 1451 3797 
Q 1122 3375 1075 2522 
Q 1259 2794 1537 2939 
Q 1816 3084 2150 3084 
Q 2853 3084 3261 2657 
Q 3669 2231 3669 1497 
Q 3669 778 3244 343 
Q 2819 -91 2113 -91 
Q 1303 -91 875 529 
Q 447 1150 447 2328 
Q 447 3434 972 4092 
Q 1497 4750 2381 4750 
Q 2619 4750 2861 4703 
Q 3103 4656 3366 4563 
z
" transform="scale(0.015625)"/>
       </defs>
       <use xlink:href="#DejaVuSans-30"/>
       <use xlink:href="#DejaVuSans-2e" x="63.623047"/>
       <use xlink:href="#DejaVuSans-36" x="95.410156"/>
      </g>
     </g>
    </g>
    <g id="ytick_5">
     <g id="line2d_13">
      <g>
       <use xlink:href="#md60e49c7b5" x="84.427625" y="137.556055" style="stroke: #000000; stroke-width: 0.8"/>
      </g>
     </g>
     <g id="text_14">
      <!-- 0.8 -->
      <g transform="translate(53.572938 143.254883) scale(0.15 -0.15)">
       <defs>
        <path id="DejaVuSans-38" d="M 2034 2216 
Q 1584 2216 1326 1975 
Q 1069 1734 1069 1313 
Q 1069 891 1326 650 
Q 1584 409 2034 409 
Q 2484 409 2743 651 
Q 3003 894 3003 1313 
Q 3003 1734 2745 1975 
Q 2488 2216 2034 2216 
z
M 1403 2484 
Q 997 2584 770 2862 
Q 544 3141 544 3541 
Q 544 4100 942 4425 
Q 1341 4750 2034 4750 
Q 2731 4750 3128 4425 
Q 3525 4100 3525 3541 
Q 3525 3141 3298 2862 
Q 3072 2584 2669 2484 
Q 3125 2378 3379 2068 
Q 3634 1759 3634 1313 
Q 3634 634 3220 271 
Q 2806 -91 2034 -91 
Q 1263 -91 848 271 
Q 434 634 434 1313 
Q 434 1759 690 2068 
Q 947 2378 1403 2484 
z
M 1172 3481 
Q 1172 3119 1398 2916 
Q 1625 2713 2034 2713 
Q 2441 2713 2670 2916 
Q 2900 3119 2900 3481 
Q 2900 3844 2670 4047 
Q 2441 4250 2034 4250 
Q 1625 4250 1398 4047 
Q 1172 3844 1172 3481 
z
" transform="scale(0.015625)"/>
       </defs>
       <use xlink:href="#DejaVuSans-30"/>
       <use xlink:href="#DejaVuSans-2e" x="63.623047"/>
       <use xlink:href="#DejaVuSans-38" x="95.410156"/>
      </g>
     </g>
    </g>
    <g id="text_15">
     <!-- HCTZ [µM] -->
     <g transform="translate(45.809813 284.44125) rotate(-90) scale(0.18 -0.18)">
      <defs>
       <path id="DejaVuSans-Bold-48" d="M 588 4666 
L 1791 4666 
L 1791 2888 
L 3566 2888 
L 3566 4666 
L 4769 4666 
L 4769 0 
L 3566 0 
L 3566 1978 
L 1791 1978 
L 1791 0 
L 588 0 
L 588 4666 
z
" transform="scale(0.015625)"/>
       <path id="DejaVuSans-Bold-43" d="M 4288 256 
Q 3956 84 3597 -3 
Q 3238 -91 2847 -91 
Q 1681 -91 1000 561 
Q 319 1213 319 2328 
Q 319 3447 1000 4098 
Q 1681 4750 2847 4750 
Q 3238 4750 3597 4662 
Q 3956 4575 4288 4403 
L 4288 3438 
Q 3953 3666 3628 3772 
Q 3303 3878 2944 3878 
Q 2300 3878 1931 3465 
Q 1563 3053 1563 2328 
Q 1563 1606 1931 1193 
Q 2300 781 2944 781 
Q 3303 781 3628 887 
Q 3953 994 4288 1222 
L 4288 256 
z
" transform="scale(0.015625)"/>
       <path id="DejaVuSans-Bold-54" d="M 31 4666 
L 4331 4666 
L 4331 3756 
L 2784 3756 
L 2784 0 
L 1581 0 
L 1581 3756 
L 31 3756 
L 31 4666 
z
" transform="scale(0.015625)"/>
       <path id="DejaVuSans-Bold-5a" d="M 359 4666 
L 4281 4666 
L 4281 3938 
L 1778 909 
L 4353 909 
L 4353 0 
L 288 0 
L 288 728 
L 2791 3756 
L 359 3756 
L 359 4666 
z
" transform="scale(0.015625)"/>
       <path id="DejaVuSans-Bold-b5" d="M 544 -1338 
L 544 3500 
L 1672 3500 
L 1672 1466 
Q 1672 1103 1828 926 
Q 1984 750 2303 750 
Q 2625 750 2781 926 
Q 2938 1103 2938 1466 
L 2938 3500 
L 4063 3500 
L 4063 1159 
Q 4063 938 4114 850 
Q 4166 763 4288 763 
Q 4344 763 4395 778 
Q 4447 794 4506 831 
L 4506 50 
Q 4341 -22 4195 -56 
Q 4050 -91 3909 -91 
Q 3631 -91 3454 26 
Q 3278 144 3169 403 
Q 3022 156 2811 32 
Q 2600 -91 2322 -91 
Q 2091 -91 1928 -17 
Q 1766 56 1672 206 
L 1672 -1338 
L 544 -1338 
z
" transform="scale(0.015625)"/>
       <path id="DejaVuSans-Bold-4d" d="M 588 4666 
L 2119 4666 
L 3181 2169 
L 4250 4666 
L 5778 4666 
L 5778 0 
L 4641 0 
L 4641 3413 
L 3566 897 
L 2803 897 
L 1728 3413 
L 1728 0 
L 588 0 
L 588 4666 
z
" transform="scale(0.015625)"/>
      </defs>
      <use xlink:href="#DejaVuSans-Bold-48"/>
      <use xlink:href="#DejaVuSans-Bold-43" x="83.691406"/>
      <use xlink:href="#DejaVuSans-Bold-54" x="157.080078"/>
      <use xlink:href="#DejaVuSans-Bold-5a" x="225.292969"/>
      <use xlink:href="#DejaVuSans-Bold-20" x="297.802734"/>
      <use xlink:href="#DejaVuSans-Bold-5b" x="332.617188"/>
      <use xlink:href="#DejaVuSans-Bold-b5" x="378.320312"/>
      <use xlink:href="#DejaVuSans-Bold-4d" x="451.904297"/>
      <use xlink:href="#DejaVuSans-Bold-5d" x="551.416016"/>
     </g>
    </g>
   </g>
   <g id="LineCollection_1">
    <path d="M 338.909443 308.47291 
L 338.909443 275.119134 
" clip-path="url(#p6a97142109)" style="fill: none; stroke: #000000"/>
    <path d="M 339.895807 300.10424 
L 339.895807 232.560873 
" clip-path="url(#p6a97142109)" style="fill: none; stroke: #000000"/>
    <path d="M 340.88217 260.240039 
L 340.88217 133.658647 
" clip-path="url(#p6a97142109)" style="fill: none; stroke: #000000"/>
    <path d="M 341.868534 228.058507 
L 341.868534 125.7 
" clip-path="url(#p6a97142109)" style="fill: none; stroke: #000000"/>
    <path d="M 342.854898 223.429981 
L 342.854898 133.451008 
" clip-path="url(#p6a97142109)" style="fill: none; stroke: #000000"/>
    <path d="M 344.827625 239.704731 
L 344.827625 156.133678 
" clip-path="url(#p6a97142109)" style="fill: none; stroke: #000000"/>
    <path d="M 346.800352 265.37058 
L 346.800352 207.194656 
" clip-path="url(#p6a97142109)" style="fill: none; stroke: #000000"/>
    <path d="M 350.745807 283.921482 
L 350.745807 243.839127 
" clip-path="url(#p6a97142109)" style="fill: none; stroke: #000000"/>
    <path d="M 354.691261 299.33939 
L 354.691261 261.096881 
" clip-path="url(#p6a97142109)" style="fill: none; stroke: #000000"/>
    <path d="M 358.636716 307.203417 
L 358.636716 271.930944 
" clip-path="url(#p6a97142109)" style="fill: none; stroke: #000000"/>
    <path d="M 362.58217 307.976152 
L 362.58217 270.795497 
" clip-path="url(#p6a97142109)" style="fill: none; stroke: #000000"/>
    <path d="M 374.418534 320.626406 
L 374.418534 296.981759 
" clip-path="url(#p6a97142109)" style="fill: none; stroke: #000000"/>
    <path d="M 386.254898 325.654442 
L 386.254898 306.882758 
" clip-path="url(#p6a97142109)" style="fill: none; stroke: #000000"/>
   </g>
   <g id="line2d_14">
    <path d="M 102.18217 335.7 
L 102.276861 334.710487 
L 102.466243 328.398588 
L 103.081734 295.388681 
L 103.74457 265.397552 
L 104.312716 249.106356 
L 104.833516 240.30595 
L 105.259625 236.258063 
L 105.638389 234.375792 
L 105.969807 233.710605 
L 106.206534 233.667811 
L 106.443261 233.911994 
L 106.77468 234.636603 
L 107.29548 236.431111 
L 108.100352 240.152213 
L 109.89948 249.873885 
L 112.266752 262.228859 
L 114.16057 270.934578 
L 116.007043 278.395264 
L 117.853516 284.942152 
L 119.699989 290.684159 
L 121.546461 295.721422 
L 123.44028 300.248503 
L 125.334098 304.210962 
L 125.854898 305.211566 
L 125.854898 305.211566 
L 125.902243 305.045155 
L 126.04428 301.978812 
L 126.375698 286.898453 
L 127.369952 239.359265 
L 127.938098 223.337741 
L 128.411552 215.481363 
L 128.837661 211.551709 
L 129.216425 209.886658 
L 129.500498 209.485542 
L 129.68988 209.537299 
L 129.926607 209.89599 
L 130.30537 211.010034 
L 130.873516 213.561895 
L 131.77308 218.818201 
L 137.170461 252.336703 
L 139.016934 261.660998 
L 140.863407 269.858662 
L 142.70988 277.060539 
L 144.556352 283.389377 
L 146.402825 288.954332 
L 148.296643 293.968698 
L 149.527625 296.89432 
L 149.527625 296.89432 
L 149.57497 296.746404 
L 149.717007 293.735219 
L 150.048425 278.781696 
L 151.04268 231.607868 
L 151.56348 216.803028 
L 152.036934 208.675918 
L 152.463043 204.602662 
L 152.841807 202.87384 
L 153.12588 202.455854 
L 153.315261 202.508295 
L 153.551989 202.878987 
L 153.930752 204.032978 
L 154.498898 206.67914 
L 155.398461 212.13351 
L 160.843189 247.232994 
L 162.689661 256.91045 
L 164.536134 265.427622 
L 166.382607 272.919213 
L 168.22908 279.511354 
L 170.122898 285.45556 
L 172.016716 290.677431 
L 173.200352 293.615819 
L 173.200352 293.615819 
L 173.247698 293.472949 
L 173.389734 290.476839 
L 173.721152 275.558102 
L 174.715407 228.485472 
L 175.236207 213.731818 
L 175.709661 205.650197 
L 176.13577 201.617055 
L 176.514534 199.92325 
L 176.798607 199.53114 
L 176.987989 199.600651 
L 177.224716 199.99248 
L 177.60348 201.179832 
L 178.171625 203.875007 
L 179.071189 209.404543 
L 184.46857 244.635443 
L 186.315043 254.461252 
L 188.161516 263.115389 
L 190.007989 270.733321 
L 191.854461 277.442179 
L 193.74828 283.497099 
L 195.642098 288.821496 
L 196.87308 291.935238 
L 196.87308 291.935238 
L 196.920425 291.794359 
L 197.062461 288.804201 
L 197.39388 273.899248 
L 198.388134 226.867095 
L 198.908934 212.134136 
L 199.382389 204.071036 
L 199.808498 200.054328 
L 200.187261 198.374949 
L 200.471334 197.993548 
L 200.660716 198.070145 
L 200.897443 198.470774 
L 201.276207 199.672075 
L 201.844352 202.387871 
L 202.743916 207.94934 
L 208.141298 243.35503 
L 209.98777 253.234717 
L 211.834243 261.94006 
L 213.680716 269.606703 
L 215.574534 276.524207 
L 217.468352 282.604871 
L 219.36217 287.955356 
L 220.545807 290.970426 
L 220.545807 290.970426 
L 220.593152 290.830567 
L 220.735189 287.843463 
L 221.066607 272.945594 
L 222.060861 225.934346 
L 222.581661 211.212134 
L 223.055116 203.158684 
L 223.481225 199.150566 
L 223.859989 197.478748 
L 224.144061 197.102971 
L 224.333443 197.183296 
L 224.57017 197.588562 
L 224.948934 198.797225 
L 225.51708 201.523938 
L 226.416643 207.102389 
L 231.814025 242.602658 
L 233.660498 252.512041 
L 235.50697 261.245834 
L 237.353443 268.939745 
L 239.247261 275.884046 
L 241.14108 281.99038 
L 243.034898 287.365461 
L 244.218534 290.395382 
L 244.218534 290.395382 
L 244.26588 290.256109 
L 244.407916 287.270759 
L 244.739334 272.37696 
L 245.733589 225.377746 
L 246.254389 210.661732 
L 246.727843 202.613854 
L 247.153952 198.610702 
L 247.532716 196.943258 
L 247.769443 196.588758 
L 247.958825 196.610621 
L 248.195552 196.955308 
L 248.52697 197.915639 
L 249.04777 200.244719 
L 249.852643 205.030945 
L 251.65177 217.490653 
L 254.019043 233.343522 
L 255.912861 244.553157 
L 257.759334 254.196745 
L 259.605807 262.69525 
L 261.45228 270.183741 
L 263.346098 276.945161 
L 265.239916 282.89328 
L 267.133734 288.131596 
L 267.891261 290.048781 
L 267.938607 289.909858 
L 268.080643 286.925553 
L 268.412061 272.034182 
L 269.406316 225.042146 
L 269.927116 210.329831 
L 270.40057 202.28528 
L 270.82668 198.285093 
L 271.205443 196.620262 
L 271.44217 196.267385 
L 271.631552 196.290541 
L 271.86828 196.636835 
L 272.199698 197.599403 
L 272.720498 199.931967 
L 273.52537 204.723501 
L 275.324498 217.194748 
L 277.69177 233.062137 
L 279.585589 244.282871 
L 281.432061 253.936856 
L 283.278534 262.445356 
L 285.125007 269.943455 
L 287.018825 276.714345 
L 288.912643 282.671558 
L 290.806461 287.91861 
L 291.563989 289.839192 
L 291.611334 289.700479 
L 291.75337 286.716805 
L 292.084789 271.826896 
L 293.079043 224.839188 
L 293.599843 210.129103 
L 294.073298 202.086559 
L 294.499407 198.088161 
L 294.87817 196.424906 
L 295.114898 196.073008 
L 295.30428 196.096943 
L 295.541007 196.444207 
L 295.872425 197.408125 
L 296.393225 199.74279 
L 297.198098 204.537527 
L 298.997225 217.015738 
L 301.364498 232.891894 
L 303.258316 244.119331 
L 305.104789 253.779595 
L 306.951261 262.294135 
L 308.797734 269.798041 
L 310.691552 276.574654 
L 312.58537 282.537366 
L 314.479189 287.789699 
L 315.236716 289.712335 
L 315.284061 289.573749 
L 315.426098 286.590456 
L 315.757516 271.701432 
L 316.75177 224.716341 
L 317.27257 210.007605 
L 317.746025 201.966274 
L 318.172134 197.968958 
L 318.550898 196.306656 
L 318.787625 195.95535 
L 318.977007 195.979756 
L 319.213734 196.327608 
L 319.545152 197.292342 
L 320.065952 199.628278 
L 320.870825 204.424953 
L 322.669952 216.907376 
L 325.037225 232.788836 
L 326.931043 244.020328 
L 328.777516 253.684393 
L 330.623989 262.202587 
L 332.470461 269.710007 
L 334.36428 276.490084 
L 336.258098 282.456123 
L 338.151916 287.711653 
L 338.909443 289.635532 
L 338.909443 289.635532 
L 339.14617 284.886781 
L 340.803261 213.268956 
L 341.276716 203.855427 
L 341.75017 198.566754 
L 342.223625 196.235064 
L 342.460352 195.884116 
L 342.69708 195.952114 
L 342.933807 196.363583 
L 343.407261 197.973825 
L 344.117443 201.687322 
L 345.30108 209.502261 
L 348.851989 233.617104 
L 350.745807 244.747707 
L 352.639625 254.551054 
L 354.533443 263.163662 
L 356.427261 270.730413 
L 358.32108 277.383295 
L 360.214898 283.238507 
L 362.108716 288.397465 
L 364.002534 292.948503 
L 365.896352 296.968518 
L 367.79017 300.524455 
L 369.920716 304.042437 
L 372.051261 307.118319 
L 374.181807 309.813473 
L 376.54908 312.425217 
L 378.916352 314.692897 
L 381.283625 316.668121 
L 383.887625 318.55478 
L 386.728352 320.325904 
L 389.805807 321.964534 
L 393.119989 323.462584 
L 396.670898 324.819277 
L 400.695261 326.108991 
L 405.19308 327.305772 
L 410.164352 328.396835 
L 415.845807 329.417915 
L 422.47417 330.382443 
L 430.28617 331.290305 
L 439.518534 332.1339 
L 450.407989 332.901945 
L 457.27308 333.292014 
L 457.27308 333.292014 
" clip-path="url(#p6a97142109)" style="fill: none; stroke: #000000; stroke-width: 2; stroke-linecap: square"/>
   </g>
   <g id="line2d_15">
    <path d="M 338.909443 291.796022 
L 339.895807 266.332557 
L 340.88217 196.949343 
L 341.868534 176.879254 
L 342.854898 178.440494 
L 344.827625 197.919204 
L 346.800352 236.282618 
L 350.745807 263.880305 
L 354.691261 280.218136 
L 358.636716 289.567181 
L 362.58217 289.385824 
L 374.418534 308.804083 
L 386.254898 316.2686 
" clip-path="url(#p6a97142109)" style="fill: none; stroke-dasharray: 3.7,1.6; stroke-dashoffset: 0; stroke: #000000"/>
    <defs>
     <path id="m80b6c466f3" d="M -3 3 
L 3 3 
L 3 -3 
L -3 -3 
z
" style="stroke: #000000; stroke-linejoin: miter"/>
    </defs>
    <g clip-path="url(#p6a97142109)">
     <use xlink:href="#m80b6c466f3" x="338.909443" y="291.796022" style="stroke: #000000; stroke-linejoin: miter"/>
     <use xlink:href="#m80b6c466f3" x="339.895807" y="266.332557" style="stroke: #000000; stroke-linejoin: miter"/>
     <use xlink:href="#m80b6c466f3" x="340.88217" y="196.949343" style="stroke: #000000; stroke-linejoin: miter"/>
     <use xlink:href="#m80b6c466f3" x="341.868534" y="176.879254" style="stroke: #000000; stroke-linejoin: miter"/>
     <use xlink:href="#m80b6c466f3" x="342.854898" y="178.440494" style="stroke: #000000; stroke-linejoin: miter"/>
     <use xlink:href="#m80b6c466f3" x="344.827625" y="197.919204" style="stroke: #000000; stroke-linejoin: miter"/>
     <use xlink:href="#m80b6c466f3" x="346.800352" y="236.282618" style="stroke: #000000; stroke-linejoin: miter"/>
     <use xlink:href="#m80b6c466f3" x="350.745807" y="263.880305" style="stroke: #000000; stroke-linejoin: miter"/>
     <use xlink:href="#m80b6c466f3" x="354.691261" y="280.218136" style="stroke: #000000; stroke-linejoin: miter"/>
     <use xlink:href="#m80b6c466f3" x="358.636716" y="289.567181" style="stroke: #000000; stroke-linejoin: miter"/>
     <use xlink:href="#m80b6c466f3" x="362.58217" y="289.385824" style="stroke: #000000; stroke-linejoin: miter"/>
     <use xlink:href="#m80b6c466f3" x="374.418534" y="308.804083" style="stroke: #000000; stroke-linejoin: miter"/>
     <use xlink:href="#m80b6c466f3" x="386.254898" y="316.2686" style="stroke: #000000; stroke-linejoin: miter"/>
    </g>
   </g>
   <g id="patch_3">
    <path d="M 84.427625 346.2 
L 84.427625 115.2 
" style="fill: none; stroke: #000000; stroke-width: 0.8; stroke-linejoin: miter; stroke-linecap: square"/>
   </g>
   <g id="patch_4">
    <path d="M 475.027625 346.2 
L 475.027625 115.2 
" style="fill: none; stroke: #000000; stroke-width: 0.8; stroke-linejoin: miter; stroke-linecap: square"/>
   </g>
   <g id="patch_5">
    <path d="M 84.427625 346.2 
L 475.027625 346.2 
" style="fill: none; stroke: #000000; stroke-width: 0.8; stroke-linejoin: miter; stroke-linecap: square"/>
   </g>
   <g id="patch_6">
    <path d="M 84.427625 115.2 
L 475.027625 115.2 
" style="fill: none; stroke: #000000; stroke-width: 0.8; stroke-linejoin: miter; stroke-linecap: square"/>
   </g>
   <g id="legend_1">
    <g id="patch_7">
     <path d="M 343.183875 152.55625 
L 468.027625 152.55625 
Q 470.027625 152.55625 470.027625 150.55625 
L 470.027625 122.2 
Q 470.027625 120.2 468.027625 120.2 
L 343.183875 120.2 
Q 341.183875 120.2 341.183875 122.2 
L 341.183875 150.55625 
Q 341.183875 152.55625 343.183875 152.55625 
z
" style="fill: #ffffff; opacity: 0.8; stroke: #cccccc; stroke-linejoin: miter"/>
    </g>
    <g id="line2d_16">
     <path d="M 345.183875 128.298438 
L 365.183875 128.298438 
" style="fill: none; stroke: #000000; stroke-width: 2; stroke-linecap: square"/>
    </g>
    <g id="line2d_17"/>
    <g id="text_16">
     <!-- Sim -->
     <g transform="translate(373.183875 131.798438) scale(0.1 -0.1)">
      <defs>
       <path id="DejaVuSans-53" d="M 3425 4513 
L 3425 3897 
Q 3066 4069 2747 4153 
Q 2428 4238 2131 4238 
Q 1616 4238 1336 4038 
Q 1056 3838 1056 3469 
Q 1056 3159 1242 3001 
Q 1428 2844 1947 2747 
L 2328 2669 
Q 3034 2534 3370 2195 
Q 3706 1856 3706 1288 
Q 3706 609 3251 259 
Q 2797 -91 1919 -91 
Q 1588 -91 1214 -16 
Q 841 59 441 206 
L 441 856 
Q 825 641 1194 531 
Q 1563 422 1919 422 
Q 2459 422 2753 634 
Q 3047 847 3047 1241 
Q 3047 1584 2836 1778 
Q 2625 1972 2144 2069 
L 1759 2144 
Q 1053 2284 737 2584 
Q 422 2884 422 3419 
Q 422 4038 858 4394 
Q 1294 4750 2059 4750 
Q 2388 4750 2728 4690 
Q 3069 4631 3425 4513 
z
" transform="scale(0.015625)"/>
       <path id="DejaVuSans-69" d="M 603 3500 
L 1178 3500 
L 1178 0 
L 603 0 
L 603 3500 
z
M 603 4863 
L 1178 4863 
L 1178 4134 
L 603 4134 
L 603 4863 
z
" transform="scale(0.015625)"/>
       <path id="DejaVuSans-6d" d="M 3328 2828 
Q 3544 3216 3844 3400 
Q 4144 3584 4550 3584 
Q 5097 3584 5394 3201 
Q 5691 2819 5691 2113 
L 5691 0 
L 5113 0 
L 5113 2094 
Q 5113 2597 4934 2840 
Q 4756 3084 4391 3084 
Q 3944 3084 3684 2787 
Q 3425 2491 3425 1978 
L 3425 0 
L 2847 0 
L 2847 2094 
Q 2847 2600 2669 2842 
Q 2491 3084 2119 3084 
Q 1678 3084 1418 2786 
Q 1159 2488 1159 1978 
L 1159 0 
L 581 0 
L 581 3500 
L 1159 3500 
L 1159 2956 
Q 1356 3278 1631 3431 
Q 1906 3584 2284 3584 
Q 2666 3584 2933 3390 
Q 3200 3197 3328 2828 
z
" transform="scale(0.015625)"/>
      </defs>
      <use xlink:href="#DejaVuSans-53"/>
      <use xlink:href="#DejaVuSans-69" x="63.476562"/>
      <use xlink:href="#DejaVuSans-6d" x="91.259766"/>
     </g>
    </g>
    <g id="LineCollection_2">
     <path d="M 355.183875 147.976563 
L 355.183875 137.976563 
" style="fill: none; stroke: #000000"/>
    </g>
    <g id="line2d_18">
     <path d="M 345.183875 142.976563 
L 365.183875 142.976563 
" style="fill: none; stroke-dasharray: 3.7,1.6; stroke-dashoffset: 0; stroke: #000000"/>
    </g>
    <g id="line2d_19">
     <g>
      <use xlink:href="#m80b6c466f3" x="355.183875" y="142.976563" style="stroke: #000000; stroke-linejoin: miter"/>
     </g>
    </g>
    <g id="text_17">
     <!-- 25 mg±SD (n=20) -->
     <g transform="translate(373.183875 146.476563) scale(0.1 -0.1)">
      <defs>
       <path id="DejaVuSans-20" transform="scale(0.015625)"/>
       <path id="DejaVuSans-67" d="M 2906 1791 
Q 2906 2416 2648 2759 
Q 2391 3103 1925 3103 
Q 1463 3103 1205 2759 
Q 947 2416 947 1791 
Q 947 1169 1205 825 
Q 1463 481 1925 481 
Q 2391 481 2648 825 
Q 2906 1169 2906 1791 
z
M 3481 434 
Q 3481 -459 3084 -895 
Q 2688 -1331 1869 -1331 
Q 1566 -1331 1297 -1286 
Q 1028 -1241 775 -1147 
L 775 -588 
Q 1028 -725 1275 -790 
Q 1522 -856 1778 -856 
Q 2344 -856 2625 -561 
Q 2906 -266 2906 331 
L 2906 616 
Q 2728 306 2450 153 
Q 2172 0 1784 0 
Q 1141 0 747 490 
Q 353 981 353 1791 
Q 353 2603 747 3093 
Q 1141 3584 1784 3584 
Q 2172 3584 2450 3431 
Q 2728 3278 2906 2969 
L 2906 3500 
L 3481 3500 
L 3481 434 
z
" transform="scale(0.015625)"/>
       <path id="DejaVuSans-b1" d="M 2944 4013 
L 2944 2803 
L 4684 2803 
L 4684 2272 
L 2944 2272 
L 2944 1063 
L 2419 1063 
L 2419 2272 
L 678 2272 
L 678 2803 
L 2419 2803 
L 2419 4013 
L 2944 4013 
z
M 678 531 
L 4684 531 
L 4684 0 
L 678 0 
L 678 531 
z
" transform="scale(0.015625)"/>
       <path id="DejaVuSans-44" d="M 1259 4147 
L 1259 519 
L 2022 519 
Q 2988 519 3436 956 
Q 3884 1394 3884 2338 
Q 3884 3275 3436 3711 
Q 2988 4147 2022 4147 
L 1259 4147 
z
M 628 4666 
L 1925 4666 
Q 3281 4666 3915 4102 
Q 4550 3538 4550 2338 
Q 4550 1131 3912 565 
Q 3275 0 1925 0 
L 628 0 
L 628 4666 
z
" transform="scale(0.015625)"/>
       <path id="DejaVuSans-28" d="M 1984 4856 
Q 1566 4138 1362 3434 
Q 1159 2731 1159 2009 
Q 1159 1288 1364 580 
Q 1569 -128 1984 -844 
L 1484 -844 
Q 1016 -109 783 600 
Q 550 1309 550 2009 
Q 550 2706 781 3412 
Q 1013 4119 1484 4856 
L 1984 4856 
z
" transform="scale(0.015625)"/>
       <path id="DejaVuSans-6e" d="M 3513 2113 
L 3513 0 
L 2938 0 
L 2938 2094 
Q 2938 2591 2744 2837 
Q 2550 3084 2163 3084 
Q 1697 3084 1428 2787 
Q 1159 2491 1159 1978 
L 1159 0 
L 581 0 
L 581 3500 
L 1159 3500 
L 1159 2956 
Q 1366 3272 1645 3428 
Q 1925 3584 2291 3584 
Q 2894 3584 3203 3211 
Q 3513 2838 3513 2113 
z
" transform="scale(0.015625)"/>
       <path id="DejaVuSans-3d" d="M 678 2906 
L 4684 2906 
L 4684 2381 
L 678 2381 
L 678 2906 
z
M 678 1631 
L 4684 1631 
L 4684 1100 
L 678 1100 
L 678 1631 
z
" transform="scale(0.015625)"/>
       <path id="DejaVuSans-29" d="M 513 4856 
L 1013 4856 
Q 1481 4119 1714 3412 
Q 1947 2706 1947 2009 
Q 1947 1309 1714 600 
Q 1481 -109 1013 -844 
L 513 -844 
Q 928 -128 1133 580 
Q 1338 1288 1338 2009 
Q 1338 2731 1133 3434 
Q 928 4138 513 4856 
z
" transform="scale(0.015625)"/>
      </defs>
      <use xlink:href="#DejaVuSans-32"/>
      <use xlink:href="#DejaVuSans-35" x="63.623047"/>
      <use xlink:href="#DejaVuSans-20" x="127.246094"/>
      <use xlink:href="#DejaVuSans-6d" x="159.033203"/>
      <use xlink:href="#DejaVuSans-67" x="256.445312"/>
      <use xlink:href="#DejaVuSans-b1" x="319.921875"/>
      <use xlink:href="#DejaVuSans-53" x="403.710938"/>
      <use xlink:href="#DejaVuSans-44" x="467.1875"/>
      <use xlink:href="#DejaVuSans-20" x="544.189453"/>
      <use xlink:href="#DejaVuSans-28" x="575.976562"/>
      <use xlink:href="#DejaVuSans-6e" x="614.990234"/>
      <use xlink:href="#DejaVuSans-3d" x="678.369141"/>
      <use xlink:href="#DejaVuSans-32" x="762.158203"/>
      <use xlink:href="#DejaVuSans-30" x="825.78125"/>
      <use xlink:href="#DejaVuSans-29" x="889.404297"/>
     </g>
    </g>
   </g>
  </g>
  <g id="axes_2">
   <g id="patch_8">
    <path d="M 84.427625 646.5 
L 475.027625 646.5 
L 475.027625 415.5 
L 84.427625 415.5 
z
" style="fill: #ffffff"/>
   </g>
   <g id="matplotlib.axis_3">
    <g id="xtick_9">
     <g id="line2d_20">
      <g>
       <use xlink:href="#m620bbb3944" x="92.318534" y="646.5" style="stroke: #000000; stroke-width: 0.8"/>
      </g>
     </g>
     <g id="text_18">
      <!-- −125 -->
      <g transform="translate(71.718143 664.897656) scale(0.15 -0.15)">
       <use xlink:href="#DejaVuSans-2212"/>
       <use xlink:href="#DejaVuSans-31" x="83.789062"/>
       <use xlink:href="#DejaVuSans-32" x="147.412109"/>
       <use xlink:href="#DejaVuSans-35" x="211.035156"/>
      </g>
     </g>
    </g>
    <g id="xtick_10">
     <g id="line2d_21">
      <g>
       <use xlink:href="#m620bbb3944" x="141.636716" y="646.5" style="stroke: #000000; stroke-width: 0.8"/>
      </g>
     </g>
     <g id="text_19">
      <!-- −100 -->
      <g transform="translate(121.036325 664.897656) scale(0.15 -0.15)">
       <use xlink:href="#DejaVuSans-2212"/>
       <use xlink:href="#DejaVuSans-31" x="83.789062"/>
       <use xlink:href="#DejaVuSans-30" x="147.412109"/>
       <use xlink:href="#DejaVuSans-30" x="211.035156"/>
      </g>
     </g>
    </g>
    <g id="xtick_11">
     <g id="line2d_22">
      <g>
       <use xlink:href="#m620bbb3944" x="190.954898" y="646.5" style="stroke: #000000; stroke-width: 0.8"/>
      </g>
     </g>
     <g id="text_20">
      <!-- −75 -->
      <g transform="translate(175.126382 664.897656) scale(0.15 -0.15)">
       <use xlink:href="#DejaVuSans-2212"/>
       <use xlink:href="#DejaVuSans-37" x="83.789062"/>
       <use xlink:href="#DejaVuSans-35" x="147.412109"/>
      </g>
     </g>
    </g>
    <g id="xtick_12">
     <g id="line2d_23">
      <g>
       <use xlink:href="#m620bbb3944" x="240.27308" y="646.5" style="stroke: #000000; stroke-width: 0.8"/>
      </g>
     </g>
     <g id="text_21">
      <!-- −50 -->
      <g transform="translate(224.444564 664.897656) scale(0.15 -0.15)">
       <use xlink:href="#DejaVuSans-2212"/>
       <use xlink:href="#DejaVuSans-35" x="83.789062"/>
       <use xlink:href="#DejaVuSans-30" x="147.412109"/>
      </g>
     </g>
    </g>
    <g id="xtick_13">
     <g id="line2d_24">
      <g>
       <use xlink:href="#m620bbb3944" x="289.591261" y="646.5" style="stroke: #000000; stroke-width: 0.8"/>
      </g>
     </g>
     <g id="text_22">
      <!-- −25 -->
      <g transform="translate(273.762746 664.897656) scale(0.15 -0.15)">
       <use xlink:href="#DejaVuSans-2212"/>
       <use xlink:href="#DejaVuSans-32" x="83.789062"/>
       <use xlink:href="#DejaVuSans-35" x="147.412109"/>
      </g>
     </g>
    </g>
    <g id="xtick_14">
     <g id="line2d_25">
      <g>
       <use xlink:href="#m620bbb3944" x="338.909443" y="646.5" style="stroke: #000000; stroke-width: 0.8"/>
      </g>
     </g>
     <g id="text_23">
      <!-- 0 -->
      <g transform="translate(334.137568 664.897656) scale(0.15 -0.15)">
       <use xlink:href="#DejaVuSans-30"/>
      </g>
     </g>
    </g>
    <g id="xtick_15">
     <g id="line2d_26">
      <g>
       <use xlink:href="#m620bbb3944" x="388.227625" y="646.5" style="stroke: #000000; stroke-width: 0.8"/>
      </g>
     </g>
     <g id="text_24">
      <!-- 25 -->
      <g transform="translate(378.683875 664.897656) scale(0.15 -0.15)">
       <use xlink:href="#DejaVuSans-32"/>
       <use xlink:href="#DejaVuSans-35" x="63.623047"/>
      </g>
     </g>
    </g>
    <g id="xtick_16">
     <g id="line2d_27">
      <g>
       <use xlink:href="#m620bbb3944" x="437.545807" y="646.5" style="stroke: #000000; stroke-width: 0.8"/>
      </g>
     </g>
     <g id="text_25">
      <!-- 50 -->
      <g transform="translate(428.002057 664.897656) scale(0.15 -0.15)">
       <use xlink:href="#DejaVuSans-35"/>
       <use xlink:href="#DejaVuSans-30" x="63.623047"/>
      </g>
     </g>
    </g>
    <g id="text_26">
     <!-- time [hr] -->
     <g transform="translate(234.653094 685.694375) scale(0.18 -0.18)">
      <use xlink:href="#DejaVuSans-Bold-74"/>
      <use xlink:href="#DejaVuSans-Bold-69" x="47.802734"/>
      <use xlink:href="#DejaVuSans-Bold-6d" x="82.080078"/>
      <use xlink:href="#DejaVuSans-Bold-65" x="186.279297"/>
      <use xlink:href="#DejaVuSans-Bold-20" x="254.101562"/>
      <use xlink:href="#DejaVuSans-Bold-5b" x="288.916016"/>
      <use xlink:href="#DejaVuSans-Bold-68" x="334.619141"/>
      <use xlink:href="#DejaVuSans-Bold-72" x="405.810547"/>
      <use xlink:href="#DejaVuSans-Bold-5d" x="455.126953"/>
     </g>
    </g>
   </g>
   <g id="matplotlib.axis_4">
    <g id="ytick_6">
     <g id="line2d_28">
      <g>
       <use xlink:href="#md60e49c7b5" x="84.427625" y="636" style="stroke: #000000; stroke-width: 0.8"/>
      </g>
     </g>
     <g id="text_27">
      <!-- 0 -->
      <g transform="translate(67.883875 641.698828) scale(0.15 -0.15)">
       <use xlink:href="#DejaVuSans-30"/>
      </g>
     </g>
    </g>
    <g id="ytick_7">
     <g id="line2d_29">
      <g>
       <use xlink:href="#md60e49c7b5" x="84.427625" y="576.88227" style="stroke: #000000; stroke-width: 0.8"/>
      </g>
     </g>
     <g id="text_28">
      <!-- 50 -->
      <g transform="translate(58.340125 582.581098) scale(0.15 -0.15)">
       <use xlink:href="#DejaVuSans-35"/>
       <use xlink:href="#DejaVuSans-30" x="63.623047"/>
      </g>
     </g>
    </g>
    <g id="ytick_8">
     <g id="line2d_30">
      <g>
       <use xlink:href="#md60e49c7b5" x="84.427625" y="517.764539" style="stroke: #000000; stroke-width: 0.8"/>
      </g>
     </g>
     <g id="text_29">
      <!-- 100 -->
      <g transform="translate(48.796375 523.463367) scale(0.15 -0.15)">
       <use xlink:href="#DejaVuSans-31"/>
       <use xlink:href="#DejaVuSans-30" x="63.623047"/>
       <use xlink:href="#DejaVuSans-30" x="127.246094"/>
      </g>
     </g>
    </g>
    <g id="ytick_9">
     <g id="line2d_31">
      <g>
       <use xlink:href="#md60e49c7b5" x="84.427625" y="458.646809" style="stroke: #000000; stroke-width: 0.8"/>
      </g>
     </g>
     <g id="text_30">
      <!-- 150 -->
      <g transform="translate(48.796375 464.345637) scale(0.15 -0.15)">
       <use xlink:href="#DejaVuSans-31"/>
       <use xlink:href="#DejaVuSans-35" x="63.623047"/>
       <use xlink:href="#DejaVuSans-30" x="127.246094"/>
      </g>
     </g>
    </g>
    <g id="text_31">
     <!-- HCTZ excretion -->
     <g transform="translate(20.896875 608.700938) rotate(-90) scale(0.18 -0.18)">
      <defs>
       <path id="DejaVuSans-Bold-78" d="M 1422 1791 
L 159 3500 
L 1344 3500 
L 2059 2463 
L 2784 3500 
L 3969 3500 
L 2706 1797 
L 4031 0 
L 2847 0 
L 2059 1106 
L 1281 0 
L 97 0 
L 1422 1791 
z
" transform="scale(0.015625)"/>
       <path id="DejaVuSans-Bold-63" d="M 3366 3391 
L 3366 2478 
Q 3138 2634 2908 2709 
Q 2678 2784 2431 2784 
Q 1963 2784 1702 2511 
Q 1441 2238 1441 1747 
Q 1441 1256 1702 982 
Q 1963 709 2431 709 
Q 2694 709 2930 787 
Q 3166 866 3366 1019 
L 3366 103 
Q 3103 6 2833 -42 
Q 2563 -91 2291 -91 
Q 1344 -91 809 395 
Q 275 881 275 1747 
Q 275 2613 809 3098 
Q 1344 3584 2291 3584 
Q 2566 3584 2833 3536 
Q 3100 3488 3366 3391 
z
" transform="scale(0.015625)"/>
       <path id="DejaVuSans-Bold-6f" d="M 2203 2784 
Q 1831 2784 1636 2517 
Q 1441 2250 1441 1747 
Q 1441 1244 1636 976 
Q 1831 709 2203 709 
Q 2569 709 2762 976 
Q 2956 1244 2956 1747 
Q 2956 2250 2762 2517 
Q 2569 2784 2203 2784 
z
M 2203 3584 
Q 3106 3584 3614 3096 
Q 4122 2609 4122 1747 
Q 4122 884 3614 396 
Q 3106 -91 2203 -91 
Q 1297 -91 786 396 
Q 275 884 275 1747 
Q 275 2609 786 3096 
Q 1297 3584 2203 3584 
z
" transform="scale(0.015625)"/>
       <path id="DejaVuSans-Bold-6e" d="M 4056 2131 
L 4056 0 
L 2931 0 
L 2931 347 
L 2931 1631 
Q 2931 2084 2911 2256 
Q 2891 2428 2841 2509 
Q 2775 2619 2662 2680 
Q 2550 2741 2406 2741 
Q 2056 2741 1856 2470 
Q 1656 2200 1656 1722 
L 1656 0 
L 538 0 
L 538 3500 
L 1656 3500 
L 1656 2988 
Q 1909 3294 2193 3439 
Q 2478 3584 2822 3584 
Q 3428 3584 3742 3212 
Q 4056 2841 4056 2131 
z
" transform="scale(0.015625)"/>
      </defs>
      <use xlink:href="#DejaVuSans-Bold-48"/>
      <use xlink:href="#DejaVuSans-Bold-43" x="83.691406"/>
      <use xlink:href="#DejaVuSans-Bold-54" x="157.080078"/>
      <use xlink:href="#DejaVuSans-Bold-5a" x="225.292969"/>
      <use xlink:href="#DejaVuSans-Bold-20" x="297.802734"/>
      <use xlink:href="#DejaVuSans-Bold-65" x="332.617188"/>
      <use xlink:href="#DejaVuSans-Bold-78" x="400.439453"/>
      <use xlink:href="#DejaVuSans-Bold-63" x="464.941406"/>
      <use xlink:href="#DejaVuSans-Bold-72" x="524.21875"/>
      <use xlink:href="#DejaVuSans-Bold-65" x="573.535156"/>
      <use xlink:href="#DejaVuSans-Bold-74" x="641.357422"/>
      <use xlink:href="#DejaVuSans-Bold-69" x="689.160156"/>
      <use xlink:href="#DejaVuSans-Bold-6f" x="723.4375"/>
      <use xlink:href="#DejaVuSans-Bold-6e" x="792.138672"/>
     </g>
     <!-- urine [nmol/min] -->
     <g transform="translate(41.052938 616.013438) rotate(-90) scale(0.18 -0.18)">
      <defs>
       <path id="DejaVuSans-Bold-75" d="M 500 1363 
L 500 3500 
L 1625 3500 
L 1625 3150 
Q 1625 2866 1622 2436 
Q 1619 2006 1619 1863 
Q 1619 1441 1641 1255 
Q 1663 1069 1716 984 
Q 1784 875 1895 815 
Q 2006 756 2150 756 
Q 2500 756 2700 1025 
Q 2900 1294 2900 1772 
L 2900 3500 
L 4019 3500 
L 4019 0 
L 2900 0 
L 2900 506 
Q 2647 200 2364 54 
Q 2081 -91 1741 -91 
Q 1134 -91 817 281 
Q 500 653 500 1363 
z
" transform="scale(0.015625)"/>
       <path id="DejaVuSans-Bold-6c" d="M 538 4863 
L 1656 4863 
L 1656 0 
L 538 0 
L 538 4863 
z
" transform="scale(0.015625)"/>
       <path id="DejaVuSans-Bold-2f" d="M 1644 4666 
L 2338 4666 
L 691 -594 
L 0 -594 
L 1644 4666 
z
" transform="scale(0.015625)"/>
      </defs>
      <use xlink:href="#DejaVuSans-Bold-75"/>
      <use xlink:href="#DejaVuSans-Bold-72" x="71.191406"/>
      <use xlink:href="#DejaVuSans-Bold-69" x="120.507812"/>
      <use xlink:href="#DejaVuSans-Bold-6e" x="154.785156"/>
      <use xlink:href="#DejaVuSans-Bold-65" x="225.976562"/>
      <use xlink:href="#DejaVuSans-Bold-20" x="293.798828"/>
      <use xlink:href="#DejaVuSans-Bold-5b" x="328.613281"/>
      <use xlink:href="#DejaVuSans-Bold-6e" x="374.316406"/>
      <use xlink:href="#DejaVuSans-Bold-6d" x="445.507812"/>
      <use xlink:href="#DejaVuSans-Bold-6f" x="549.707031"/>
      <use xlink:href="#DejaVuSans-Bold-6c" x="618.408203"/>
      <use xlink:href="#DejaVuSans-Bold-2f" x="652.685547"/>
      <use xlink:href="#DejaVuSans-Bold-6d" x="689.208984"/>
      <use xlink:href="#DejaVuSans-Bold-69" x="793.408203"/>
      <use xlink:href="#DejaVuSans-Bold-6e" x="827.685547"/>
      <use xlink:href="#DejaVuSans-Bold-5d" x="898.876953"/>
     </g>
    </g>
   </g>
   <g id="LineCollection_3">
    <path d="M 346.800352 548.12766 
L 346.800352 426 
" clip-path="url(#p7fa4c54dd6)" style="fill: none; stroke: #000000"/>
    <path d="M 354.691261 589.862884 
L 354.691261 546.439716 
" clip-path="url(#p7fa4c54dd6)" style="fill: none; stroke: #000000"/>
    <path d="M 362.58217 601.248227 
L 362.58217 571.460993 
" clip-path="url(#p7fa4c54dd6)" style="fill: none; stroke: #000000"/>
    <path d="M 386.254898 622.099291 
L 386.254898 611.287628 
" clip-path="url(#p7fa4c54dd6)" style="fill: none; stroke: #000000"/>
    <path d="M 409.927625 629.557132 
L 409.927625 624.791174 
" clip-path="url(#p7fa4c54dd6)" style="fill: none; stroke: #000000"/>
    <path d="M 433.600352 631.973207 
L 433.600352 628.994484 
" clip-path="url(#p7fa4c54dd6)" style="fill: none; stroke: #000000"/>
   </g>
   <g id="line2d_32">
    <path d="M 102.18217 636 
L 102.229516 635.78271 
L 102.371552 632.168817 
L 102.70297 614.387245 
L 103.697225 557.651265 
L 104.26537 538.003032 
L 104.78617 527.256046 
L 105.259625 521.836316 
L 105.638389 519.630856 
L 105.969807 518.838247 
L 106.206534 518.773041 
L 106.443261 519.040444 
L 106.77468 519.858547 
L 107.248134 521.689014 
L 108.005661 525.621371 
L 109.568061 535.239568 
L 112.172061 550.998641 
L 114.06588 561.070689 
L 115.912352 569.705562 
L 117.758825 577.283424 
L 119.605298 583.929663 
L 121.45177 589.76005 
L 123.298243 594.877116 
L 125.192061 599.478434 
L 125.854898 600.949924 
L 125.902243 600.835154 
L 126.04428 597.526793 
L 126.375698 580.446456 
L 127.369952 525.71952 
L 127.938098 507.158419 
L 128.411552 498.029934 
L 128.837661 493.446145 
L 129.216425 491.487498 
L 129.500498 491.000272 
L 129.68988 491.045251 
L 129.926607 491.442203 
L 130.258025 492.51033 
L 130.778825 495.066869 
L 131.583698 500.284957 
L 133.43017 514.166551 
L 135.750098 530.952312 
L 137.643916 543.041884 
L 139.490389 553.415823 
L 141.336861 562.532987 
L 143.183334 570.542821 
L 145.029807 577.582602 
L 146.87628 583.773763 
L 148.770098 589.353486 
L 149.527625 591.389618 
L 149.57497 591.296109 
L 149.717007 588.051159 
L 150.048425 571.116635 
L 151.04268 516.809722 
L 151.610825 498.477406 
L 152.08428 489.533629 
L 152.510389 485.111607 
L 152.841807 483.431689 
L 153.12588 482.924124 
L 153.315261 482.969352 
L 153.551989 483.379523 
L 153.883407 484.485811 
L 154.404207 487.136509 
L 155.20908 492.550626 
L 157.055552 506.964586 
L 159.37548 524.410821 
L 161.269298 536.989351 
L 163.11577 547.794107 
L 164.962243 557.300604 
L 166.808716 565.662747 
L 168.655189 573.021978 
L 170.549007 579.6591 
L 172.442825 585.490905 
L 173.200352 587.621647 
L 173.247698 587.533939 
L 173.389734 584.306316 
L 173.721152 567.411777 
L 174.715407 513.221185 
L 175.236207 496.128636 
L 175.709661 486.738744 
L 176.13577 482.033884 
L 176.514534 480.040633 
L 176.798607 479.562811 
L 176.987989 479.62766 
L 177.224716 480.062126 
L 177.556134 481.202002 
L 178.076934 483.904502 
L 178.929152 489.7497 
L 181.012352 506.236988 
L 183.237589 522.963203 
L 185.131407 535.529895 
L 186.97788 546.325305 
L 188.824352 555.829574 
L 190.670825 564.196687 
L 192.517298 571.567188 
L 194.411116 578.221362 
L 196.304934 584.074801 
L 196.87308 585.6903 
L 196.920425 585.604879 
L 197.062461 582.384098 
L 197.39388 565.505399 
L 198.388134 511.361328 
L 198.908934 494.292564 
L 199.382389 484.923957 
L 199.808498 480.237985 
L 200.187261 478.261313 
L 200.471334 477.795798 
L 200.660716 477.868792 
L 200.897443 478.313372 
L 201.276207 479.674246 
L 201.844352 482.775509 
L 202.743916 489.150593 
L 208.188643 530.148085 
L 210.035116 541.470102 
L 211.881589 551.446027 
L 213.728061 560.231688 
L 215.574534 567.973032 
L 217.468352 574.963875 
L 219.36217 581.115208 
L 220.545807 584.581551 
L 220.545807 584.581551 
L 220.593152 584.497304 
L 220.735189 581.280032 
L 221.066607 564.409475 
L 222.060861 510.289428 
L 222.581661 493.233014 
L 223.055116 483.875497 
L 223.481225 479.199397 
L 223.859989 477.231414 
L 224.144061 476.772363 
L 224.333443 476.849641 
L 224.57017 477.299548 
L 224.948934 478.668883 
L 225.51708 481.782693 
L 226.416643 488.177292 
L 231.86137 529.284368 
L 233.707843 540.640473 
L 235.554316 550.649058 
L 237.400789 559.466021 
L 239.247261 567.237373 
L 241.14108 574.257716 
L 243.034898 580.437316 
L 244.218534 583.920725 
L 244.218534 583.920725 
L 244.26588 583.83715 
L 244.407916 580.621895 
L 244.739334 563.756016 
L 245.733589 509.649797 
L 246.254389 492.600506 
L 246.727843 483.249393 
L 247.153952 478.578998 
L 247.532716 476.616042 
L 247.816789 476.160734 
L 248.00617 476.240494 
L 248.242898 476.693489 
L 248.621661 478.067731 
L 249.189807 481.188825 
L 250.08937 487.594772 
L 255.534098 528.765942 
L 257.38057 540.142106 
L 259.227043 550.169959 
L 261.073516 559.005433 
L 262.919989 566.79457 
L 264.813807 573.83243 
L 266.707625 580.028846 
L 267.891261 583.522421 
L 267.891261 583.522421 
L 267.938607 583.439248 
L 268.080643 580.225194 
L 268.412061 563.362103 
L 269.406316 509.264134 
L 269.927116 492.219094 
L 270.40057 482.871804 
L 270.82668 478.204818 
L 271.205443 476.244865 
L 271.489516 475.791793 
L 271.678898 475.873036 
L 271.915625 476.327877 
L 272.294389 477.705053 
L 272.862534 480.830503 
L 273.762098 487.24324 
L 279.206825 528.452827 
L 281.053298 539.841036 
L 282.89977 549.880468 
L 284.746243 558.727074 
L 286.592716 566.526912 
L 288.486534 573.57532 
L 290.380352 579.781865 
L 291.563989 583.281567 
L 291.563989 583.281567 
L 291.611334 583.198636 
L 291.75337 579.985305 
L 292.084789 563.123896 
L 293.079043 509.0309 
L 293.599843 491.988423 
L 294.073298 482.643439 
L 294.499407 477.978508 
L 294.87817 476.020367 
L 295.162243 475.568644 
L 295.351625 475.650782 
L 295.588352 476.106736 
L 295.967116 477.485682 
L 296.535261 480.613761 
L 297.434825 487.030594 
L 302.879552 528.263375 
L 304.726025 539.65886 
L 306.572498 549.705287 
L 308.41897 558.55862 
L 310.265443 566.364926 
L 312.159261 573.41971 
L 314.05308 579.632379 
L 315.236716 583.135786 
L 315.236716 583.135786 
L 315.284061 583.053001 
L 315.426098 579.840109 
L 315.757516 562.979717 
L 316.75177 508.889728 
L 317.27257 491.848801 
L 317.746025 482.505211 
L 318.172134 477.841523 
L 318.550898 475.884477 
L 318.787625 475.457673 
L 318.977007 475.47011 
L 319.213734 475.853414 
L 319.545152 476.943844 
L 320.065952 479.608275 
L 320.870825 485.10339 
L 322.622607 499.055 
L 325.037225 517.692251 
L 326.931043 530.604494 
L 328.777516 541.715121 
L 330.623989 551.508412 
L 332.470461 560.139609 
L 334.36428 567.934554 
L 336.258098 574.793577 
L 338.151916 580.835708 
L 338.909443 583.047526 
L 338.909443 583.047526 
L 339.14617 577.937046 
L 340.803261 495.632404 
L 341.276716 484.704183 
L 341.75017 478.542351 
L 342.223625 475.802205 
L 342.460352 475.375813 
L 342.69708 475.434799 
L 342.933807 475.891835 
L 343.407261 477.718659 
L 344.117443 481.964807 
L 345.30108 490.930884 
L 348.851989 518.64446 
L 350.745807 531.440774 
L 352.639625 542.711543 
L 354.533443 552.61338 
L 356.427261 561.312782 
L 358.32108 568.961488 
L 360.214898 575.693088 
L 362.108716 581.624187 
L 364.002534 586.856344 
L 365.896352 591.477974 
L 367.79017 595.566043 
L 369.920716 599.610445 
L 372.051261 603.146559 
L 374.181807 606.244947 
L 376.312352 608.966035 
L 378.679625 611.609649 
L 381.046898 613.911544 
L 383.41417 615.922585 
L 386.01817 617.849773 
L 388.858898 619.665733 
L 391.936352 621.352934 
L 395.250534 622.902594 
L 398.801443 624.313157 
L 402.825807 625.661553 
L 407.323625 626.920431 
L 412.294898 628.075486 
L 417.976352 629.163579 
L 424.604716 630.198209 
L 432.179989 631.151619 
L 441.175625 632.052178 
L 451.591625 632.86708 
L 457.27308 633.232795 
L 457.27308 633.232795 
" clip-path="url(#p7fa4c54dd6)" style="fill: none; stroke: #000000; stroke-width: 2; stroke-linecap: square"/>
   </g>
   <g id="line2d_33">
    <path d="M 346.800352 487.06383 
L 354.691261 568.1513 
L 362.58217 586.35461 
L 386.254898 616.693459 
L 409.927625 627.174153 
L 433.600352 630.483846 
" clip-path="url(#p7fa4c54dd6)" style="fill: none; stroke-dasharray: 3.7,1.6; stroke-dashoffset: 0; stroke: #000000"/>
    <g clip-path="url(#p7fa4c54dd6)">
     <use xlink:href="#m80b6c466f3" x="346.800352" y="487.06383" style="stroke: #000000; stroke-linejoin: miter"/>
     <use xlink:href="#m80b6c466f3" x="354.691261" y="568.1513" style="stroke: #000000; stroke-linejoin: miter"/>
     <use xlink:href="#m80b6c466f3" x="362.58217" y="586.35461" style="stroke: #000000; stroke-linejoin: miter"/>
     <use xlink:href="#m80b6c466f3" x="386.254898" y="616.693459" style="stroke: #000000; stroke-linejoin: miter"/>
     <use xlink:href="#m80b6c466f3" x="409.927625" y="627.174153" style="stroke: #000000; stroke-linejoin: miter"/>
     <use xlink:href="#m80b6c466f3" x="433.600352" y="630.483846" style="stroke: #000000; stroke-linejoin: miter"/>
    </g>
   </g>
   <g id="patch_9">
    <path d="M 84.427625 646.5 
L 84.427625 415.5 
" style="fill: none; stroke: #000000; stroke-width: 0.8; stroke-linejoin: miter; stroke-linecap: square"/>
   </g>
   <g id="patch_10">
    <path d="M 475.027625 646.5 
L 475.027625 415.5 
" style="fill: none; stroke: #000000; stroke-width: 0.8; stroke-linejoin: miter; stroke-linecap: square"/>
   </g>
   <g id="patch_11">
    <path d="M 84.427625 646.5 
L 475.027625 646.5 
" style="fill: none; stroke: #000000; stroke-width: 0.8; stroke-linejoin: miter; stroke-linecap: square"/>
   </g>
   <g id="patch_12">
    <path d="M 84.427625 415.5 
L 475.027625 415.5 
" style="fill: none; stroke: #000000; stroke-width: 0.8; stroke-linejoin: miter; stroke-linecap: square"/>
   </g>
   <g id="legend_2">
    <g id="patch_13">
     <path d="M 343.183875 452.85625 
L 468.027625 452.85625 
Q 470.027625 452.85625 470.027625 450.85625 
L 470.027625 422.5 
Q 470.027625 420.5 468.027625 420.5 
L 343.183875 420.5 
Q 341.183875 420.5 341.183875 422.5 
L 341.183875 450.85625 
Q 341.183875 452.85625 343.183875 452.85625 
z
" style="fill: #ffffff; opacity: 0.8; stroke: #cccccc; stroke-linejoin: miter"/>
    </g>
    <g id="line2d_34">
     <path d="M 345.183875 428.598438 
L 365.183875 428.598438 
" style="fill: none; stroke: #000000; stroke-width: 2; stroke-linecap: square"/>
    </g>
    <g id="line2d_35"/>
    <g id="text_32">
     <!-- Sim -->
     <g transform="translate(373.183875 432.098438) scale(0.1 -0.1)">
      <use xlink:href="#DejaVuSans-53"/>
      <use xlink:href="#DejaVuSans-69" x="63.476562"/>
      <use xlink:href="#DejaVuSans-6d" x="91.259766"/>
     </g>
    </g>
    <g id="LineCollection_4">
     <path d="M 355.183875 448.276563 
L 355.183875 438.276563 
" style="fill: none; stroke: #000000"/>
    </g>
    <g id="line2d_36">
     <path d="M 345.183875 443.276563 
L 365.183875 443.276563 
" style="fill: none; stroke-dasharray: 3.7,1.6; stroke-dashoffset: 0; stroke: #000000"/>
    </g>
    <g id="line2d_37">
     <g>
      <use xlink:href="#m80b6c466f3" x="355.183875" y="443.276563" style="stroke: #000000; stroke-linejoin: miter"/>
     </g>
    </g>
    <g id="text_33">
     <!-- 25 mg±SD (n=20) -->
     <g transform="translate(373.183875 446.776563) scale(0.1 -0.1)">
      <use xlink:href="#DejaVuSans-32"/>
      <use xlink:href="#DejaVuSans-35" x="63.623047"/>
      <use xlink:href="#DejaVuSans-20" x="127.246094"/>
      <use xlink:href="#DejaVuSans-6d" x="159.033203"/>
      <use xlink:href="#DejaVuSans-67" x="256.445312"/>
      <use xlink:href="#DejaVuSans-b1" x="319.921875"/>
      <use xlink:href="#DejaVuSans-53" x="403.710938"/>
      <use xlink:href="#DejaVuSans-44" x="467.1875"/>
      <use xlink:href="#DejaVuSans-20" x="544.189453"/>
      <use xlink:href="#DejaVuSans-28" x="575.976562"/>
      <use xlink:href="#DejaVuSans-6e" x="614.990234"/>
      <use xlink:href="#DejaVuSans-3d" x="678.369141"/>
      <use xlink:href="#DejaVuSans-32" x="762.158203"/>
      <use xlink:href="#DejaVuSans-30" x="825.78125"/>
      <use xlink:href="#DejaVuSans-29" x="889.404297"/>
     </g>
    </g>
   </g>
  </g>
  <g id="axes_3">
   <g id="patch_14">
    <path d="M 84.427625 946.8 
L 475.027625 946.8 
L 475.027625 715.8 
L 84.427625 715.8 
z
" style="fill: #ffffff"/>
   </g>
   <g id="matplotlib.axis_5">
    <g id="xtick_17">
     <g id="line2d_38">
      <g>
       <use xlink:href="#m620bbb3944" x="92.318534" y="946.8" style="stroke: #000000; stroke-width: 0.8"/>
      </g>
     </g>
     <g id="text_34">
      <!-- −125 -->
      <g transform="translate(71.718143 965.197656) scale(0.15 -0.15)">
       <use xlink:href="#DejaVuSans-2212"/>
       <use xlink:href="#DejaVuSans-31" x="83.789062"/>
       <use xlink:href="#DejaVuSans-32" x="147.412109"/>
       <use xlink:href="#DejaVuSans-35" x="211.035156"/>
      </g>
     </g>
    </g>
    <g id="xtick_18">
     <g id="line2d_39">
      <g>
       <use xlink:href="#m620bbb3944" x="141.636716" y="946.8" style="stroke: #000000; stroke-width: 0.8"/>
      </g>
     </g>
     <g id="text_35">
      <!-- −100 -->
      <g transform="translate(121.036325 965.197656) scale(0.15 -0.15)">
       <use xlink:href="#DejaVuSans-2212"/>
       <use xlink:href="#DejaVuSans-31" x="83.789062"/>
       <use xlink:href="#DejaVuSans-30" x="147.412109"/>
       <use xlink:href="#DejaVuSans-30" x="211.035156"/>
      </g>
     </g>
    </g>
    <g id="xtick_19">
     <g id="line2d_40">
      <g>
       <use xlink:href="#m620bbb3944" x="190.954898" y="946.8" style="stroke: #000000; stroke-width: 0.8"/>
      </g>
     </g>
     <g id="text_36">
      <!-- −75 -->
      <g transform="translate(175.126382 965.197656) scale(0.15 -0.15)">
       <use xlink:href="#DejaVuSans-2212"/>
       <use xlink:href="#DejaVuSans-37" x="83.789062"/>
       <use xlink:href="#DejaVuSans-35" x="147.412109"/>
      </g>
     </g>
    </g>
    <g id="xtick_20">
     <g id="line2d_41">
      <g>
       <use xlink:href="#m620bbb3944" x="240.27308" y="946.8" style="stroke: #000000; stroke-width: 0.8"/>
      </g>
     </g>
     <g id="text_37">
      <!-- −50 -->
      <g transform="translate(224.444564 965.197656) scale(0.15 -0.15)">
       <use xlink:href="#DejaVuSans-2212"/>
       <use xlink:href="#DejaVuSans-35" x="83.789062"/>
       <use xlink:href="#DejaVuSans-30" x="147.412109"/>
      </g>
     </g>
    </g>
    <g id="xtick_21">
     <g id="line2d_42">
      <g>
       <use xlink:href="#m620bbb3944" x="289.591261" y="946.8" style="stroke: #000000; stroke-width: 0.8"/>
      </g>
     </g>
     <g id="text_38">
      <!-- −25 -->
      <g transform="translate(273.762746 965.197656) scale(0.15 -0.15)">
       <use xlink:href="#DejaVuSans-2212"/>
       <use xlink:href="#DejaVuSans-32" x="83.789062"/>
       <use xlink:href="#DejaVuSans-35" x="147.412109"/>
      </g>
     </g>
    </g>
    <g id="xtick_22">
     <g id="line2d_43">
      <g>
       <use xlink:href="#m620bbb3944" x="338.909443" y="946.8" style="stroke: #000000; stroke-width: 0.8"/>
      </g>
     </g>
     <g id="text_39">
      <!-- 0 -->
      <g transform="translate(334.137568 965.197656) scale(0.15 -0.15)">
       <use xlink:href="#DejaVuSans-30"/>
      </g>
     </g>
    </g>
    <g id="xtick_23">
     <g id="line2d_44">
      <g>
       <use xlink:href="#m620bbb3944" x="388.227625" y="946.8" style="stroke: #000000; stroke-width: 0.8"/>
      </g>
     </g>
     <g id="text_40">
      <!-- 25 -->
      <g transform="translate(378.683875 965.197656) scale(0.15 -0.15)">
       <use xlink:href="#DejaVuSans-32"/>
       <use xlink:href="#DejaVuSans-35" x="63.623047"/>
      </g>
     </g>
    </g>
    <g id="xtick_24">
     <g id="line2d_45">
      <g>
       <use xlink:href="#m620bbb3944" x="437.545807" y="946.8" style="stroke: #000000; stroke-width: 0.8"/>
      </g>
     </g>
     <g id="text_41">
      <!-- 50 -->
      <g transform="translate(428.002057 965.197656) scale(0.15 -0.15)">
       <use xlink:href="#DejaVuSans-35"/>
       <use xlink:href="#DejaVuSans-30" x="63.623047"/>
      </g>
     </g>
    </g>
    <g id="text_42">
     <!-- time [hr] -->
     <g transform="translate(234.653094 985.994375) scale(0.18 -0.18)">
      <use xlink:href="#DejaVuSans-Bold-74"/>
      <use xlink:href="#DejaVuSans-Bold-69" x="47.802734"/>
      <use xlink:href="#DejaVuSans-Bold-6d" x="82.080078"/>
      <use xlink:href="#DejaVuSans-Bold-65" x="186.279297"/>
      <use xlink:href="#DejaVuSans-Bold-20" x="254.101562"/>
      <use xlink:href="#DejaVuSans-Bold-5b" x="288.916016"/>
      <use xlink:href="#DejaVuSans-Bold-68" x="334.619141"/>
      <use xlink:href="#DejaVuSans-Bold-72" x="405.810547"/>
      <use xlink:href="#DejaVuSans-Bold-5d" x="455.126953"/>
     </g>
    </g>
   </g>
   <g id="matplotlib.axis_6">
    <g id="ytick_10">
     <g id="line2d_46">
      <g>
       <use xlink:href="#md60e49c7b5" x="84.427625" y="936.3" style="stroke: #000000; stroke-width: 0.8"/>
      </g>
     </g>
     <g id="text_43">
      <!-- 0 -->
      <g transform="translate(67.883875 941.998828) scale(0.15 -0.15)">
       <use xlink:href="#DejaVuSans-30"/>
      </g>
     </g>
    </g>
    <g id="ytick_11">
     <g id="line2d_47">
      <g>
       <use xlink:href="#md60e49c7b5" x="84.427625" y="892.387833" style="stroke: #000000; stroke-width: 0.8"/>
      </g>
     </g>
     <g id="text_44">
      <!-- 20 -->
      <g transform="translate(58.340125 898.086662) scale(0.15 -0.15)">
       <use xlink:href="#DejaVuSans-32"/>
       <use xlink:href="#DejaVuSans-30" x="63.623047"/>
      </g>
     </g>
    </g>
    <g id="ytick_12">
     <g id="line2d_48">
      <g>
       <use xlink:href="#md60e49c7b5" x="84.427625" y="848.475667" style="stroke: #000000; stroke-width: 0.8"/>
      </g>
     </g>
     <g id="text_45">
      <!-- 40 -->
      <g transform="translate(58.340125 854.174495) scale(0.15 -0.15)">
       <use xlink:href="#DejaVuSans-34"/>
       <use xlink:href="#DejaVuSans-30" x="63.623047"/>
      </g>
     </g>
    </g>
    <g id="ytick_13">
     <g id="line2d_49">
      <g>
       <use xlink:href="#md60e49c7b5" x="84.427625" y="804.5635" style="stroke: #000000; stroke-width: 0.8"/>
      </g>
     </g>
     <g id="text_46">
      <!-- 60 -->
      <g transform="translate(58.340125 810.262329) scale(0.15 -0.15)">
       <use xlink:href="#DejaVuSans-36"/>
       <use xlink:href="#DejaVuSans-30" x="63.623047"/>
      </g>
     </g>
    </g>
    <g id="ytick_14">
     <g id="line2d_50">
      <g>
       <use xlink:href="#md60e49c7b5" x="84.427625" y="760.651334" style="stroke: #000000; stroke-width: 0.8"/>
      </g>
     </g>
     <g id="text_47">
      <!-- 80 -->
      <g transform="translate(58.340125 766.350162) scale(0.15 -0.15)">
       <use xlink:href="#DejaVuSans-38"/>
       <use xlink:href="#DejaVuSans-30" x="63.623047"/>
      </g>
     </g>
    </g>
    <g id="ytick_15">
     <g id="line2d_51">
      <g>
       <use xlink:href="#md60e49c7b5" x="84.427625" y="716.739167" style="stroke: #000000; stroke-width: 0.8"/>
      </g>
     </g>
     <g id="text_48">
      <!-- 100 -->
      <g transform="translate(48.796375 722.437995) scale(0.15 -0.15)">
       <use xlink:href="#DejaVuSans-31"/>
       <use xlink:href="#DejaVuSans-30" x="63.623047"/>
       <use xlink:href="#DejaVuSans-30" x="127.246094"/>
      </g>
     </g>
    </g>
    <g id="text_49">
     <!-- HCTZ urine -->
     <g transform="translate(20.877188 887.677969) rotate(-90) scale(0.18 -0.18)">
      <use xlink:href="#DejaVuSans-Bold-48"/>
      <use xlink:href="#DejaVuSans-Bold-43" x="83.691406"/>
      <use xlink:href="#DejaVuSans-Bold-54" x="157.080078"/>
      <use xlink:href="#DejaVuSans-Bold-5a" x="225.292969"/>
      <use xlink:href="#DejaVuSans-Bold-20" x="297.802734"/>
      <use xlink:href="#DejaVuSans-Bold-75" x="332.617188"/>
      <use xlink:href="#DejaVuSans-Bold-72" x="403.808594"/>
      <use xlink:href="#DejaVuSans-Bold-69" x="453.125"/>
      <use xlink:href="#DejaVuSans-Bold-6e" x="487.402344"/>
      <use xlink:href="#DejaVuSans-Bold-65" x="558.59375"/>
     </g>
     <!--  [µmol] -->
     <g transform="translate(41.03325 867.928594) rotate(-90) scale(0.18 -0.18)">
      <use xlink:href="#DejaVuSans-Bold-20"/>
      <use xlink:href="#DejaVuSans-Bold-5b" x="34.814453"/>
      <use xlink:href="#DejaVuSans-Bold-b5" x="80.517578"/>
      <use xlink:href="#DejaVuSans-Bold-6d" x="154.101562"/>
      <use xlink:href="#DejaVuSans-Bold-6f" x="258.300781"/>
      <use xlink:href="#DejaVuSans-Bold-6c" x="327.001953"/>
      <use xlink:href="#DejaVuSans-Bold-5d" x="361.279297"/>
     </g>
    </g>
   </g>
   <g id="LineCollection_5">
    <path clip-path="url(#p69d9456e92)" style="fill: none; stroke: #000000"/>
    <path d="M 346.800352 898.292639 
L 346.800352 842.186535 
" clip-path="url(#p69d9456e92)" style="fill: none; stroke: #000000"/>
    <path d="M 354.691261 871.596993 
L 354.691261 809.156328 
" clip-path="url(#p69d9456e92)" style="fill: none; stroke: #000000"/>
    <path d="M 362.58217 854.403186 
L 362.58217 781.103276 
" clip-path="url(#p69d9456e92)" style="fill: none; stroke: #000000"/>
    <path d="M 386.254898 833.137163 
L 386.254898 748.978006 
" clip-path="url(#p69d9456e92)" style="fill: none; stroke: #000000"/>
    <path d="M 409.927625 821.825448 
L 409.927625 736.761355 
" clip-path="url(#p69d9456e92)" style="fill: none; stroke: #000000"/>
    <path d="M 433.600352 816.848294 
L 433.600352 726.354577 
" clip-path="url(#p69d9456e92)" style="fill: none; stroke: #000000"/>
   </g>
   <g id="line2d_52">
    <path d="M 102.18217 936.3 
L 102.560934 936.199068 
L 102.845007 935.850929 
L 103.22377 934.937605 
L 103.74457 932.936289 
L 104.502098 928.944576 
L 105.875116 920.221369 
L 108.905225 900.9151 
L 110.846389 890.079166 
L 112.740207 880.750039 
L 114.634025 872.525232 
L 116.527843 865.272123 
L 118.421661 858.869341 
L 120.362825 853.077092 
L 122.303989 847.96538 
L 124.292498 843.343484 
L 125.854898 840.095419 
L 125.854898 936.3 
L 125.949589 936.111442 
L 126.423043 934.89361 
L 126.896498 932.94051 
L 127.559334 929.065698 
L 128.600934 921.355893 
L 133.33548 884.622032 
L 135.276643 871.978046 
L 137.170461 861.073691 
L 139.06428 851.422516 
L 141.005443 842.670514 
L 142.946607 834.927462 
L 144.935116 827.907708 
L 146.923625 821.692413 
L 148.95948 816.054387 
L 149.527625 814.598719 
L 149.527625 936.3 
L 149.622316 936.060426 
L 150.143116 934.405788 
L 150.663916 931.862935 
L 151.374098 927.148228 
L 152.557734 917.555474 
L 156.298025 886.500308 
L 158.239189 872.533277 
L 160.180352 860.162755 
L 162.121516 849.219091 
L 164.06268 839.527727 
L 166.003843 830.931167 
L 167.992352 823.115921 
L 169.980861 816.175742 
L 172.016716 809.860294 
L 173.200352 806.51473 
L 173.200352 936.3 
L 173.295043 936.040306 
L 173.815843 934.276103 
L 174.336643 931.625511 
L 175.09417 926.404993 
L 176.372498 915.697201 
L 179.828716 886.315403 
L 181.817225 871.569153 
L 183.758389 858.816054 
L 185.699552 847.515075 
L 187.640716 837.489878 
L 189.629225 828.37636 
L 191.617734 820.284066 
L 193.653589 812.921044 
L 195.689443 806.370793 
L 196.87308 802.894177 
L 196.87308 936.3 
L 196.96777 936.029989 
L 197.48857 934.209478 
L 198.00937 931.503304 
L 198.766898 926.203211 
L 200.045225 915.364461 
L 203.501443 885.648356 
L 205.489952 870.721981 
L 207.431116 857.801048 
L 209.37228 846.339708 
L 211.313443 836.161226 
L 213.301952 826.89764 
L 215.290461 818.661952 
L 217.326316 811.15868 
L 219.409516 804.327904 
L 220.545807 800.922749 
L 220.545807 936.3 
L 220.640498 936.024066 
L 221.161298 934.171199 
L 221.729443 931.140962 
L 222.48697 925.713857 
L 223.859989 913.90101 
L 227.032134 886.404785 
L 229.020643 871.245835 
L 230.961807 858.112357 
L 232.90297 846.455801 
L 234.89148 835.860688 
L 236.879989 826.455691 
L 238.915843 817.901376 
L 240.951698 810.29433 
L 243.034898 803.363793 
L 244.218534 799.767321 
L 244.218534 936.3 
L 244.313225 936.020535 
L 244.834025 934.148379 
L 245.40217 931.097343 
L 246.159698 925.642898 
L 247.532716 913.78162 
L 250.704861 886.178814 
L 252.69337 870.956655 
L 254.634534 857.764015 
L 256.575698 846.050702 
L 258.564207 835.399839 
L 260.552716 825.94141 
L 262.58857 817.334689 
L 264.624425 809.677464 
L 266.707625 802.697784 
L 267.891261 799.074347 
L 267.891261 936.3 
L 267.985952 936.018407 
L 268.506752 934.134623 
L 269.074898 931.071048 
L 269.832425 925.60012 
L 271.205443 913.709633 
L 274.377589 886.04252 
L 276.366098 870.782206 
L 278.307261 857.553843 
L 280.248425 845.806251 
L 282.236934 835.121708 
L 284.225443 825.630992 
L 286.261298 816.992598 
L 288.297152 809.305039 
L 290.380352 802.295648 
L 291.563989 798.655905 
L 291.563989 936.3 
L 291.65868 936.01712 
L 292.17948 934.126305 
L 292.747625 931.055148 
L 293.505152 925.57425 
L 294.87817 913.666098 
L 298.050316 885.960087 
L 300.038825 870.676691 
L 301.979989 857.426715 
L 303.921152 845.658382 
L 305.909661 834.953459 
L 307.89817 825.443205 
L 309.934025 816.785643 
L 311.96988 809.079726 
L 314.05308 802.052353 
L 315.236716 798.402741 
L 315.236716 936.3 
L 315.331407 936.016341 
L 315.852207 934.12127 
L 316.420352 931.045523 
L 317.17788 925.558592 
L 318.550898 913.639747 
L 321.723043 885.91019 
L 323.711552 870.612822 
L 325.652716 857.349763 
L 327.59388 845.568874 
L 329.582389 834.851613 
L 331.570898 825.329531 
L 333.606752 816.660364 
L 335.642607 808.943333 
L 337.725807 801.905073 
L 338.909443 798.249486 
L 338.909443 936.3 
L 339.382898 934.716304 
L 339.856352 932.451575 
L 340.566534 927.753269 
L 341.75017 917.877258 
L 345.774534 882.825604 
L 347.668352 868.532491 
L 349.56217 855.789834 
L 351.455989 844.437186 
L 353.349807 834.310355 
L 355.243625 825.260707 
L 357.37417 816.205164 
L 359.504716 808.186209 
L 361.635261 801.06516 
L 363.765807 794.723003 
L 365.896352 789.057559 
L 368.026898 783.981054 
L 370.39417 778.93982 
L 372.761443 774.444428 
L 375.128716 770.420068 
L 377.495989 766.803323 
L 380.099989 763.231711 
L 382.703989 760.027925 
L 385.544716 756.893127 
L 388.385443 754.081205 
L 391.462898 751.346885 
L 394.77708 748.712211 
L 398.327989 746.192664 
L 401.878898 743.939983 
L 405.666534 741.787678 
L 409.927625 739.629575 
L 414.425443 737.608442 
L 419.159989 735.722819 
L 424.367989 733.892009 
L 430.049443 732.14151 
L 435.967625 730.550292 
L 442.359261 729.057465 
L 449.46108 727.631291 
L 457.036352 726.337094 
L 457.27308 726.3 
L 457.27308 726.3 
" clip-path="url(#p69d9456e92)" style="fill: none; stroke: #000000; stroke-width: 2; stroke-linecap: square"/>
   </g>
   <g id="line2d_53">
    <path d="M 338.909443 936.3 
L 346.800352 870.239587 
L 354.691261 840.37666 
L 362.58217 817.753231 
L 386.254898 791.057585 
L 409.927625 779.293401 
L 433.600352 771.601436 
" clip-path="url(#p69d9456e92)" style="fill: none; stroke-dasharray: 3.7,1.6; stroke-dashoffset: 0; stroke: #000000"/>
    <g clip-path="url(#p69d9456e92)">
     <use xlink:href="#m80b6c466f3" x="338.909443" y="936.3" style="stroke: #000000; stroke-linejoin: miter"/>
     <use xlink:href="#m80b6c466f3" x="346.800352" y="870.239587" style="stroke: #000000; stroke-linejoin: miter"/>
     <use xlink:href="#m80b6c466f3" x="354.691261" y="840.37666" style="stroke: #000000; stroke-linejoin: miter"/>
     <use xlink:href="#m80b6c466f3" x="362.58217" y="817.753231" style="stroke: #000000; stroke-linejoin: miter"/>
     <use xlink:href="#m80b6c466f3" x="386.254898" y="791.057585" style="stroke: #000000; stroke-linejoin: miter"/>
     <use xlink:href="#m80b6c466f3" x="409.927625" y="779.293401" style="stroke: #000000; stroke-linejoin: miter"/>
     <use xlink:href="#m80b6c466f3" x="433.600352" y="771.601436" style="stroke: #000000; stroke-linejoin: miter"/>
    </g>
   </g>
   <g id="patch_15">
    <path d="M 84.427625 946.8 
L 84.427625 715.8 
" style="fill: none; stroke: #000000; stroke-width: 0.8; stroke-linejoin: miter; stroke-linecap: square"/>
   </g>
   <g id="patch_16">
    <path d="M 475.027625 946.8 
L 475.027625 715.8 
" style="fill: none; stroke: #000000; stroke-width: 0.8; stroke-linejoin: miter; stroke-linecap: square"/>
   </g>
   <g id="patch_17">
    <path d="M 84.427625 946.8 
L 475.027625 946.8 
" style="fill: none; stroke: #000000; stroke-width: 0.8; stroke-linejoin: miter; stroke-linecap: square"/>
   </g>
   <g id="patch_18">
    <path d="M 84.427625 715.8 
L 475.027625 715.8 
" style="fill: none; stroke: #000000; stroke-width: 0.8; stroke-linejoin: miter; stroke-linecap: square"/>
   </g>
   <g id="legend_3">
    <g id="patch_19">
     <path d="M 91.427625 753.15625 
L 216.271375 753.15625 
Q 218.271375 753.15625 218.271375 751.15625 
L 218.271375 722.8 
Q 218.271375 720.8 216.271375 720.8 
L 91.427625 720.8 
Q 89.427625 720.8 89.427625 722.8 
L 89.427625 751.15625 
Q 89.427625 753.15625 91.427625 753.15625 
z
" style="fill: #ffffff; opacity: 0.8; stroke: #cccccc; stroke-linejoin: miter"/>
    </g>
    <g id="line2d_54">
     <path d="M 93.427625 728.898438 
L 113.427625 728.898438 
" style="fill: none; stroke: #000000; stroke-width: 2; stroke-linecap: square"/>
    </g>
    <g id="line2d_55"/>
    <g id="text_50">
     <!-- Sim -->
     <g transform="translate(121.427625 732.398438) scale(0.1 -0.1)">
      <use xlink:href="#DejaVuSans-53"/>
      <use xlink:href="#DejaVuSans-69" x="63.476562"/>
      <use xlink:href="#DejaVuSans-6d" x="91.259766"/>
     </g>
    </g>
    <g id="LineCollection_6">
     <path d="M 103.427625 748.576563 
L 103.427625 738.576563 
" style="fill: none; stroke: #000000"/>
    </g>
    <g id="line2d_56">
     <path d="M 93.427625 743.576563 
L 113.427625 743.576563 
" style="fill: none; stroke-dasharray: 3.7,1.6; stroke-dashoffset: 0; stroke: #000000"/>
    </g>
    <g id="line2d_57">
     <g>
      <use xlink:href="#m80b6c466f3" x="103.427625" y="743.576563" style="stroke: #000000; stroke-linejoin: miter"/>
     </g>
    </g>
    <g id="text_51">
     <!-- 25 mg±SD (n=20) -->
     <g transform="translate(121.427625 747.076563) scale(0.1 -0.1)">
      <use xlink:href="#DejaVuSans-32"/>
      <use xlink:href="#DejaVuSans-35" x="63.623047"/>
      <use xlink:href="#DejaVuSans-20" x="127.246094"/>
      <use xlink:href="#DejaVuSans-6d" x="159.033203"/>
      <use xlink:href="#DejaVuSans-67" x="256.445312"/>
      <use xlink:href="#DejaVuSans-b1" x="319.921875"/>
      <use xlink:href="#DejaVuSans-53" x="403.710938"/>
      <use xlink:href="#DejaVuSans-44" x="467.1875"/>
      <use xlink:href="#DejaVuSans-20" x="544.189453"/>
      <use xlink:href="#DejaVuSans-28" x="575.976562"/>
      <use xlink:href="#DejaVuSans-6e" x="614.990234"/>
      <use xlink:href="#DejaVuSans-3d" x="678.369141"/>
      <use xlink:href="#DejaVuSans-32" x="762.158203"/>
      <use xlink:href="#DejaVuSans-30" x="825.78125"/>
      <use xlink:href="#DejaVuSans-29" x="889.404297"/>
     </g>
    </g>
   </g>
  </g>
  <g id="text_52">
   <!-- Weir1998 Fig2_Fig3_Tab4 -->
   <g transform="translate(95.589734 26.196094) scale(0.25 -0.25)">
    <defs>
     <path id="DejaVuSans-Bold-57" d="M 191 4666 
L 1344 4666 
L 2150 1275 
L 2950 4666 
L 4109 4666 
L 4909 1275 
L 5716 4666 
L 6859 4666 
L 5759 0 
L 4372 0 
L 3525 3547 
L 2688 0 
L 1300 0 
L 191 4666 
z
" transform="scale(0.015625)"/>
     <path id="DejaVuSans-Bold-31" d="M 750 831 
L 1813 831 
L 1813 3847 
L 722 3622 
L 722 4441 
L 1806 4666 
L 2950 4666 
L 2950 831 
L 4013 831 
L 4013 0 
L 750 0 
L 750 831 
z
" transform="scale(0.015625)"/>
     <path id="DejaVuSans-Bold-39" d="M 641 103 
L 641 966 
Q 928 831 1190 764 
Q 1453 697 1709 697 
Q 2247 697 2547 995 
Q 2847 1294 2900 1881 
Q 2688 1725 2447 1647 
Q 2206 1569 1925 1569 
Q 1209 1569 770 1986 
Q 331 2403 331 3084 
Q 331 3838 820 4291 
Q 1309 4744 2131 4744 
Q 3044 4744 3544 4128 
Q 4044 3513 4044 2388 
Q 4044 1231 3459 570 
Q 2875 -91 1856 -91 
Q 1528 -91 1228 -42 
Q 928 6 641 103 
z
M 2125 2350 
Q 2441 2350 2600 2554 
Q 2759 2759 2759 3169 
Q 2759 3575 2600 3781 
Q 2441 3988 2125 3988 
Q 1809 3988 1650 3781 
Q 1491 3575 1491 3169 
Q 1491 2759 1650 2554 
Q 1809 2350 2125 2350 
z
" transform="scale(0.015625)"/>
     <path id="DejaVuSans-Bold-38" d="M 2228 2088 
Q 1891 2088 1709 1903 
Q 1528 1719 1528 1375 
Q 1528 1031 1709 848 
Q 1891 666 2228 666 
Q 2563 666 2741 848 
Q 2919 1031 2919 1375 
Q 2919 1722 2741 1905 
Q 2563 2088 2228 2088 
z
M 1350 2484 
Q 925 2613 709 2878 
Q 494 3144 494 3541 
Q 494 4131 934 4440 
Q 1375 4750 2228 4750 
Q 3075 4750 3515 4442 
Q 3956 4134 3956 3541 
Q 3956 3144 3739 2878 
Q 3522 2613 3097 2484 
Q 3572 2353 3814 2058 
Q 4056 1763 4056 1313 
Q 4056 619 3595 264 
Q 3134 -91 2228 -91 
Q 1319 -91 855 264 
Q 391 619 391 1313 
Q 391 1763 633 2058 
Q 875 2353 1350 2484 
z
M 1631 3419 
Q 1631 3141 1786 2991 
Q 1941 2841 2228 2841 
Q 2509 2841 2662 2991 
Q 2816 3141 2816 3419 
Q 2816 3697 2662 3845 
Q 2509 3994 2228 3994 
Q 1941 3994 1786 3844 
Q 1631 3694 1631 3419 
z
" transform="scale(0.015625)"/>
     <path id="DejaVuSans-Bold-46" d="M 588 4666 
L 3834 4666 
L 3834 3756 
L 1791 3756 
L 1791 2888 
L 3713 2888 
L 3713 1978 
L 1791 1978 
L 1791 0 
L 588 0 
L 588 4666 
z
" transform="scale(0.015625)"/>
     <path id="DejaVuSans-Bold-67" d="M 2919 594 
Q 2688 288 2409 144 
Q 2131 0 1766 0 
Q 1125 0 706 504 
Q 288 1009 288 1791 
Q 288 2575 706 3076 
Q 1125 3578 1766 3578 
Q 2131 3578 2409 3434 
Q 2688 3291 2919 2981 
L 2919 3500 
L 4044 3500 
L 4044 353 
Q 4044 -491 3511 -936 
Q 2978 -1381 1966 -1381 
Q 1638 -1381 1331 -1331 
Q 1025 -1281 716 -1178 
L 716 -306 
Q 1009 -475 1290 -558 
Q 1572 -641 1856 -641 
Q 2406 -641 2662 -400 
Q 2919 -159 2919 353 
L 2919 594 
z
M 2181 2772 
Q 1834 2772 1640 2515 
Q 1447 2259 1447 1791 
Q 1447 1309 1634 1061 
Q 1822 813 2181 813 
Q 2531 813 2725 1069 
Q 2919 1325 2919 1791 
Q 2919 2259 2725 2515 
Q 2531 2772 2181 2772 
z
" transform="scale(0.015625)"/>
     <path id="DejaVuSans-Bold-32" d="M 1844 884 
L 3897 884 
L 3897 0 
L 506 0 
L 506 884 
L 2209 2388 
Q 2438 2594 2547 2791 
Q 2656 2988 2656 3200 
Q 2656 3528 2436 3728 
Q 2216 3928 1850 3928 
Q 1569 3928 1234 3808 
Q 900 3688 519 3450 
L 519 4475 
Q 925 4609 1322 4679 
Q 1719 4750 2100 4750 
Q 2938 4750 3402 4381 
Q 3866 4013 3866 3353 
Q 3866 2972 3669 2642 
Q 3472 2313 2841 1759 
L 1844 884 
z
" transform="scale(0.015625)"/>
     <path id="DejaVuSans-Bold-5f" d="M 3200 -916 
L 3200 -1509 
L 0 -1509 
L 0 -916 
L 3200 -916 
z
" transform="scale(0.015625)"/>
     <path id="DejaVuSans-Bold-33" d="M 2981 2516 
Q 3453 2394 3698 2092 
Q 3944 1791 3944 1325 
Q 3944 631 3412 270 
Q 2881 -91 1863 -91 
Q 1503 -91 1142 -33 
Q 781 25 428 141 
L 428 1069 
Q 766 900 1098 814 
Q 1431 728 1753 728 
Q 2231 728 2486 893 
Q 2741 1059 2741 1369 
Q 2741 1688 2480 1852 
Q 2219 2016 1709 2016 
L 1228 2016 
L 1228 2791 
L 1734 2791 
Q 2188 2791 2409 2933 
Q 2631 3075 2631 3366 
Q 2631 3634 2415 3781 
Q 2200 3928 1806 3928 
Q 1516 3928 1219 3862 
Q 922 3797 628 3669 
L 628 4550 
Q 984 4650 1334 4700 
Q 1684 4750 2022 4750 
Q 2931 4750 3382 4451 
Q 3834 4153 3834 3553 
Q 3834 3144 3618 2883 
Q 3403 2622 2981 2516 
z
" transform="scale(0.015625)"/>
     <path id="DejaVuSans-Bold-61" d="M 2106 1575 
Q 1756 1575 1579 1456 
Q 1403 1338 1403 1106 
Q 1403 894 1545 773 
Q 1688 653 1941 653 
Q 2256 653 2472 879 
Q 2688 1106 2688 1447 
L 2688 1575 
L 2106 1575 
z
M 3816 1997 
L 3816 0 
L 2688 0 
L 2688 519 
Q 2463 200 2181 54 
Q 1900 -91 1497 -91 
Q 953 -91 614 226 
Q 275 544 275 1050 
Q 275 1666 698 1953 
Q 1122 2241 2028 2241 
L 2688 2241 
L 2688 2328 
Q 2688 2594 2478 2717 
Q 2269 2841 1825 2841 
Q 1466 2841 1156 2769 
Q 847 2697 581 2553 
L 581 3406 
Q 941 3494 1303 3539 
Q 1666 3584 2028 3584 
Q 2975 3584 3395 3211 
Q 3816 2838 3816 1997 
z
" transform="scale(0.015625)"/>
     <path id="DejaVuSans-Bold-62" d="M 2400 722 
Q 2759 722 2948 984 
Q 3138 1247 3138 1747 
Q 3138 2247 2948 2509 
Q 2759 2772 2400 2772 
Q 2041 2772 1848 2508 
Q 1656 2244 1656 1747 
Q 1656 1250 1848 986 
Q 2041 722 2400 722 
z
M 1656 2988 
Q 1888 3294 2169 3439 
Q 2450 3584 2816 3584 
Q 3463 3584 3878 3070 
Q 4294 2556 4294 1747 
Q 4294 938 3878 423 
Q 3463 -91 2816 -91 
Q 2450 -91 2169 54 
Q 1888 200 1656 506 
L 1656 0 
L 538 0 
L 538 4863 
L 1656 4863 
L 1656 2988 
z
" transform="scale(0.015625)"/>
     <path id="DejaVuSans-Bold-34" d="M 2356 3675 
L 1038 1722 
L 2356 1722 
L 2356 3675 
z
M 2156 4666 
L 3494 4666 
L 3494 1722 
L 4159 1722 
L 4159 850 
L 3494 850 
L 3494 0 
L 2356 0 
L 2356 850 
L 288 850 
L 288 1881 
L 2156 4666 
z
" transform="scale(0.015625)"/>
    </defs>
    <use xlink:href="#DejaVuSans-Bold-57"/>
    <use xlink:href="#DejaVuSans-Bold-65" x="106.677734"/>
    <use xlink:href="#DejaVuSans-Bold-69" x="174.5"/>
    <use xlink:href="#DejaVuSans-Bold-72" x="208.777344"/>
    <use xlink:href="#DejaVuSans-Bold-31" x="258.09375"/>
    <use xlink:href="#DejaVuSans-Bold-39" x="327.673828"/>
    <use xlink:href="#DejaVuSans-Bold-39" x="397.253906"/>
    <use xlink:href="#DejaVuSans-Bold-38" x="466.833984"/>
    <use xlink:href="#DejaVuSans-Bold-20" x="536.414062"/>
    <use xlink:href="#DejaVuSans-Bold-46" x="571.228516"/>
    <use xlink:href="#DejaVuSans-Bold-69" x="639.539062"/>
    <use xlink:href="#DejaVuSans-Bold-67" x="673.816406"/>
    <use xlink:href="#DejaVuSans-Bold-32" x="745.398438"/>
    <use xlink:href="#DejaVuSans-Bold-5f" x="814.978516"/>
    <use xlink:href="#DejaVuSans-Bold-46" x="864.978516"/>
    <use xlink:href="#DejaVuSans-Bold-69" x="933.289062"/>
    <use xlink:href="#DejaVuSans-Bold-67" x="967.566406"/>
    <use xlink:href="#DejaVuSans-Bold-33" x="1039.148438"/>
    <use xlink:href="#DejaVuSans-Bold-5f" x="1108.728516"/>
    <use xlink:href="#DejaVuSans-Bold-54" x="1158.728516"/>
    <use xlink:href="#DejaVuSans-Bold-61" x="1214.066406"/>
    <use xlink:href="#DejaVuSans-Bold-62" x="1281.546875"/>
    <use xlink:href="#DejaVuSans-Bold-34" x="1353.128906"/>
   </g>
  </g>
 </g>
 <defs>
  <clipPath id="p6a97142109">
   <rect x="84.427625" y="115.2" width="390.6" height="231"/>
  </clipPath>
  <clipPath id="p7fa4c54dd6">
   <rect x="84.427625" y="415.5" width="390.6" height="231"/>
  </clipPath>
  <clipPath id="p69d9456e92">
   <rect x="84.427625" y="715.8" width="390.6" height="231"/>
  </clipPath>
 </defs>
</svg>
