<?xml version="1.0" encoding="utf-8" standalone="no"?>
<!DOCTYPE svg PUBLIC "-//W3C//DTD SVG 1.1//EN"
  "http://www.w3.org/Graphics/SVG/1.1/DTD/svg11.dtd">
<svg xmlns:xlink="http://www.w3.org/1999/xlink" width="482.207938pt" height="683.737812pt" viewBox="0 0 482.207938 683.737812" xmlns="http://www.w3.org/2000/svg" version="1.1">
 <metadata>
  <rdf:RDF xmlns:dc="http://purl.org/dc/elements/1.1/" xmlns:cc="http://creativecommons.org/ns#" xmlns:rdf="http://www.w3.org/1999/02/22-rdf-syntax-ns#">
   <cc:Work>
    <dc:type rdf:resource="http://purl.org/dc/dcmitype/StillImage"/>
    <dc:date>2025-05-15T20:26:53.685926</dc:date>
    <dc:format>image/svg+xml</dc:format>
    <dc:creator>
     <cc:Agent>
      <dc:title>Matplotlib v3.9.1, https://matplotlib.org/</dc:title>
     </cc:Agent>
    </dc:creator>
   </cc:Work>
  </rdf:RDF>
 </metadata>
 <defs>
  <style type="text/css">*{stroke-linejoin: round; stroke-linecap: butt}</style>
 </defs>
 <g id="figure_1">
  <g id="patch_1">
   <path d="M 0 683.737812 
L 482.207938 683.737812 
L 482.207938 0 
L 0 0 
z
" style="fill: #ffffff"/>
  </g>
  <g id="axes_1">
   <g id="patch_2">
    <path d="M 84.407937 320.243478 
L 475.007938 320.243478 
L 475.007938 79.2 
L 84.407937 79.2 
z
" style="fill: #ffffff"/>
   </g>
   <g id="matplotlib.axis_1">
    <g id="xtick_1">
     <g id="line2d_1">
      <defs>
       <path id="mc634970835" d="M 0 0 
L 0 3.5 
" style="stroke: #000000; stroke-width: 0.8"/>
      </defs>
      <g>
       <use xlink:href="#mc634970835" x="102.162483" y="320.243478" style="stroke: #000000; stroke-width: 0.8"/>
      </g>
     </g>
     <g id="text_1">
      <!-- 0 -->
      <g transform="translate(97.390608 338.641135) scale(0.15 -0.15)">
       <defs>
        <path id="DejaVuSans-30" d="M 2034 4250 
Q 1547 4250 1301 3770 
Q 1056 3291 1056 2328 
Q 1056 1369 1301 889 
Q 1547 409 2034 409 
Q 2525 409 2770 889 
Q 3016 1369 3016 2328 
Q 3016 3291 2770 3770 
Q 2525 4250 2034 4250 
z
M 2034 4750 
Q 2819 4750 3233 4129 
Q 3647 3509 3647 2328 
Q 3647 1150 3233 529 
Q 2819 -91 2034 -91 
Q 1250 -91 836 529 
Q 422 1150 422 2328 
Q 422 3509 836 4129 
Q 1250 4750 2034 4750 
z
" transform="scale(0.015625)"/>
       </defs>
       <use xlink:href="#DejaVuSans-30"/>
      </g>
     </g>
    </g>
    <g id="xtick_2">
     <g id="line2d_2">
      <g>
       <use xlink:href="#mc634970835" x="190.93521" y="320.243478" style="stroke: #000000; stroke-width: 0.8"/>
      </g>
     </g>
     <g id="text_2">
      <!-- 10 -->
      <g transform="translate(181.39146 338.641135) scale(0.15 -0.15)">
       <defs>
        <path id="DejaVuSans-31" d="M 794 531 
L 1825 531 
L 1825 4091 
L 703 3866 
L 703 4441 
L 1819 4666 
L 2450 4666 
L 2450 531 
L 3481 531 
L 3481 0 
L 794 0 
L 794 531 
z
" transform="scale(0.015625)"/>
       </defs>
       <use xlink:href="#DejaVuSans-31"/>
       <use xlink:href="#DejaVuSans-30" x="63.623047"/>
      </g>
     </g>
    </g>
    <g id="xtick_3">
     <g id="line2d_3">
      <g>
       <use xlink:href="#mc634970835" x="279.707938" y="320.243478" style="stroke: #000000; stroke-width: 0.8"/>
      </g>
     </g>
     <g id="text_3">
      <!-- 20 -->
      <g transform="translate(270.164188 338.641135) scale(0.15 -0.15)">
       <defs>
        <path id="DejaVuSans-32" d="M 1228 531 
L 3431 531 
L 3431 0 
L 469 0 
L 469 531 
Q 828 903 1448 1529 
Q 2069 2156 2228 2338 
Q 2531 2678 2651 2914 
Q 2772 3150 2772 3378 
Q 2772 3750 2511 3984 
Q 2250 4219 1831 4219 
Q 1534 4219 1204 4116 
Q 875 4013 500 3803 
L 500 4441 
Q 881 4594 1212 4672 
Q 1544 4750 1819 4750 
Q 2544 4750 2975 4387 
Q 3406 4025 3406 3419 
Q 3406 3131 3298 2873 
Q 3191 2616 2906 2266 
Q 2828 2175 2409 1742 
Q 1991 1309 1228 531 
z
" transform="scale(0.015625)"/>
       </defs>
       <use xlink:href="#DejaVuSans-32"/>
       <use xlink:href="#DejaVuSans-30" x="63.623047"/>
      </g>
     </g>
    </g>
    <g id="xtick_4">
     <g id="line2d_4">
      <g>
       <use xlink:href="#mc634970835" x="368.480665" y="320.243478" style="stroke: #000000; stroke-width: 0.8"/>
      </g>
     </g>
     <g id="text_4">
      <!-- 30 -->
      <g transform="translate(358.936915 338.641135) scale(0.15 -0.15)">
       <defs>
        <path id="DejaVuSans-33" d="M 2597 2516 
Q 3050 2419 3304 2112 
Q 3559 1806 3559 1356 
Q 3559 666 3084 287 
Q 2609 -91 1734 -91 
Q 1441 -91 1130 -33 
Q 819 25 488 141 
L 488 750 
Q 750 597 1062 519 
Q 1375 441 1716 441 
Q 2309 441 2620 675 
Q 2931 909 2931 1356 
Q 2931 1769 2642 2001 
Q 2353 2234 1838 2234 
L 1294 2234 
L 1294 2753 
L 1863 2753 
Q 2328 2753 2575 2939 
Q 2822 3125 2822 3475 
Q 2822 3834 2567 4026 
Q 2313 4219 1838 4219 
Q 1578 4219 1281 4162 
Q 984 4106 628 3988 
L 628 4550 
Q 988 4650 1302 4700 
Q 1616 4750 1894 4750 
Q 2613 4750 3031 4423 
Q 3450 4097 3450 3541 
Q 3450 3153 3228 2886 
Q 3006 2619 2597 2516 
z
" transform="scale(0.015625)"/>
       </defs>
       <use xlink:href="#DejaVuSans-33"/>
       <use xlink:href="#DejaVuSans-30" x="63.623047"/>
      </g>
     </g>
    </g>
    <g id="xtick_5">
     <g id="line2d_5">
      <g>
       <use xlink:href="#mc634970835" x="457.253392" y="320.243478" style="stroke: #000000; stroke-width: 0.8"/>
      </g>
     </g>
     <g id="text_5">
      <!-- 40 -->
      <g transform="translate(447.709642 338.641135) scale(0.15 -0.15)">
       <defs>
        <path id="DejaVuSans-34" d="M 2419 4116 
L 825 1625 
L 2419 1625 
L 2419 4116 
z
M 2253 4666 
L 3047 4666 
L 3047 1625 
L 3713 1625 
L 3713 1100 
L 3047 1100 
L 3047 0 
L 2419 0 
L 2419 1100 
L 313 1100 
L 313 1709 
L 2253 4666 
z
" transform="scale(0.015625)"/>
       </defs>
       <use xlink:href="#DejaVuSans-34"/>
       <use xlink:href="#DejaVuSans-30" x="63.623047"/>
      </g>
     </g>
    </g>
    <g id="text_6">
     <!-- time [hr] -->
     <g transform="translate(234.633406 359.437853) scale(0.18 -0.18)">
      <defs>
       <path id="DejaVuSans-Bold-74" d="M 1759 4494 
L 1759 3500 
L 2913 3500 
L 2913 2700 
L 1759 2700 
L 1759 1216 
Q 1759 972 1856 886 
Q 1953 800 2241 800 
L 2816 800 
L 2816 0 
L 1856 0 
Q 1194 0 917 276 
Q 641 553 641 1216 
L 641 2700 
L 84 2700 
L 84 3500 
L 641 3500 
L 641 4494 
L 1759 4494 
z
" transform="scale(0.015625)"/>
       <path id="DejaVuSans-Bold-69" d="M 538 3500 
L 1656 3500 
L 1656 0 
L 538 0 
L 538 3500 
z
M 538 4863 
L 1656 4863 
L 1656 3950 
L 538 3950 
L 538 4863 
z
" transform="scale(0.015625)"/>
       <path id="DejaVuSans-Bold-6d" d="M 3781 2919 
Q 3994 3244 4286 3414 
Q 4578 3584 4928 3584 
Q 5531 3584 5847 3212 
Q 6163 2841 6163 2131 
L 6163 0 
L 5038 0 
L 5038 1825 
Q 5041 1866 5042 1909 
Q 5044 1953 5044 2034 
Q 5044 2406 4934 2573 
Q 4825 2741 4581 2741 
Q 4263 2741 4089 2478 
Q 3916 2216 3909 1719 
L 3909 0 
L 2784 0 
L 2784 1825 
Q 2784 2406 2684 2573 
Q 2584 2741 2328 2741 
Q 2006 2741 1831 2477 
Q 1656 2213 1656 1722 
L 1656 0 
L 531 0 
L 531 3500 
L 1656 3500 
L 1656 2988 
Q 1863 3284 2130 3434 
Q 2397 3584 2719 3584 
Q 3081 3584 3359 3409 
Q 3638 3234 3781 2919 
z
" transform="scale(0.015625)"/>
       <path id="DejaVuSans-Bold-65" d="M 4031 1759 
L 4031 1441 
L 1416 1441 
Q 1456 1047 1700 850 
Q 1944 653 2381 653 
Q 2734 653 3104 758 
Q 3475 863 3866 1075 
L 3866 213 
Q 3469 63 3072 -14 
Q 2675 -91 2278 -91 
Q 1328 -91 801 392 
Q 275 875 275 1747 
Q 275 2603 792 3093 
Q 1309 3584 2216 3584 
Q 3041 3584 3536 3087 
Q 4031 2591 4031 1759 
z
M 2881 2131 
Q 2881 2450 2695 2645 
Q 2509 2841 2209 2841 
Q 1884 2841 1681 2658 
Q 1478 2475 1428 2131 
L 2881 2131 
z
" transform="scale(0.015625)"/>
       <path id="DejaVuSans-Bold-20" transform="scale(0.015625)"/>
       <path id="DejaVuSans-Bold-5b" d="M 550 4863 
L 2491 4863 
L 2491 4159 
L 1613 4159 
L 1613 -141 
L 2491 -141 
L 2491 -844 
L 550 -844 
L 550 4863 
z
" transform="scale(0.015625)"/>
       <path id="DejaVuSans-Bold-68" d="M 4056 2131 
L 4056 0 
L 2931 0 
L 2931 347 
L 2931 1625 
Q 2931 2084 2911 2256 
Q 2891 2428 2841 2509 
Q 2775 2619 2662 2680 
Q 2550 2741 2406 2741 
Q 2056 2741 1856 2470 
Q 1656 2200 1656 1722 
L 1656 0 
L 538 0 
L 538 4863 
L 1656 4863 
L 1656 2988 
Q 1909 3294 2193 3439 
Q 2478 3584 2822 3584 
Q 3428 3584 3742 3212 
Q 4056 2841 4056 2131 
z
" transform="scale(0.015625)"/>
       <path id="DejaVuSans-Bold-72" d="M 3138 2547 
Q 2991 2616 2845 2648 
Q 2700 2681 2553 2681 
Q 2122 2681 1889 2404 
Q 1656 2128 1656 1613 
L 1656 0 
L 538 0 
L 538 3500 
L 1656 3500 
L 1656 2925 
Q 1872 3269 2151 3426 
Q 2431 3584 2822 3584 
Q 2878 3584 2943 3579 
Q 3009 3575 3134 3559 
L 3138 2547 
z
" transform="scale(0.015625)"/>
       <path id="DejaVuSans-Bold-5d" d="M 2375 -844 
L 434 -844 
L 434 -141 
L 1313 -141 
L 1313 4159 
L 434 4159 
L 434 4863 
L 2375 4863 
L 2375 -844 
z
" transform="scale(0.015625)"/>
      </defs>
      <use xlink:href="#DejaVuSans-Bold-74"/>
      <use xlink:href="#DejaVuSans-Bold-69" x="47.802734"/>
      <use xlink:href="#DejaVuSans-Bold-6d" x="82.080078"/>
      <use xlink:href="#DejaVuSans-Bold-65" x="186.279297"/>
      <use xlink:href="#DejaVuSans-Bold-20" x="254.101562"/>
      <use xlink:href="#DejaVuSans-Bold-5b" x="288.916016"/>
      <use xlink:href="#DejaVuSans-Bold-68" x="334.619141"/>
      <use xlink:href="#DejaVuSans-Bold-72" x="405.810547"/>
      <use xlink:href="#DejaVuSans-Bold-5d" x="455.126953"/>
     </g>
    </g>
   </g>
   <g id="matplotlib.axis_2">
    <g id="ytick_1">
     <g id="line2d_6">
      <defs>
       <path id="m26d1303ea4" d="M 0 0 
L -3.5 0 
" style="stroke: #000000; stroke-width: 0.8"/>
      </defs>
      <g>
       <use xlink:href="#m26d1303ea4" x="84.407937" y="309.286957" style="stroke: #000000; stroke-width: 0.8"/>
      </g>
     </g>
     <g id="text_7">
      <!-- 0.0 -->
      <g transform="translate(53.55325 314.985785) scale(0.15 -0.15)">
       <defs>
        <path id="DejaVuSans-2e" d="M 684 794 
L 1344 794 
L 1344 0 
L 684 0 
L 684 794 
z
" transform="scale(0.015625)"/>
       </defs>
       <use xlink:href="#DejaVuSans-30"/>
       <use xlink:href="#DejaVuSans-2e" x="63.623047"/>
       <use xlink:href="#DejaVuSans-30" x="95.410156"/>
      </g>
     </g>
    </g>
    <g id="ytick_2">
     <g id="line2d_7">
      <g>
       <use xlink:href="#m26d1303ea4" x="84.407937" y="255.329324" style="stroke: #000000; stroke-width: 0.8"/>
      </g>
     </g>
     <g id="text_8">
      <!-- 0.2 -->
      <g transform="translate(53.55325 261.028152) scale(0.15 -0.15)">
       <use xlink:href="#DejaVuSans-30"/>
       <use xlink:href="#DejaVuSans-2e" x="63.623047"/>
       <use xlink:href="#DejaVuSans-32" x="95.410156"/>
      </g>
     </g>
    </g>
    <g id="ytick_3">
     <g id="line2d_8">
      <g>
       <use xlink:href="#m26d1303ea4" x="84.407937" y="201.371692" style="stroke: #000000; stroke-width: 0.8"/>
      </g>
     </g>
     <g id="text_9">
      <!-- 0.4 -->
      <g transform="translate(53.55325 207.07052) scale(0.15 -0.15)">
       <use xlink:href="#DejaVuSans-30"/>
       <use xlink:href="#DejaVuSans-2e" x="63.623047"/>
       <use xlink:href="#DejaVuSans-34" x="95.410156"/>
      </g>
     </g>
    </g>
    <g id="ytick_4">
     <g id="line2d_9">
      <g>
       <use xlink:href="#m26d1303ea4" x="84.407937" y="147.41406" style="stroke: #000000; stroke-width: 0.8"/>
      </g>
     </g>
     <g id="text_10">
      <!-- 0.6 -->
      <g transform="translate(53.55325 153.112888) scale(0.15 -0.15)">
       <defs>
        <path id="DejaVuSans-36" d="M 2113 2584 
Q 1688 2584 1439 2293 
Q 1191 2003 1191 1497 
Q 1191 994 1439 701 
Q 1688 409 2113 409 
Q 2538 409 2786 701 
Q 3034 994 3034 1497 
Q 3034 2003 2786 2293 
Q 2538 2584 2113 2584 
z
M 3366 4563 
L 3366 3988 
Q 3128 4100 2886 4159 
Q 2644 4219 2406 4219 
Q 1781 4219 1451 3797 
Q 1122 3375 1075 2522 
Q 1259 2794 1537 2939 
Q 1816 3084 2150 3084 
Q 2853 3084 3261 2657 
Q 3669 2231 3669 1497 
Q 3669 778 3244 343 
Q 2819 -91 2113 -91 
Q 1303 -91 875 529 
Q 447 1150 447 2328 
Q 447 3434 972 4092 
Q 1497 4750 2381 4750 
Q 2619 4750 2861 4703 
Q 3103 4656 3366 4563 
z
" transform="scale(0.015625)"/>
       </defs>
       <use xlink:href="#DejaVuSans-30"/>
       <use xlink:href="#DejaVuSans-2e" x="63.623047"/>
       <use xlink:href="#DejaVuSans-36" x="95.410156"/>
      </g>
     </g>
    </g>
    <g id="ytick_5">
     <g id="line2d_10">
      <g>
       <use xlink:href="#m26d1303ea4" x="84.407937" y="93.456427" style="stroke: #000000; stroke-width: 0.8"/>
      </g>
     </g>
     <g id="text_11">
      <!-- 0.8 -->
      <g transform="translate(53.55325 99.155256) scale(0.15 -0.15)">
       <defs>
        <path id="DejaVuSans-38" d="M 2034 2216 
Q 1584 2216 1326 1975 
Q 1069 1734 1069 1313 
Q 1069 891 1326 650 
Q 1584 409 2034 409 
Q 2484 409 2743 651 
Q 3003 894 3003 1313 
Q 3003 1734 2745 1975 
Q 2488 2216 2034 2216 
z
M 1403 2484 
Q 997 2584 770 2862 
Q 544 3141 544 3541 
Q 544 4100 942 4425 
Q 1341 4750 2034 4750 
Q 2731 4750 3128 4425 
Q 3525 4100 3525 3541 
Q 3525 3141 3298 2862 
Q 3072 2584 2669 2484 
Q 3125 2378 3379 2068 
Q 3634 1759 3634 1313 
Q 3634 634 3220 271 
Q 2806 -91 2034 -91 
Q 1263 -91 848 271 
Q 434 634 434 1313 
Q 434 1759 690 2068 
Q 947 2378 1403 2484 
z
M 1172 3481 
Q 1172 3119 1398 2916 
Q 1625 2713 2034 2713 
Q 2441 2713 2670 2916 
Q 2900 3119 2900 3481 
Q 2900 3844 2670 4047 
Q 2441 4250 2034 4250 
Q 1625 4250 1398 4047 
Q 1172 3844 1172 3481 
z
" transform="scale(0.015625)"/>
       </defs>
       <use xlink:href="#DejaVuSans-30"/>
       <use xlink:href="#DejaVuSans-2e" x="63.623047"/>
       <use xlink:href="#DejaVuSans-38" x="95.410156"/>
      </g>
     </g>
    </g>
    <g id="text_12">
     <!-- HCTZ [µM] -->
     <g transform="translate(45.790125 253.462989) rotate(-90) scale(0.18 -0.18)">
      <defs>
       <path id="DejaVuSans-Bold-48" d="M 588 4666 
L 1791 4666 
L 1791 2888 
L 3566 2888 
L 3566 4666 
L 4769 4666 
L 4769 0 
L 3566 0 
L 3566 1978 
L 1791 1978 
L 1791 0 
L 588 0 
L 588 4666 
z
" transform="scale(0.015625)"/>
       <path id="DejaVuSans-Bold-43" d="M 4288 256 
Q 3956 84 3597 -3 
Q 3238 -91 2847 -91 
Q 1681 -91 1000 561 
Q 319 1213 319 2328 
Q 319 3447 1000 4098 
Q 1681 4750 2847 4750 
Q 3238 4750 3597 4662 
Q 3956 4575 4288 4403 
L 4288 3438 
Q 3953 3666 3628 3772 
Q 3303 3878 2944 3878 
Q 2300 3878 1931 3465 
Q 1563 3053 1563 2328 
Q 1563 1606 1931 1193 
Q 2300 781 2944 781 
Q 3303 781 3628 887 
Q 3953 994 4288 1222 
L 4288 256 
z
" transform="scale(0.015625)"/>
       <path id="DejaVuSans-Bold-54" d="M 31 4666 
L 4331 4666 
L 4331 3756 
L 2784 3756 
L 2784 0 
L 1581 0 
L 1581 3756 
L 31 3756 
L 31 4666 
z
" transform="scale(0.015625)"/>
       <path id="DejaVuSans-Bold-5a" d="M 359 4666 
L 4281 4666 
L 4281 3938 
L 1778 909 
L 4353 909 
L 4353 0 
L 288 0 
L 288 728 
L 2791 3756 
L 359 3756 
L 359 4666 
z
" transform="scale(0.015625)"/>
       <path id="DejaVuSans-Bold-b5" d="M 544 -1338 
L 544 3500 
L 1672 3500 
L 1672 1466 
Q 1672 1103 1828 926 
Q 1984 750 2303 750 
Q 2625 750 2781 926 
Q 2938 1103 2938 1466 
L 2938 3500 
L 4063 3500 
L 4063 1159 
Q 4063 938 4114 850 
Q 4166 763 4288 763 
Q 4344 763 4395 778 
Q 4447 794 4506 831 
L 4506 50 
Q 4341 -22 4195 -56 
Q 4050 -91 3909 -91 
Q 3631 -91 3454 26 
Q 3278 144 3169 403 
Q 3022 156 2811 32 
Q 2600 -91 2322 -91 
Q 2091 -91 1928 -17 
Q 1766 56 1672 206 
L 1672 -1338 
L 544 -1338 
z
" transform="scale(0.015625)"/>
       <path id="DejaVuSans-Bold-4d" d="M 588 4666 
L 2119 4666 
L 3181 2169 
L 4250 4666 
L 5778 4666 
L 5778 0 
L 4641 0 
L 4641 3413 
L 3566 897 
L 2803 897 
L 1728 3413 
L 1728 0 
L 588 0 
L 588 4666 
z
" transform="scale(0.015625)"/>
      </defs>
      <use xlink:href="#DejaVuSans-Bold-48"/>
      <use xlink:href="#DejaVuSans-Bold-43" x="83.691406"/>
      <use xlink:href="#DejaVuSans-Bold-54" x="157.080078"/>
      <use xlink:href="#DejaVuSans-Bold-5a" x="225.292969"/>
      <use xlink:href="#DejaVuSans-Bold-20" x="297.802734"/>
      <use xlink:href="#DejaVuSans-Bold-5b" x="332.617188"/>
      <use xlink:href="#DejaVuSans-Bold-b5" x="378.320312"/>
      <use xlink:href="#DejaVuSans-Bold-4d" x="451.904297"/>
      <use xlink:href="#DejaVuSans-Bold-5d" x="551.416016"/>
     </g>
    </g>
   </g>
   <g id="line2d_11">
    <path d="M 102.162483 309.286957 
L 102.872665 306.480591 
L 103.582847 299.787558 
L 105.00321 281.57655 
L 107.133756 253.898796 
L 108.554119 238.594506 
L 109.974483 226.341597 
L 111.394847 216.921578 
L 112.81521 209.936211 
L 113.525392 207.222277 
L 114.235574 204.958963 
L 114.945756 203.098675 
L 115.655937 201.59742 
L 116.366119 200.414942 
L 117.076301 199.514687 
L 117.786483 198.863662 
L 118.496665 198.432228 
L 119.206847 198.193857 
L 119.917028 198.124884 
L 120.62721 198.204242 
L 122.047574 198.735233 
L 123.467938 199.661271 
L 124.888301 200.88409 
L 127.018847 203.111935 
L 129.859574 206.538866 
L 134.830847 213.060042 
L 141.932665 222.364758 
L 146.903937 228.497832 
L 151.165028 233.435149 
L 155.426119 238.070759 
L 159.68721 242.412924 
L 163.948301 246.475617 
L 168.919574 250.883597 
L 173.890847 254.958897 
L 178.862119 258.726534 
L 183.833392 262.210048 
L 188.804665 265.431338 
L 193.775937 268.410679 
L 199.457392 271.543325 
L 205.138847 274.410001 
L 210.820301 277.034081 
L 217.211938 279.722638 
L 223.603574 282.158546 
L 229.99521 284.366561 
L 237.097028 286.579672 
L 244.198847 288.566309 
L 252.010847 290.519071 
L 260.533028 292.404129 
L 269.05521 294.064988 
L 278.287574 295.644157 
L 288.230119 297.123635 
L 298.882847 298.49121 
L 310.955938 299.811732 
L 324.449392 301.048589 
L 339.36321 302.177316 
L 355.697392 303.184949 
L 374.162119 304.099848 
L 395.467574 304.93132 
L 421.034119 305.697397 
L 451.571938 306.380933 
L 457.253392 306.487186 
L 457.253392 306.487186 
" clip-path="url(#peb3c8d6a7f)" style="fill: none; stroke: #000000; stroke-width: 2; stroke-linecap: square"/>
   </g>
   <g id="line2d_12">
    <path d="M 102.162483 309.286957 
L 106.601119 303.886556 
L 111.039756 300.353335 
L 115.478392 282.169858 
L 119.917028 241.416625 
L 128.794301 217.152375 
L 137.671574 245.167071 
L 146.548847 280.342396 
L 155.426119 300.445376 
L 164.303392 303.046346 
" clip-path="url(#peb3c8d6a7f)" style="fill: none; stroke-dasharray: 3.7,1.6; stroke-dashoffset: 0; stroke: #1f77b4"/>
    <defs>
     <path id="m173eeff7cd" d="M -3 3 
L 3 3 
L 3 -3 
L -3 -3 
z
" style="stroke: #000000; stroke-linejoin: miter"/>
    </defs>
    <g clip-path="url(#peb3c8d6a7f)">
     <use xlink:href="#m173eeff7cd" x="102.162483" y="309.286957" style="fill: #1f77b4; stroke: #000000; stroke-linejoin: miter"/>
     <use xlink:href="#m173eeff7cd" x="106.601119" y="303.886556" style="fill: #1f77b4; stroke: #000000; stroke-linejoin: miter"/>
     <use xlink:href="#m173eeff7cd" x="111.039756" y="300.353335" style="fill: #1f77b4; stroke: #000000; stroke-linejoin: miter"/>
     <use xlink:href="#m173eeff7cd" x="115.478392" y="282.169858" style="fill: #1f77b4; stroke: #000000; stroke-linejoin: miter"/>
     <use xlink:href="#m173eeff7cd" x="119.917028" y="241.416625" style="fill: #1f77b4; stroke: #000000; stroke-linejoin: miter"/>
     <use xlink:href="#m173eeff7cd" x="128.794301" y="217.152375" style="fill: #1f77b4; stroke: #000000; stroke-linejoin: miter"/>
     <use xlink:href="#m173eeff7cd" x="137.671574" y="245.167071" style="fill: #1f77b4; stroke: #000000; stroke-linejoin: miter"/>
     <use xlink:href="#m173eeff7cd" x="146.548847" y="280.342396" style="fill: #1f77b4; stroke: #000000; stroke-linejoin: miter"/>
     <use xlink:href="#m173eeff7cd" x="155.426119" y="300.445376" style="fill: #1f77b4; stroke: #000000; stroke-linejoin: miter"/>
     <use xlink:href="#m173eeff7cd" x="164.303392" y="303.046346" style="fill: #1f77b4; stroke: #000000; stroke-linejoin: miter"/>
    </g>
   </g>
   <g id="line2d_13">
    <path d="M 102.162483 309.286957 
L 106.601119 295.316391 
L 111.039756 232.073111 
L 115.478392 141.730431 
L 119.917028 90.156522 
L 128.794301 129.715818 
L 137.671574 151.581922 
L 146.548847 183.365077 
L 155.426119 197.736945 
L 164.303392 207.428771 
L 173.180665 238.47588 
L 182.057938 260.483896 
L 208.689756 266.053946 
L 315.217028 290.372541 
L 386.23521 293.101545 
" clip-path="url(#peb3c8d6a7f)" style="fill: none; stroke-dasharray: 3.7,1.6; stroke-dashoffset: 0; stroke: #ff7f0e"/>
    <defs>
     <path id="m2b58ed48cd" d="M -3 3 
L 3 3 
L 3 -3 
L -3 -3 
z
" style="stroke: #000000; stroke-linejoin: miter"/>
    </defs>
    <g clip-path="url(#peb3c8d6a7f)">
     <use xlink:href="#m2b58ed48cd" x="102.162483" y="309.286957" style="fill: #ff7f0e; stroke: #000000; stroke-linejoin: miter"/>
     <use xlink:href="#m2b58ed48cd" x="106.601119" y="295.316391" style="fill: #ff7f0e; stroke: #000000; stroke-linejoin: miter"/>
     <use xlink:href="#m2b58ed48cd" x="111.039756" y="232.073111" style="fill: #ff7f0e; stroke: #000000; stroke-linejoin: miter"/>
     <use xlink:href="#m2b58ed48cd" x="115.478392" y="141.730431" style="fill: #ff7f0e; stroke: #000000; stroke-linejoin: miter"/>
     <use xlink:href="#m2b58ed48cd" x="119.917028" y="90.156522" style="fill: #ff7f0e; stroke: #000000; stroke-linejoin: miter"/>
     <use xlink:href="#m2b58ed48cd" x="128.794301" y="129.715818" style="fill: #ff7f0e; stroke: #000000; stroke-linejoin: miter"/>
     <use xlink:href="#m2b58ed48cd" x="137.671574" y="151.581922" style="fill: #ff7f0e; stroke: #000000; stroke-linejoin: miter"/>
     <use xlink:href="#m2b58ed48cd" x="146.548847" y="183.365077" style="fill: #ff7f0e; stroke: #000000; stroke-linejoin: miter"/>
     <use xlink:href="#m2b58ed48cd" x="155.426119" y="197.736945" style="fill: #ff7f0e; stroke: #000000; stroke-linejoin: miter"/>
     <use xlink:href="#m2b58ed48cd" x="164.303392" y="207.428771" style="fill: #ff7f0e; stroke: #000000; stroke-linejoin: miter"/>
     <use xlink:href="#m2b58ed48cd" x="173.180665" y="238.47588" style="fill: #ff7f0e; stroke: #000000; stroke-linejoin: miter"/>
     <use xlink:href="#m2b58ed48cd" x="182.057938" y="260.483896" style="fill: #ff7f0e; stroke: #000000; stroke-linejoin: miter"/>
     <use xlink:href="#m2b58ed48cd" x="208.689756" y="266.053946" style="fill: #ff7f0e; stroke: #000000; stroke-linejoin: miter"/>
     <use xlink:href="#m2b58ed48cd" x="315.217028" y="290.372541" style="fill: #ff7f0e; stroke: #000000; stroke-linejoin: miter"/>
     <use xlink:href="#m2b58ed48cd" x="386.23521" y="293.101545" style="fill: #ff7f0e; stroke: #000000; stroke-linejoin: miter"/>
    </g>
   </g>
   <g id="patch_3">
    <path d="M 84.407937 320.243478 
L 84.407937 79.2 
" style="fill: none; stroke: #000000; stroke-width: 0.8; stroke-linejoin: miter; stroke-linecap: square"/>
   </g>
   <g id="patch_4">
    <path d="M 475.007938 320.243478 
L 475.007938 79.2 
" style="fill: none; stroke: #000000; stroke-width: 0.8; stroke-linejoin: miter; stroke-linecap: square"/>
   </g>
   <g id="patch_5">
    <path d="M 84.407938 320.243478 
L 475.007938 320.243478 
" style="fill: none; stroke: #000000; stroke-width: 0.8; stroke-linejoin: miter; stroke-linecap: square"/>
   </g>
   <g id="patch_6">
    <path d="M 84.407938 79.2 
L 475.007938 79.2 
" style="fill: none; stroke: #000000; stroke-width: 0.8; stroke-linejoin: miter; stroke-linecap: square"/>
   </g>
   <g id="legend_1">
    <g id="patch_7">
     <path d="M 384.175125 131.234375 
L 468.007938 131.234375 
Q 470.007938 131.234375 470.007938 129.234375 
L 470.007938 86.2 
Q 470.007938 84.2 468.007938 84.2 
L 384.175125 84.2 
Q 382.175125 84.2 382.175125 86.2 
L 382.175125 129.234375 
Q 382.175125 131.234375 384.175125 131.234375 
z
" style="fill: #ffffff; opacity: 0.8; stroke: #cccccc; stroke-linejoin: miter"/>
    </g>
    <g id="line2d_14">
     <path d="M 386.175125 92.298437 
L 406.175125 92.298437 
" style="fill: none; stroke: #000000; stroke-width: 2; stroke-linecap: square"/>
    </g>
    <g id="line2d_15"/>
    <g id="text_13">
     <!-- Sim -->
     <g transform="translate(414.175125 95.798437) scale(0.1 -0.1)">
      <defs>
       <path id="DejaVuSans-53" d="M 3425 4513 
L 3425 3897 
Q 3066 4069 2747 4153 
Q 2428 4238 2131 4238 
Q 1616 4238 1336 4038 
Q 1056 3838 1056 3469 
Q 1056 3159 1242 3001 
Q 1428 2844 1947 2747 
L 2328 2669 
Q 3034 2534 3370 2195 
Q 3706 1856 3706 1288 
Q 3706 609 3251 259 
Q 2797 -91 1919 -91 
Q 1588 -91 1214 -16 
Q 841 59 441 206 
L 441 856 
Q 825 641 1194 531 
Q 1563 422 1919 422 
Q 2459 422 2753 634 
Q 3047 847 3047 1241 
Q 3047 1584 2836 1778 
Q 2625 1972 2144 2069 
L 1759 2144 
Q 1053 2284 737 2584 
Q 422 2884 422 3419 
Q 422 4038 858 4394 
Q 1294 4750 2059 4750 
Q 2388 4750 2728 4690 
Q 3069 4631 3425 4513 
z
" transform="scale(0.015625)"/>
       <path id="DejaVuSans-69" d="M 603 3500 
L 1178 3500 
L 1178 0 
L 603 0 
L 603 3500 
z
M 603 4863 
L 1178 4863 
L 1178 4134 
L 603 4134 
L 603 4863 
z
" transform="scale(0.015625)"/>
       <path id="DejaVuSans-6d" d="M 3328 2828 
Q 3544 3216 3844 3400 
Q 4144 3584 4550 3584 
Q 5097 3584 5394 3201 
Q 5691 2819 5691 2113 
L 5691 0 
L 5113 0 
L 5113 2094 
Q 5113 2597 4934 2840 
Q 4756 3084 4391 3084 
Q 3944 3084 3684 2787 
Q 3425 2491 3425 1978 
L 3425 0 
L 2847 0 
L 2847 2094 
Q 2847 2600 2669 2842 
Q 2491 3084 2119 3084 
Q 1678 3084 1418 2786 
Q 1159 2488 1159 1978 
L 1159 0 
L 581 0 
L 581 3500 
L 1159 3500 
L 1159 2956 
Q 1356 3278 1631 3431 
Q 1906 3584 2284 3584 
Q 2666 3584 2933 3390 
Q 3200 3197 3328 2828 
z
" transform="scale(0.015625)"/>
      </defs>
      <use xlink:href="#DejaVuSans-53"/>
      <use xlink:href="#DejaVuSans-69" x="63.476562"/>
      <use xlink:href="#DejaVuSans-6d" x="91.259766"/>
     </g>
    </g>
    <g id="line2d_16">
     <path d="M 386.175125 106.976562 
L 406.175125 106.976562 
" style="fill: none; stroke-dasharray: 3.7,1.6; stroke-dashoffset: 0; stroke: #1f77b4"/>
    </g>
    <g id="line2d_17">
     <g>
      <use xlink:href="#m173eeff7cd" x="396.175125" y="106.976562" style="fill: #1f77b4; stroke: #000000; stroke-linejoin: miter"/>
     </g>
    </g>
    <g id="text_14">
     <!-- HD (n=1) -->
     <g transform="translate(414.175125 110.476562) scale(0.1 -0.1)">
      <defs>
       <path id="DejaVuSans-48" d="M 628 4666 
L 1259 4666 
L 1259 2753 
L 3553 2753 
L 3553 4666 
L 4184 4666 
L 4184 0 
L 3553 0 
L 3553 2222 
L 1259 2222 
L 1259 0 
L 628 0 
L 628 4666 
z
" transform="scale(0.015625)"/>
       <path id="DejaVuSans-44" d="M 1259 4147 
L 1259 519 
L 2022 519 
Q 2988 519 3436 956 
Q 3884 1394 3884 2338 
Q 3884 3275 3436 3711 
Q 2988 4147 2022 4147 
L 1259 4147 
z
M 628 4666 
L 1925 4666 
Q 3281 4666 3915 4102 
Q 4550 3538 4550 2338 
Q 4550 1131 3912 565 
Q 3275 0 1925 0 
L 628 0 
L 628 4666 
z
" transform="scale(0.015625)"/>
       <path id="DejaVuSans-20" transform="scale(0.015625)"/>
       <path id="DejaVuSans-28" d="M 1984 4856 
Q 1566 4138 1362 3434 
Q 1159 2731 1159 2009 
Q 1159 1288 1364 580 
Q 1569 -128 1984 -844 
L 1484 -844 
Q 1016 -109 783 600 
Q 550 1309 550 2009 
Q 550 2706 781 3412 
Q 1013 4119 1484 4856 
L 1984 4856 
z
" transform="scale(0.015625)"/>
       <path id="DejaVuSans-6e" d="M 3513 2113 
L 3513 0 
L 2938 0 
L 2938 2094 
Q 2938 2591 2744 2837 
Q 2550 3084 2163 3084 
Q 1697 3084 1428 2787 
Q 1159 2491 1159 1978 
L 1159 0 
L 581 0 
L 581 3500 
L 1159 3500 
L 1159 2956 
Q 1366 3272 1645 3428 
Q 1925 3584 2291 3584 
Q 2894 3584 3203 3211 
Q 3513 2838 3513 2113 
z
" transform="scale(0.015625)"/>
       <path id="DejaVuSans-3d" d="M 678 2906 
L 4684 2906 
L 4684 2381 
L 678 2381 
L 678 2906 
z
M 678 1631 
L 4684 1631 
L 4684 1100 
L 678 1100 
L 678 1631 
z
" transform="scale(0.015625)"/>
       <path id="DejaVuSans-29" d="M 513 4856 
L 1013 4856 
Q 1481 4119 1714 3412 
Q 1947 2706 1947 2009 
Q 1947 1309 1714 600 
Q 1481 -109 1013 -844 
L 513 -844 
Q 928 -128 1133 580 
Q 1338 1288 1338 2009 
Q 1338 2731 1133 3434 
Q 928 4138 513 4856 
z
" transform="scale(0.015625)"/>
      </defs>
      <use xlink:href="#DejaVuSans-48"/>
      <use xlink:href="#DejaVuSans-44" x="75.195312"/>
      <use xlink:href="#DejaVuSans-20" x="152.197266"/>
      <use xlink:href="#DejaVuSans-28" x="183.984375"/>
      <use xlink:href="#DejaVuSans-6e" x="222.998047"/>
      <use xlink:href="#DejaVuSans-3d" x="286.376953"/>
      <use xlink:href="#DejaVuSans-31" x="370.166016"/>
      <use xlink:href="#DejaVuSans-29" x="433.789062"/>
     </g>
    </g>
    <g id="line2d_18">
     <path d="M 386.175125 121.654687 
L 406.175125 121.654687 
" style="fill: none; stroke-dasharray: 3.7,1.6; stroke-dashoffset: 0; stroke: #ff7f0e"/>
    </g>
    <g id="line2d_19">
     <g>
      <use xlink:href="#m2b58ed48cd" x="396.175125" y="121.654687" style="fill: #ff7f0e; stroke: #000000; stroke-linejoin: miter"/>
     </g>
    </g>
    <g id="text_15">
     <!-- MLL (n=1) -->
     <g transform="translate(414.175125 125.154687) scale(0.1 -0.1)">
      <defs>
       <path id="DejaVuSans-4d" d="M 628 4666 
L 1569 4666 
L 2759 1491 
L 3956 4666 
L 4897 4666 
L 4897 0 
L 4281 0 
L 4281 4097 
L 3078 897 
L 2444 897 
L 1241 4097 
L 1241 0 
L 628 0 
L 628 4666 
z
" transform="scale(0.015625)"/>
       <path id="DejaVuSans-4c" d="M 628 4666 
L 1259 4666 
L 1259 531 
L 3531 531 
L 3531 0 
L 628 0 
L 628 4666 
z
" transform="scale(0.015625)"/>
      </defs>
      <use xlink:href="#DejaVuSans-4d"/>
      <use xlink:href="#DejaVuSans-4c" x="86.279297"/>
      <use xlink:href="#DejaVuSans-4c" x="141.992188"/>
      <use xlink:href="#DejaVuSans-20" x="197.705078"/>
      <use xlink:href="#DejaVuSans-28" x="229.492188"/>
      <use xlink:href="#DejaVuSans-6e" x="268.505859"/>
      <use xlink:href="#DejaVuSans-3d" x="331.884766"/>
      <use xlink:href="#DejaVuSans-31" x="415.673828"/>
      <use xlink:href="#DejaVuSans-29" x="479.296875"/>
     </g>
    </g>
   </g>
  </g>
  <g id="axes_2">
   <g id="patch_8">
    <path d="M 84.407937 633.6 
L 475.007938 633.6 
L 475.007938 392.556522 
L 84.407937 392.556522 
z
" style="fill: #ffffff"/>
   </g>
   <g id="matplotlib.axis_3">
    <g id="xtick_6">
     <g id="line2d_20">
      <g>
       <use xlink:href="#mc634970835" x="102.162483" y="633.6" style="stroke: #000000; stroke-width: 0.8"/>
      </g>
     </g>
     <g id="text_16">
      <!-- 0 -->
      <g transform="translate(97.390608 651.997656) scale(0.15 -0.15)">
       <use xlink:href="#DejaVuSans-30"/>
      </g>
     </g>
    </g>
    <g id="xtick_7">
     <g id="line2d_21">
      <g>
       <use xlink:href="#mc634970835" x="190.93521" y="633.6" style="stroke: #000000; stroke-width: 0.8"/>
      </g>
     </g>
     <g id="text_17">
      <!-- 10 -->
      <g transform="translate(181.39146 651.997656) scale(0.15 -0.15)">
       <use xlink:href="#DejaVuSans-31"/>
       <use xlink:href="#DejaVuSans-30" x="63.623047"/>
      </g>
     </g>
    </g>
    <g id="xtick_8">
     <g id="line2d_22">
      <g>
       <use xlink:href="#mc634970835" x="279.707938" y="633.6" style="stroke: #000000; stroke-width: 0.8"/>
      </g>
     </g>
     <g id="text_18">
      <!-- 20 -->
      <g transform="translate(270.164188 651.997656) scale(0.15 -0.15)">
       <use xlink:href="#DejaVuSans-32"/>
       <use xlink:href="#DejaVuSans-30" x="63.623047"/>
      </g>
     </g>
    </g>
    <g id="xtick_9">
     <g id="line2d_23">
      <g>
       <use xlink:href="#mc634970835" x="368.480665" y="633.6" style="stroke: #000000; stroke-width: 0.8"/>
      </g>
     </g>
     <g id="text_19">
      <!-- 30 -->
      <g transform="translate(358.936915 651.997656) scale(0.15 -0.15)">
       <use xlink:href="#DejaVuSans-33"/>
       <use xlink:href="#DejaVuSans-30" x="63.623047"/>
      </g>
     </g>
    </g>
    <g id="xtick_10">
     <g id="line2d_24">
      <g>
       <use xlink:href="#mc634970835" x="457.253392" y="633.6" style="stroke: #000000; stroke-width: 0.8"/>
      </g>
     </g>
     <g id="text_20">
      <!-- 40 -->
      <g transform="translate(447.709642 651.997656) scale(0.15 -0.15)">
       <use xlink:href="#DejaVuSans-34"/>
       <use xlink:href="#DejaVuSans-30" x="63.623047"/>
      </g>
     </g>
    </g>
    <g id="text_21">
     <!-- time [hr] -->
     <g transform="translate(234.633406 672.794375) scale(0.18 -0.18)">
      <use xlink:href="#DejaVuSans-Bold-74"/>
      <use xlink:href="#DejaVuSans-Bold-69" x="47.802734"/>
      <use xlink:href="#DejaVuSans-Bold-6d" x="82.080078"/>
      <use xlink:href="#DejaVuSans-Bold-65" x="186.279297"/>
      <use xlink:href="#DejaVuSans-Bold-20" x="254.101562"/>
      <use xlink:href="#DejaVuSans-Bold-5b" x="288.916016"/>
      <use xlink:href="#DejaVuSans-Bold-68" x="334.619141"/>
      <use xlink:href="#DejaVuSans-Bold-72" x="405.810547"/>
      <use xlink:href="#DejaVuSans-Bold-5d" x="455.126953"/>
     </g>
    </g>
   </g>
   <g id="matplotlib.axis_4">
    <g id="ytick_6">
     <g id="line2d_25">
      <g>
       <use xlink:href="#m26d1303ea4" x="84.407937" y="622.643478" style="stroke: #000000; stroke-width: 0.8"/>
      </g>
     </g>
     <g id="text_22">
      <!-- 0 -->
      <g transform="translate(67.864187 628.342306) scale(0.15 -0.15)">
       <use xlink:href="#DejaVuSans-30"/>
      </g>
     </g>
    </g>
    <g id="ytick_7">
     <g id="line2d_26">
      <g>
       <use xlink:href="#m26d1303ea4" x="84.407937" y="563.705848" style="stroke: #000000; stroke-width: 0.8"/>
      </g>
     </g>
     <g id="text_23">
      <!-- 50 -->
      <g transform="translate(58.320437 569.404676) scale(0.15 -0.15)">
       <defs>
        <path id="DejaVuSans-35" d="M 691 4666 
L 3169 4666 
L 3169 4134 
L 1269 4134 
L 1269 2991 
Q 1406 3038 1543 3061 
Q 1681 3084 1819 3084 
Q 2600 3084 3056 2656 
Q 3513 2228 3513 1497 
Q 3513 744 3044 326 
Q 2575 -91 1722 -91 
Q 1428 -91 1123 -41 
Q 819 9 494 109 
L 494 744 
Q 775 591 1075 516 
Q 1375 441 1709 441 
Q 2250 441 2565 725 
Q 2881 1009 2881 1497 
Q 2881 1984 2565 2268 
Q 2250 2553 1709 2553 
Q 1456 2553 1204 2497 
Q 953 2441 691 2322 
L 691 4666 
z
" transform="scale(0.015625)"/>
       </defs>
       <use xlink:href="#DejaVuSans-35"/>
       <use xlink:href="#DejaVuSans-30" x="63.623047"/>
      </g>
     </g>
    </g>
    <g id="ytick_8">
     <g id="line2d_27">
      <g>
       <use xlink:href="#m26d1303ea4" x="84.407937" y="504.768218" style="stroke: #000000; stroke-width: 0.8"/>
      </g>
     </g>
     <g id="text_24">
      <!-- 100 -->
      <g transform="translate(48.776687 510.467046) scale(0.15 -0.15)">
       <use xlink:href="#DejaVuSans-31"/>
       <use xlink:href="#DejaVuSans-30" x="63.623047"/>
       <use xlink:href="#DejaVuSans-30" x="127.246094"/>
      </g>
     </g>
    </g>
    <g id="ytick_9">
     <g id="line2d_28">
      <g>
       <use xlink:href="#m26d1303ea4" x="84.407937" y="445.830588" style="stroke: #000000; stroke-width: 0.8"/>
      </g>
     </g>
     <g id="text_25">
      <!-- 150 -->
      <g transform="translate(48.776687 451.529416) scale(0.15 -0.15)">
       <use xlink:href="#DejaVuSans-31"/>
       <use xlink:href="#DejaVuSans-35" x="63.623047"/>
       <use xlink:href="#DejaVuSans-30" x="127.246094"/>
      </g>
     </g>
    </g>
    <g id="text_26">
     <!-- HCTZ excretion -->
     <g transform="translate(20.877187 590.779198) rotate(-90) scale(0.18 -0.18)">
      <defs>
       <path id="DejaVuSans-Bold-78" d="M 1422 1791 
L 159 3500 
L 1344 3500 
L 2059 2463 
L 2784 3500 
L 3969 3500 
L 2706 1797 
L 4031 0 
L 2847 0 
L 2059 1106 
L 1281 0 
L 97 0 
L 1422 1791 
z
" transform="scale(0.015625)"/>
       <path id="DejaVuSans-Bold-63" d="M 3366 3391 
L 3366 2478 
Q 3138 2634 2908 2709 
Q 2678 2784 2431 2784 
Q 1963 2784 1702 2511 
Q 1441 2238 1441 1747 
Q 1441 1256 1702 982 
Q 1963 709 2431 709 
Q 2694 709 2930 787 
Q 3166 866 3366 1019 
L 3366 103 
Q 3103 6 2833 -42 
Q 2563 -91 2291 -91 
Q 1344 -91 809 395 
Q 275 881 275 1747 
Q 275 2613 809 3098 
Q 1344 3584 2291 3584 
Q 2566 3584 2833 3536 
Q 3100 3488 3366 3391 
z
" transform="scale(0.015625)"/>
       <path id="DejaVuSans-Bold-6f" d="M 2203 2784 
Q 1831 2784 1636 2517 
Q 1441 2250 1441 1747 
Q 1441 1244 1636 976 
Q 1831 709 2203 709 
Q 2569 709 2762 976 
Q 2956 1244 2956 1747 
Q 2956 2250 2762 2517 
Q 2569 2784 2203 2784 
z
M 2203 3584 
Q 3106 3584 3614 3096 
Q 4122 2609 4122 1747 
Q 4122 884 3614 396 
Q 3106 -91 2203 -91 
Q 1297 -91 786 396 
Q 275 884 275 1747 
Q 275 2609 786 3096 
Q 1297 3584 2203 3584 
z
" transform="scale(0.015625)"/>
       <path id="DejaVuSans-Bold-6e" d="M 4056 2131 
L 4056 0 
L 2931 0 
L 2931 347 
L 2931 1631 
Q 2931 2084 2911 2256 
Q 2891 2428 2841 2509 
Q 2775 2619 2662 2680 
Q 2550 2741 2406 2741 
Q 2056 2741 1856 2470 
Q 1656 2200 1656 1722 
L 1656 0 
L 538 0 
L 538 3500 
L 1656 3500 
L 1656 2988 
Q 1909 3294 2193 3439 
Q 2478 3584 2822 3584 
Q 3428 3584 3742 3212 
Q 4056 2841 4056 2131 
z
" transform="scale(0.015625)"/>
      </defs>
      <use xlink:href="#DejaVuSans-Bold-48"/>
      <use xlink:href="#DejaVuSans-Bold-43" x="83.691406"/>
      <use xlink:href="#DejaVuSans-Bold-54" x="157.080078"/>
      <use xlink:href="#DejaVuSans-Bold-5a" x="225.292969"/>
      <use xlink:href="#DejaVuSans-Bold-20" x="297.802734"/>
      <use xlink:href="#DejaVuSans-Bold-65" x="332.617188"/>
      <use xlink:href="#DejaVuSans-Bold-78" x="400.439453"/>
      <use xlink:href="#DejaVuSans-Bold-63" x="464.941406"/>
      <use xlink:href="#DejaVuSans-Bold-72" x="524.21875"/>
      <use xlink:href="#DejaVuSans-Bold-65" x="573.535156"/>
      <use xlink:href="#DejaVuSans-Bold-74" x="641.357422"/>
      <use xlink:href="#DejaVuSans-Bold-69" x="689.160156"/>
      <use xlink:href="#DejaVuSans-Bold-6f" x="723.4375"/>
      <use xlink:href="#DejaVuSans-Bold-6e" x="792.138672"/>
     </g>
     <!-- urine [nmol/min] -->
     <g transform="translate(41.03325 598.091698) rotate(-90) scale(0.18 -0.18)">
      <defs>
       <path id="DejaVuSans-Bold-75" d="M 500 1363 
L 500 3500 
L 1625 3500 
L 1625 3150 
Q 1625 2866 1622 2436 
Q 1619 2006 1619 1863 
Q 1619 1441 1641 1255 
Q 1663 1069 1716 984 
Q 1784 875 1895 815 
Q 2006 756 2150 756 
Q 2500 756 2700 1025 
Q 2900 1294 2900 1772 
L 2900 3500 
L 4019 3500 
L 4019 0 
L 2900 0 
L 2900 506 
Q 2647 200 2364 54 
Q 2081 -91 1741 -91 
Q 1134 -91 817 281 
Q 500 653 500 1363 
z
" transform="scale(0.015625)"/>
       <path id="DejaVuSans-Bold-6c" d="M 538 4863 
L 1656 4863 
L 1656 0 
L 538 0 
L 538 4863 
z
" transform="scale(0.015625)"/>
       <path id="DejaVuSans-Bold-2f" d="M 1644 4666 
L 2338 4666 
L 691 -594 
L 0 -594 
L 1644 4666 
z
" transform="scale(0.015625)"/>
      </defs>
      <use xlink:href="#DejaVuSans-Bold-75"/>
      <use xlink:href="#DejaVuSans-Bold-72" x="71.191406"/>
      <use xlink:href="#DejaVuSans-Bold-69" x="120.507812"/>
      <use xlink:href="#DejaVuSans-Bold-6e" x="154.785156"/>
      <use xlink:href="#DejaVuSans-Bold-65" x="225.976562"/>
      <use xlink:href="#DejaVuSans-Bold-20" x="293.798828"/>
      <use xlink:href="#DejaVuSans-Bold-5b" x="328.613281"/>
      <use xlink:href="#DejaVuSans-Bold-6e" x="374.316406"/>
      <use xlink:href="#DejaVuSans-Bold-6d" x="445.507812"/>
      <use xlink:href="#DejaVuSans-Bold-6f" x="549.707031"/>
      <use xlink:href="#DejaVuSans-Bold-6c" x="618.408203"/>
      <use xlink:href="#DejaVuSans-Bold-2f" x="652.685547"/>
      <use xlink:href="#DejaVuSans-Bold-6d" x="689.208984"/>
      <use xlink:href="#DejaVuSans-Bold-69" x="793.408203"/>
      <use xlink:href="#DejaVuSans-Bold-6e" x="827.685547"/>
      <use xlink:href="#DejaVuSans-Bold-5d" x="898.876953"/>
     </g>
    </g>
   </g>
   <g id="line2d_29">
    <path d="M 102.162483 622.643478 
L 102.872665 619.941797 
L 103.582847 613.072327 
L 105.00321 594.067066 
L 107.133756 564.932191 
L 108.554119 548.758291 
L 109.974483 535.784465 
L 111.394847 525.79513 
L 112.81521 518.377038 
L 113.525392 515.491516 
L 114.235574 513.082883 
L 114.945756 511.100949 
L 115.655937 509.499275 
L 116.366119 508.235325 
L 117.076301 507.27045 
L 117.786483 506.569746 
L 118.496665 506.101842 
L 119.206847 505.838655 
L 119.917028 505.755119 
L 120.62721 505.828921 
L 121.337392 506.040236 
L 122.757756 506.80709 
L 124.178119 507.937891 
L 125.598483 509.340617 
L 127.729028 511.802292 
L 130.569756 515.492175 
L 136.25121 523.382774 
L 142.642847 532.127138 
L 147.614119 538.521692 
L 151.87521 543.663803 
L 156.136301 548.489367 
L 160.397392 553.008398 
L 164.658483 557.236103 
L 168.919574 561.189464 
L 173.890847 565.477854 
L 178.862119 569.442493 
L 183.833392 573.108148 
L 188.804665 576.497866 
L 193.775937 579.632977 
L 199.457392 582.929403 
L 205.138847 585.945947 
L 210.820301 588.707205 
L 216.501756 591.235591 
L 222.893392 593.82703 
L 229.285028 596.175895 
L 236.386847 598.530034 
L 243.488665 600.64312 
L 251.300665 602.72001 
L 259.112665 604.567212 
L 267.634847 606.351968 
L 276.86721 608.048559 
L 286.809756 609.637629 
L 297.462483 611.106062 
L 308.825392 612.446543 
L 321.608665 613.722033 
L 335.812301 614.902266 
L 351.436301 615.968758 
L 369.190847 616.948826 
L 389.075938 617.82164 
L 412.511938 618.623434 
L 440.209028 619.344204 
L 457.253392 619.698488 
L 457.253392 619.698488 
" clip-path="url(#p856b9ef567)" style="fill: none; stroke: #000000; stroke-width: 2; stroke-linecap: square"/>
   </g>
   <g id="line2d_30">
    <path d="M 102.162483 622.643478 
L 111.039756 435.772598 
L 119.917028 403.513043 
L 128.794301 444.401558 
L 137.671574 519.209478 
L 146.548847 511.690874 
L 155.426119 545.333112 
L 164.303392 541.637207 
L 173.180665 586.321325 
L 182.057938 604.07179 
L 190.93521 596.372311 
L 208.689756 608.89483 
L 315.217028 619.022152 
L 386.23521 622.643478 
" clip-path="url(#p856b9ef567)" style="fill: none; stroke-dasharray: 3.7,1.6; stroke-dashoffset: 0; stroke: #1f77b4"/>
    <g clip-path="url(#p856b9ef567)">
     <use xlink:href="#m173eeff7cd" x="102.162483" y="622.643478" style="fill: #1f77b4; stroke: #000000; stroke-linejoin: miter"/>
     <use xlink:href="#m173eeff7cd" x="111.039756" y="435.772598" style="fill: #1f77b4; stroke: #000000; stroke-linejoin: miter"/>
     <use xlink:href="#m173eeff7cd" x="119.917028" y="403.513043" style="fill: #1f77b4; stroke: #000000; stroke-linejoin: miter"/>
     <use xlink:href="#m173eeff7cd" x="128.794301" y="444.401558" style="fill: #1f77b4; stroke: #000000; stroke-linejoin: miter"/>
     <use xlink:href="#m173eeff7cd" x="137.671574" y="519.209478" style="fill: #1f77b4; stroke: #000000; stroke-linejoin: miter"/>
     <use xlink:href="#m173eeff7cd" x="146.548847" y="511.690874" style="fill: #1f77b4; stroke: #000000; stroke-linejoin: miter"/>
     <use xlink:href="#m173eeff7cd" x="155.426119" y="545.333112" style="fill: #1f77b4; stroke: #000000; stroke-linejoin: miter"/>
     <use xlink:href="#m173eeff7cd" x="164.303392" y="541.637207" style="fill: #1f77b4; stroke: #000000; stroke-linejoin: miter"/>
     <use xlink:href="#m173eeff7cd" x="173.180665" y="586.321325" style="fill: #1f77b4; stroke: #000000; stroke-linejoin: miter"/>
     <use xlink:href="#m173eeff7cd" x="182.057938" y="604.07179" style="fill: #1f77b4; stroke: #000000; stroke-linejoin: miter"/>
     <use xlink:href="#m173eeff7cd" x="190.93521" y="596.372311" style="fill: #1f77b4; stroke: #000000; stroke-linejoin: miter"/>
     <use xlink:href="#m173eeff7cd" x="208.689756" y="608.89483" style="fill: #1f77b4; stroke: #000000; stroke-linejoin: miter"/>
     <use xlink:href="#m173eeff7cd" x="315.217028" y="619.022152" style="fill: #1f77b4; stroke: #000000; stroke-linejoin: miter"/>
     <use xlink:href="#m173eeff7cd" x="386.23521" y="622.643478" style="fill: #1f77b4; stroke: #000000; stroke-linejoin: miter"/>
    </g>
   </g>
   <g id="line2d_31">
    <path d="M 102.162483 622.643478 
L 111.039756 603.171172 
L 119.917028 546.189101 
L 128.794301 514.555276 
L 137.671574 522.656439 
L 146.548847 520.025866 
L 155.426119 557.78395 
L 164.303392 507.305115 
L 173.180665 537.452259 
L 182.057938 535.588556 
L 190.93521 585.533339 
L 208.689756 591.701704 
L 315.217028 608.072875 
L 386.23521 618.344133 
" clip-path="url(#p856b9ef567)" style="fill: none; stroke-dasharray: 3.7,1.6; stroke-dashoffset: 0; stroke: #ff7f0e"/>
    <g clip-path="url(#p856b9ef567)">
     <use xlink:href="#m2b58ed48cd" x="102.162483" y="622.643478" style="fill: #ff7f0e; stroke: #000000; stroke-linejoin: miter"/>
     <use xlink:href="#m2b58ed48cd" x="111.039756" y="603.171172" style="fill: #ff7f0e; stroke: #000000; stroke-linejoin: miter"/>
     <use xlink:href="#m2b58ed48cd" x="119.917028" y="546.189101" style="fill: #ff7f0e; stroke: #000000; stroke-linejoin: miter"/>
     <use xlink:href="#m2b58ed48cd" x="128.794301" y="514.555276" style="fill: #ff7f0e; stroke: #000000; stroke-linejoin: miter"/>
     <use xlink:href="#m2b58ed48cd" x="137.671574" y="522.656439" style="fill: #ff7f0e; stroke: #000000; stroke-linejoin: miter"/>
     <use xlink:href="#m2b58ed48cd" x="146.548847" y="520.025866" style="fill: #ff7f0e; stroke: #000000; stroke-linejoin: miter"/>
     <use xlink:href="#m2b58ed48cd" x="155.426119" y="557.78395" style="fill: #ff7f0e; stroke: #000000; stroke-linejoin: miter"/>
     <use xlink:href="#m2b58ed48cd" x="164.303392" y="507.305115" style="fill: #ff7f0e; stroke: #000000; stroke-linejoin: miter"/>
     <use xlink:href="#m2b58ed48cd" x="173.180665" y="537.452259" style="fill: #ff7f0e; stroke: #000000; stroke-linejoin: miter"/>
     <use xlink:href="#m2b58ed48cd" x="182.057938" y="535.588556" style="fill: #ff7f0e; stroke: #000000; stroke-linejoin: miter"/>
     <use xlink:href="#m2b58ed48cd" x="190.93521" y="585.533339" style="fill: #ff7f0e; stroke: #000000; stroke-linejoin: miter"/>
     <use xlink:href="#m2b58ed48cd" x="208.689756" y="591.701704" style="fill: #ff7f0e; stroke: #000000; stroke-linejoin: miter"/>
     <use xlink:href="#m2b58ed48cd" x="315.217028" y="608.072875" style="fill: #ff7f0e; stroke: #000000; stroke-linejoin: miter"/>
     <use xlink:href="#m2b58ed48cd" x="386.23521" y="618.344133" style="fill: #ff7f0e; stroke: #000000; stroke-linejoin: miter"/>
    </g>
   </g>
   <g id="patch_9">
    <path d="M 84.407937 633.6 
L 84.407937 392.556522 
" style="fill: none; stroke: #000000; stroke-width: 0.8; stroke-linejoin: miter; stroke-linecap: square"/>
   </g>
   <g id="patch_10">
    <path d="M 475.007938 633.6 
L 475.007938 392.556522 
" style="fill: none; stroke: #000000; stroke-width: 0.8; stroke-linejoin: miter; stroke-linecap: square"/>
   </g>
   <g id="patch_11">
    <path d="M 84.407938 633.6 
L 475.007938 633.6 
" style="fill: none; stroke: #000000; stroke-width: 0.8; stroke-linejoin: miter; stroke-linecap: square"/>
   </g>
   <g id="patch_12">
    <path d="M 84.407938 392.556522 
L 475.007938 392.556522 
" style="fill: none; stroke: #000000; stroke-width: 0.8; stroke-linejoin: miter; stroke-linecap: square"/>
   </g>
   <g id="legend_2">
    <g id="patch_13">
     <path d="M 384.175125 444.590897 
L 468.007938 444.590897 
Q 470.007938 444.590897 470.007938 442.590897 
L 470.007938 399.556522 
Q 470.007938 397.556522 468.007938 397.556522 
L 384.175125 397.556522 
Q 382.175125 397.556522 382.175125 399.556522 
L 382.175125 442.590897 
Q 382.175125 444.590897 384.175125 444.590897 
z
" style="fill: #ffffff; opacity: 0.8; stroke: #cccccc; stroke-linejoin: miter"/>
    </g>
    <g id="line2d_32">
     <path d="M 386.175125 405.654959 
L 406.175125 405.654959 
" style="fill: none; stroke: #000000; stroke-width: 2; stroke-linecap: square"/>
    </g>
    <g id="line2d_33"/>
    <g id="text_27">
     <!-- Sim -->
     <g transform="translate(414.175125 409.154959) scale(0.1 -0.1)">
      <use xlink:href="#DejaVuSans-53"/>
      <use xlink:href="#DejaVuSans-69" x="63.476562"/>
      <use xlink:href="#DejaVuSans-6d" x="91.259766"/>
     </g>
    </g>
    <g id="line2d_34">
     <path d="M 386.175125 420.333084 
L 406.175125 420.333084 
" style="fill: none; stroke-dasharray: 3.7,1.6; stroke-dashoffset: 0; stroke: #1f77b4"/>
    </g>
    <g id="line2d_35">
     <g>
      <use xlink:href="#m173eeff7cd" x="396.175125" y="420.333084" style="fill: #1f77b4; stroke: #000000; stroke-linejoin: miter"/>
     </g>
    </g>
    <g id="text_28">
     <!-- HD (n=1) -->
     <g transform="translate(414.175125 423.833084) scale(0.1 -0.1)">
      <use xlink:href="#DejaVuSans-48"/>
      <use xlink:href="#DejaVuSans-44" x="75.195312"/>
      <use xlink:href="#DejaVuSans-20" x="152.197266"/>
      <use xlink:href="#DejaVuSans-28" x="183.984375"/>
      <use xlink:href="#DejaVuSans-6e" x="222.998047"/>
      <use xlink:href="#DejaVuSans-3d" x="286.376953"/>
      <use xlink:href="#DejaVuSans-31" x="370.166016"/>
      <use xlink:href="#DejaVuSans-29" x="433.789062"/>
     </g>
    </g>
    <g id="line2d_36">
     <path d="M 386.175125 435.011209 
L 406.175125 435.011209 
" style="fill: none; stroke-dasharray: 3.7,1.6; stroke-dashoffset: 0; stroke: #ff7f0e"/>
    </g>
    <g id="line2d_37">
     <g>
      <use xlink:href="#m2b58ed48cd" x="396.175125" y="435.011209" style="fill: #ff7f0e; stroke: #000000; stroke-linejoin: miter"/>
     </g>
    </g>
    <g id="text_29">
     <!-- MLL (n=1) -->
     <g transform="translate(414.175125 438.511209) scale(0.1 -0.1)">
      <use xlink:href="#DejaVuSans-4d"/>
      <use xlink:href="#DejaVuSans-4c" x="86.279297"/>
      <use xlink:href="#DejaVuSans-4c" x="141.992188"/>
      <use xlink:href="#DejaVuSans-20" x="197.705078"/>
      <use xlink:href="#DejaVuSans-28" x="229.492188"/>
      <use xlink:href="#DejaVuSans-6e" x="268.505859"/>
      <use xlink:href="#DejaVuSans-3d" x="331.884766"/>
      <use xlink:href="#DejaVuSans-31" x="415.673828"/>
      <use xlink:href="#DejaVuSans-29" x="479.296875"/>
     </g>
    </g>
   </g>
  </g>
  <g id="text_30">
   <!-- Beermann1977b Fig1_2 -->
   <g transform="translate(107.997781 26.196094) scale(0.25 -0.25)">
    <defs>
     <path id="DejaVuSans-Bold-42" d="M 2456 2859 
Q 2741 2859 2887 2984 
Q 3034 3109 3034 3353 
Q 3034 3594 2887 3720 
Q 2741 3847 2456 3847 
L 1791 3847 
L 1791 2859 
L 2456 2859 
z
M 2497 819 
Q 2859 819 3042 972 
Q 3225 1125 3225 1434 
Q 3225 1738 3044 1889 
Q 2863 2041 2497 2041 
L 1791 2041 
L 1791 819 
L 2497 819 
z
M 3616 2497 
Q 4003 2384 4215 2081 
Q 4428 1778 4428 1338 
Q 4428 663 3972 331 
Q 3516 0 2584 0 
L 588 0 
L 588 4666 
L 2394 4666 
Q 3366 4666 3802 4372 
Q 4238 4078 4238 3431 
Q 4238 3091 4078 2852 
Q 3919 2613 3616 2497 
z
" transform="scale(0.015625)"/>
     <path id="DejaVuSans-Bold-61" d="M 2106 1575 
Q 1756 1575 1579 1456 
Q 1403 1338 1403 1106 
Q 1403 894 1545 773 
Q 1688 653 1941 653 
Q 2256 653 2472 879 
Q 2688 1106 2688 1447 
L 2688 1575 
L 2106 1575 
z
M 3816 1997 
L 3816 0 
L 2688 0 
L 2688 519 
Q 2463 200 2181 54 
Q 1900 -91 1497 -91 
Q 953 -91 614 226 
Q 275 544 275 1050 
Q 275 1666 698 1953 
Q 1122 2241 2028 2241 
L 2688 2241 
L 2688 2328 
Q 2688 2594 2478 2717 
Q 2269 2841 1825 2841 
Q 1466 2841 1156 2769 
Q 847 2697 581 2553 
L 581 3406 
Q 941 3494 1303 3539 
Q 1666 3584 2028 3584 
Q 2975 3584 3395 3211 
Q 3816 2838 3816 1997 
z
" transform="scale(0.015625)"/>
     <path id="DejaVuSans-Bold-31" d="M 750 831 
L 1813 831 
L 1813 3847 
L 722 3622 
L 722 4441 
L 1806 4666 
L 2950 4666 
L 2950 831 
L 4013 831 
L 4013 0 
L 750 0 
L 750 831 
z
" transform="scale(0.015625)"/>
     <path id="DejaVuSans-Bold-39" d="M 641 103 
L 641 966 
Q 928 831 1190 764 
Q 1453 697 1709 697 
Q 2247 697 2547 995 
Q 2847 1294 2900 1881 
Q 2688 1725 2447 1647 
Q 2206 1569 1925 1569 
Q 1209 1569 770 1986 
Q 331 2403 331 3084 
Q 331 3838 820 4291 
Q 1309 4744 2131 4744 
Q 3044 4744 3544 4128 
Q 4044 3513 4044 2388 
Q 4044 1231 3459 570 
Q 2875 -91 1856 -91 
Q 1528 -91 1228 -42 
Q 928 6 641 103 
z
M 2125 2350 
Q 2441 2350 2600 2554 
Q 2759 2759 2759 3169 
Q 2759 3575 2600 3781 
Q 2441 3988 2125 3988 
Q 1809 3988 1650 3781 
Q 1491 3575 1491 3169 
Q 1491 2759 1650 2554 
Q 1809 2350 2125 2350 
z
" transform="scale(0.015625)"/>
     <path id="DejaVuSans-Bold-37" d="M 428 4666 
L 3944 4666 
L 3944 3988 
L 2125 0 
L 953 0 
L 2675 3781 
L 428 3781 
L 428 4666 
z
" transform="scale(0.015625)"/>
     <path id="DejaVuSans-Bold-62" d="M 2400 722 
Q 2759 722 2948 984 
Q 3138 1247 3138 1747 
Q 3138 2247 2948 2509 
Q 2759 2772 2400 2772 
Q 2041 2772 1848 2508 
Q 1656 2244 1656 1747 
Q 1656 1250 1848 986 
Q 2041 722 2400 722 
z
M 1656 2988 
Q 1888 3294 2169 3439 
Q 2450 3584 2816 3584 
Q 3463 3584 3878 3070 
Q 4294 2556 4294 1747 
Q 4294 938 3878 423 
Q 3463 -91 2816 -91 
Q 2450 -91 2169 54 
Q 1888 200 1656 506 
L 1656 0 
L 538 0 
L 538 4863 
L 1656 4863 
L 1656 2988 
z
" transform="scale(0.015625)"/>
     <path id="DejaVuSans-Bold-46" d="M 588 4666 
L 3834 4666 
L 3834 3756 
L 1791 3756 
L 1791 2888 
L 3713 2888 
L 3713 1978 
L 1791 1978 
L 1791 0 
L 588 0 
L 588 4666 
z
" transform="scale(0.015625)"/>
     <path id="DejaVuSans-Bold-67" d="M 2919 594 
Q 2688 288 2409 144 
Q 2131 0 1766 0 
Q 1125 0 706 504 
Q 288 1009 288 1791 
Q 288 2575 706 3076 
Q 1125 3578 1766 3578 
Q 2131 3578 2409 3434 
Q 2688 3291 2919 2981 
L 2919 3500 
L 4044 3500 
L 4044 353 
Q 4044 -491 3511 -936 
Q 2978 -1381 1966 -1381 
Q 1638 -1381 1331 -1331 
Q 1025 -1281 716 -1178 
L 716 -306 
Q 1009 -475 1290 -558 
Q 1572 -641 1856 -641 
Q 2406 -641 2662 -400 
Q 2919 -159 2919 353 
L 2919 594 
z
M 2181 2772 
Q 1834 2772 1640 2515 
Q 1447 2259 1447 1791 
Q 1447 1309 1634 1061 
Q 1822 813 2181 813 
Q 2531 813 2725 1069 
Q 2919 1325 2919 1791 
Q 2919 2259 2725 2515 
Q 2531 2772 2181 2772 
z
" transform="scale(0.015625)"/>
     <path id="DejaVuSans-Bold-5f" d="M 3200 -916 
L 3200 -1509 
L 0 -1509 
L 0 -916 
L 3200 -916 
z
" transform="scale(0.015625)"/>
     <path id="DejaVuSans-Bold-32" d="M 1844 884 
L 3897 884 
L 3897 0 
L 506 0 
L 506 884 
L 2209 2388 
Q 2438 2594 2547 2791 
Q 2656 2988 2656 3200 
Q 2656 3528 2436 3728 
Q 2216 3928 1850 3928 
Q 1569 3928 1234 3808 
Q 900 3688 519 3450 
L 519 4475 
Q 925 4609 1322 4679 
Q 1719 4750 2100 4750 
Q 2938 4750 3402 4381 
Q 3866 4013 3866 3353 
Q 3866 2972 3669 2642 
Q 3472 2313 2841 1759 
L 1844 884 
z
" transform="scale(0.015625)"/>
    </defs>
    <use xlink:href="#DejaVuSans-Bold-42"/>
    <use xlink:href="#DejaVuSans-Bold-65" x="76.220703"/>
    <use xlink:href="#DejaVuSans-Bold-65" x="144.042969"/>
    <use xlink:href="#DejaVuSans-Bold-72" x="211.865234"/>
    <use xlink:href="#DejaVuSans-Bold-6d" x="261.181641"/>
    <use xlink:href="#DejaVuSans-Bold-61" x="365.380859"/>
    <use xlink:href="#DejaVuSans-Bold-6e" x="432.861328"/>
    <use xlink:href="#DejaVuSans-Bold-6e" x="504.052734"/>
    <use xlink:href="#DejaVuSans-Bold-31" x="575.244141"/>
    <use xlink:href="#DejaVuSans-Bold-39" x="644.824219"/>
    <use xlink:href="#DejaVuSans-Bold-37" x="714.404297"/>
    <use xlink:href="#DejaVuSans-Bold-37" x="783.984375"/>
    <use xlink:href="#DejaVuSans-Bold-62" x="853.564453"/>
    <use xlink:href="#DejaVuSans-Bold-20" x="925.146484"/>
    <use xlink:href="#DejaVuSans-Bold-46" x="959.960938"/>
    <use xlink:href="#DejaVuSans-Bold-69" x="1028.271484"/>
    <use xlink:href="#DejaVuSans-Bold-67" x="1062.548828"/>
    <use xlink:href="#DejaVuSans-Bold-31" x="1134.130859"/>
    <use xlink:href="#DejaVuSans-Bold-5f" x="1203.710938"/>
    <use xlink:href="#DejaVuSans-Bold-32" x="1253.710938"/>
   </g>
  </g>
 </g>
 <defs>
  <clipPath id="peb3c8d6a7f">
   <rect x="84.407937" y="79.2" width="390.6" height="241.043478"/>
  </clipPath>
  <clipPath id="p856b9ef567">
   <rect x="84.407937" y="392.556522" width="390.6" height="241.043478"/>
  </clipPath>
 </defs>
</svg>
