<?xml version="1.0" encoding="utf-8" standalone="no"?>
<!DOCTYPE svg PUBLIC "-//W3C//DTD SVG 1.1//EN"
  "http://www.w3.org/Graphics/SVG/1.1/DTD/svg11.dtd">
<svg xmlns:xlink="http://www.w3.org/1999/xlink" width="491.771375pt" height="370.537812pt" viewBox="0 0 491.771375 370.537812" xmlns="http://www.w3.org/2000/svg" version="1.1">
 <metadata>
  <rdf:RDF xmlns:dc="http://purl.org/dc/elements/1.1/" xmlns:cc="http://creativecommons.org/ns#" xmlns:rdf="http://www.w3.org/1999/02/22-rdf-syntax-ns#">
   <cc:Work>
    <dc:type rdf:resource="http://purl.org/dc/dcmitype/StillImage"/>
    <dc:date>2025-05-15T20:27:02.482749</dc:date>
    <dc:format>image/svg+xml</dc:format>
    <dc:creator>
     <cc:Agent>
      <dc:title>Matplotlib v3.9.1, https://matplotlib.org/</dc:title>
     </cc:Agent>
    </dc:creator>
   </cc:Work>
  </rdf:RDF>
 </metadata>
 <defs>
  <style type="text/css">*{stroke-linejoin: round; stroke-linecap: butt}</style>
 </defs>
 <g id="figure_1">
  <g id="patch_1">
   <path d="M -0 370.537812 
L 491.771375 370.537812 
L 491.771375 0 
L -0 0 
z
" style="fill: #ffffff"/>
  </g>
  <g id="axes_1">
   <g id="patch_2">
    <path d="M 84.427625 320.4 
L 475.027625 320.4 
L 475.027625 43.2 
L 84.427625 43.2 
z
" style="fill: #ffffff"/>
   </g>
   <g id="matplotlib.axis_1">
    <g id="xtick_1">
     <g id="line2d_1">
      <defs>
       <path id="m428444a5f5" d="M 0 0 
L 0 3.5 
" style="stroke: #000000; stroke-width: 0.8"/>
      </defs>
      <g>
       <use xlink:href="#m428444a5f5" x="97.896591" y="320.4" style="stroke: #000000; stroke-width: 0.8"/>
      </g>
     </g>
     <g id="text_1">
      <!-- 0 -->
      <g transform="translate(93.124716 338.797656) scale(0.15 -0.15)">
       <defs>
        <path id="DejaVuSans-30" d="M 2034 4250 
Q 1547 4250 1301 3770 
Q 1056 3291 1056 2328 
Q 1056 1369 1301 889 
Q 1547 409 2034 409 
Q 2525 409 2770 889 
Q 3016 1369 3016 2328 
Q 3016 3291 2770 3770 
Q 2525 4250 2034 4250 
z
M 2034 4750 
Q 2819 4750 3233 4129 
Q 3647 3509 3647 2328 
Q 3647 1150 3233 529 
Q 2819 -91 2034 -91 
Q 1250 -91 836 529 
Q 422 1150 422 2328 
Q 422 3509 836 4129 
Q 1250 4750 2034 4750 
z
" transform="scale(0.015625)"/>
       </defs>
       <use xlink:href="#DejaVuSans-30"/>
      </g>
     </g>
    </g>
    <g id="xtick_2">
     <g id="line2d_2">
      <g>
       <use xlink:href="#m428444a5f5" x="151.772453" y="320.4" style="stroke: #000000; stroke-width: 0.8"/>
      </g>
     </g>
     <g id="text_2">
      <!-- 10 -->
      <g transform="translate(142.228703 338.797656) scale(0.15 -0.15)">
       <defs>
        <path id="DejaVuSans-31" d="M 794 531 
L 1825 531 
L 1825 4091 
L 703 3866 
L 703 4441 
L 1819 4666 
L 2450 4666 
L 2450 531 
L 3481 531 
L 3481 0 
L 794 0 
L 794 531 
z
" transform="scale(0.015625)"/>
       </defs>
       <use xlink:href="#DejaVuSans-31"/>
       <use xlink:href="#DejaVuSans-30" x="63.623047"/>
      </g>
     </g>
    </g>
    <g id="xtick_3">
     <g id="line2d_3">
      <g>
       <use xlink:href="#m428444a5f5" x="205.648315" y="320.4" style="stroke: #000000; stroke-width: 0.8"/>
      </g>
     </g>
     <g id="text_3">
      <!-- 20 -->
      <g transform="translate(196.104565 338.797656) scale(0.15 -0.15)">
       <defs>
        <path id="DejaVuSans-32" d="M 1228 531 
L 3431 531 
L 3431 0 
L 469 0 
L 469 531 
Q 828 903 1448 1529 
Q 2069 2156 2228 2338 
Q 2531 2678 2651 2914 
Q 2772 3150 2772 3378 
Q 2772 3750 2511 3984 
Q 2250 4219 1831 4219 
Q 1534 4219 1204 4116 
Q 875 4013 500 3803 
L 500 4441 
Q 881 4594 1212 4672 
Q 1544 4750 1819 4750 
Q 2544 4750 2975 4387 
Q 3406 4025 3406 3419 
Q 3406 3131 3298 2873 
Q 3191 2616 2906 2266 
Q 2828 2175 2409 1742 
Q 1991 1309 1228 531 
z
" transform="scale(0.015625)"/>
       </defs>
       <use xlink:href="#DejaVuSans-32"/>
       <use xlink:href="#DejaVuSans-30" x="63.623047"/>
      </g>
     </g>
    </g>
    <g id="xtick_4">
     <g id="line2d_4">
      <g>
       <use xlink:href="#m428444a5f5" x="259.524177" y="320.4" style="stroke: #000000; stroke-width: 0.8"/>
      </g>
     </g>
     <g id="text_4">
      <!-- 30 -->
      <g transform="translate(249.980427 338.797656) scale(0.15 -0.15)">
       <defs>
        <path id="DejaVuSans-33" d="M 2597 2516 
Q 3050 2419 3304 2112 
Q 3559 1806 3559 1356 
Q 3559 666 3084 287 
Q 2609 -91 1734 -91 
Q 1441 -91 1130 -33 
Q 819 25 488 141 
L 488 750 
Q 750 597 1062 519 
Q 1375 441 1716 441 
Q 2309 441 2620 675 
Q 2931 909 2931 1356 
Q 2931 1769 2642 2001 
Q 2353 2234 1838 2234 
L 1294 2234 
L 1294 2753 
L 1863 2753 
Q 2328 2753 2575 2939 
Q 2822 3125 2822 3475 
Q 2822 3834 2567 4026 
Q 2313 4219 1838 4219 
Q 1578 4219 1281 4162 
Q 984 4106 628 3988 
L 628 4550 
Q 988 4650 1302 4700 
Q 1616 4750 1894 4750 
Q 2613 4750 3031 4423 
Q 3450 4097 3450 3541 
Q 3450 3153 3228 2886 
Q 3006 2619 2597 2516 
z
" transform="scale(0.015625)"/>
       </defs>
       <use xlink:href="#DejaVuSans-33"/>
       <use xlink:href="#DejaVuSans-30" x="63.623047"/>
      </g>
     </g>
    </g>
    <g id="xtick_5">
     <g id="line2d_5">
      <g>
       <use xlink:href="#m428444a5f5" x="313.400039" y="320.4" style="stroke: #000000; stroke-width: 0.8"/>
      </g>
     </g>
     <g id="text_5">
      <!-- 40 -->
      <g transform="translate(303.856289 338.797656) scale(0.15 -0.15)">
       <defs>
        <path id="DejaVuSans-34" d="M 2419 4116 
L 825 1625 
L 2419 1625 
L 2419 4116 
z
M 2253 4666 
L 3047 4666 
L 3047 1625 
L 3713 1625 
L 3713 1100 
L 3047 1100 
L 3047 0 
L 2419 0 
L 2419 1100 
L 313 1100 
L 313 1709 
L 2253 4666 
z
" transform="scale(0.015625)"/>
       </defs>
       <use xlink:href="#DejaVuSans-34"/>
       <use xlink:href="#DejaVuSans-30" x="63.623047"/>
      </g>
     </g>
    </g>
    <g id="xtick_6">
     <g id="line2d_6">
      <g>
       <use xlink:href="#m428444a5f5" x="367.275901" y="320.4" style="stroke: #000000; stroke-width: 0.8"/>
      </g>
     </g>
     <g id="text_6">
      <!-- 50 -->
      <g transform="translate(357.732151 338.797656) scale(0.15 -0.15)">
       <defs>
        <path id="DejaVuSans-35" d="M 691 4666 
L 3169 4666 
L 3169 4134 
L 1269 4134 
L 1269 2991 
Q 1406 3038 1543 3061 
Q 1681 3084 1819 3084 
Q 2600 3084 3056 2656 
Q 3513 2228 3513 1497 
Q 3513 744 3044 326 
Q 2575 -91 1722 -91 
Q 1428 -91 1123 -41 
Q 819 9 494 109 
L 494 744 
Q 775 591 1075 516 
Q 1375 441 1709 441 
Q 2250 441 2565 725 
Q 2881 1009 2881 1497 
Q 2881 1984 2565 2268 
Q 2250 2553 1709 2553 
Q 1456 2553 1204 2497 
Q 953 2441 691 2322 
L 691 4666 
z
" transform="scale(0.015625)"/>
       </defs>
       <use xlink:href="#DejaVuSans-35"/>
       <use xlink:href="#DejaVuSans-30" x="63.623047"/>
      </g>
     </g>
    </g>
    <g id="xtick_7">
     <g id="line2d_7">
      <g>
       <use xlink:href="#m428444a5f5" x="421.151763" y="320.4" style="stroke: #000000; stroke-width: 0.8"/>
      </g>
     </g>
     <g id="text_7">
      <!-- 60 -->
      <g transform="translate(411.608013 338.797656) scale(0.15 -0.15)">
       <defs>
        <path id="DejaVuSans-36" d="M 2113 2584 
Q 1688 2584 1439 2293 
Q 1191 2003 1191 1497 
Q 1191 994 1439 701 
Q 1688 409 2113 409 
Q 2538 409 2786 701 
Q 3034 994 3034 1497 
Q 3034 2003 2786 2293 
Q 2538 2584 2113 2584 
z
M 3366 4563 
L 3366 3988 
Q 3128 4100 2886 4159 
Q 2644 4219 2406 4219 
Q 1781 4219 1451 3797 
Q 1122 3375 1075 2522 
Q 1259 2794 1537 2939 
Q 1816 3084 2150 3084 
Q 2853 3084 3261 2657 
Q 3669 2231 3669 1497 
Q 3669 778 3244 343 
Q 2819 -91 2113 -91 
Q 1303 -91 875 529 
Q 447 1150 447 2328 
Q 447 3434 972 4092 
Q 1497 4750 2381 4750 
Q 2619 4750 2861 4703 
Q 3103 4656 3366 4563 
z
" transform="scale(0.015625)"/>
       </defs>
       <use xlink:href="#DejaVuSans-36"/>
       <use xlink:href="#DejaVuSans-30" x="63.623047"/>
      </g>
     </g>
    </g>
    <g id="xtick_8">
     <g id="line2d_8">
      <g>
       <use xlink:href="#m428444a5f5" x="475.027625" y="320.4" style="stroke: #000000; stroke-width: 0.8"/>
      </g>
     </g>
     <g id="text_8">
      <!-- 70 -->
      <g transform="translate(465.483875 338.797656) scale(0.15 -0.15)">
       <defs>
        <path id="DejaVuSans-37" d="M 525 4666 
L 3525 4666 
L 3525 4397 
L 1831 0 
L 1172 0 
L 2766 4134 
L 525 4134 
L 525 4666 
z
" transform="scale(0.015625)"/>
       </defs>
       <use xlink:href="#DejaVuSans-37"/>
       <use xlink:href="#DejaVuSans-30" x="63.623047"/>
      </g>
     </g>
    </g>
    <g id="text_9">
     <!-- time [hr] -->
     <g transform="translate(234.653094 359.594375) scale(0.18 -0.18)">
      <defs>
       <path id="DejaVuSans-Bold-74" d="M 1759 4494 
L 1759 3500 
L 2913 3500 
L 2913 2700 
L 1759 2700 
L 1759 1216 
Q 1759 972 1856 886 
Q 1953 800 2241 800 
L 2816 800 
L 2816 0 
L 1856 0 
Q 1194 0 917 276 
Q 641 553 641 1216 
L 641 2700 
L 84 2700 
L 84 3500 
L 641 3500 
L 641 4494 
L 1759 4494 
z
" transform="scale(0.015625)"/>
       <path id="DejaVuSans-Bold-69" d="M 538 3500 
L 1656 3500 
L 1656 0 
L 538 0 
L 538 3500 
z
M 538 4863 
L 1656 4863 
L 1656 3950 
L 538 3950 
L 538 4863 
z
" transform="scale(0.015625)"/>
       <path id="DejaVuSans-Bold-6d" d="M 3781 2919 
Q 3994 3244 4286 3414 
Q 4578 3584 4928 3584 
Q 5531 3584 5847 3212 
Q 6163 2841 6163 2131 
L 6163 0 
L 5038 0 
L 5038 1825 
Q 5041 1866 5042 1909 
Q 5044 1953 5044 2034 
Q 5044 2406 4934 2573 
Q 4825 2741 4581 2741 
Q 4263 2741 4089 2478 
Q 3916 2216 3909 1719 
L 3909 0 
L 2784 0 
L 2784 1825 
Q 2784 2406 2684 2573 
Q 2584 2741 2328 2741 
Q 2006 2741 1831 2477 
Q 1656 2213 1656 1722 
L 1656 0 
L 531 0 
L 531 3500 
L 1656 3500 
L 1656 2988 
Q 1863 3284 2130 3434 
Q 2397 3584 2719 3584 
Q 3081 3584 3359 3409 
Q 3638 3234 3781 2919 
z
" transform="scale(0.015625)"/>
       <path id="DejaVuSans-Bold-65" d="M 4031 1759 
L 4031 1441 
L 1416 1441 
Q 1456 1047 1700 850 
Q 1944 653 2381 653 
Q 2734 653 3104 758 
Q 3475 863 3866 1075 
L 3866 213 
Q 3469 63 3072 -14 
Q 2675 -91 2278 -91 
Q 1328 -91 801 392 
Q 275 875 275 1747 
Q 275 2603 792 3093 
Q 1309 3584 2216 3584 
Q 3041 3584 3536 3087 
Q 4031 2591 4031 1759 
z
M 2881 2131 
Q 2881 2450 2695 2645 
Q 2509 2841 2209 2841 
Q 1884 2841 1681 2658 
Q 1478 2475 1428 2131 
L 2881 2131 
z
" transform="scale(0.015625)"/>
       <path id="DejaVuSans-Bold-20" transform="scale(0.015625)"/>
       <path id="DejaVuSans-Bold-5b" d="M 550 4863 
L 2491 4863 
L 2491 4159 
L 1613 4159 
L 1613 -141 
L 2491 -141 
L 2491 -844 
L 550 -844 
L 550 4863 
z
" transform="scale(0.015625)"/>
       <path id="DejaVuSans-Bold-68" d="M 4056 2131 
L 4056 0 
L 2931 0 
L 2931 347 
L 2931 1625 
Q 2931 2084 2911 2256 
Q 2891 2428 2841 2509 
Q 2775 2619 2662 2680 
Q 2550 2741 2406 2741 
Q 2056 2741 1856 2470 
Q 1656 2200 1656 1722 
L 1656 0 
L 538 0 
L 538 4863 
L 1656 4863 
L 1656 2988 
Q 1909 3294 2193 3439 
Q 2478 3584 2822 3584 
Q 3428 3584 3742 3212 
Q 4056 2841 4056 2131 
z
" transform="scale(0.015625)"/>
       <path id="DejaVuSans-Bold-72" d="M 3138 2547 
Q 2991 2616 2845 2648 
Q 2700 2681 2553 2681 
Q 2122 2681 1889 2404 
Q 1656 2128 1656 1613 
L 1656 0 
L 538 0 
L 538 3500 
L 1656 3500 
L 1656 2925 
Q 1872 3269 2151 3426 
Q 2431 3584 2822 3584 
Q 2878 3584 2943 3579 
Q 3009 3575 3134 3559 
L 3138 2547 
z
" transform="scale(0.015625)"/>
       <path id="DejaVuSans-Bold-5d" d="M 2375 -844 
L 434 -844 
L 434 -141 
L 1313 -141 
L 1313 4159 
L 434 4159 
L 434 4863 
L 2375 4863 
L 2375 -844 
z
" transform="scale(0.015625)"/>
      </defs>
      <use xlink:href="#DejaVuSans-Bold-74"/>
      <use xlink:href="#DejaVuSans-Bold-69" x="47.802734"/>
      <use xlink:href="#DejaVuSans-Bold-6d" x="82.080078"/>
      <use xlink:href="#DejaVuSans-Bold-65" x="186.279297"/>
      <use xlink:href="#DejaVuSans-Bold-20" x="254.101562"/>
      <use xlink:href="#DejaVuSans-Bold-5b" x="288.916016"/>
      <use xlink:href="#DejaVuSans-Bold-68" x="334.619141"/>
      <use xlink:href="#DejaVuSans-Bold-72" x="405.810547"/>
      <use xlink:href="#DejaVuSans-Bold-5d" x="455.126953"/>
     </g>
    </g>
   </g>
   <g id="matplotlib.axis_2">
    <g id="ytick_1">
     <g id="line2d_9">
      <defs>
       <path id="m9e4edaabf1" d="M 0 0 
L -3.5 0 
" style="stroke: #000000; stroke-width: 0.8"/>
      </defs>
      <g>
       <use xlink:href="#m9e4edaabf1" x="84.427625" y="307.8" style="stroke: #000000; stroke-width: 0.8"/>
      </g>
     </g>
     <g id="text_10">
      <!-- 0 -->
      <g transform="translate(67.883875 313.498828) scale(0.15 -0.15)">
       <use xlink:href="#DejaVuSans-30"/>
      </g>
     </g>
    </g>
    <g id="ytick_2">
     <g id="line2d_10">
      <g>
       <use xlink:href="#m9e4edaabf1" x="84.427625" y="256.115778" style="stroke: #000000; stroke-width: 0.8"/>
      </g>
     </g>
     <g id="text_11">
      <!-- 100 -->
      <g transform="translate(48.796375 261.814606) scale(0.15 -0.15)">
       <use xlink:href="#DejaVuSans-31"/>
       <use xlink:href="#DejaVuSans-30" x="63.623047"/>
       <use xlink:href="#DejaVuSans-30" x="127.246094"/>
      </g>
     </g>
    </g>
    <g id="ytick_3">
     <g id="line2d_11">
      <g>
       <use xlink:href="#m9e4edaabf1" x="84.427625" y="204.431556" style="stroke: #000000; stroke-width: 0.8"/>
      </g>
     </g>
     <g id="text_12">
      <!-- 200 -->
      <g transform="translate(48.796375 210.130384) scale(0.15 -0.15)">
       <use xlink:href="#DejaVuSans-32"/>
       <use xlink:href="#DejaVuSans-30" x="63.623047"/>
       <use xlink:href="#DejaVuSans-30" x="127.246094"/>
      </g>
     </g>
    </g>
    <g id="ytick_4">
     <g id="line2d_12">
      <g>
       <use xlink:href="#m9e4edaabf1" x="84.427625" y="152.747334" style="stroke: #000000; stroke-width: 0.8"/>
      </g>
     </g>
     <g id="text_13">
      <!-- 300 -->
      <g transform="translate(48.796375 158.446162) scale(0.15 -0.15)">
       <use xlink:href="#DejaVuSans-33"/>
       <use xlink:href="#DejaVuSans-30" x="63.623047"/>
       <use xlink:href="#DejaVuSans-30" x="127.246094"/>
      </g>
     </g>
    </g>
    <g id="ytick_5">
     <g id="line2d_13">
      <g>
       <use xlink:href="#m9e4edaabf1" x="84.427625" y="101.063112" style="stroke: #000000; stroke-width: 0.8"/>
      </g>
     </g>
     <g id="text_14">
      <!-- 400 -->
      <g transform="translate(48.796375 106.76194) scale(0.15 -0.15)">
       <use xlink:href="#DejaVuSans-34"/>
       <use xlink:href="#DejaVuSans-30" x="63.623047"/>
       <use xlink:href="#DejaVuSans-30" x="127.246094"/>
      </g>
     </g>
    </g>
    <g id="ytick_6">
     <g id="line2d_14">
      <g>
       <use xlink:href="#m9e4edaabf1" x="84.427625" y="49.37889" style="stroke: #000000; stroke-width: 0.8"/>
      </g>
     </g>
     <g id="text_15">
      <!-- 500 -->
      <g transform="translate(48.796375 55.077718) scale(0.15 -0.15)">
       <use xlink:href="#DejaVuSans-35"/>
       <use xlink:href="#DejaVuSans-30" x="63.623047"/>
       <use xlink:href="#DejaVuSans-30" x="127.246094"/>
      </g>
     </g>
    </g>
    <g id="text_16">
     <!-- HCTZ urine -->
     <g transform="translate(20.877188 238.177969) rotate(-90) scale(0.18 -0.18)">
      <defs>
       <path id="DejaVuSans-Bold-48" d="M 588 4666 
L 1791 4666 
L 1791 2888 
L 3566 2888 
L 3566 4666 
L 4769 4666 
L 4769 0 
L 3566 0 
L 3566 1978 
L 1791 1978 
L 1791 0 
L 588 0 
L 588 4666 
z
" transform="scale(0.015625)"/>
       <path id="DejaVuSans-Bold-43" d="M 4288 256 
Q 3956 84 3597 -3 
Q 3238 -91 2847 -91 
Q 1681 -91 1000 561 
Q 319 1213 319 2328 
Q 319 3447 1000 4098 
Q 1681 4750 2847 4750 
Q 3238 4750 3597 4662 
Q 3956 4575 4288 4403 
L 4288 3438 
Q 3953 3666 3628 3772 
Q 3303 3878 2944 3878 
Q 2300 3878 1931 3465 
Q 1563 3053 1563 2328 
Q 1563 1606 1931 1193 
Q 2300 781 2944 781 
Q 3303 781 3628 887 
Q 3953 994 4288 1222 
L 4288 256 
z
" transform="scale(0.015625)"/>
       <path id="DejaVuSans-Bold-54" d="M 31 4666 
L 4331 4666 
L 4331 3756 
L 2784 3756 
L 2784 0 
L 1581 0 
L 1581 3756 
L 31 3756 
L 31 4666 
z
" transform="scale(0.015625)"/>
       <path id="DejaVuSans-Bold-5a" d="M 359 4666 
L 4281 4666 
L 4281 3938 
L 1778 909 
L 4353 909 
L 4353 0 
L 288 0 
L 288 728 
L 2791 3756 
L 359 3756 
L 359 4666 
z
" transform="scale(0.015625)"/>
       <path id="DejaVuSans-Bold-75" d="M 500 1363 
L 500 3500 
L 1625 3500 
L 1625 3150 
Q 1625 2866 1622 2436 
Q 1619 2006 1619 1863 
Q 1619 1441 1641 1255 
Q 1663 1069 1716 984 
Q 1784 875 1895 815 
Q 2006 756 2150 756 
Q 2500 756 2700 1025 
Q 2900 1294 2900 1772 
L 2900 3500 
L 4019 3500 
L 4019 0 
L 2900 0 
L 2900 506 
Q 2647 200 2364 54 
Q 2081 -91 1741 -91 
Q 1134 -91 817 281 
Q 500 653 500 1363 
z
" transform="scale(0.015625)"/>
       <path id="DejaVuSans-Bold-6e" d="M 4056 2131 
L 4056 0 
L 2931 0 
L 2931 347 
L 2931 1631 
Q 2931 2084 2911 2256 
Q 2891 2428 2841 2509 
Q 2775 2619 2662 2680 
Q 2550 2741 2406 2741 
Q 2056 2741 1856 2470 
Q 1656 2200 1656 1722 
L 1656 0 
L 538 0 
L 538 3500 
L 1656 3500 
L 1656 2988 
Q 1909 3294 2193 3439 
Q 2478 3584 2822 3584 
Q 3428 3584 3742 3212 
Q 4056 2841 4056 2131 
z
" transform="scale(0.015625)"/>
      </defs>
      <use xlink:href="#DejaVuSans-Bold-48"/>
      <use xlink:href="#DejaVuSans-Bold-43" x="83.691406"/>
      <use xlink:href="#DejaVuSans-Bold-54" x="157.080078"/>
      <use xlink:href="#DejaVuSans-Bold-5a" x="225.292969"/>
      <use xlink:href="#DejaVuSans-Bold-20" x="297.802734"/>
      <use xlink:href="#DejaVuSans-Bold-75" x="332.617188"/>
      <use xlink:href="#DejaVuSans-Bold-72" x="403.808594"/>
      <use xlink:href="#DejaVuSans-Bold-69" x="453.125"/>
      <use xlink:href="#DejaVuSans-Bold-6e" x="487.402344"/>
      <use xlink:href="#DejaVuSans-Bold-65" x="558.59375"/>
     </g>
     <!--  [µmol] -->
     <g transform="translate(41.03325 218.428594) rotate(-90) scale(0.18 -0.18)">
      <defs>
       <path id="DejaVuSans-Bold-b5" d="M 544 -1338 
L 544 3500 
L 1672 3500 
L 1672 1466 
Q 1672 1103 1828 926 
Q 1984 750 2303 750 
Q 2625 750 2781 926 
Q 2938 1103 2938 1466 
L 2938 3500 
L 4063 3500 
L 4063 1159 
Q 4063 938 4114 850 
Q 4166 763 4288 763 
Q 4344 763 4395 778 
Q 4447 794 4506 831 
L 4506 50 
Q 4341 -22 4195 -56 
Q 4050 -91 3909 -91 
Q 3631 -91 3454 26 
Q 3278 144 3169 403 
Q 3022 156 2811 32 
Q 2600 -91 2322 -91 
Q 2091 -91 1928 -17 
Q 1766 56 1672 206 
L 1672 -1338 
L 544 -1338 
z
" transform="scale(0.015625)"/>
       <path id="DejaVuSans-Bold-6f" d="M 2203 2784 
Q 1831 2784 1636 2517 
Q 1441 2250 1441 1747 
Q 1441 1244 1636 976 
Q 1831 709 2203 709 
Q 2569 709 2762 976 
Q 2956 1244 2956 1747 
Q 2956 2250 2762 2517 
Q 2569 2784 2203 2784 
z
M 2203 3584 
Q 3106 3584 3614 3096 
Q 4122 2609 4122 1747 
Q 4122 884 3614 396 
Q 3106 -91 2203 -91 
Q 1297 -91 786 396 
Q 275 884 275 1747 
Q 275 2609 786 3096 
Q 1297 3584 2203 3584 
z
" transform="scale(0.015625)"/>
       <path id="DejaVuSans-Bold-6c" d="M 538 4863 
L 1656 4863 
L 1656 0 
L 538 0 
L 538 4863 
z
" transform="scale(0.015625)"/>
      </defs>
      <use xlink:href="#DejaVuSans-Bold-20"/>
      <use xlink:href="#DejaVuSans-Bold-5b" x="34.814453"/>
      <use xlink:href="#DejaVuSans-Bold-b5" x="80.517578"/>
      <use xlink:href="#DejaVuSans-Bold-6d" x="154.101562"/>
      <use xlink:href="#DejaVuSans-Bold-6f" x="258.300781"/>
      <use xlink:href="#DejaVuSans-Bold-6c" x="327.001953"/>
      <use xlink:href="#DejaVuSans-Bold-5d" x="361.279297"/>
     </g>
    </g>
   </g>
   <g id="line2d_15">
    <path d="M 97.896591 307.8 
L 99.512866 307.721115 
L 101.129142 307.369189 
L 102.745418 306.768656 
L 104.900453 305.723899 
L 109.210522 303.314342 
L 115.136866 300.049902 
L 119.985694 297.64391 
L 124.834522 295.496999 
L 129.683349 293.588646 
L 135.070935 291.716524 
L 140.458522 290.073204 
L 146.384866 288.494284 
L 152.84997 287.00619 
L 159.853832 285.627615 
L 167.396453 284.369888 
L 176.016591 283.169175 
L 185.175487 282.116996 
L 195.950659 281.111836 
L 208.342108 280.194883 
L 222.349832 279.38719 
L 239.051349 278.651727 
L 259.524177 277.981816 
L 285.384591 277.372119 
L 318.248866 276.830705 
L 361.888315 276.347081 
L 367.275901 276.3 
L 367.275901 276.3 
" clip-path="url(#p5780798d6b)" style="fill: none; stroke: #000000; stroke-width: 2; stroke-linecap: square"/>
   </g>
   <g id="line2d_16">
    <path d="M 97.896591 307.8 
L 108.671763 303.725246 
L 119.446935 298.446139 
L 130.222108 294.480599 
L 140.99728 293.144762 
L 162.547625 290.47223 
L 227.198659 286.836902 
L 259.524177 285.456522 
L 291.849694 283.638002 
L 356.500728 281.31367 
" clip-path="url(#p5780798d6b)" style="fill: none; stroke-dasharray: 3.7,1.6; stroke-dashoffset: 0; stroke: #000000"/>
    <defs>
     <path id="m44ea434e4f" d="M -3 3 
L 3 3 
L 3 -3 
L -3 -3 
z
" style="stroke: #000000; stroke-linejoin: miter"/>
    </defs>
    <g clip-path="url(#p5780798d6b)">
     <use xlink:href="#m44ea434e4f" x="97.896591" y="307.8" style="stroke: #000000; stroke-linejoin: miter"/>
     <use xlink:href="#m44ea434e4f" x="108.671763" y="303.725246" style="stroke: #000000; stroke-linejoin: miter"/>
     <use xlink:href="#m44ea434e4f" x="119.446935" y="298.446139" style="stroke: #000000; stroke-linejoin: miter"/>
     <use xlink:href="#m44ea434e4f" x="130.222108" y="294.480599" style="stroke: #000000; stroke-linejoin: miter"/>
     <use xlink:href="#m44ea434e4f" x="140.99728" y="293.144762" style="stroke: #000000; stroke-linejoin: miter"/>
     <use xlink:href="#m44ea434e4f" x="162.547625" y="290.47223" style="stroke: #000000; stroke-linejoin: miter"/>
     <use xlink:href="#m44ea434e4f" x="227.198659" y="286.836902" style="stroke: #000000; stroke-linejoin: miter"/>
     <use xlink:href="#m44ea434e4f" x="259.524177" y="285.456522" style="stroke: #000000; stroke-linejoin: miter"/>
     <use xlink:href="#m44ea434e4f" x="291.849694" y="283.638002" style="stroke: #000000; stroke-linejoin: miter"/>
     <use xlink:href="#m44ea434e4f" x="356.500728" y="281.31367" style="stroke: #000000; stroke-linejoin: miter"/>
    </g>
   </g>
   <g id="line2d_17">
    <path d="M 97.896591 307.8 
L 108.671763 301.972682 
L 119.446935 298.007998 
L 130.222108 294.480599 
L 140.99728 292.706621 
L 162.547625 290.034946 
L 227.198659 285.523336 
L 259.524177 284.58024 
L 291.849694 281.885438 
L 356.500728 280.876386 
" clip-path="url(#p5780798d6b)" style="fill: none; stroke-dasharray: 3.7,1.6; stroke-dashoffset: 0; stroke: #000000"/>
    <g clip-path="url(#p5780798d6b)">
     <use xlink:href="#m44ea434e4f" x="97.896591" y="307.8" style="stroke: #000000; stroke-linejoin: miter"/>
     <use xlink:href="#m44ea434e4f" x="108.671763" y="301.972682" style="stroke: #000000; stroke-linejoin: miter"/>
     <use xlink:href="#m44ea434e4f" x="119.446935" y="298.007998" style="stroke: #000000; stroke-linejoin: miter"/>
     <use xlink:href="#m44ea434e4f" x="130.222108" y="294.480599" style="stroke: #000000; stroke-linejoin: miter"/>
     <use xlink:href="#m44ea434e4f" x="140.99728" y="292.706621" style="stroke: #000000; stroke-linejoin: miter"/>
     <use xlink:href="#m44ea434e4f" x="162.547625" y="290.034946" style="stroke: #000000; stroke-linejoin: miter"/>
     <use xlink:href="#m44ea434e4f" x="227.198659" y="285.523336" style="stroke: #000000; stroke-linejoin: miter"/>
     <use xlink:href="#m44ea434e4f" x="259.524177" y="284.58024" style="stroke: #000000; stroke-linejoin: miter"/>
     <use xlink:href="#m44ea434e4f" x="291.849694" y="281.885438" style="stroke: #000000; stroke-linejoin: miter"/>
     <use xlink:href="#m44ea434e4f" x="356.500728" y="280.876386" style="stroke: #000000; stroke-linejoin: miter"/>
    </g>
   </g>
   <g id="line2d_18">
    <path d="M 97.896591 307.8 
L 98.974108 307.746816 
L 100.051625 307.471869 
L 101.129142 306.938378 
L 102.206659 306.182518 
L 103.822935 304.743558 
L 105.97797 302.48502 
L 116.753142 290.637231 
L 120.524453 286.985654 
L 124.295763 283.646597 
L 128.067073 280.599714 
L 131.838384 277.820523 
L 136.148453 274.94114 
L 140.458522 272.346407 
L 144.768591 270.006157 
L 149.617418 267.64408 
L 154.466246 265.53597 
L 159.853832 263.455229 
L 165.241418 261.615369 
L 171.167763 259.832842 
L 177.632866 258.136359 
L 184.636728 256.546769 
L 192.179349 255.07738 
L 200.260728 253.734717 
L 209.419625 252.450087 
L 219.656039 251.253901 
L 230.96997 250.163519 
L 243.900177 249.147025 
L 258.985418 248.193897 
L 276.764453 247.305458 
L 297.776039 246.487576 
L 323.097694 245.732231 
L 353.806935 245.04431 
L 367.275901 244.8 
L 367.275901 244.8 
" clip-path="url(#p5780798d6b)" style="fill: none; stroke: #1f77b4; stroke-width: 2; stroke-linecap: square"/>
   </g>
   <g id="line2d_19">
    <path d="M 97.896591 307.8 
L 108.671763 299.342979 
L 119.446935 290.559602 
L 130.222108 283.527931 
L 140.99728 279.125107 
L 162.547625 275.576293 
L 227.198659 268.873978 
L 259.524177 266.617316 
L 291.849694 263.922513 
L 356.500728 260.722756 
" clip-path="url(#p5780798d6b)" style="fill: none; stroke-dasharray: 3.7,1.6; stroke-dashoffset: 0; stroke: #1f77b4"/>
    <defs>
     <path id="m12dcb5d882" d="M -3 3 
L 3 3 
L 3 -3 
L -3 -3 
z
" style="stroke: #000000; stroke-linejoin: miter"/>
    </defs>
    <g clip-path="url(#p5780798d6b)">
     <use xlink:href="#m12dcb5d882" x="97.896591" y="307.8" style="fill: #1f77b4; stroke: #000000; stroke-linejoin: miter"/>
     <use xlink:href="#m12dcb5d882" x="108.671763" y="299.342979" style="fill: #1f77b4; stroke: #000000; stroke-linejoin: miter"/>
     <use xlink:href="#m12dcb5d882" x="119.446935" y="290.559602" style="fill: #1f77b4; stroke: #000000; stroke-linejoin: miter"/>
     <use xlink:href="#m12dcb5d882" x="130.222108" y="283.527931" style="fill: #1f77b4; stroke: #000000; stroke-linejoin: miter"/>
     <use xlink:href="#m12dcb5d882" x="140.99728" y="279.125107" style="fill: #1f77b4; stroke: #000000; stroke-linejoin: miter"/>
     <use xlink:href="#m12dcb5d882" x="162.547625" y="275.576293" style="fill: #1f77b4; stroke: #000000; stroke-linejoin: miter"/>
     <use xlink:href="#m12dcb5d882" x="227.198659" y="268.873978" style="fill: #1f77b4; stroke: #000000; stroke-linejoin: miter"/>
     <use xlink:href="#m12dcb5d882" x="259.524177" y="266.617316" style="fill: #1f77b4; stroke: #000000; stroke-linejoin: miter"/>
     <use xlink:href="#m12dcb5d882" x="291.849694" y="263.922513" style="fill: #1f77b4; stroke: #000000; stroke-linejoin: miter"/>
     <use xlink:href="#m12dcb5d882" x="356.500728" y="260.722756" style="fill: #1f77b4; stroke: #000000; stroke-linejoin: miter"/>
    </g>
   </g>
   <g id="line2d_20">
    <path d="M 97.896591 307.8 
L 108.671763 298.904838 
L 119.446935 287.054474 
L 130.222108 280.460944 
L 140.99728 277.371686 
L 162.547625 273.385588 
L 227.198659 267.121414 
L 259.524177 265.302037 
L 291.849694 263.484372 
L 356.500728 260.284615 
" clip-path="url(#p5780798d6b)" style="fill: none; stroke-dasharray: 3.7,1.6; stroke-dashoffset: 0; stroke: #1f77b4"/>
    <g clip-path="url(#p5780798d6b)">
     <use xlink:href="#m12dcb5d882" x="97.896591" y="307.8" style="fill: #1f77b4; stroke: #000000; stroke-linejoin: miter"/>
     <use xlink:href="#m12dcb5d882" x="108.671763" y="298.904838" style="fill: #1f77b4; stroke: #000000; stroke-linejoin: miter"/>
     <use xlink:href="#m12dcb5d882" x="119.446935" y="287.054474" style="fill: #1f77b4; stroke: #000000; stroke-linejoin: miter"/>
     <use xlink:href="#m12dcb5d882" x="130.222108" y="280.460944" style="fill: #1f77b4; stroke: #000000; stroke-linejoin: miter"/>
     <use xlink:href="#m12dcb5d882" x="140.99728" y="277.371686" style="fill: #1f77b4; stroke: #000000; stroke-linejoin: miter"/>
     <use xlink:href="#m12dcb5d882" x="162.547625" y="273.385588" style="fill: #1f77b4; stroke: #000000; stroke-linejoin: miter"/>
     <use xlink:href="#m12dcb5d882" x="227.198659" y="267.121414" style="fill: #1f77b4; stroke: #000000; stroke-linejoin: miter"/>
     <use xlink:href="#m12dcb5d882" x="259.524177" y="265.302037" style="fill: #1f77b4; stroke: #000000; stroke-linejoin: miter"/>
     <use xlink:href="#m12dcb5d882" x="291.849694" y="263.484372" style="fill: #1f77b4; stroke: #000000; stroke-linejoin: miter"/>
     <use xlink:href="#m12dcb5d882" x="356.500728" y="260.284615" style="fill: #1f77b4; stroke: #000000; stroke-linejoin: miter"/>
    </g>
   </g>
   <g id="line2d_21">
    <path d="M 97.896591 307.8 
L 98.974108 307.693632 
L 99.512866 307.48446 
L 100.590384 306.671842 
L 101.667901 305.370135 
L 102.745418 303.674622 
L 104.361694 300.612065 
L 106.516728 295.974243 
L 115.136866 276.799607 
L 118.369418 270.266304 
L 121.60197 264.200957 
L 124.834522 258.587995 
L 128.067073 253.399427 
L 131.299625 248.604185 
L 134.532177 244.17165 
L 137.764728 240.0729 
L 141.536039 235.677187 
L 145.307349 231.660284 
L 149.078659 227.986813 
L 152.84997 224.624762 
L 156.62128 221.545184 
L 160.931349 218.338088 
L 165.241418 215.430737 
L 169.551487 212.791848 
L 173.861556 210.393527 
L 178.710384 207.952111 
L 183.559211 205.752386 
L 188.946797 203.558268 
L 194.334384 201.595472 
L 200.260728 199.669434 
L 206.725832 197.809433 
L 213.729694 196.037601 
L 221.272315 194.369166 
L 229.353694 192.81309 
L 238.512591 191.289582 
L 248.210246 189.904383 
L 258.985418 188.587794 
L 271.376866 187.304914 
L 285.384591 186.088477 
L 301.008591 184.95797 
L 319.326384 183.864274 
L 340.33797 182.842044 
L 364.582108 181.893024 
L 367.275901 181.8 
L 367.275901 181.8 
" clip-path="url(#p5780798d6b)" style="fill: none; stroke: #2ca02c; stroke-width: 2; stroke-linecap: square"/>
   </g>
   <g id="line2d_22">
    <path d="M 97.896591 307.8 
L 108.671763 293.209005 
L 119.446935 268.652552 
L 130.222108 254.610625 
L 140.99728 246.702673 
L 162.547625 239.21059 
L 227.198659 229.441288 
L 259.524177 225.870204 
L 291.849694 223.175401 
L 356.500728 219.975644 
" clip-path="url(#p5780798d6b)" style="fill: none; stroke-dasharray: 3.7,1.6; stroke-dashoffset: 0; stroke: #2ca02c"/>
    <defs>
     <path id="m6986533a14" d="M -3 3 
L 3 3 
L 3 -3 
L -3 -3 
z
" style="stroke: #000000; stroke-linejoin: miter"/>
    </defs>
    <g clip-path="url(#p5780798d6b)">
     <use xlink:href="#m6986533a14" x="97.896591" y="307.8" style="fill: #2ca02c; stroke: #000000; stroke-linejoin: miter"/>
     <use xlink:href="#m6986533a14" x="108.671763" y="293.209005" style="fill: #2ca02c; stroke: #000000; stroke-linejoin: miter"/>
     <use xlink:href="#m6986533a14" x="119.446935" y="268.652552" style="fill: #2ca02c; stroke: #000000; stroke-linejoin: miter"/>
     <use xlink:href="#m6986533a14" x="130.222108" y="254.610625" style="fill: #2ca02c; stroke: #000000; stroke-linejoin: miter"/>
     <use xlink:href="#m6986533a14" x="140.99728" y="246.702673" style="fill: #2ca02c; stroke: #000000; stroke-linejoin: miter"/>
     <use xlink:href="#m6986533a14" x="162.547625" y="239.21059" style="fill: #2ca02c; stroke: #000000; stroke-linejoin: miter"/>
     <use xlink:href="#m6986533a14" x="227.198659" y="229.441288" style="fill: #2ca02c; stroke: #000000; stroke-linejoin: miter"/>
     <use xlink:href="#m6986533a14" x="259.524177" y="225.870204" style="fill: #2ca02c; stroke: #000000; stroke-linejoin: miter"/>
     <use xlink:href="#m6986533a14" x="291.849694" y="223.175401" style="fill: #2ca02c; stroke: #000000; stroke-linejoin: miter"/>
     <use xlink:href="#m6986533a14" x="356.500728" y="219.975644" style="fill: #2ca02c; stroke: #000000; stroke-linejoin: miter"/>
    </g>
   </g>
   <g id="line2d_23">
    <path d="M 97.896591 307.8 
L 108.671763 287.513172 
L 119.446935 263.395716 
L 130.222108 251.982636 
L 140.99728 244.511968 
L 162.547625 237.020742 
L 227.198659 225.937017 
L 259.524177 221.48965 
L 291.849694 218.793991 
L 356.500728 215.156093 
" clip-path="url(#p5780798d6b)" style="fill: none; stroke-dasharray: 3.7,1.6; stroke-dashoffset: 0; stroke: #2ca02c"/>
    <g clip-path="url(#p5780798d6b)">
     <use xlink:href="#m6986533a14" x="97.896591" y="307.8" style="fill: #2ca02c; stroke: #000000; stroke-linejoin: miter"/>
     <use xlink:href="#m6986533a14" x="108.671763" y="287.513172" style="fill: #2ca02c; stroke: #000000; stroke-linejoin: miter"/>
     <use xlink:href="#m6986533a14" x="119.446935" y="263.395716" style="fill: #2ca02c; stroke: #000000; stroke-linejoin: miter"/>
     <use xlink:href="#m6986533a14" x="130.222108" y="251.982636" style="fill: #2ca02c; stroke: #000000; stroke-linejoin: miter"/>
     <use xlink:href="#m6986533a14" x="140.99728" y="244.511968" style="fill: #2ca02c; stroke: #000000; stroke-linejoin: miter"/>
     <use xlink:href="#m6986533a14" x="162.547625" y="237.020742" style="fill: #2ca02c; stroke: #000000; stroke-linejoin: miter"/>
     <use xlink:href="#m6986533a14" x="227.198659" y="225.937017" style="fill: #2ca02c; stroke: #000000; stroke-linejoin: miter"/>
     <use xlink:href="#m6986533a14" x="259.524177" y="221.48965" style="fill: #2ca02c; stroke: #000000; stroke-linejoin: miter"/>
     <use xlink:href="#m6986533a14" x="291.849694" y="218.793991" style="fill: #2ca02c; stroke: #000000; stroke-linejoin: miter"/>
     <use xlink:href="#m6986533a14" x="356.500728" y="215.156093" style="fill: #2ca02c; stroke: #000000; stroke-linejoin: miter"/>
    </g>
   </g>
   <g id="line2d_24">
    <path d="M 97.896591 307.8 
L 98.435349 307.770632 
L 98.974108 307.587264 
L 99.512866 307.168919 
L 100.051625 306.487476 
L 100.590384 305.543685 
L 101.667901 302.940269 
L 102.745418 299.549245 
L 104.361694 293.42413 
L 106.516728 284.148486 
L 115.136866 245.799214 
L 118.369418 232.732607 
L 121.60197 220.601914 
L 124.834522 209.37599 
L 128.067073 198.998854 
L 131.299625 189.408371 
L 134.532177 180.5433 
L 137.764728 172.3458 
L 140.99728 164.762167 
L 144.229832 157.74289 
L 147.462384 151.242463 
L 150.694935 145.219111 
L 153.927487 139.634506 
L 157.160039 134.453488 
L 160.392591 129.643803 
L 164.163901 124.462491 
L 167.935211 119.703622 
L 171.706522 115.328475 
L 175.477832 111.302027 
L 179.249142 107.592594 
L 183.020453 104.171506 
L 187.330522 100.581601 
L 191.640591 97.299688 
L 195.950659 94.294692 
L 200.260728 91.538869 
L 205.109556 88.705663 
L 209.958384 86.125229 
L 215.34597 83.521103 
L 220.733556 81.161922 
L 226.659901 78.815444 
L 233.125004 76.515116 
L 239.590108 74.449902 
L 246.59397 72.441827 
L 254.136591 70.50869 
L 262.21797 68.662984 
L 271.376866 66.809829 
L 281.074522 65.079711 
L 291.849694 63.390261 
L 303.702384 61.76598 
L 316.632591 60.223771 
L 331.179073 58.722742 
L 346.803073 57.335247 
L 364.582108 55.986047 
L 367.275901 55.8 
L 367.275901 55.8 
" clip-path="url(#p5780798d6b)" style="fill: none; stroke: #d62728; stroke-width: 2; stroke-linecap: square"/>
   </g>
   <g id="line2d_25">
    <path d="M 97.896591 307.8 
L 108.671763 269.550248 
L 119.446935 218.26805 
L 130.222108 191.519179 
L 140.99728 178.791675 
L 162.547625 161.22235 
L 227.198659 137.432536 
L 259.524177 130.356323 
L 291.849694 125.032674 
L 356.500728 119.204071 
" clip-path="url(#p5780798d6b)" style="fill: none; stroke-dasharray: 3.7,1.6; stroke-dashoffset: 0; stroke: #d62728"/>
    <defs>
     <path id="m856c952a4a" d="M -3 3 
L 3 3 
L 3 -3 
L -3 -3 
z
" style="stroke: #000000; stroke-linejoin: miter"/>
    </defs>
    <g clip-path="url(#p5780798d6b)">
     <use xlink:href="#m856c952a4a" x="97.896591" y="307.8" style="fill: #d62728; stroke: #000000; stroke-linejoin: miter"/>
     <use xlink:href="#m856c952a4a" x="108.671763" y="269.550248" style="fill: #d62728; stroke: #000000; stroke-linejoin: miter"/>
     <use xlink:href="#m856c952a4a" x="119.446935" y="218.26805" style="fill: #d62728; stroke: #000000; stroke-linejoin: miter"/>
     <use xlink:href="#m856c952a4a" x="130.222108" y="191.519179" style="fill: #d62728; stroke: #000000; stroke-linejoin: miter"/>
     <use xlink:href="#m856c952a4a" x="140.99728" y="178.791675" style="fill: #d62728; stroke: #000000; stroke-linejoin: miter"/>
     <use xlink:href="#m856c952a4a" x="162.547625" y="161.22235" style="fill: #d62728; stroke: #000000; stroke-linejoin: miter"/>
     <use xlink:href="#m856c952a4a" x="227.198659" y="137.432536" style="fill: #d62728; stroke: #000000; stroke-linejoin: miter"/>
     <use xlink:href="#m856c952a4a" x="259.524177" y="130.356323" style="fill: #d62728; stroke: #000000; stroke-linejoin: miter"/>
     <use xlink:href="#m856c952a4a" x="291.849694" y="125.032674" style="fill: #d62728; stroke: #000000; stroke-linejoin: miter"/>
     <use xlink:href="#m856c952a4a" x="356.500728" y="119.204071" style="fill: #d62728; stroke: #000000; stroke-linejoin: miter"/>
    </g>
   </g>
   <g id="line2d_26">
    <path d="M 97.896591 307.8 
L 108.671763 261.66371 
L 119.446935 215.200207 
L 130.222108 185.823346 
L 140.99728 169.152573 
L 162.547625 148.516261 
L 227.198659 128.669716 
L 259.524177 119.840939 
L 291.849694 115.393572 
L 356.500728 108.688688 
" clip-path="url(#p5780798d6b)" style="fill: none; stroke-dasharray: 3.7,1.6; stroke-dashoffset: 0; stroke: #d62728"/>
    <g clip-path="url(#p5780798d6b)">
     <use xlink:href="#m856c952a4a" x="97.896591" y="307.8" style="fill: #d62728; stroke: #000000; stroke-linejoin: miter"/>
     <use xlink:href="#m856c952a4a" x="108.671763" y="261.66371" style="fill: #d62728; stroke: #000000; stroke-linejoin: miter"/>
     <use xlink:href="#m856c952a4a" x="119.446935" y="215.200207" style="fill: #d62728; stroke: #000000; stroke-linejoin: miter"/>
     <use xlink:href="#m856c952a4a" x="130.222108" y="185.823346" style="fill: #d62728; stroke: #000000; stroke-linejoin: miter"/>
     <use xlink:href="#m856c952a4a" x="140.99728" y="169.152573" style="fill: #d62728; stroke: #000000; stroke-linejoin: miter"/>
     <use xlink:href="#m856c952a4a" x="162.547625" y="148.516261" style="fill: #d62728; stroke: #000000; stroke-linejoin: miter"/>
     <use xlink:href="#m856c952a4a" x="227.198659" y="128.669716" style="fill: #d62728; stroke: #000000; stroke-linejoin: miter"/>
     <use xlink:href="#m856c952a4a" x="259.524177" y="119.840939" style="fill: #d62728; stroke: #000000; stroke-linejoin: miter"/>
     <use xlink:href="#m856c952a4a" x="291.849694" y="115.393572" style="fill: #d62728; stroke: #000000; stroke-linejoin: miter"/>
     <use xlink:href="#m856c952a4a" x="356.500728" y="108.688688" style="fill: #d62728; stroke: #000000; stroke-linejoin: miter"/>
    </g>
   </g>
   <g id="patch_3">
    <path d="M 84.427625 320.4 
L 84.427625 43.2 
" style="fill: none; stroke: #000000; stroke-width: 0.8; stroke-linejoin: miter; stroke-linecap: square"/>
   </g>
   <g id="patch_4">
    <path d="M 475.027625 320.4 
L 475.027625 43.2 
" style="fill: none; stroke: #000000; stroke-width: 0.8; stroke-linejoin: miter; stroke-linecap: square"/>
   </g>
   <g id="patch_5">
    <path d="M 84.427625 320.4 
L 475.027625 320.4 
" style="fill: none; stroke: #000000; stroke-width: 0.8; stroke-linejoin: miter; stroke-linecap: square"/>
   </g>
   <g id="patch_6">
    <path d="M 84.427625 43.2 
L 475.027625 43.2 
" style="fill: none; stroke: #000000; stroke-width: 0.8; stroke-linejoin: miter; stroke-linecap: square"/>
   </g>
   <g id="legend_1">
    <g id="patch_7">
     <path d="M 339.315125 227.3375 
L 468.027625 227.3375 
Q 470.027625 227.3375 470.027625 225.3375 
L 470.027625 50.2 
Q 470.027625 48.2 468.027625 48.2 
L 339.315125 48.2 
Q 337.315125 48.2 337.315125 50.2 
L 337.315125 225.3375 
Q 337.315125 227.3375 339.315125 227.3375 
z
" style="fill: #ffffff; opacity: 0.8; stroke: #cccccc; stroke-linejoin: miter"/>
    </g>
    <g id="line2d_27">
     <path d="M 341.315125 56.298437 
L 361.315125 56.298437 
" style="fill: none; stroke: #000000; stroke-width: 2; stroke-linecap: square"/>
    </g>
    <g id="line2d_28"/>
    <g id="text_17">
     <!-- Sim 25 -->
     <g transform="translate(369.315125 59.798437) scale(0.1 -0.1)">
      <defs>
       <path id="DejaVuSans-53" d="M 3425 4513 
L 3425 3897 
Q 3066 4069 2747 4153 
Q 2428 4238 2131 4238 
Q 1616 4238 1336 4038 
Q 1056 3838 1056 3469 
Q 1056 3159 1242 3001 
Q 1428 2844 1947 2747 
L 2328 2669 
Q 3034 2534 3370 2195 
Q 3706 1856 3706 1288 
Q 3706 609 3251 259 
Q 2797 -91 1919 -91 
Q 1588 -91 1214 -16 
Q 841 59 441 206 
L 441 856 
Q 825 641 1194 531 
Q 1563 422 1919 422 
Q 2459 422 2753 634 
Q 3047 847 3047 1241 
Q 3047 1584 2836 1778 
Q 2625 1972 2144 2069 
L 1759 2144 
Q 1053 2284 737 2584 
Q 422 2884 422 3419 
Q 422 4038 858 4394 
Q 1294 4750 2059 4750 
Q 2388 4750 2728 4690 
Q 3069 4631 3425 4513 
z
" transform="scale(0.015625)"/>
       <path id="DejaVuSans-69" d="M 603 3500 
L 1178 3500 
L 1178 0 
L 603 0 
L 603 3500 
z
M 603 4863 
L 1178 4863 
L 1178 4134 
L 603 4134 
L 603 4863 
z
" transform="scale(0.015625)"/>
       <path id="DejaVuSans-6d" d="M 3328 2828 
Q 3544 3216 3844 3400 
Q 4144 3584 4550 3584 
Q 5097 3584 5394 3201 
Q 5691 2819 5691 2113 
L 5691 0 
L 5113 0 
L 5113 2094 
Q 5113 2597 4934 2840 
Q 4756 3084 4391 3084 
Q 3944 3084 3684 2787 
Q 3425 2491 3425 1978 
L 3425 0 
L 2847 0 
L 2847 2094 
Q 2847 2600 2669 2842 
Q 2491 3084 2119 3084 
Q 1678 3084 1418 2786 
Q 1159 2488 1159 1978 
L 1159 0 
L 581 0 
L 581 3500 
L 1159 3500 
L 1159 2956 
Q 1356 3278 1631 3431 
Q 1906 3584 2284 3584 
Q 2666 3584 2933 3390 
Q 3200 3197 3328 2828 
z
" transform="scale(0.015625)"/>
       <path id="DejaVuSans-20" transform="scale(0.015625)"/>
      </defs>
      <use xlink:href="#DejaVuSans-53"/>
      <use xlink:href="#DejaVuSans-69" x="63.476562"/>
      <use xlink:href="#DejaVuSans-6d" x="91.259766"/>
      <use xlink:href="#DejaVuSans-20" x="188.671875"/>
      <use xlink:href="#DejaVuSans-32" x="220.458984"/>
      <use xlink:href="#DejaVuSans-35" x="284.082031"/>
     </g>
    </g>
    <g id="line2d_29">
     <path d="M 341.315125 70.976562 
L 361.315125 70.976562 
" style="fill: none; stroke-dasharray: 3.7,1.6; stroke-dashoffset: 0; stroke: #000000"/>
    </g>
    <g id="line2d_30">
     <g>
      <use xlink:href="#m44ea434e4f" x="351.315125" y="70.976562" style="stroke: #000000; stroke-linejoin: miter"/>
     </g>
    </g>
    <g id="text_18">
     <!-- 25 mg tab (n=12) -->
     <g transform="translate(369.315125 74.476562) scale(0.1 -0.1)">
      <defs>
       <path id="DejaVuSans-67" d="M 2906 1791 
Q 2906 2416 2648 2759 
Q 2391 3103 1925 3103 
Q 1463 3103 1205 2759 
Q 947 2416 947 1791 
Q 947 1169 1205 825 
Q 1463 481 1925 481 
Q 2391 481 2648 825 
Q 2906 1169 2906 1791 
z
M 3481 434 
Q 3481 -459 3084 -895 
Q 2688 -1331 1869 -1331 
Q 1566 -1331 1297 -1286 
Q 1028 -1241 775 -1147 
L 775 -588 
Q 1028 -725 1275 -790 
Q 1522 -856 1778 -856 
Q 2344 -856 2625 -561 
Q 2906 -266 2906 331 
L 2906 616 
Q 2728 306 2450 153 
Q 2172 0 1784 0 
Q 1141 0 747 490 
Q 353 981 353 1791 
Q 353 2603 747 3093 
Q 1141 3584 1784 3584 
Q 2172 3584 2450 3431 
Q 2728 3278 2906 2969 
L 2906 3500 
L 3481 3500 
L 3481 434 
z
" transform="scale(0.015625)"/>
       <path id="DejaVuSans-74" d="M 1172 4494 
L 1172 3500 
L 2356 3500 
L 2356 3053 
L 1172 3053 
L 1172 1153 
Q 1172 725 1289 603 
Q 1406 481 1766 481 
L 2356 481 
L 2356 0 
L 1766 0 
Q 1100 0 847 248 
Q 594 497 594 1153 
L 594 3053 
L 172 3053 
L 172 3500 
L 594 3500 
L 594 4494 
L 1172 4494 
z
" transform="scale(0.015625)"/>
       <path id="DejaVuSans-61" d="M 2194 1759 
Q 1497 1759 1228 1600 
Q 959 1441 959 1056 
Q 959 750 1161 570 
Q 1363 391 1709 391 
Q 2188 391 2477 730 
Q 2766 1069 2766 1631 
L 2766 1759 
L 2194 1759 
z
M 3341 1997 
L 3341 0 
L 2766 0 
L 2766 531 
Q 2569 213 2275 61 
Q 1981 -91 1556 -91 
Q 1019 -91 701 211 
Q 384 513 384 1019 
Q 384 1609 779 1909 
Q 1175 2209 1959 2209 
L 2766 2209 
L 2766 2266 
Q 2766 2663 2505 2880 
Q 2244 3097 1772 3097 
Q 1472 3097 1187 3025 
Q 903 2953 641 2809 
L 641 3341 
Q 956 3463 1253 3523 
Q 1550 3584 1831 3584 
Q 2591 3584 2966 3190 
Q 3341 2797 3341 1997 
z
" transform="scale(0.015625)"/>
       <path id="DejaVuSans-62" d="M 3116 1747 
Q 3116 2381 2855 2742 
Q 2594 3103 2138 3103 
Q 1681 3103 1420 2742 
Q 1159 2381 1159 1747 
Q 1159 1113 1420 752 
Q 1681 391 2138 391 
Q 2594 391 2855 752 
Q 3116 1113 3116 1747 
z
M 1159 2969 
Q 1341 3281 1617 3432 
Q 1894 3584 2278 3584 
Q 2916 3584 3314 3078 
Q 3713 2572 3713 1747 
Q 3713 922 3314 415 
Q 2916 -91 2278 -91 
Q 1894 -91 1617 61 
Q 1341 213 1159 525 
L 1159 0 
L 581 0 
L 581 4863 
L 1159 4863 
L 1159 2969 
z
" transform="scale(0.015625)"/>
       <path id="DejaVuSans-28" d="M 1984 4856 
Q 1566 4138 1362 3434 
Q 1159 2731 1159 2009 
Q 1159 1288 1364 580 
Q 1569 -128 1984 -844 
L 1484 -844 
Q 1016 -109 783 600 
Q 550 1309 550 2009 
Q 550 2706 781 3412 
Q 1013 4119 1484 4856 
L 1984 4856 
z
" transform="scale(0.015625)"/>
       <path id="DejaVuSans-6e" d="M 3513 2113 
L 3513 0 
L 2938 0 
L 2938 2094 
Q 2938 2591 2744 2837 
Q 2550 3084 2163 3084 
Q 1697 3084 1428 2787 
Q 1159 2491 1159 1978 
L 1159 0 
L 581 0 
L 581 3500 
L 1159 3500 
L 1159 2956 
Q 1366 3272 1645 3428 
Q 1925 3584 2291 3584 
Q 2894 3584 3203 3211 
Q 3513 2838 3513 2113 
z
" transform="scale(0.015625)"/>
       <path id="DejaVuSans-3d" d="M 678 2906 
L 4684 2906 
L 4684 2381 
L 678 2381 
L 678 2906 
z
M 678 1631 
L 4684 1631 
L 4684 1100 
L 678 1100 
L 678 1631 
z
" transform="scale(0.015625)"/>
       <path id="DejaVuSans-29" d="M 513 4856 
L 1013 4856 
Q 1481 4119 1714 3412 
Q 1947 2706 1947 2009 
Q 1947 1309 1714 600 
Q 1481 -109 1013 -844 
L 513 -844 
Q 928 -128 1133 580 
Q 1338 1288 1338 2009 
Q 1338 2731 1133 3434 
Q 928 4138 513 4856 
z
" transform="scale(0.015625)"/>
      </defs>
      <use xlink:href="#DejaVuSans-32"/>
      <use xlink:href="#DejaVuSans-35" x="63.623047"/>
      <use xlink:href="#DejaVuSans-20" x="127.246094"/>
      <use xlink:href="#DejaVuSans-6d" x="159.033203"/>
      <use xlink:href="#DejaVuSans-67" x="256.445312"/>
      <use xlink:href="#DejaVuSans-20" x="319.921875"/>
      <use xlink:href="#DejaVuSans-74" x="351.708984"/>
      <use xlink:href="#DejaVuSans-61" x="390.917969"/>
      <use xlink:href="#DejaVuSans-62" x="452.197266"/>
      <use xlink:href="#DejaVuSans-20" x="515.673828"/>
      <use xlink:href="#DejaVuSans-28" x="547.460938"/>
      <use xlink:href="#DejaVuSans-6e" x="586.474609"/>
      <use xlink:href="#DejaVuSans-3d" x="649.853516"/>
      <use xlink:href="#DejaVuSans-31" x="733.642578"/>
      <use xlink:href="#DejaVuSans-32" x="797.265625"/>
      <use xlink:href="#DejaVuSans-29" x="860.888672"/>
     </g>
    </g>
    <g id="line2d_31">
     <path d="M 341.315125 85.654687 
L 361.315125 85.654687 
" style="fill: none; stroke-dasharray: 3.7,1.6; stroke-dashoffset: 0; stroke: #000000"/>
    </g>
    <g id="line2d_32">
     <g>
      <use xlink:href="#m44ea434e4f" x="351.315125" y="85.654687" style="stroke: #000000; stroke-linejoin: miter"/>
     </g>
    </g>
    <g id="text_19">
     <!-- 25 mg sus (n=12) -->
     <g transform="translate(369.315125 89.154687) scale(0.1 -0.1)">
      <defs>
       <path id="DejaVuSans-73" d="M 2834 3397 
L 2834 2853 
Q 2591 2978 2328 3040 
Q 2066 3103 1784 3103 
Q 1356 3103 1142 2972 
Q 928 2841 928 2578 
Q 928 2378 1081 2264 
Q 1234 2150 1697 2047 
L 1894 2003 
Q 2506 1872 2764 1633 
Q 3022 1394 3022 966 
Q 3022 478 2636 193 
Q 2250 -91 1575 -91 
Q 1294 -91 989 -36 
Q 684 19 347 128 
L 347 722 
Q 666 556 975 473 
Q 1284 391 1588 391 
Q 1994 391 2212 530 
Q 2431 669 2431 922 
Q 2431 1156 2273 1281 
Q 2116 1406 1581 1522 
L 1381 1569 
Q 847 1681 609 1914 
Q 372 2147 372 2553 
Q 372 3047 722 3315 
Q 1072 3584 1716 3584 
Q 2034 3584 2315 3537 
Q 2597 3491 2834 3397 
z
" transform="scale(0.015625)"/>
       <path id="DejaVuSans-75" d="M 544 1381 
L 544 3500 
L 1119 3500 
L 1119 1403 
Q 1119 906 1312 657 
Q 1506 409 1894 409 
Q 2359 409 2629 706 
Q 2900 1003 2900 1516 
L 2900 3500 
L 3475 3500 
L 3475 0 
L 2900 0 
L 2900 538 
Q 2691 219 2414 64 
Q 2138 -91 1772 -91 
Q 1169 -91 856 284 
Q 544 659 544 1381 
z
M 1991 3584 
L 1991 3584 
z
" transform="scale(0.015625)"/>
      </defs>
      <use xlink:href="#DejaVuSans-32"/>
      <use xlink:href="#DejaVuSans-35" x="63.623047"/>
      <use xlink:href="#DejaVuSans-20" x="127.246094"/>
      <use xlink:href="#DejaVuSans-6d" x="159.033203"/>
      <use xlink:href="#DejaVuSans-67" x="256.445312"/>
      <use xlink:href="#DejaVuSans-20" x="319.921875"/>
      <use xlink:href="#DejaVuSans-73" x="351.708984"/>
      <use xlink:href="#DejaVuSans-75" x="403.808594"/>
      <use xlink:href="#DejaVuSans-73" x="467.1875"/>
      <use xlink:href="#DejaVuSans-20" x="519.287109"/>
      <use xlink:href="#DejaVuSans-28" x="551.074219"/>
      <use xlink:href="#DejaVuSans-6e" x="590.087891"/>
      <use xlink:href="#DejaVuSans-3d" x="653.466797"/>
      <use xlink:href="#DejaVuSans-31" x="737.255859"/>
      <use xlink:href="#DejaVuSans-32" x="800.878906"/>
      <use xlink:href="#DejaVuSans-29" x="864.501953"/>
     </g>
    </g>
    <g id="line2d_33">
     <path d="M 341.315125 100.332812 
L 361.315125 100.332812 
" style="fill: none; stroke: #1f77b4; stroke-width: 2; stroke-linecap: square"/>
    </g>
    <g id="line2d_34"/>
    <g id="text_20">
     <!-- Sim 50 -->
     <g transform="translate(369.315125 103.832812) scale(0.1 -0.1)">
      <use xlink:href="#DejaVuSans-53"/>
      <use xlink:href="#DejaVuSans-69" x="63.476562"/>
      <use xlink:href="#DejaVuSans-6d" x="91.259766"/>
      <use xlink:href="#DejaVuSans-20" x="188.671875"/>
      <use xlink:href="#DejaVuSans-35" x="220.458984"/>
      <use xlink:href="#DejaVuSans-30" x="284.082031"/>
     </g>
    </g>
    <g id="line2d_35">
     <path d="M 341.315125 115.010937 
L 361.315125 115.010937 
" style="fill: none; stroke-dasharray: 3.7,1.6; stroke-dashoffset: 0; stroke: #1f77b4"/>
    </g>
    <g id="line2d_36">
     <g>
      <use xlink:href="#m12dcb5d882" x="351.315125" y="115.010937" style="fill: #1f77b4; stroke: #000000; stroke-linejoin: miter"/>
     </g>
    </g>
    <g id="text_21">
     <!-- 50 mg tab (n=12) -->
     <g transform="translate(369.315125 118.510937) scale(0.1 -0.1)">
      <use xlink:href="#DejaVuSans-35"/>
      <use xlink:href="#DejaVuSans-30" x="63.623047"/>
      <use xlink:href="#DejaVuSans-20" x="127.246094"/>
      <use xlink:href="#DejaVuSans-6d" x="159.033203"/>
      <use xlink:href="#DejaVuSans-67" x="256.445312"/>
      <use xlink:href="#DejaVuSans-20" x="319.921875"/>
      <use xlink:href="#DejaVuSans-74" x="351.708984"/>
      <use xlink:href="#DejaVuSans-61" x="390.917969"/>
      <use xlink:href="#DejaVuSans-62" x="452.197266"/>
      <use xlink:href="#DejaVuSans-20" x="515.673828"/>
      <use xlink:href="#DejaVuSans-28" x="547.460938"/>
      <use xlink:href="#DejaVuSans-6e" x="586.474609"/>
      <use xlink:href="#DejaVuSans-3d" x="649.853516"/>
      <use xlink:href="#DejaVuSans-31" x="733.642578"/>
      <use xlink:href="#DejaVuSans-32" x="797.265625"/>
      <use xlink:href="#DejaVuSans-29" x="860.888672"/>
     </g>
    </g>
    <g id="line2d_37">
     <path d="M 341.315125 129.689062 
L 361.315125 129.689062 
" style="fill: none; stroke-dasharray: 3.7,1.6; stroke-dashoffset: 0; stroke: #1f77b4"/>
    </g>
    <g id="line2d_38">
     <g>
      <use xlink:href="#m12dcb5d882" x="351.315125" y="129.689062" style="fill: #1f77b4; stroke: #000000; stroke-linejoin: miter"/>
     </g>
    </g>
    <g id="text_22">
     <!-- 50 mg sus (n=12) -->
     <g transform="translate(369.315125 133.189062) scale(0.1 -0.1)">
      <use xlink:href="#DejaVuSans-35"/>
      <use xlink:href="#DejaVuSans-30" x="63.623047"/>
      <use xlink:href="#DejaVuSans-20" x="127.246094"/>
      <use xlink:href="#DejaVuSans-6d" x="159.033203"/>
      <use xlink:href="#DejaVuSans-67" x="256.445312"/>
      <use xlink:href="#DejaVuSans-20" x="319.921875"/>
      <use xlink:href="#DejaVuSans-73" x="351.708984"/>
      <use xlink:href="#DejaVuSans-75" x="403.808594"/>
      <use xlink:href="#DejaVuSans-73" x="467.1875"/>
      <use xlink:href="#DejaVuSans-20" x="519.287109"/>
      <use xlink:href="#DejaVuSans-28" x="551.074219"/>
      <use xlink:href="#DejaVuSans-6e" x="590.087891"/>
      <use xlink:href="#DejaVuSans-3d" x="653.466797"/>
      <use xlink:href="#DejaVuSans-31" x="737.255859"/>
      <use xlink:href="#DejaVuSans-32" x="800.878906"/>
      <use xlink:href="#DejaVuSans-29" x="864.501953"/>
     </g>
    </g>
    <g id="line2d_39">
     <path d="M 341.315125 144.367187 
L 361.315125 144.367187 
" style="fill: none; stroke: #2ca02c; stroke-width: 2; stroke-linecap: square"/>
    </g>
    <g id="line2d_40"/>
    <g id="text_23">
     <!-- Sim 100 -->
     <g transform="translate(369.315125 147.867187) scale(0.1 -0.1)">
      <use xlink:href="#DejaVuSans-53"/>
      <use xlink:href="#DejaVuSans-69" x="63.476562"/>
      <use xlink:href="#DejaVuSans-6d" x="91.259766"/>
      <use xlink:href="#DejaVuSans-20" x="188.671875"/>
      <use xlink:href="#DejaVuSans-31" x="220.458984"/>
      <use xlink:href="#DejaVuSans-30" x="284.082031"/>
      <use xlink:href="#DejaVuSans-30" x="347.705078"/>
     </g>
    </g>
    <g id="line2d_41">
     <path d="M 341.315125 159.045312 
L 361.315125 159.045312 
" style="fill: none; stroke-dasharray: 3.7,1.6; stroke-dashoffset: 0; stroke: #2ca02c"/>
    </g>
    <g id="line2d_42">
     <g>
      <use xlink:href="#m6986533a14" x="351.315125" y="159.045312" style="fill: #2ca02c; stroke: #000000; stroke-linejoin: miter"/>
     </g>
    </g>
    <g id="text_24">
     <!-- 100 mg tab (n=12) -->
     <g transform="translate(369.315125 162.545312) scale(0.1 -0.1)">
      <use xlink:href="#DejaVuSans-31"/>
      <use xlink:href="#DejaVuSans-30" x="63.623047"/>
      <use xlink:href="#DejaVuSans-30" x="127.246094"/>
      <use xlink:href="#DejaVuSans-20" x="190.869141"/>
      <use xlink:href="#DejaVuSans-6d" x="222.65625"/>
      <use xlink:href="#DejaVuSans-67" x="320.068359"/>
      <use xlink:href="#DejaVuSans-20" x="383.544922"/>
      <use xlink:href="#DejaVuSans-74" x="415.332031"/>
      <use xlink:href="#DejaVuSans-61" x="454.541016"/>
      <use xlink:href="#DejaVuSans-62" x="515.820312"/>
      <use xlink:href="#DejaVuSans-20" x="579.296875"/>
      <use xlink:href="#DejaVuSans-28" x="611.083984"/>
      <use xlink:href="#DejaVuSans-6e" x="650.097656"/>
      <use xlink:href="#DejaVuSans-3d" x="713.476562"/>
      <use xlink:href="#DejaVuSans-31" x="797.265625"/>
      <use xlink:href="#DejaVuSans-32" x="860.888672"/>
      <use xlink:href="#DejaVuSans-29" x="924.511719"/>
     </g>
    </g>
    <g id="line2d_43">
     <path d="M 341.315125 173.723437 
L 361.315125 173.723437 
" style="fill: none; stroke-dasharray: 3.7,1.6; stroke-dashoffset: 0; stroke: #2ca02c"/>
    </g>
    <g id="line2d_44">
     <g>
      <use xlink:href="#m6986533a14" x="351.315125" y="173.723437" style="fill: #2ca02c; stroke: #000000; stroke-linejoin: miter"/>
     </g>
    </g>
    <g id="text_25">
     <!-- 100 mg sus (n=12) -->
     <g transform="translate(369.315125 177.223437) scale(0.1 -0.1)">
      <use xlink:href="#DejaVuSans-31"/>
      <use xlink:href="#DejaVuSans-30" x="63.623047"/>
      <use xlink:href="#DejaVuSans-30" x="127.246094"/>
      <use xlink:href="#DejaVuSans-20" x="190.869141"/>
      <use xlink:href="#DejaVuSans-6d" x="222.65625"/>
      <use xlink:href="#DejaVuSans-67" x="320.068359"/>
      <use xlink:href="#DejaVuSans-20" x="383.544922"/>
      <use xlink:href="#DejaVuSans-73" x="415.332031"/>
      <use xlink:href="#DejaVuSans-75" x="467.431641"/>
      <use xlink:href="#DejaVuSans-73" x="530.810547"/>
      <use xlink:href="#DejaVuSans-20" x="582.910156"/>
      <use xlink:href="#DejaVuSans-28" x="614.697266"/>
      <use xlink:href="#DejaVuSans-6e" x="653.710938"/>
      <use xlink:href="#DejaVuSans-3d" x="717.089844"/>
      <use xlink:href="#DejaVuSans-31" x="800.878906"/>
      <use xlink:href="#DejaVuSans-32" x="864.501953"/>
      <use xlink:href="#DejaVuSans-29" x="928.125"/>
     </g>
    </g>
    <g id="line2d_45">
     <path d="M 341.315125 188.401562 
L 361.315125 188.401562 
" style="fill: none; stroke: #d62728; stroke-width: 2; stroke-linecap: square"/>
    </g>
    <g id="line2d_46"/>
    <g id="text_26">
     <!-- Sim 200 -->
     <g transform="translate(369.315125 191.901562) scale(0.1 -0.1)">
      <use xlink:href="#DejaVuSans-53"/>
      <use xlink:href="#DejaVuSans-69" x="63.476562"/>
      <use xlink:href="#DejaVuSans-6d" x="91.259766"/>
      <use xlink:href="#DejaVuSans-20" x="188.671875"/>
      <use xlink:href="#DejaVuSans-32" x="220.458984"/>
      <use xlink:href="#DejaVuSans-30" x="284.082031"/>
      <use xlink:href="#DejaVuSans-30" x="347.705078"/>
     </g>
    </g>
    <g id="line2d_47">
     <path d="M 341.315125 203.079687 
L 361.315125 203.079687 
" style="fill: none; stroke-dasharray: 3.7,1.6; stroke-dashoffset: 0; stroke: #d62728"/>
    </g>
    <g id="line2d_48">
     <g>
      <use xlink:href="#m856c952a4a" x="351.315125" y="203.079687" style="fill: #d62728; stroke: #000000; stroke-linejoin: miter"/>
     </g>
    </g>
    <g id="text_27">
     <!-- 200 mg tab (n=12) -->
     <g transform="translate(369.315125 206.579687) scale(0.1 -0.1)">
      <use xlink:href="#DejaVuSans-32"/>
      <use xlink:href="#DejaVuSans-30" x="63.623047"/>
      <use xlink:href="#DejaVuSans-30" x="127.246094"/>
      <use xlink:href="#DejaVuSans-20" x="190.869141"/>
      <use xlink:href="#DejaVuSans-6d" x="222.65625"/>
      <use xlink:href="#DejaVuSans-67" x="320.068359"/>
      <use xlink:href="#DejaVuSans-20" x="383.544922"/>
      <use xlink:href="#DejaVuSans-74" x="415.332031"/>
      <use xlink:href="#DejaVuSans-61" x="454.541016"/>
      <use xlink:href="#DejaVuSans-62" x="515.820312"/>
      <use xlink:href="#DejaVuSans-20" x="579.296875"/>
      <use xlink:href="#DejaVuSans-28" x="611.083984"/>
      <use xlink:href="#DejaVuSans-6e" x="650.097656"/>
      <use xlink:href="#DejaVuSans-3d" x="713.476562"/>
      <use xlink:href="#DejaVuSans-31" x="797.265625"/>
      <use xlink:href="#DejaVuSans-32" x="860.888672"/>
      <use xlink:href="#DejaVuSans-29" x="924.511719"/>
     </g>
    </g>
    <g id="line2d_49">
     <path d="M 341.315125 217.757812 
L 361.315125 217.757812 
" style="fill: none; stroke-dasharray: 3.7,1.6; stroke-dashoffset: 0; stroke: #d62728"/>
    </g>
    <g id="line2d_50">
     <g>
      <use xlink:href="#m856c952a4a" x="351.315125" y="217.757812" style="fill: #d62728; stroke: #000000; stroke-linejoin: miter"/>
     </g>
    </g>
    <g id="text_28">
     <!-- 200 mg sus (n=12) -->
     <g transform="translate(369.315125 221.257812) scale(0.1 -0.1)">
      <use xlink:href="#DejaVuSans-32"/>
      <use xlink:href="#DejaVuSans-30" x="63.623047"/>
      <use xlink:href="#DejaVuSans-30" x="127.246094"/>
      <use xlink:href="#DejaVuSans-20" x="190.869141"/>
      <use xlink:href="#DejaVuSans-6d" x="222.65625"/>
      <use xlink:href="#DejaVuSans-67" x="320.068359"/>
      <use xlink:href="#DejaVuSans-20" x="383.544922"/>
      <use xlink:href="#DejaVuSans-73" x="415.332031"/>
      <use xlink:href="#DejaVuSans-75" x="467.431641"/>
      <use xlink:href="#DejaVuSans-73" x="530.810547"/>
      <use xlink:href="#DejaVuSans-20" x="582.910156"/>
      <use xlink:href="#DejaVuSans-28" x="614.697266"/>
      <use xlink:href="#DejaVuSans-6e" x="653.710938"/>
      <use xlink:href="#DejaVuSans-3d" x="717.089844"/>
      <use xlink:href="#DejaVuSans-31" x="800.878906"/>
      <use xlink:href="#DejaVuSans-32" x="864.501953"/>
      <use xlink:href="#DejaVuSans-29" x="928.125"/>
     </g>
    </g>
   </g>
  </g>
  <g id="text_29">
   <!-- Patel1984 Fig2 -->
   <g transform="translate(167.810438 26.196094) scale(0.25 -0.25)">
    <defs>
     <path id="DejaVuSans-Bold-50" d="M 588 4666 
L 2584 4666 
Q 3475 4666 3951 4270 
Q 4428 3875 4428 3144 
Q 4428 2409 3951 2014 
Q 3475 1619 2584 1619 
L 1791 1619 
L 1791 0 
L 588 0 
L 588 4666 
z
M 1791 3794 
L 1791 2491 
L 2456 2491 
Q 2806 2491 2997 2661 
Q 3188 2831 3188 3144 
Q 3188 3456 2997 3625 
Q 2806 3794 2456 3794 
L 1791 3794 
z
" transform="scale(0.015625)"/>
     <path id="DejaVuSans-Bold-61" d="M 2106 1575 
Q 1756 1575 1579 1456 
Q 1403 1338 1403 1106 
Q 1403 894 1545 773 
Q 1688 653 1941 653 
Q 2256 653 2472 879 
Q 2688 1106 2688 1447 
L 2688 1575 
L 2106 1575 
z
M 3816 1997 
L 3816 0 
L 2688 0 
L 2688 519 
Q 2463 200 2181 54 
Q 1900 -91 1497 -91 
Q 953 -91 614 226 
Q 275 544 275 1050 
Q 275 1666 698 1953 
Q 1122 2241 2028 2241 
L 2688 2241 
L 2688 2328 
Q 2688 2594 2478 2717 
Q 2269 2841 1825 2841 
Q 1466 2841 1156 2769 
Q 847 2697 581 2553 
L 581 3406 
Q 941 3494 1303 3539 
Q 1666 3584 2028 3584 
Q 2975 3584 3395 3211 
Q 3816 2838 3816 1997 
z
" transform="scale(0.015625)"/>
     <path id="DejaVuSans-Bold-31" d="M 750 831 
L 1813 831 
L 1813 3847 
L 722 3622 
L 722 4441 
L 1806 4666 
L 2950 4666 
L 2950 831 
L 4013 831 
L 4013 0 
L 750 0 
L 750 831 
z
" transform="scale(0.015625)"/>
     <path id="DejaVuSans-Bold-39" d="M 641 103 
L 641 966 
Q 928 831 1190 764 
Q 1453 697 1709 697 
Q 2247 697 2547 995 
Q 2847 1294 2900 1881 
Q 2688 1725 2447 1647 
Q 2206 1569 1925 1569 
Q 1209 1569 770 1986 
Q 331 2403 331 3084 
Q 331 3838 820 4291 
Q 1309 4744 2131 4744 
Q 3044 4744 3544 4128 
Q 4044 3513 4044 2388 
Q 4044 1231 3459 570 
Q 2875 -91 1856 -91 
Q 1528 -91 1228 -42 
Q 928 6 641 103 
z
M 2125 2350 
Q 2441 2350 2600 2554 
Q 2759 2759 2759 3169 
Q 2759 3575 2600 3781 
Q 2441 3988 2125 3988 
Q 1809 3988 1650 3781 
Q 1491 3575 1491 3169 
Q 1491 2759 1650 2554 
Q 1809 2350 2125 2350 
z
" transform="scale(0.015625)"/>
     <path id="DejaVuSans-Bold-38" d="M 2228 2088 
Q 1891 2088 1709 1903 
Q 1528 1719 1528 1375 
Q 1528 1031 1709 848 
Q 1891 666 2228 666 
Q 2563 666 2741 848 
Q 2919 1031 2919 1375 
Q 2919 1722 2741 1905 
Q 2563 2088 2228 2088 
z
M 1350 2484 
Q 925 2613 709 2878 
Q 494 3144 494 3541 
Q 494 4131 934 4440 
Q 1375 4750 2228 4750 
Q 3075 4750 3515 4442 
Q 3956 4134 3956 3541 
Q 3956 3144 3739 2878 
Q 3522 2613 3097 2484 
Q 3572 2353 3814 2058 
Q 4056 1763 4056 1313 
Q 4056 619 3595 264 
Q 3134 -91 2228 -91 
Q 1319 -91 855 264 
Q 391 619 391 1313 
Q 391 1763 633 2058 
Q 875 2353 1350 2484 
z
M 1631 3419 
Q 1631 3141 1786 2991 
Q 1941 2841 2228 2841 
Q 2509 2841 2662 2991 
Q 2816 3141 2816 3419 
Q 2816 3697 2662 3845 
Q 2509 3994 2228 3994 
Q 1941 3994 1786 3844 
Q 1631 3694 1631 3419 
z
" transform="scale(0.015625)"/>
     <path id="DejaVuSans-Bold-34" d="M 2356 3675 
L 1038 1722 
L 2356 1722 
L 2356 3675 
z
M 2156 4666 
L 3494 4666 
L 3494 1722 
L 4159 1722 
L 4159 850 
L 3494 850 
L 3494 0 
L 2356 0 
L 2356 850 
L 288 850 
L 288 1881 
L 2156 4666 
z
" transform="scale(0.015625)"/>
     <path id="DejaVuSans-Bold-46" d="M 588 4666 
L 3834 4666 
L 3834 3756 
L 1791 3756 
L 1791 2888 
L 3713 2888 
L 3713 1978 
L 1791 1978 
L 1791 0 
L 588 0 
L 588 4666 
z
" transform="scale(0.015625)"/>
     <path id="DejaVuSans-Bold-67" d="M 2919 594 
Q 2688 288 2409 144 
Q 2131 0 1766 0 
Q 1125 0 706 504 
Q 288 1009 288 1791 
Q 288 2575 706 3076 
Q 1125 3578 1766 3578 
Q 2131 3578 2409 3434 
Q 2688 3291 2919 2981 
L 2919 3500 
L 4044 3500 
L 4044 353 
Q 4044 -491 3511 -936 
Q 2978 -1381 1966 -1381 
Q 1638 -1381 1331 -1331 
Q 1025 -1281 716 -1178 
L 716 -306 
Q 1009 -475 1290 -558 
Q 1572 -641 1856 -641 
Q 2406 -641 2662 -400 
Q 2919 -159 2919 353 
L 2919 594 
z
M 2181 2772 
Q 1834 2772 1640 2515 
Q 1447 2259 1447 1791 
Q 1447 1309 1634 1061 
Q 1822 813 2181 813 
Q 2531 813 2725 1069 
Q 2919 1325 2919 1791 
Q 2919 2259 2725 2515 
Q 2531 2772 2181 2772 
z
" transform="scale(0.015625)"/>
     <path id="DejaVuSans-Bold-32" d="M 1844 884 
L 3897 884 
L 3897 0 
L 506 0 
L 506 884 
L 2209 2388 
Q 2438 2594 2547 2791 
Q 2656 2988 2656 3200 
Q 2656 3528 2436 3728 
Q 2216 3928 1850 3928 
Q 1569 3928 1234 3808 
Q 900 3688 519 3450 
L 519 4475 
Q 925 4609 1322 4679 
Q 1719 4750 2100 4750 
Q 2938 4750 3402 4381 
Q 3866 4013 3866 3353 
Q 3866 2972 3669 2642 
Q 3472 2313 2841 1759 
L 1844 884 
z
" transform="scale(0.015625)"/>
    </defs>
    <use xlink:href="#DejaVuSans-Bold-50"/>
    <use xlink:href="#DejaVuSans-Bold-61" x="70.666016"/>
    <use xlink:href="#DejaVuSans-Bold-74" x="138.146484"/>
    <use xlink:href="#DejaVuSans-Bold-65" x="185.949219"/>
    <use xlink:href="#DejaVuSans-Bold-6c" x="253.771484"/>
    <use xlink:href="#DejaVuSans-Bold-31" x="288.048828"/>
    <use xlink:href="#DejaVuSans-Bold-39" x="357.628906"/>
    <use xlink:href="#DejaVuSans-Bold-38" x="427.208984"/>
    <use xlink:href="#DejaVuSans-Bold-34" x="496.789062"/>
    <use xlink:href="#DejaVuSans-Bold-20" x="566.369141"/>
    <use xlink:href="#DejaVuSans-Bold-46" x="601.183594"/>
    <use xlink:href="#DejaVuSans-Bold-69" x="669.494141"/>
    <use xlink:href="#DejaVuSans-Bold-67" x="703.771484"/>
    <use xlink:href="#DejaVuSans-Bold-32" x="775.353516"/>
   </g>
  </g>
 </g>
 <defs>
  <clipPath id="p5780798d6b">
   <rect x="84.427625" y="43.2" width="390.6" height="277.2"/>
  </clipPath>
 </defs>
</svg>
